<svg xmlns="http://www.w3.org/2000/svg" width="3000" height="3000" fill="none" viewBox="0 0 3000 3000">
  <g class="Fourth Floor">
    <g class="Path">
      <g class="Path">
        <g class="Path">
          <path fill="#262A34" d="M1555 2527h-16v-8h16z" class="Rectangle 202"/>
        </g>
        <g class="Path">
          <path fill="#262A34" d="M1452 2527h-16v-8h16z" class="Rectangle 202"/>
        </g>
        <g class="Path">
          <path fill="#262A34" d="M1383 2527h-16v-8h16z" class="Rectangle 202"/>
        </g>
        <g class="Path">
          <path fill="#262A34" d="M1315 2527h-16v-8h16z" class="Rectangle 202"/>
        </g>
        <g class="Path">
          <path fill="#262A34" d="M1242 2527h-16v-8h16z" class="Rectangle 202"/>
        </g>
        <g class="Path">
          <path fill="#262A34" d="M1142 2527h-16v-8h16z" class="Rectangle 202"/>
        </g>
        <g class="Path">
          <path fill="#262A34" d="M1015 2527h-16v-8h16z" class="Rectangle 202"/>
        </g>
        <g class="Path">
          <path fill="#262A34" d="M885 2527h-16v-8h16z" class="Rectangle 202"/>
        </g>
        <g class="Path">
          <path fill="#262A34" d="M762 2527h-16v-8h16z" class="Rectangle 202"/>
        </g>
        <g class="Path">
          <path fill="#262A34" d="M1750 2541v16h-8v-16z" class="Rectangle 202"/>
        </g>
        <g class="Path">
          <path fill="#262A34" d="M1683 2573h-16v-8h16z" class="Rectangle 202"/>
        </g>
        <g class="Path">
          <path fill="#262A34" d="M2482 399h-16v-8h16z" class="Rectangle 202"/>
        </g>
        <g class="Path">
          <path fill="#262A34" d="M1566 2573h-16v-8h16z" class="Rectangle 202"/>
        </g>
        <g class="Path">
          <path fill="#262A34" d="M1470 2573h-16v-8h16z" class="Rectangle 202"/>
        </g>
        <g class="Path">
          <path fill="#262A34" d="M1355 2573h-16v-8h16z" class="Rectangle 202"/>
        </g>
        <g class="Path">
          <path fill="#262A34" d="M1253 2573h-16v-8h16z" class="Rectangle 202"/>
        </g>
        <g class="Path">
          <path fill="#262A34" d="M1177 2573h-16v-8h16z" class="Rectangle 202"/>
        </g>
        <g class="Path">
          <path fill="#262A34" d="M1074 2573h-16v-8h16z" class="Rectangle 202"/>
        </g>
        <g class="Path">
          <path fill="#262A34" d="M946 2573h-16v-8h16z" class="Rectangle 202"/>
        </g>
        <g class="Path">
          <path fill="#262A34" d="M847 2579h-16v-8h16z" class="Rectangle 202"/>
        </g>
        <g class="Path">
          <path fill="#262A34" d="M773 2579h-16v-8h16z" class="Rectangle 202"/>
        </g>
        <g class="Path">
          <path fill="#262A34" d="M701 2579h-16v-8h16z" class="Rectangle 202"/>
        </g>
        <g class="Path">
          <path fill="#262A34" d="M606 2579h-16v-8h16z" class="Rectangle 202"/>
        </g>
        <g class="Path">
          <path fill="#262A34" d="M509 2579h-16v-8h16z" class="Rectangle 202"/>
        </g>
        <g class="Path">
          <path fill="#262A34" d="M524 2347v16h-8v-16z" class="Rectangle 202"/>
        </g>
        <g class="Path">
          <path fill="#262A34" d="M524 2233v16h-8v-16z" class="Rectangle 202"/>
        </g>
        <g class="Path">
          <path fill="#262A34" d="M524 2119v16h-8v-16z" class="Rectangle 202"/>
        </g>
        <g class="Path">
          <path fill="#262A34" d="M524 2030v16h-8v-16z" class="Rectangle 202"/>
        </g>
        <g class="Path">
          <path fill="#262A34" d="M524 1941v16h-8v-16z" class="Rectangle 202"/>
        </g>
        <g class="Path">
          <path fill="#262A34" d="M524 1852v16h-8v-16z" class="Rectangle 202"/>
        </g>
        <g class="Path">
          <path fill="#262A34" d="M524 1763v16h-8v-16z" class="Rectangle 202"/>
        </g>
        <g class="Path">
          <path fill="#262A34" d="M524 1674v16h-8v-16z" class="Rectangle 202"/>
        </g>
        <g class="Path">
          <path fill="#262A34" d="M524 1585v16h-8v-16z" class="Rectangle 202"/>
        </g>
        <g class="Path">
          <path fill="#262A34" d="M524 1496v16h-8v-16z" class="Rectangle 202"/>
        </g>
        <g class="Path">
          <path fill="#262A34" d="M524 1407v16h-8v-16z" class="Rectangle 202"/>
        </g>
        <g class="Path">
          <path fill="#262A34" d="M524 1318v16h-8v-16z" class="Rectangle 202"/>
        </g>
        <g class="Path">
          <path fill="#262A34" d="M524 1226v16h-8v-16z" class="Rectangle 202"/>
        </g>
        <g class="Path">
          <path fill="#262A34" d="M567 1243v16h-8v-16z" class="Rectangle 202"/>
        </g>
        <g class="Path">
          <path fill="#262A34" d="M567 1343v16h-8v-16z" class="Rectangle 202"/>
        </g>
        <g class="Path">
          <path fill="#262A34" d="M567 1467v16h-8v-16z" class="Rectangle 202"/>
        </g>
        <g class="Path">
          <path fill="#262A34" d="M567 1598v16h-8v-16z" class="Rectangle 202"/>
        </g>
        <g class="Path">
          <path fill="#262A34" d="M567 1717v16h-8v-16z" class="Rectangle 202"/>
        </g>
        <g class="Path">
          <path fill="#262A34" d="M567 1845v16h-8v-16z" class="Rectangle 202"/>
        </g>
        <g class="Path">
          <path fill="#262A34" d="M567 1957v16h-8v-16z" class="Rectangle 202"/>
        </g>
        <g class="Path">
          <path fill="#262A34" d="M567 2069v16h-8v-16z" class="Rectangle 202"/>
        </g>
        <g class="Path">
          <path fill="#262A34" d="M567 2164v16h-8v-16z" class="Rectangle 202"/>
        </g>
        <g class="Path">
          <path fill="#262A34" d="M567 2240v16h-8v-16z" class="Rectangle 202"/>
        </g>
        <g class="Path">
          <path fill="#262A34" d="M428 2579h-16v-8h16z" class="Rectangle 202"/>
        </g>
        <g class="Path">
          <path fill="#262A34" d="M2582 432v16h-8v-16z" class="Rectangle 202"/>
        </g>
        <g class="Path">
          <path fill="#262A34" d="M2582 614v16h-8v-16z" class="Rectangle 202"/>
        </g>
        <g class="Path">
          <path fill="#262A34" d="M2642 719v16h-8v-16z" class="Rectangle 202"/>
        </g>
        <g class="Path">
          <path fill="#262A34" d="M2603 937v16h-8v-16z" class="Rectangle 202"/>
        </g>
        <g class="Path">
          <path fill="#262A34" d="M2603 1018v16h-8v-16z" class="Rectangle 202"/>
        </g>
        <g class="Path">
          <path fill="#262A34" d="M2603 1086v16h-8v-16z" class="Rectangle 202"/>
        </g>
        <g class="Path">
          <path fill="#262A34" d="M2603 1167v16h-8v-16z" class="Rectangle 202"/>
        </g>
        <g class="Path">
          <path fill="#262A34" d="M2642 1169v16h-8v-16z" class="Rectangle 202"/>
        </g>
        <g class="Path">
          <path fill="#262A34" d="M2642 1093v16h-8v-16z" class="Rectangle 202"/>
        </g>
        <g class="Path">
          <path fill="#262A34" d="M2642 1015v16h-8v-16z" class="Rectangle 202"/>
        </g>
      </g>
      <g class="BigAreaPath">
        <g class="BigAreaPath">
          <rect width="1221" height="41" x="524" y="2524" fill="#262A34" class="BigAreaPath" rx="12"/>
        </g>
        <g class="BigAreaPath">
          <rect width="499" height="29" x="380" y="2542" fill="#262A34" class="BigAreaPath" rx="12"/>
        </g>
        <g class="BigAreaPath">
          <rect width="35" height="1359" x="524" y="1191" fill="#262A34" class="BigAreaPath" rx="12"/>
        </g>
        <g class="BigAreaPath">
          <rect width="17" height="137" x="681" y="2393" fill="#262A34" class="BigAreaPath" rx="8.5"/>
        </g>
        <g class="BigAreaPath">
          <rect width="134" height="67" x="564" y="2393" fill="#262A34" class="BigAreaPath" rx="12"/>
        </g>
        <g class="BigAreaPath">
          <rect width="204" height="168" x="2373" y="396" fill="#262A34" class="BigAreaPath" rx="12"/>
        </g>
        <g class="BigAreaPath">
          <rect width="117" height="151" x="2460" y="540" fill="#262A34" class="BigAreaPath" rx="12"/>
        </g>
        <g class="BigAreaPath">
          <rect width="130" height="214" x="2373" y="684" fill="#262A34" class="BigAreaPath" rx="12"/>
        </g>
        <g class="BigAreaPath">
          <rect width="177" height="218" x="2460" y="680" fill="#262A34" class="BigAreaPath" rx="12"/>
        </g>
        <g class="BigAreaPath">
          <rect width="143" height="200" x="2624" y="775" fill="#262A34" class="BigAreaPath" rx="12"/>
        </g>
        <g class="BigAreaPath">
          <rect width="37" height="345" x="2600" y="873" fill="#262A34" class="BigAreaPath" rx="12"/>
        </g>
        <g class="BigAreaPath">
          <rect width="40" height="36" x="2435" y="606" fill="#262A34" class="BigAreaPath" rx="12"/>
        </g>
        <g class="BigAreaPath">
          <rect width="40" height="36" x="651" y="2474" fill="#262A34" class="BigAreaPath" rx="12"/>
        </g>
        <g class="BigAreaPath">
          <rect width="40" height="36" x="539" y="2319" fill="#262A34" class="BigAreaPath" rx="12"/>
        </g>
        <g class="BigAreaPath">
          <rect width="40" height="36" x="1624" y="2539" fill="#262A34" class="BigAreaPath" rx="12" transform="rotate(-90 1624 2539)"/>
        </g>
        <g class="BigAreaPath">
          <rect width="40" height="36" x="1689" y="2539" fill="#262A34" class="BigAreaPath" rx="12" transform="rotate(-90 1689 2539)"/>
        </g>
      </g>
    </g>
    <g class="FourthFloor">
      <g class="Room">
        <rect width="185" height="243" x="2582" y="318" fill="#8E96FF" rx="12"/>
        <path fill="#fff" d="M2653.23 400.81v-3.67h2.99c1.12 0 2.04-.29 2.73-.86a2.76 2.76 0 0 0 1.07-2.25c0-.93-.34-1.65-1-2.19a4.28 4.28 0 0 0-2.74-.8c-1.17 0-2.11.3-2.83.88a3.14 3.14 0 0 0-1.17 2.36h-4.36a6.5 6.5 0 0 1 2.39-5.05c1.53-1.24 3.57-1.86 6.1-1.86 2.41 0 4.37.57 5.86 1.7a5.26 5.26 0 0 1 2.25 4.41 5.27 5.27 0 0 1-4.25 5.16v.13c1.52.16 2.72.75 3.62 1.75.9.99 1.34 2.24 1.34 3.75a5.9 5.9 0 0 1-2.53 4.89c-1.67 1.28-3.81 1.92-6.4 1.92-2.59 0-4.69-.64-6.3-1.9a6.64 6.64 0 0 1-2.58-5.09h4.52a3 3 0 0 0 1.29 2.32c.8.57 1.83.86 3.11.86a4.5 4.5 0 0 0 2.93-.91 2.96 2.96 0 0 0 1.12-2.4 2.7 2.7 0 0 0-1.09-2.3 4.86 4.86 0 0 0-3.03-.85h-3.04Zm21.25 6.66a3.9 3.9 0 0 0 2.57-.88 2.79 2.79 0 0 0 1.06-2.23v-1.22l-3.53.22c-.86.06-1.52.27-1.99.64-.45.37-.68.84-.68 1.44 0 .62.23 1.12.7 1.48.47.37 1.09.55 1.87.55Zm-1.5 3.3a5.8 5.8 0 0 1-4.01-1.43 4.68 4.68 0 0 1-1.59-3.65c0-1.52.56-2.72 1.68-3.58 1.13-.87 2.74-1.36 4.83-1.49l4.22-.25v-1.1c0-.77-.26-1.38-.77-1.82a3 3 0 0 0-2.04-.65c-.84 0-1.52.18-2.05.56-.52.37-.84.88-.95 1.51h-4.18a5.1 5.1 0 0 1 2.11-3.96c1.33-1.01 3.08-1.52 5.27-1.52 2.15 0 3.86.51 5.16 1.53a4.92 4.92 0 0 1 1.93 4.06v11.52h-4.4v-2.56h-.1a4.91 4.91 0 0 1-2.09 2.08c-.94.5-1.94.75-3.02.75Zm18.96-8.3c-.08 1.3-.23 2.44-.46 3.4a9.04 9.04 0 0 1-1 2.57 4.32 4.32 0 0 1-1.75 1.7 5.5 5.5 0 0 1-2.59.56c-.6 0-1.09-.07-1.45-.22v-3.84c.29.07.62.11.98.11.74 0 1.27-.4 1.6-1.19.33-.79.54-1.92.62-3.39l.47-8.42h12.7v16.75h-4.54v-13.31h-4.25l-.33 5.28Zm-85.08 54.23c-1 0-1.57-.01-1.72-.04v-3.52c.09.02.47.03 1.14.03.84 0 1.49-.14 1.92-.44.44-.28.74-.75.89-1.42l.08-.39c.05-.25.07-.38.06-.4l-5.82-16.77h5.01l3.56 13.1h.08l3.56-13.1h4.82l-5.77 17.13c-.72 2.14-1.66 3.65-2.84 4.51-1.17.88-2.82 1.31-4.97 1.31Zm30.39-6.2h-4.55v-6.97h-.17c-1.03 1.12-2.46 1.67-4.3 1.67-1.9 0-3.4-.55-4.5-1.65a6.2 6.2 0 0 1-1.64-4.53v-5.27h4.55v4.6c0 .97.26 1.72.77 2.26.52.54 1.24.81 2.15.81 1.42 0 2.47-.44 3.14-1.33v-6.34h4.55v16.75Zm10.8-13.73c-.99 0-1.82.33-2.49 1.01a4.13 4.13 0 0 0-1.11 2.6h7.11a3.89 3.89 0 0 0-1.04-2.61c-.64-.67-1.46-1-2.47-1Zm3.57 8.6h4.19a5.83 5.83 0 0 1-2.47 3.99 8.6 8.6 0 0 1-5.17 1.5c-2.57 0-4.59-.77-6.06-2.31-1.46-1.55-2.19-3.66-2.19-6.35 0-2.67.73-4.8 2.19-6.4 1.46-1.6 3.42-2.4 5.89-2.4 2.43 0 4.36.75 5.8 2.27 1.43 1.52 2.15 3.56 2.15 6.11v1.4h-11.54v.27c0 1.2.35 2.18 1.04 2.93a3.7 3.7 0 0 0 2.8 1.1 4 4 0 0 0 2.16-.56 2.8 2.8 0 0 0 1.21-1.55Zm14.93 5.49c-2.72 0-4.82-.84-6.28-2.53-1.46-1.7-2.19-4.17-2.19-7.42 0-3.1.35-5.63 1.06-7.58a8.35 8.35 0 0 1 3.09-4.25 9.76 9.76 0 0 1 5.15-1.42l1.95-.05a19.6 19.6 0 0 0 2.73-.27 6.81 6.81 0 0 0 1.67-.42v3.53c-.14.14-.61.28-1.39.44-.78.16-1.69.25-2.73.28l-1.84.06c-2.03.07-3.49.6-4.39 1.58-.91.98-1.5 2.57-1.79 4.77h.13c1.08-2.1 2.97-3.16 5.66-3.16a7.1 7.1 0 0 1 5.42 2.16c1.35 1.43 2.03 3.35 2.03 5.78 0 2.63-.75 4.71-2.24 6.23-1.48 1.51-3.49 2.27-6.04 2.27Zm-.08-3.6c1.17 0 2.07-.41 2.72-1.24.64-.84.97-2.02.97-3.55 0-1.47-.33-2.61-.99-3.42a3.24 3.24 0 0 0-2.7-1.24 3.3 3.3 0 0 0-2.74 1.24 5.35 5.35 0 0 0-.98 3.42c0 1.53.32 2.71.97 3.55a3.3 3.3 0 0 0 2.75 1.25Zm22.01 3.24v-6.86h-6.43v6.86h-4.55v-16.75h4.55v6.44h6.43v-6.44h4.55v16.75h-4.55Zm21.58-1.95c-1.49 1.54-3.51 2.3-6.06 2.3s-4.57-.77-6.06-2.32c-1.49-1.55-2.24-3.7-2.24-6.42 0-2.7.75-4.82 2.25-6.38 1.51-1.56 3.53-2.34 6.05-2.34 2.53 0 4.55.78 6.05 2.34 1.5 1.56 2.25 3.68 2.25 6.38 0 2.74-.75 4.88-2.24 6.44Zm-6.06-1.18a3.1 3.1 0 0 0 2.67-1.37c.66-.92.99-2.2.99-3.88 0-1.64-.33-2.93-.99-3.85a3.1 3.1 0 0 0-2.67-1.4c-1.12 0-2.02.47-2.69 1.4a6.64 6.64 0 0 0-.98 3.86c0 1.66.33 2.95.98 3.87a3.13 3.13 0 0 0 2.69 1.38Zm22.61-10.18h-7.13v13.31h-4.54v-16.75h11.67v3.44Zm16.08 11.36c-1.49 1.54-3.51 2.3-6.07 2.3-2.55 0-4.57-.77-6.06-2.32-1.49-1.55-2.23-3.7-2.23-6.42 0-2.7.75-4.82 2.25-6.38 1.51-1.56 3.52-2.34 6.04-2.34 2.54 0 4.55.78 6.05 2.34 1.5 1.56 2.25 3.68 2.25 6.38 0 2.74-.74 4.88-2.23 6.44Zm-6.07-1.18c1.13 0 2.02-.45 2.68-1.37.65-.92.98-2.2.98-3.88a6.6 6.6 0 0 0-.98-3.85 3.12 3.12 0 0 0-2.68-1.4c-1.12 0-2.02.47-2.68 1.4a6.56 6.56 0 0 0-.99 3.86c0 1.66.33 2.95.99 3.87a3.12 3.12 0 0 0 2.68 1.38Zm-97.71 32.1h-4.27a3.36 3.36 0 0 0-1.12-1.81 3.17 3.17 0 0 0-2.08-.7 3.1 3.1 0 0 0-2.67 1.38 6.4 6.4 0 0 0-.97 3.77c0 1.62.32 2.9.97 3.81.65.9 1.55 1.36 2.68 1.36a3.3 3.3 0 0 0 2.1-.65 3.3 3.3 0 0 0 1.12-1.85h4.25a6.38 6.38 0 0 1-2.33 4.44 7.94 7.94 0 0 1-5.18 1.64c-2.52 0-4.52-.78-6-2.34-1.47-1.57-2.21-3.7-2.21-6.41 0-2.67.74-4.79 2.21-6.36 1.48-1.57 3.47-2.36 5.97-2.36 2.11 0 3.83.56 5.17 1.69a6.62 6.62 0 0 1 2.36 4.39Zm16.29 9.08c-1.49 1.54-3.51 2.3-6.06 2.3s-4.57-.77-6.06-2.32c-1.49-1.55-2.24-3.7-2.24-6.42 0-2.7.75-4.82 2.25-6.38 1.51-1.56 3.53-2.34 6.05-2.34 2.53 0 4.55.78 6.05 2.34 1.5 1.56 2.25 3.68 2.25 6.38 0 2.74-.75 4.88-2.24 6.44Zm-6.06-1.18a3.1 3.1 0 0 0 2.67-1.37c.66-.92.99-2.2.99-3.88 0-1.64-.33-2.93-.99-3.85a3.09 3.09 0 0 0-2.67-1.4c-1.12 0-2.02.47-2.69 1.4a6.64 6.64 0 0 0-.98 3.86c0 1.66.33 2.95.98 3.87a3.15 3.15 0 0 0 2.69 1.38Zm18.11-10.73h-2.7v3.9h2.47c.83 0 1.46-.18 1.9-.5.45-.35.67-.84.67-1.48 0-.61-.2-1.09-.61-1.42-.4-.33-.98-.5-1.73-.5Zm0 6.53h-2.7v4.44h2.9c.9 0 1.58-.19 2.05-.56.48-.39.72-.95.72-1.68 0-1.46-.99-2.2-2.97-2.2Zm-7.17 7.33v-16.75h8.39c1.74 0 3.1.38 4.09 1.13a3.65 3.65 0 0 1 1.49 3.09c0 .9-.29 1.7-.88 2.39a3.4 3.4 0 0 1-2.15 1.23v.13c1.12.13 2.03.56 2.73 1.28.7.72 1.05 1.6 1.05 2.66a4.3 4.3 0 0 1-1.68 3.53c-1.1.87-2.6 1.31-4.5 1.31h-8.54Zm24.98-13.73c-.99 0-1.82.33-2.48 1.01a4.02 4.02 0 0 0-1.11 2.6h7.11a3.85 3.85 0 0 0-1.05-2.61c-.63-.67-1.46-1-2.47-1Zm3.58 8.6h4.19a5.83 5.83 0 0 1-2.47 3.99 8.62 8.62 0 0 1-5.17 1.5c-2.58 0-4.6-.77-6.07-2.31-1.45-1.55-2.18-3.66-2.18-6.35 0-2.67.73-4.8 2.18-6.4 1.46-1.6 3.43-2.4 5.9-2.4 2.42 0 4.36.75 5.79 2.27 1.44 1.52 2.16 3.56 2.16 6.11v1.4h-11.55v.27c0 1.2.35 2.18 1.05 2.93a3.7 3.7 0 0 0 2.8 1.1c.83 0 1.55-.18 2.15-.56.61-.38 1.01-.9 1.22-1.55Zm19.98-11.62v3.44h-4.98v13.31h-4.55v-13.31h-5v-3.44h14.53Zm8.49 13.72c1.01 0 1.86-.3 2.56-.88a2.79 2.79 0 0 0 1.06-2.23v-1.22l-3.53.22c-.85.06-1.51.27-1.98.64-.46.37-.69.84-.69 1.44 0 .62.24 1.12.7 1.48a3 3 0 0 0 1.88.55Zm-1.5 3.3a5.82 5.82 0 0 1-4.02-1.43 4.68 4.68 0 0 1-1.59-3.65c0-1.52.56-2.72 1.69-3.58 1.12-.87 2.73-1.36 4.83-1.49l4.21-.25v-1.1c0-.77-.25-1.38-.76-1.82a3 3 0 0 0-2.05-.65c-.83 0-1.51.18-2.04.56a2.3 2.3 0 0 0-.96 1.51h-4.17a5.08 5.08 0 0 1 2.11-3.96c1.32-1.01 3.08-1.52 5.26-1.52 2.15 0 3.87.51 5.16 1.53a4.93 4.93 0 0 1 1.94 4.06v11.52h-4.41v-2.56h-.09a5 5 0 0 1-2.1 2.08c-.93.5-1.94.75-3.01.75Z" class="А-5"/>
      </g>
      <g class="Room">
        <rect width="201" height="73" x="2373" y="318" fill="#8E96FF" rx="12"/>
        <path fill="#fff" d="M2446.56 365.5v-4.02h-11.22v-4.01c1.84-3.5 4.85-8.34 9.05-14.52h6.66v14.75h2.93v3.78h-2.93v4.02h-4.49Zm-7.08-7.78v.12h7.18V346.3h-.1a168.92 168.92 0 0 0-4.18 6.36 72.67 72.67 0 0 0-2.9 5.06Zm25.75 8.28a9.2 9.2 0 0 1-6-1.94 6.53 6.53 0 0 1-2.46-5.01h4.35a3.5 3.5 0 0 0 1.35 2.32c.77.6 1.7.9 2.8.9a4.1 4.1 0 0 0 3-1.16 4.08 4.08 0 0 0 1.17-3.02 4.2 4.2 0 0 0-1.16-3.06 3.97 3.97 0 0 0-2.98-1.19c-.86 0-1.63.2-2.33.57-.69.36-1.23.87-1.63 1.51h-4.22l1.11-12.97h14.35v3.75h-10.64l-.52 6.18h.1a4.75 4.75 0 0 1 2-1.82 6.64 6.64 0 0 1 3.01-.65c2.16 0 3.93.71 5.31 2.14a7.4 7.4 0 0 1 2.1 5.42c0 2.38-.81 4.32-2.42 5.81-1.61 1.48-3.7 2.22-6.29 2.22Zm20 0a9.2 9.2 0 0 1-6-1.94 6.53 6.53 0 0 1-2.46-5.01h4.35a3.5 3.5 0 0 0 1.35 2.32c.77.6 1.7.9 2.8.9a4.1 4.1 0 0 0 3-1.16 4.08 4.08 0 0 0 1.17-3.02 4.2 4.2 0 0 0-1.16-3.06 3.97 3.97 0 0 0-2.98-1.19c-.86 0-1.63.2-2.33.57-.69.36-1.23.87-1.63 1.51h-4.22l1.11-12.97h14.35v3.75h-10.64l-.52 6.18h.1a4.75 4.75 0 0 1 2-1.82 6.64 6.64 0 0 1 3.01-.65c2.16 0 3.93.71 5.31 2.14a7.4 7.4 0 0 1 2.1 5.42c0 2.38-.81 4.32-2.42 5.81-1.61 1.48-3.7 2.22-6.29 2.22Zm17.85-3.53c1.01 0 1.86-.3 2.56-.88a2.79 2.79 0 0 0 1.06-2.23v-1.22l-3.53.22c-.85.06-1.51.27-1.98.64-.46.37-.69.84-.69 1.44 0 .62.23 1.12.7 1.48a3 3 0 0 0 1.88.55Zm-1.5 3.3a5.8 5.8 0 0 1-4.02-1.43 4.68 4.68 0 0 1-1.59-3.65c0-1.52.56-2.72 1.69-3.58 1.12-.87 2.73-1.36 4.82-1.49l4.22-.25v-1.1c0-.77-.25-1.38-.76-1.82a3 3 0 0 0-2.05-.65 3.5 3.5 0 0 0-2.05.56c-.52.37-.83.88-.95 1.51h-4.17a5.08 5.08 0 0 1 2.11-3.96c1.32-1.01 3.08-1.52 5.26-1.52 2.15 0 3.87.51 5.16 1.53a4.93 4.93 0 0 1 1.94 4.06v11.52h-4.41v-2.56h-.09a5 5 0 0 1-2.1 2.08c-.93.5-1.94.75-3.01.75Z" class="А-5"/>
      </g>
      <g class="Room">
        <rect width="139" height="131" x="380" y="2175" fill="#8E96FF" rx="12"/>
        <path fill="#fff" d="M433.7 2251.5v-4.02h-11.22v-4.01c1.84-3.5 4.85-8.34 9.05-14.52h6.66v14.75h2.94v3.78h-2.94v4.02h-4.49Zm-7.07-7.78v.12h7.17v-11.54h-.1a170.75 170.75 0 0 0-4.18 6.36 71.38 71.38 0 0 0-2.9 5.06Zm22.56-2.06v-3.41h2.73c1.07 0 1.94-.29 2.61-.87.67-.59 1-1.34 1-2.27 0-.93-.32-1.66-.95-2.2a3.94 3.94 0 0 0-2.69-.83c-1.1 0-1.98.3-2.66.89a3.28 3.28 0 0 0-1.1 2.37h-4.35a6.53 6.53 0 0 1 2.4-5.01c1.5-1.25 3.48-1.88 5.91-1.88 2.36 0 4.26.56 5.7 1.66a5.2 5.2 0 0 1 2.2 4.36 5 5 0 0 1-1.29 3.47 5.74 5.74 0 0 1-3.37 1.79v.1c1.7.14 3.04.7 4.03 1.67 1 .96 1.5 2.21 1.5 3.77a5.8 5.8 0 0 1-2.49 4.87c-1.64 1.24-3.77 1.86-6.39 1.86-2.53 0-4.57-.64-6.14-1.91a6.7 6.7 0 0 1-2.5-5.04h4.52c.07.96.48 1.72 1.22 2.29.75.58 1.74.86 2.97.86a4.5 4.5 0 0 0 2.89-.9 2.86 2.86 0 0 0 1.12-2.33 2.9 2.9 0 0 0-1.1-2.42 4.58 4.58 0 0 0-3-.89h-2.77Zm20.31 9.84v-18.22h-.1l-5.74 3.97V2233l5.82-4.05h4.7v22.55h-4.68Z" class="А-5"/>
      </g>
      <g class="Room">
        <rect width="139" height="81" x="380" y="2314" fill="#8E96FF" rx="12"/>
        <path fill="#fff" d="M431.48 2365.5v-4.02h-11.21v-4.01c1.83-3.5 4.85-8.34 9.04-14.52h6.66v14.75h2.94v3.78h-2.94v4.02h-4.49Zm-7.07-7.78v.12h7.17v-11.54h-.1a170.75 170.75 0 0 0-4.18 6.36 71.38 71.38 0 0 0-2.9 5.06Zm16.8-7.99c0-2.13.78-3.88 2.32-5.23a8.8 8.8 0 0 1 6.02-2.05c2.36 0 4.29.62 5.78 1.85a5.76 5.76 0 0 1 2.23 4.67 6.3 6.3 0 0 1-1.28 3.86 20.3 20.3 0 0 1-1.33 1.7c-.44.5-1.03 1.11-1.75 1.83l-5.5 5.3v.09h10.18v3.75h-16.4v-3.17l8.5-8.19a16.5 16.5 0 0 0 2.35-2.76c.43-.7.64-1.44.64-2.22 0-.86-.34-1.58-1.02-2.16a3.8 3.8 0 0 0-2.56-.88c-1.1 0-2 .35-2.72 1.04a3.36 3.36 0 0 0-1.08 2.57v.08h-4.37v-.08Zm27.85 16.27a9 9 0 0 1-5.54-1.73 6.98 6.98 0 0 1-2.79-4.52h4.66a3.3 3.3 0 0 0 1.36 1.83 4.2 4.2 0 0 0 2.4.69c1.56 0 2.78-.72 3.65-2.15.87-1.42 1.28-3.42 1.22-5.98h-.1a5.27 5.27 0 0 1-2.22 2.69c-1.06.66-2.32 1-3.78 1a7.33 7.33 0 0 1-5.34-2.11 7.2 7.2 0 0 1-2.14-5.33c0-2.31.81-4.21 2.45-5.7a8.86 8.86 0 0 1 6.24-2.25c1.63 0 3.1.35 4.39 1.06a8.05 8.05 0 0 1 3.12 3.06c1.26 1.94 1.9 4.43 1.9 7.47 0 3.74-.85 6.67-2.52 8.8-1.67 2.11-3.99 3.17-6.96 3.17Zm-2.84-12.86a4.04 4.04 0 0 0 2.94 1.14c1.17 0 2.15-.38 2.93-1.14a3.83 3.83 0 0 0 1.2-2.86 3.9 3.9 0 0 0-1.2-2.89 3.96 3.96 0 0 0-2.9-1.19c-1.16 0-2.14.39-2.94 1.18-.8.78-1.2 1.73-1.2 2.87 0 1.16.39 2.12 1.17 2.89Z" class="А-5"/>
      </g>
      <g class="Room">
        <rect width="139" height="81" x="380" y="2086" fill="#8E96FF" rx="12"/>
        <path fill="#fff" d="M431.31 2137.5v-4.02H420.1v-4.01c1.84-3.5 4.85-8.34 9.05-14.52h6.66v14.75h2.93v3.78h-2.93v4.02h-4.49Zm-7.08-7.78v.12h7.18v-11.54h-.1a170.75 170.75 0 0 0-4.19 6.36 71.38 71.38 0 0 0-2.89 5.06Zm22.57-2.06v-3.41h2.73c1.07 0 1.94-.29 2.61-.87.67-.59 1-1.34 1-2.27 0-.93-.32-1.66-.95-2.2a3.93 3.93 0 0 0-2.69-.83c-1.1 0-1.98.3-2.66.89a3.28 3.28 0 0 0-1.1 2.37h-4.35a6.53 6.53 0 0 1 2.4-5.01c1.5-1.25 3.48-1.88 5.91-1.88 2.36 0 4.26.56 5.7 1.66a5.2 5.2 0 0 1 2.2 4.36 5 5 0 0 1-1.29 3.47 5.74 5.74 0 0 1-3.37 1.79v.1c1.7.14 3.04.7 4.03 1.67 1 .96 1.5 2.21 1.5 3.77a5.8 5.8 0 0 1-2.49 4.87c-1.64 1.24-3.77 1.86-6.39 1.86-2.53 0-4.57-.64-6.14-1.91a6.7 6.7 0 0 1-2.5-5.04h4.52c.07.96.48 1.72 1.22 2.29.75.58 1.74.86 2.97.86a4.5 4.5 0 0 0 2.89-.9 2.86 2.86 0 0 0 1.12-2.33 2.9 2.9 0 0 0-1.1-2.42 4.58 4.58 0 0 0-3-.89h-2.77Zm20.15 0v-3.41h2.74a3.8 3.8 0 0 0 2.6-.87c.67-.59 1-1.34 1-2.27 0-.93-.31-1.66-.95-2.2a3.93 3.93 0 0 0-2.68-.83c-1.1 0-1.98.3-2.66.89a3.27 3.27 0 0 0-1.1 2.37h-4.35a6.53 6.53 0 0 1 2.39-5.01c1.5-1.25 3.48-1.88 5.92-1.88 2.35 0 4.25.56 5.7 1.66a5.2 5.2 0 0 1 2.19 4.36c0 1.36-.43 2.52-1.28 3.47a5.74 5.74 0 0 1-3.38 1.79v.1c1.7.14 3.05.7 4.04 1.67 1 .96 1.5 2.21 1.5 3.77a5.8 5.8 0 0 1-2.49 4.87c-1.64 1.24-3.77 1.86-6.39 1.86-2.53 0-4.58-.64-6.14-1.91a6.7 6.7 0 0 1-2.5-5.04h4.51c.08.96.48 1.72 1.22 2.29.75.58 1.74.86 2.97.86 1.18 0 2.14-.3 2.9-.9a2.86 2.86 0 0 0 1.12-2.33c0-1.03-.37-1.84-1.1-2.42a4.58 4.58 0 0 0-3-.89h-2.78Z" class="А-5"/>
      </g>
      <g class="Room">
        <rect width="139" height="81" x="380" y="1997" fill="#8E96FF" rx="12"/>
        <path fill="#fff" d="M431.4 2048.5v-4.02h-11.23v-4.01c1.83-3.5 4.85-8.34 9.05-14.52h6.65v14.75h2.94v3.78h-2.94v4.02h-4.48Zm-7.09-7.78v.12h7.17v-11.54h-.09a169.69 169.69 0 0 0-4.19 6.36 71.77 71.77 0 0 0-2.89 5.06Zm22.56-2.06v-3.41h2.74a3.8 3.8 0 0 0 2.6-.87c.68-.59 1-1.34 1-2.27 0-.93-.3-1.66-.94-2.2a3.93 3.93 0 0 0-2.7-.83 3.9 3.9 0 0 0-2.65.89 3.28 3.28 0 0 0-1.1 2.37h-4.35a6.53 6.53 0 0 1 2.39-5.01c1.51-1.25 3.48-1.88 5.92-1.88 2.36 0 4.26.56 5.7 1.66a5.2 5.2 0 0 1 2.2 4.36c0 1.36-.44 2.52-1.29 3.47a5.74 5.74 0 0 1-3.37 1.79v.1c1.7.14 3.04.7 4.03 1.67 1 .96 1.5 2.21 1.5 3.77a5.8 5.8 0 0 1-2.49 4.87c-1.64 1.24-3.77 1.86-6.39 1.86-2.53 0-4.58-.64-6.14-1.91a6.7 6.7 0 0 1-2.5-5.04h4.52c.07.96.48 1.72 1.22 2.29.75.58 1.74.86 2.96.86 1.18 0 2.14-.3 2.9-.9a2.86 2.86 0 0 0 1.12-2.33c0-1.03-.37-1.84-1.1-2.42a4.58 4.58 0 0 0-3-.89h-2.77Zm23.35 10.34a9.2 9.2 0 0 1-6-1.94 6.53 6.53 0 0 1-2.47-5.01h4.36c.13.96.58 1.73 1.34 2.33.77.59 1.7.89 2.8.89 1.23 0 2.23-.39 3-1.16a4.09 4.09 0 0 0 1.17-3.02 4 4 0 0 0-4.14-4.25c-.85 0-1.63.19-2.33.57-.68.36-1.23.87-1.62 1.51h-4.22l1.1-12.97h14.35v3.75h-10.64l-.51 6.18h.09a4.8 4.8 0 0 1 2-1.82 6.62 6.62 0 0 1 3.02-.65c2.15 0 3.92.71 5.3 2.14a7.38 7.38 0 0 1 2.1 5.42c0 2.38-.8 4.32-2.42 5.81-1.6 1.48-3.7 2.22-6.28 2.22Z" class="А-5"/>
      </g>
      <g class="Room">
        <rect width="139" height="81" x="380" y="1908" fill="#8E96FF" rx="12"/>
        <path fill="#fff" d="M432.23 1959.5v-4.02h-11.21v-4.01c1.83-3.5 4.85-8.34 9.04-14.52h6.66v14.75h2.94v3.78h-2.94v4.02h-4.49Zm-7.07-7.78v.12h7.17v-11.54h-.1a170.75 170.75 0 0 0-4.18 6.36 71.38 71.38 0 0 0-2.9 5.06Zm22.56-2.06v-3.41h2.73c1.08 0 1.95-.29 2.61-.87.67-.59 1-1.34 1-2.27 0-.93-.31-1.66-.95-2.2a3.94 3.94 0 0 0-2.69-.83c-1.1 0-1.98.3-2.65.89a3.28 3.28 0 0 0-1.11 2.37h-4.35a6.54 6.54 0 0 1 2.4-5.01c1.5-1.25 3.48-1.88 5.92-1.88 2.35 0 4.25.56 5.7 1.66a5.2 5.2 0 0 1 2.19 4.36 5 5 0 0 1-1.29 3.47 5.74 5.74 0 0 1-3.37 1.79v.1c1.7.14 3.04.7 4.03 1.67 1 .96 1.5 2.21 1.5 3.77a5.8 5.8 0 0 1-2.48 4.87c-1.65 1.24-3.78 1.86-6.4 1.86-2.53 0-4.57-.64-6.13-1.91a6.7 6.7 0 0 1-2.5-5.04h4.51c.07.96.48 1.72 1.22 2.29.75.58 1.74.86 2.97.86 1.18 0 2.14-.3 2.89-.9a2.86 2.86 0 0 0 1.12-2.33c0-1.03-.36-1.84-1.09-2.42a4.58 4.58 0 0 0-3-.89h-2.78Zm15.84 9.84 9.7-18.7v-.1H461.8v-3.75h16.12v3.8l-9.4 18.75h-4.96Z" class="А-5"/>
      </g>
      <g class="Room">
        <rect width="139" height="81" x="380" y="1819" fill="#8E96FF" rx="12"/>
        <path fill="#fff" d="M431.06 1870.5v-4.02h-11.22v-4.01c1.84-3.5 4.85-8.34 9.05-14.52h6.66v14.75h2.93v3.78h-2.93v4.02h-4.49Zm-7.08-7.78v.12h7.18v-11.54h-.1a170.75 170.75 0 0 0-4.19 6.36 71.38 71.38 0 0 0-2.89 5.06Zm22.57-2.06v-3.41h2.73c1.07 0 1.94-.29 2.61-.87.67-.59 1-1.34 1-2.27 0-.93-.32-1.66-.95-2.2a3.93 3.93 0 0 0-2.69-.83c-1.1 0-1.98.3-2.66.89a3.28 3.28 0 0 0-1.1 2.37h-4.35a6.53 6.53 0 0 1 2.4-5.01c1.5-1.25 3.48-1.88 5.91-1.88 2.36 0 4.26.56 5.7 1.66a5.2 5.2 0 0 1 2.2 4.36 5 5 0 0 1-1.29 3.47 5.74 5.74 0 0 1-3.37 1.79v.1c1.7.14 3.04.7 4.03 1.67 1 .96 1.5 2.21 1.5 3.77a5.8 5.8 0 0 1-2.49 4.87c-1.64 1.24-3.77 1.86-6.39 1.86-2.53 0-4.57-.64-6.14-1.91a6.7 6.7 0 0 1-2.5-5.04h4.52c.07.96.48 1.72 1.22 2.29.75.58 1.74.86 2.97.86a4.5 4.5 0 0 0 2.89-.9 2.86 2.86 0 0 0 1.12-2.33 2.9 2.9 0 0 0-1.1-2.42 4.58 4.58 0 0 0-3-.89h-2.77Zm22.93 10.34a9 9 0 0 1-5.54-1.73 6.98 6.98 0 0 1-2.78-4.52h4.65c.23.76.69 1.37 1.36 1.83a4.2 4.2 0 0 0 2.4.69c1.56 0 2.78-.72 3.65-2.15.87-1.42 1.28-3.42 1.22-5.98h-.1a5.27 5.27 0 0 1-2.21 2.69c-1.07.66-2.33 1-3.79 1a7.33 7.33 0 0 1-5.34-2.11 7.2 7.2 0 0 1-2.14-5.33c0-2.31.82-4.21 2.45-5.7a8.87 8.87 0 0 1 6.24-2.25c1.63 0 3.1.35 4.39 1.06a8.04 8.04 0 0 1 3.12 3.06c1.26 1.94 1.9 4.43 1.9 7.47 0 3.74-.84 6.67-2.52 8.8-1.67 2.11-3.99 3.17-6.96 3.17Zm-2.84-12.86a4.04 4.04 0 0 0 2.94 1.14c1.18 0 2.15-.38 2.94-1.14a3.83 3.83 0 0 0 1.18-2.86 3.9 3.9 0 0 0-1.18-2.89 3.96 3.96 0 0 0-2.91-1.19c-1.16 0-2.14.39-2.94 1.18-.8.78-1.2 1.73-1.2 2.87 0 1.16.39 2.12 1.17 2.89Z" class="А-5"/>
      </g>
      <g class="Room">
        <rect width="139" height="81" x="380" y="1730" fill="#8E96FF" rx="12"/>
        <path fill="#fff" d="M433.48 1781.5v-4.02h-11.21v-4.01c1.83-3.5 4.85-8.34 9.04-14.52h6.66v14.75h2.94v3.78h-2.94v4.02h-4.49Zm-7.07-7.78v.12h7.17v-11.54h-.1a170.75 170.75 0 0 0-4.18 6.36 71.38 71.38 0 0 0-2.9 5.06Zm27.82 7.78v-4.02h-11.21v-4.01c1.83-3.5 4.85-8.34 9.04-14.52h6.66v14.75h2.94v3.78h-2.94v4.02h-4.49Zm-7.07-7.78v.12h7.17v-11.54h-.1a170.75 170.75 0 0 0-4.18 6.36 71.38 71.38 0 0 0-2.9 5.06Zm22.56 7.78v-18.22h-.1l-5.75 3.97V1763l5.83-4.05h4.7v22.55h-4.68Z" class="А-5"/>
      </g>
      <g class="Room">
        <rect width="139" height="81" x="380" y="1641" fill="#8E96FF" rx="12"/>
        <path fill="#fff" d="M431.02 1692.5v-4.02H419.8v-4.01c1.83-3.5 4.85-8.34 9.04-14.52h6.66v14.75h2.94v3.78h-2.94v4.02h-4.48Zm-7.08-7.78v.12h7.17v-11.54h-.1a169.69 169.69 0 0 0-4.18 6.36 70.97 70.97 0 0 0-2.9 5.06Zm27.83 7.78v-4.02h-11.22v-4.01c1.83-3.5 4.85-8.34 9.04-14.52h6.66v14.75h2.94v3.78h-2.94v4.02h-4.48Zm-7.08-7.78v.12h7.17v-11.54h-.1a169.69 169.69 0 0 0-4.18 6.36 70.97 70.97 0 0 0-2.9 5.06Zm22.56-2.06v-3.41h2.73c1.08 0 1.95-.29 2.61-.87.67-.59 1-1.34 1-2.27 0-.93-.31-1.66-.95-2.2a3.93 3.93 0 0 0-2.69-.83c-1.1 0-1.98.3-2.65.89a3.27 3.27 0 0 0-1.11 2.37h-4.35a6.53 6.53 0 0 1 2.4-5.01c1.5-1.25 3.48-1.88 5.92-1.88 2.35 0 4.25.56 5.7 1.66a5.2 5.2 0 0 1 2.19 4.36c0 1.36-.43 2.52-1.28 3.47a5.74 5.74 0 0 1-3.38 1.79v.1c1.7.14 3.04.7 4.03 1.67 1 .96 1.5 2.21 1.5 3.77a5.8 5.8 0 0 1-2.48 4.87c-1.65 1.24-3.78 1.86-6.4 1.86-2.52 0-4.57-.64-6.13-1.91a6.7 6.7 0 0 1-2.5-5.04h4.51c.07.96.48 1.72 1.22 2.29.75.58 1.74.86 2.97.86 1.18 0 2.14-.3 2.89-.9a2.86 2.86 0 0 0 1.13-2.33c0-1.03-.37-1.84-1.1-2.42a4.58 4.58 0 0 0-3-.89h-2.78Z" class="А-5"/>
      </g>
      <g class="Room">
        <rect width="139" height="81" x="380" y="1552" fill="#8E96FF" rx="12"/>
        <path fill="#fff" d="M431.1 1603.5v-4.02h-11.23v-4.01c1.84-3.5 4.85-8.34 9.05-14.52h6.66v14.75h2.94v3.78h-2.94v4.02h-4.49Zm-7.08-7.78v.12h7.17v-11.54h-.1a169.69 169.69 0 0 0-4.18 6.36 71.36 71.36 0 0 0-2.9 5.06Zm27.82 7.78v-4.02h-11.21v-4.01c1.83-3.5 4.84-8.34 9.04-14.52h6.66v14.75h2.94v3.78h-2.94v4.02h-4.49Zm-7.07-7.78v.12h7.17v-11.54h-.1a169.69 169.69 0 0 0-4.18 6.36 71.36 71.36 0 0 0-2.9 5.06Zm25.75 8.28a9.2 9.2 0 0 1-6-1.94 6.53 6.53 0 0 1-2.47-5.01h4.36c.13.96.58 1.73 1.34 2.33.77.59 1.7.89 2.8.89 1.23 0 2.23-.39 3-1.16a4.09 4.09 0 0 0 1.17-3.02 4.2 4.2 0 0 0-1.16-3.06 3.99 3.99 0 0 0-2.98-1.19c-.86 0-1.63.19-2.33.57-.69.36-1.23.87-1.63 1.51h-4.21l1.1-12.97h14.35v3.75h-10.64l-.52 6.18h.1a4.8 4.8 0 0 1 2-1.82 6.62 6.62 0 0 1 3.01-.65c2.16 0 3.93.71 5.31 2.14a7.38 7.38 0 0 1 2.1 5.42c0 2.38-.8 4.32-2.42 5.81-1.6 1.48-3.7 2.22-6.28 2.22Z" class="А-5"/>
      </g>
      <g class="Room">
        <rect width="139" height="81" x="380" y="1463" fill="#8E96FF" rx="12"/>
        <path fill="#fff" d="M432.1 1514.5v-4.02h-11.23v-4.01c1.84-3.5 4.85-8.34 9.05-14.52h6.66v14.75h2.94v3.78h-2.94v4.02h-4.49Zm-7.08-7.78v.12h7.17v-11.54h-.1a169.69 169.69 0 0 0-4.18 6.36 71.36 71.36 0 0 0-2.9 5.06Zm27.82 7.78v-4.02h-11.21v-4.01c1.83-3.5 4.84-8.34 9.04-14.52h6.66v14.75h2.94v3.78h-2.94v4.02h-4.49Zm-7.07-7.78v.12h7.17v-11.54h-.1a169.69 169.69 0 0 0-4.18 6.36 71.36 71.36 0 0 0-2.9 5.06Zm17.93 7.78 9.7-18.7v-.1h-11.46v-3.75h16.12v3.8l-9.4 18.75h-4.96Z" class="А-5"/>
      </g>
      <g class="Room">
        <rect width="139" height="81" x="380" y="1374" fill="#8E96FF" rx="12"/>
        <path fill="#fff" d="M430.77 1425.5v-4.02h-11.22v-4.01c1.83-3.5 4.85-8.34 9.04-14.52h6.66v14.75h2.94v3.78h-2.94v4.02h-4.48Zm-7.08-7.78v.12h7.17v-11.54h-.1a169.69 169.69 0 0 0-4.18 6.36 70.97 70.97 0 0 0-2.9 5.06Zm27.83 7.78v-4.02H440.3v-4.01c1.83-3.5 4.85-8.34 9.04-14.52H456v14.75h2.94v3.78H456v4.02h-4.48Zm-7.08-7.78v.12h7.17v-11.54h-.1a169.69 169.69 0 0 0-4.18 6.36 70.97 70.97 0 0 0-2.9 5.06Zm25.34 8.28c-2.15 0-4-.58-5.55-1.73a6.98 6.98 0 0 1-2.78-4.52h4.66a3.3 3.3 0 0 0 1.36 1.83 4.2 4.2 0 0 0 2.39.69c1.57 0 2.8-.72 3.66-2.15.87-1.42 1.28-3.42 1.21-5.98h-.09a5.28 5.28 0 0 1-2.22 2.69c-1.06.66-2.32 1-3.78 1a7.33 7.33 0 0 1-5.34-2.11 7.2 7.2 0 0 1-2.14-5.33c0-2.31.81-4.21 2.45-5.7a8.87 8.87 0 0 1 6.23-2.25 9 9 0 0 1 4.4 1.06 8.05 8.05 0 0 1 3.12 3.06c1.26 1.94 1.89 4.43 1.89 7.47 0 3.74-.84 6.67-2.52 8.8-1.66 2.11-3.98 3.17-6.95 3.17Zm-2.84-12.86a4.04 4.04 0 0 0 2.94 1.14c1.17 0 2.15-.38 2.93-1.14a3.82 3.82 0 0 0 1.19-2.86 3.9 3.9 0 0 0-1.19-2.89 3.96 3.96 0 0 0-2.9-1.19c-1.16 0-2.14.39-2.94 1.18-.8.78-1.2 1.73-1.2 2.87 0 1.16.39 2.12 1.17 2.89Z" class="А-5"/>
      </g>
      <g class="Room">
        <rect width="139" height="81" x="380" y="1285" fill="#8E96FF" rx="12"/>
        <path fill="#fff" d="M433.78 1336.5v-4.02h-11.22v-4.01c1.84-3.5 4.85-8.34 9.05-14.52h6.66v14.75h2.93v3.78h-2.93v4.02h-4.49Zm-7.08-7.78v.12h7.18v-11.54h-.1a170.75 170.75 0 0 0-4.19 6.36 71.38 71.38 0 0 0-2.89 5.06Zm25.75 8.28a9.2 9.2 0 0 1-6-1.94 6.53 6.53 0 0 1-2.47-5.01h4.36a3.5 3.5 0 0 0 1.35 2.33c.77.59 1.7.89 2.8.89a4.1 4.1 0 0 0 3-1.16 4.09 4.09 0 0 0 1.17-3.02 4 4 0 0 0-4.14-4.25c-.86 0-1.63.19-2.33.57-.69.36-1.23.87-1.63 1.51h-4.22l1.11-12.97h14.35v3.75h-10.64l-.52 6.18h.1a4.8 4.8 0 0 1 2-1.82 6.62 6.62 0 0 1 3.01-.65c2.16 0 3.93.71 5.31 2.14a7.38 7.38 0 0 1 2.1 5.42c0 2.38-.81 4.32-2.43 5.81-1.6 1.48-3.7 2.22-6.28 2.22Zm16.97-.5v-18.22h-.1l-5.74 3.97V1318l5.83-4.05h4.68v22.55h-4.67Z" class="А-5"/>
      </g>
      <g class="Room">
        <rect width="139" height="86" x="380" y="1191" fill="#8E96FF" rx="12"/>
        <path fill="#fff" d="M431.4 1245v-4.02h-11.23v-4.01c1.83-3.5 4.85-8.34 9.05-14.52h6.65v14.75h2.94v3.78h-2.94v4.02h-4.48Zm-7.09-7.78v.12h7.17v-11.54h-.09a169.69 169.69 0 0 0-4.19 6.36 71.77 71.77 0 0 0-2.89 5.06Zm25.75 8.28a9.2 9.2 0 0 1-6-1.94 6.53 6.53 0 0 1-2.47-5.01h4.36a3.5 3.5 0 0 0 1.35 2.33c.77.59 1.7.89 2.8.89a4.1 4.1 0 0 0 3-1.16 4.09 4.09 0 0 0 1.17-3.02 4.2 4.2 0 0 0-1.16-3.06 3.99 3.99 0 0 0-2.99-1.19c-.85 0-1.63.19-2.32.57a4.1 4.1 0 0 0-1.63 1.51h-4.22l1.11-12.97h14.35v3.75h-10.64l-.52 6.18h.1a4.8 4.8 0 0 1 2-1.82 6.62 6.62 0 0 1 3-.65c2.17 0 3.94.71 5.32 2.14a7.38 7.38 0 0 1 2.1 5.42c0 2.38-.81 4.32-2.43 5.81-1.6 1.48-3.7 2.22-6.28 2.22Zm16.81-10.34v-3.41h2.74a3.8 3.8 0 0 0 2.6-.87c.68-.59 1-1.34 1-2.27 0-.93-.3-1.66-.94-2.2a3.93 3.93 0 0 0-2.7-.83 3.9 3.9 0 0 0-2.65.89 3.28 3.28 0 0 0-1.1 2.37h-4.35a6.53 6.53 0 0 1 2.39-5.01c1.51-1.25 3.48-1.88 5.92-1.88 2.36 0 4.26.56 5.7 1.66a5.2 5.2 0 0 1 2.2 4.36c0 1.36-.44 2.52-1.29 3.47a5.74 5.74 0 0 1-3.37 1.79v.1c1.7.14 3.04.7 4.03 1.67 1 .96 1.5 2.21 1.5 3.77a5.8 5.8 0 0 1-2.49 4.87c-1.64 1.24-3.77 1.86-6.39 1.86-2.53 0-4.58-.64-6.14-1.91a6.7 6.7 0 0 1-2.5-5.04h4.52c.07.96.48 1.72 1.22 2.29.75.58 1.74.86 2.96.86 1.18 0 2.14-.3 2.9-.9a2.86 2.86 0 0 0 1.12-2.33c0-1.03-.37-1.84-1.1-2.42a4.58 4.58 0 0 0-3-.89h-2.77Z" class="А-5"/>
      </g>
      <rect width="139" height="136" x="380" y="2403" fill="#777D89" class="Room" rx="12"/>
      <g class="Room">
        <rect width="105" height="119" x="564" y="1191" fill="#8E96FF" rx="12"/>
        <path fill="#fff" d="M598.14 1261.5v-4.02h-11.22v-4.01c1.84-3.5 4.85-8.34 9.05-14.52h6.65v14.75h2.94v3.78h-2.93v4.02h-4.49Zm-7.08-7.78v.12h7.17v-11.54h-.09a169.69 169.69 0 0 0-4.19 6.36 71.77 71.77 0 0 0-2.89 5.06Zm22.57-2.06v-3.41h2.73a3.8 3.8 0 0 0 2.6-.87c.67-.59 1-1.34 1-2.27 0-.93-.3-1.66-.94-2.2a3.93 3.93 0 0 0-2.7-.83 3.9 3.9 0 0 0-2.65.89 3.28 3.28 0 0 0-1.1 2.37h-4.35a6.53 6.53 0 0 1 2.39-5.01c1.51-1.25 3.48-1.88 5.92-1.88 2.36 0 4.26.56 5.7 1.66a5.2 5.2 0 0 1 2.2 4.36 5 5 0 0 1-1.29 3.47 5.74 5.74 0 0 1-3.37 1.79v.1c1.7.14 3.04.7 4.03 1.67 1 .96 1.5 2.21 1.5 3.77a5.8 5.8 0 0 1-2.49 4.87c-1.64 1.24-3.77 1.86-6.39 1.86-2.53 0-4.58-.64-6.14-1.91a6.7 6.7 0 0 1-2.5-5.04h4.52c.07.96.48 1.72 1.22 2.29.75.58 1.74.86 2.96.86 1.18 0 2.14-.3 2.9-.9a2.86 2.86 0 0 0 1.12-2.33c0-1.03-.37-1.84-1.1-2.42a4.58 4.58 0 0 0-3-.89h-2.77Zm23.67 10.36a8.93 8.93 0 0 1-4.38-1.07 8.31 8.31 0 0 1-3.1-3.09c-1.27-1.93-1.9-4.41-1.9-7.45 0-3.72.85-6.64 2.53-8.77 1.7-2.13 4-3.2 6.92-3.2 2.15 0 3.99.58 5.52 1.73a6.93 6.93 0 0 1 2.77 4.5h-4.64a3.33 3.33 0 0 0-1.35-1.81 4 4 0 0 0-2.33-.69c-1.58 0-2.81.72-3.7 2.16-.87 1.44-1.29 3.42-1.23 5.95h.09c.46-1.11 1.22-2 2.28-2.67 1.06-.67 2.3-1 3.72-1 2.15 0 3.92.71 5.33 2.12a7.19 7.19 0 0 1 2.12 5.32c0 2.32-.8 4.23-2.43 5.73a8.85 8.85 0 0 1-6.22 2.24Zm-.05-3.77c1.15 0 2.12-.39 2.9-1.17.8-.79 1.2-1.76 1.2-2.89 0-1.17-.38-2.13-1.16-2.89a4 4 0 0 0-2.92-1.14 4.1 4.1 0 0 0-2.96 1.14 3.8 3.8 0 0 0-1.17 2.84 4 4 0 0 0 1.19 2.92 3.97 3.97 0 0 0 2.92 1.19Z" class="А-5"/>
      </g>
      <g class="Room">
        <rect width="105" height="66" x="564" y="1318" fill="#8E96FF" rx="12"/>
        <path fill="#fff" d="M598.02 1362v-4.02H586.8v-4.01c1.83-3.5 4.85-8.34 9.04-14.52h6.66v14.75h2.94v3.78h-2.94v4.02h-4.48Zm-7.08-7.78v.12h7.17v-11.54h-.1a169.69 169.69 0 0 0-4.18 6.36 70.97 70.97 0 0 0-2.9 5.06Zm22.56-2.06v-3.41h2.73c1.08 0 1.95-.29 2.61-.87.67-.59 1-1.34 1-2.27 0-.93-.31-1.66-.95-2.2a3.93 3.93 0 0 0-2.69-.83c-1.1 0-1.98.3-2.65.89a3.27 3.27 0 0 0-1.11 2.37h-4.35a6.53 6.53 0 0 1 2.4-5.01c1.5-1.25 3.48-1.88 5.92-1.88 2.35 0 4.25.56 5.7 1.66a5.2 5.2 0 0 1 2.19 4.36c0 1.36-.43 2.52-1.28 3.47a5.74 5.74 0 0 1-3.38 1.79v.1c1.7.14 3.04.7 4.03 1.67 1 .96 1.5 2.21 1.5 3.77a5.8 5.8 0 0 1-2.48 4.87c-1.65 1.24-3.78 1.86-6.4 1.86-2.52 0-4.57-.64-6.13-1.91a6.7 6.7 0 0 1-2.5-5.04h4.51c.08.96.48 1.72 1.22 2.29.75.58 1.74.86 2.97.86 1.18 0 2.14-.3 2.89-.9a2.86 2.86 0 0 0 1.13-2.33c0-1.03-.37-1.84-1.1-2.42a4.58 4.58 0 0 0-3-.89h-2.78Zm25.42 9.84v-4.02H627.7v-4.01c1.84-3.5 4.85-8.34 9.05-14.52h6.66v14.75h2.93v3.78h-2.93v4.02h-4.49Zm-7.08-7.78v.12h7.18v-11.54h-.1a169.69 169.69 0 0 0-4.19 6.36 71.36 71.36 0 0 0-2.89 5.06Z" class="А-5"/>
      </g>
      <g class="Room">
        <rect width="105" height="166" x="564" y="1392" fill="#8E96FF" rx="12"/>
        <path fill="#fff" d="M598.73 1486v-4.02h-11.21v-4.01c1.83-3.5 4.85-8.34 9.04-14.52h6.66v14.75h2.94v3.78h-2.94v4.02h-4.49Zm-7.07-7.78v.12h7.17v-11.54h-.1a170.75 170.75 0 0 0-4.18 6.36 71.38 71.38 0 0 0-2.9 5.06Zm22.56-2.06v-3.41h2.73c1.08 0 1.95-.29 2.61-.87.67-.59 1-1.34 1-2.27 0-.93-.31-1.66-.95-2.2a3.94 3.94 0 0 0-2.69-.83c-1.1 0-1.98.3-2.65.89a3.28 3.28 0 0 0-1.11 2.37h-4.35a6.54 6.54 0 0 1 2.4-5.01c1.5-1.25 3.48-1.88 5.91-1.88 2.36 0 4.26.56 5.7 1.66a5.2 5.2 0 0 1 2.2 4.36 5 5 0 0 1-1.29 3.47 5.74 5.74 0 0 1-3.37 1.79v.1c1.7.14 3.04.7 4.03 1.67 1 .96 1.5 2.21 1.5 3.77a5.8 5.8 0 0 1-2.48 4.87c-1.65 1.24-3.78 1.86-6.4 1.86-2.53 0-4.57-.64-6.13-1.91a6.7 6.7 0 0 1-2.5-5.04h4.51c.07.96.48 1.72 1.22 2.29.75.58 1.74.86 2.97.86a4.5 4.5 0 0 0 2.89-.9 2.86 2.86 0 0 0 1.12-2.33c0-1.03-.36-1.84-1.09-2.42a4.58 4.58 0 0 0-3-.89h-2.78Zm14.4-5.93c0-2.13.78-3.88 2.32-5.23a8.8 8.8 0 0 1 6.01-2.05c2.37 0 4.3.62 5.78 1.85a5.76 5.76 0 0 1 2.24 4.67c0 .68-.1 1.33-.31 1.97a7.1 7.1 0 0 1-.97 1.89c-.44.62-.88 1.19-1.33 1.7-.45.5-1.03 1.11-1.75 1.83l-5.5 5.3v.09h10.17v3.75H628.9v-3.17l8.5-8.19a16.5 16.5 0 0 0 2.34-2.76c.43-.7.64-1.44.64-2.22 0-.86-.33-1.58-1.01-2.16a3.8 3.8 0 0 0-2.56-.88c-1.1 0-2 .35-2.72 1.04a3.36 3.36 0 0 0-1.08 2.57v.08h-4.38v-.08Z" class="А-5"/>
      </g>
      <g class="Room">
        <rect width="105" height="79" x="564" y="1566" fill="#8E96FF" rx="12"/>
        <path fill="#fff" d="M598.02 1616.5v-4.02H586.8v-4.01c1.83-3.5 4.85-8.34 9.04-14.52h6.66v14.75h2.94v3.78h-2.94v4.02h-4.48Zm-7.08-7.78v.12h7.17v-11.54h-.1a169.69 169.69 0 0 0-4.18 6.36 70.97 70.97 0 0 0-2.9 5.06Zm22.56-2.06v-3.41h2.73c1.08 0 1.95-.29 2.61-.87.67-.59 1-1.34 1-2.27 0-.93-.31-1.66-.95-2.2a3.93 3.93 0 0 0-2.69-.83c-1.1 0-1.98.3-2.65.89a3.27 3.27 0 0 0-1.11 2.37h-4.35a6.53 6.53 0 0 1 2.4-5.01c1.5-1.25 3.48-1.88 5.92-1.88 2.35 0 4.25.56 5.7 1.66a5.2 5.2 0 0 1 2.19 4.36c0 1.36-.43 2.52-1.28 3.47a5.74 5.74 0 0 1-3.38 1.79v.1c1.7.14 3.04.7 4.03 1.67 1 .96 1.5 2.21 1.5 3.77a5.8 5.8 0 0 1-2.48 4.87c-1.65 1.24-3.78 1.86-6.4 1.86-2.52 0-4.57-.64-6.13-1.91a6.7 6.7 0 0 1-2.5-5.04h4.51c.08.96.48 1.72 1.22 2.29.75.58 1.74.86 2.97.86 1.18 0 2.14-.3 2.89-.9a2.86 2.86 0 0 0 1.13-2.33c0-1.03-.37-1.84-1.1-2.42a4.58 4.58 0 0 0-3-.89h-2.78Zm30.08 7.17a7.94 7.94 0 0 1-6.67 3.17 7.97 7.97 0 0 1-6.7-3.16c-1.62-2.11-2.43-5-2.43-8.65 0-3.64.81-6.5 2.44-8.6a8.02 8.02 0 0 1 6.69-3.15 7.97 7.97 0 0 1 6.67 3.14c1.62 2.09 2.44 4.96 2.44 8.59 0 3.65-.82 6.53-2.44 8.66Zm-9.86-2.72c.77 1.41 1.83 2.11 3.19 2.11 1.35 0 2.4-.7 3.17-2.1.76-1.4 1.14-3.38 1.14-5.93 0-2.53-.39-4.49-1.16-5.88-.76-1.39-1.81-2.09-3.15-2.09-1.35 0-2.4.7-3.18 2.09-.77 1.4-1.15 3.36-1.15 5.88 0 2.54.38 4.51 1.14 5.92Z" class="А-5"/>
      </g>
      <g class="Room">
        <rect width="105" height="143" x="564" y="1653" fill="#8E96FF" rx="12"/>
        <path fill="#fff" d="M598.38 1735.5v-4.02h-11.22v-4.01c1.83-3.5 4.85-8.34 9.04-14.52h6.66v14.75h2.94v3.78h-2.94v4.02h-4.49Zm-7.08-7.78v.12h7.17v-11.54h-.1a169.48 169.48 0 0 0-4.18 6.36 71 71 0 0 0-2.9 5.06Zm16.8-7.99c0-2.13.78-3.88 2.32-5.23a8.8 8.8 0 0 1 6.02-2.05c2.36 0 4.29.62 5.78 1.85a5.76 5.76 0 0 1 2.23 4.67 6.3 6.3 0 0 1-1.28 3.86c-.44.62-.88 1.19-1.33 1.7-.44.5-1.03 1.11-1.75 1.83l-5.5 5.3v.09h10.18v3.75h-16.4v-3.17l8.5-8.19a16.5 16.5 0 0 0 2.35-2.76c.43-.7.64-1.44.64-2.22 0-.86-.34-1.58-1.02-2.16a3.8 3.8 0 0 0-2.56-.88c-1.1 0-2 .35-2.72 1.04a3.37 3.37 0 0 0-1.08 2.57v.08h-4.37v-.08Zm28.43 16.27c-2.73 0-4.94-.61-6.62-1.83a5.67 5.67 0 0 1-2.52-4.78 5.4 5.4 0 0 1 1.47-3.8 6.48 6.48 0 0 1 3.83-1.98v-.09a5.9 5.9 0 0 1-3.19-1.85 5.08 5.08 0 0 1 1.1-7.53 9.83 9.83 0 0 1 5.93-1.69c2.42 0 4.4.57 5.92 1.69a5.1 5.1 0 0 1 1.1 7.52 5.95 5.95 0 0 1-3.17 1.86v.09a6.5 6.5 0 0 1 3.82 2 5.38 5.38 0 0 1 1.47 3.8c0 1.95-.85 3.54-2.54 4.76-1.7 1.22-3.89 1.83-6.6 1.83Zm-3.05-4.42c.8.65 1.81.98 3.05.98 1.24 0 2.25-.33 3.03-.98a3.19 3.19 0 0 0 1.17-2.53c0-1.02-.39-1.86-1.17-2.52-.78-.67-1.79-1-3.03-1-1.24 0-2.25.33-3.05 1a3.16 3.16 0 0 0-1.17 2.52c0 1.02.4 1.86 1.17 2.53Zm.49-10.36c.66.58 1.52.87 2.56.87s1.9-.29 2.56-.87c.67-.6 1-1.34 1-2.24 0-.9-.33-1.65-1-2.23a3.73 3.73 0 0 0-2.56-.89c-1.04 0-1.9.3-2.56.89-.67.58-1 1.33-1 2.23 0 .91.33 1.66 1 2.24Z" class="А-5"/>
      </g>
      <g class="Room">
        <rect width="105" height="98" x="564" y="1804" fill="#8E96FF" rx="12"/>
        <path fill="#fff" d="M598.56 1864v-4.02h-11.22v-4.01c1.84-3.5 4.85-8.34 9.05-14.52h6.66v14.75h2.93v3.78h-2.93v4.02h-4.49Zm-7.08-7.78v.12h7.18v-11.54h-.1a170.75 170.75 0 0 0-4.18 6.36 71.38 71.38 0 0 0-2.9 5.06Zm16.82-7.99c0-2.13.77-3.88 2.3-5.23a8.8 8.8 0 0 1 6.02-2.05c2.37 0 4.3.62 5.79 1.85a5.76 5.76 0 0 1 2.23 4.67 6.3 6.3 0 0 1-1.28 3.86 20.3 20.3 0 0 1-1.33 1.7c-.45.5-1.03 1.11-1.75 1.83l-5.5 5.3v.09h10.17v3.75h-16.39v-3.17l8.5-8.19a16.46 16.46 0 0 0 2.35-2.76c.42-.7.64-1.44.64-2.22 0-.86-.34-1.58-1.02-2.16a3.8 3.8 0 0 0-2.56-.88c-1.1 0-2 .35-2.72 1.04a3.36 3.36 0 0 0-1.08 2.57v.08h-4.37v-.08Zm28.58 16.29a8.93 8.93 0 0 1-4.38-1.07 8.3 8.3 0 0 1-3.1-3.09c-1.27-1.93-1.9-4.41-1.9-7.45 0-3.72.84-6.64 2.53-8.77s4-3.2 6.92-3.2c2.15 0 3.99.58 5.52 1.73a6.93 6.93 0 0 1 2.76 4.5h-4.64a3.33 3.33 0 0 0-1.34-1.81 4 4 0 0 0-2.33-.69c-1.58 0-2.82.72-3.7 2.16-.88 1.44-1.29 3.42-1.24 5.95h.1c.46-1.11 1.22-2 2.28-2.67 1.06-.67 2.3-1 3.72-1 2.14 0 3.92.71 5.33 2.12a7.19 7.19 0 0 1 2.12 5.32c0 2.32-.81 4.23-2.44 5.73a8.85 8.85 0 0 1-6.22 2.24Zm-.05-3.77c1.14 0 2.11-.39 2.9-1.17.8-.79 1.2-1.76 1.2-2.89 0-1.17-.38-2.13-1.16-2.89a4 4 0 0 0-2.93-1.14 4.1 4.1 0 0 0-2.95 1.14 3.8 3.8 0 0 0-1.17 2.84 4 4 0 0 0 1.19 2.92 3.97 3.97 0 0 0 2.92 1.19Z" class="А-5"/>
      </g>
      <g class="Room">
        <rect width="105" height="110" x="564" y="1910" fill="#8E96FF" rx="12"/>
        <path fill="#fff" d="M598.64 1976v-4.02h-11.22v-4.01c1.84-3.5 4.85-8.34 9.05-14.52h6.65v14.75h2.94v3.78h-2.93v4.02h-4.49Zm-7.08-7.78v.12h7.17v-11.54h-.09a169.69 169.69 0 0 0-4.19 6.36 71.77 71.77 0 0 0-2.89 5.06Zm16.82-7.99c0-2.13.77-3.88 2.3-5.23a8.8 8.8 0 0 1 6.02-2.05c2.37 0 4.3.62 5.78 1.85a5.76 5.76 0 0 1 2.24 4.67c0 .68-.1 1.33-.31 1.97a7.1 7.1 0 0 1-.97 1.89c-.44.62-.88 1.19-1.33 1.7-.45.5-1.03 1.11-1.75 1.83l-5.5 5.3v.09h10.17v3.75h-16.39v-3.17l8.5-8.19a16.5 16.5 0 0 0 2.34-2.76c.43-.7.64-1.44.64-2.22 0-.86-.33-1.58-1.01-2.16a3.8 3.8 0 0 0-2.56-.88c-1.1 0-2 .35-2.72 1.04a3.36 3.36 0 0 0-1.08 2.57v.08h-4.38v-.08ZM638.3 1976v-4.02h-11.22v-4.01c1.83-3.5 4.85-8.34 9.04-14.52h6.66v14.75h2.94v3.78h-2.94v4.02h-4.48Zm-7.08-7.78v.12h7.17v-11.54h-.1a169.69 169.69 0 0 0-4.18 6.36 71.36 71.36 0 0 0-2.9 5.06Z" class="А-5"/>
      </g>
      <g class="Room">
        <rect width="105" height="98" x="564" y="2028" fill="#8E96FF" rx="12"/>
        <path fill="#fff" d="M599.16 2088v-4.02h-11.22v-4.01c1.83-3.5 4.85-8.34 9.04-14.52h6.66v14.75h2.94v3.78h-2.94v4.02h-4.48Zm-7.08-7.78v.12h7.17v-11.54h-.1a170.75 170.75 0 0 0-4.18 6.36 71.38 71.38 0 0 0-2.9 5.06Zm16.81-7.99c0-2.13.77-3.88 2.31-5.23a8.8 8.8 0 0 1 6.02-2.05c2.36 0 4.29.62 5.78 1.85a5.76 5.76 0 0 1 2.23 4.67 6.3 6.3 0 0 1-1.28 3.86 20.3 20.3 0 0 1-1.33 1.7c-.44.5-1.03 1.11-1.75 1.83l-5.5 5.3v.09h10.18v3.75h-16.4v-3.17l8.5-8.19a16.5 16.5 0 0 0 2.35-2.76c.43-.7.64-1.44.64-2.22 0-.86-.34-1.58-1.01-2.16a3.8 3.8 0 0 0-2.57-.88c-1.1 0-2 .35-2.72 1.04a3.36 3.36 0 0 0-1.07 2.57v.08h-4.38v-.08Zm19.31 0c0-2.13.77-3.88 2.32-5.23a8.8 8.8 0 0 1 6.01-2.05c2.37 0 4.3.62 5.78 1.85a5.76 5.76 0 0 1 2.24 4.67c0 .68-.1 1.33-.32 1.97-.2.62-.52 1.25-.96 1.89-.44.62-.88 1.19-1.33 1.7-.45.5-1.03 1.11-1.75 1.83l-5.5 5.3v.09h10.17v3.75h-16.4v-3.17l8.5-8.19a16.44 16.44 0 0 0 2.35-2.76c.43-.7.64-1.44.64-2.22 0-.86-.34-1.58-1.01-2.16a3.81 3.81 0 0 0-2.57-.88c-1.09 0-2 .35-2.71 1.04a3.37 3.37 0 0 0-1.08 2.57v.08h-4.38v-.08Z" class="А-5"/>
      </g>
      <g class="Room">
        <rect width="105" height="76" x="564" y="2134" fill="#8E96FF" rx="12"/>
        <path fill="#fff" d="M598.44 2183v-4.02h-11.22v-4.01c1.83-3.5 4.85-8.34 9.05-14.52h6.65v14.75h2.94v3.78h-2.94v4.02h-4.48Zm-7.08-7.78v.12h7.17v-11.54h-.1a169.69 169.69 0 0 0-4.18 6.36 71.38 71.38 0 0 0-2.9 5.06Zm16.81-7.99c0-2.13.77-3.88 2.31-5.23a8.8 8.8 0 0 1 6.02-2.05c2.37 0 4.3.62 5.78 1.85a5.76 5.76 0 0 1 2.24 4.67 6.3 6.3 0 0 1-1.29 3.86 20.3 20.3 0 0 1-1.32 1.7c-.45.5-1.03 1.11-1.75 1.83l-5.5 5.3v.09h10.17v3.75h-16.4v-3.17l8.5-8.19a16.5 16.5 0 0 0 2.35-2.76c.43-.7.64-1.44.64-2.22 0-.86-.34-1.58-1.01-2.16a3.8 3.8 0 0 0-2.57-.88c-1.09 0-2 .35-2.72 1.04a3.36 3.36 0 0 0-1.07 2.57v.08h-4.38v-.08Zm34.99 13.1a7.94 7.94 0 0 1-6.68 3.17 7.97 7.97 0 0 1-6.68-3.16c-1.63-2.11-2.44-5-2.44-8.65 0-3.64.81-6.5 2.44-8.6a8.02 8.02 0 0 1 6.68-3.15 7.97 7.97 0 0 1 6.68 3.14c1.62 2.09 2.43 4.96 2.43 8.59 0 3.65-.8 6.53-2.43 8.66Zm-9.86-2.72c.77 1.41 1.83 2.11 3.18 2.11 1.36 0 2.42-.7 3.18-2.1.76-1.4 1.14-3.38 1.14-5.93 0-2.53-.39-4.49-1.16-5.88-.76-1.39-1.81-2.09-3.16-2.09-1.34 0-2.4.7-3.17 2.09-.77 1.4-1.15 3.36-1.15 5.88 0 2.54.38 4.51 1.14 5.92Z" class="А-5"/>
      </g>
      <g class="Room">
        <rect width="105" height="60" x="564" y="2218" fill="#8E96FF" rx="12"/>
        <path fill="#fff" d="M600.42 2259v-4.02H589.2v-4.01c1.84-3.5 4.85-8.34 9.05-14.52h6.66v14.75h2.93v3.78h-2.93v4.02h-4.49Zm-7.08-7.78v.12h7.18v-11.54h-.1a169.69 169.69 0 0 0-4.19 6.36 71.36 71.36 0 0 0-2.89 5.06Zm22.57 7.78v-18.22h-.1l-5.75 3.97v-4.25l5.83-4.05h4.69V2259h-4.67Zm18.57.5c-2.73 0-4.93-.61-6.62-1.83a5.67 5.67 0 0 1-2.52-4.78 5.4 5.4 0 0 1 1.47-3.8 6.48 6.48 0 0 1 3.83-1.98v-.09a5.9 5.9 0 0 1-3.19-1.85 5.08 5.08 0 0 1 1.1-7.53 9.83 9.83 0 0 1 5.93-1.69c2.42 0 4.4.57 5.93 1.69a5.1 5.1 0 0 1 1.09 7.52 5.95 5.95 0 0 1-3.17 1.86v.09a6.5 6.5 0 0 1 3.83 2 5.38 5.38 0 0 1 1.47 3.8c0 1.95-.85 3.54-2.55 4.76-1.69 1.22-3.89 1.83-6.6 1.83Zm-3.04-4.42c.79.65 1.8.98 3.04.98s2.25-.33 3.04-.98a3.19 3.19 0 0 0 1.17-2.53c0-1.02-.4-1.86-1.17-2.52a4.5 4.5 0 0 0-3.04-1c-1.24 0-2.25.33-3.04 1a3.15 3.15 0 0 0-1.17 2.52c0 1.02.39 1.86 1.17 2.53Zm.48-10.36c.67.58 1.52.87 2.56.87 1.05 0 1.9-.29 2.57-.87.66-.6 1-1.34 1-2.24 0-.9-.34-1.65-1-2.23a3.73 3.73 0 0 0-2.57-.89c-1.04 0-1.9.3-2.56.89-.66.58-1 1.33-1 2.23 0 .91.34 1.66 1 2.24Z" class="А-5"/>
      </g>
      <g class="Room">
        <rect width="80" height="136" x="380" y="2576" fill="#8E96FF" rx="12"/>
        <path fill="#fff" d="M394.48 2655v-4.02h-11.21v-4.01c1.83-3.5 4.85-8.34 9.04-14.52h6.66v14.75h2.94v3.78h-2.94v4.02h-4.49Zm-7.07-7.78v.12h7.17v-11.54h-.1a170.75 170.75 0 0 0-4.18 6.36 71.38 71.38 0 0 0-2.9 5.06Zm16.8-7.99c0-2.13.78-3.88 2.32-5.23a8.8 8.8 0 0 1 6.02-2.05c2.36 0 4.29.62 5.78 1.85a5.76 5.76 0 0 1 2.23 4.67 6.3 6.3 0 0 1-1.28 3.86 20.3 20.3 0 0 1-1.33 1.7c-.44.5-1.03 1.11-1.75 1.83l-5.5 5.3v.09h10.18v3.75h-16.4v-3.17l8.5-8.19a16.5 16.5 0 0 0 2.35-2.76c.43-.7.64-1.44.64-2.22 0-.86-.34-1.58-1.02-2.16a3.8 3.8 0 0 0-2.56-.88c-1.1 0-2 .35-2.72 1.04a3.36 3.36 0 0 0-1.08 2.57v.08h-4.37v-.08Zm20.76 15.77 9.7-18.7v-.1H423.2v-3.75h16.13v3.8l-9.4 18.75h-4.96Zm23.19-3.03c1 0 1.86-.29 2.56-.88a2.78 2.78 0 0 0 1.06-2.23v-1.22l-3.53.22a3.6 3.6 0 0 0-1.98.64c-.46.36-.7.84-.7 1.44 0 .62.24 1.12.71 1.48.47.37 1.1.55 1.88.55Zm-1.5 3.3a5.8 5.8 0 0 1-4.02-1.43 4.65 4.65 0 0 1-1.6-3.65c0-1.52.57-2.72 1.7-3.58 1.12-.87 2.73-1.36 4.82-1.49l4.22-.24v-1.11c0-.78-.25-1.38-.76-1.82a3.04 3.04 0 0 0-2.05-.65c-.84 0-1.52.18-2.05.56-.52.37-.84.88-.95 1.52h-4.17a5.07 5.07 0 0 1 2.1-3.97c1.33-1.01 3.08-1.52 5.27-1.52 2.15 0 3.87.51 5.16 1.53a4.92 4.92 0 0 1 1.94 4.06V2655h-4.41v-2.56h-.1a5.01 5.01 0 0 1-2.09 2.08 6.3 6.3 0 0 1-3.01.75Z" class="А-5"/>
      </g>
      <g class="Room">
        <rect width="113" height="136" x="541" y="2576" fill="#8E96FF" rx="12"/>
        <path fill="#fff" d="M579.81 2655v-4.02H568.6v-4.01c1.84-3.5 4.85-8.34 9.05-14.52h6.66v14.75h2.93v3.78h-2.93v4.02h-4.49Zm-7.08-7.78v.12h7.18v-11.54h-.1a170.75 170.75 0 0 0-4.18 6.36 71.38 71.38 0 0 0-2.9 5.06Zm16.82-7.99c0-2.13.77-3.88 2.3-5.23a8.8 8.8 0 0 1 6.02-2.05c2.37 0 4.3.62 5.79 1.85a5.76 5.76 0 0 1 2.23 4.67 6.3 6.3 0 0 1-1.28 3.86 20.3 20.3 0 0 1-1.33 1.7c-.45.5-1.03 1.11-1.75 1.83l-5.5 5.3v.09h10.17v3.75h-16.39v-3.17l8.5-8.19a16.46 16.46 0 0 0 2.35-2.76c.42-.7.64-1.44.64-2.22 0-.86-.34-1.58-1.02-2.16a3.8 3.8 0 0 0-2.56-.88c-1.1 0-2 .35-2.72 1.04a3.36 3.36 0 0 0-1.08 2.57v.08h-4.37v-.08Zm28.25 16.27a9.2 9.2 0 0 1-6-1.94 6.53 6.53 0 0 1-2.47-5.01h4.36c.13.96.58 1.73 1.34 2.33.77.59 1.7.89 2.8.89 1.23 0 2.23-.39 3-1.16a4.09 4.09 0 0 0 1.17-3.02 4 4 0 0 0-4.14-4.25c-.86 0-1.63.19-2.33.57-.69.36-1.23.87-1.62 1.51h-4.22l1.1-12.97h14.35v3.75H614.5l-.52 6.18h.1a4.8 4.8 0 0 1 2-1.82 6.62 6.62 0 0 1 3.01-.65c2.16 0 3.93.71 5.32 2.14a7.38 7.38 0 0 1 2.09 5.42c0 2.38-.8 4.32-2.42 5.81-1.6 1.48-3.7 2.22-6.28 2.22Z" class="А-5"/>
      </g>
      <g class="Room">
        <rect width="102" height="133" x="703" y="2386" fill="#8E96FF" rx="12"/>
        <path fill="#fff" d="M737.92 2463.5v-4.02H726.7v-4.01c1.84-3.5 4.85-8.34 9.05-14.52h6.66v14.75h2.93v3.78h-2.93v4.02h-4.49Zm-7.08-7.78v.12h7.18v-11.54h-.1a169.69 169.69 0 0 0-4.19 6.36 71.36 71.36 0 0 0-2.89 5.06Zm22.57 7.78v-18.22h-.1l-5.75 3.97V2445l5.83-4.05h4.69v22.55h-4.67Zm18.57.5c-2.73 0-4.93-.61-6.62-1.83a5.67 5.67 0 0 1-2.52-4.78 5.4 5.4 0 0 1 1.47-3.8 6.48 6.48 0 0 1 3.83-1.98v-.09a5.9 5.9 0 0 1-3.19-1.85 5.08 5.08 0 0 1 1.1-7.53 9.83 9.83 0 0 1 5.93-1.69c2.42 0 4.4.57 5.93 1.69a5.1 5.1 0 0 1 1.09 7.52 5.95 5.95 0 0 1-3.17 1.86v.09a6.5 6.5 0 0 1 3.83 2 5.38 5.38 0 0 1 1.47 3.8c0 1.95-.85 3.54-2.55 4.76-1.69 1.22-3.89 1.83-6.6 1.83Zm-3.04-4.42c.79.65 1.8.98 3.04.98s2.25-.33 3.04-.98a3.19 3.19 0 0 0 1.17-2.53c0-1.02-.4-1.86-1.17-2.52a4.5 4.5 0 0 0-3.04-1c-1.24 0-2.25.33-3.04 1a3.15 3.15 0 0 0-1.17 2.52c0 1.02.39 1.86 1.17 2.53Zm.48-10.36c.67.58 1.52.87 2.56.87 1.05 0 1.9-.29 2.57-.87.66-.6 1-1.34 1-2.24 0-.9-.34-1.65-1-2.23a3.73 3.73 0 0 0-2.57-.89c-1.04 0-1.9.3-2.56.89-.66.58-1 1.33-1 2.23 0 .91.34 1.66 1 2.24Z" class="А-5"/>
      </g>
      <g class="Room">
        <rect width="118" height="133" x="948" y="2386" fill="#8E96FF" rx="12"/>
        <path fill="#fff" d="M990.98 2463.5v-4.02h-11.21v-4.01c1.83-3.5 4.85-8.34 9.04-14.52h6.66v14.75h2.94v3.78h-2.94v4.02h-4.49Zm-7.07-7.78v.12h7.17v-11.54h-.1a170.75 170.75 0 0 0-4.18 6.36 71.38 71.38 0 0 0-2.9 5.06Zm22.56 7.78v-18.22h-.09l-5.76 3.97V2445l5.83-4.05h4.69v22.55h-4.67Zm20.48 0v-4.02h-11.22v-4.01c1.84-3.5 4.85-8.34 9.05-14.52h6.66v14.75h2.94v3.78h-2.94v4.02h-4.49Zm-7.07-7.78v.12h7.17v-11.54h-.1a165.63 165.63 0 0 0-4.18 6.36 66.62 66.62 0 0 0-2.89 5.06Z" class="А-5"/>
      </g>
      <g class="Room">
        <rect width="120" height="133" x="1074" y="2386" fill="#8E96FF" rx="12"/>
        <path fill="#fff" d="M1118.7 2463.5v-4.02h-11.22v-4.01c1.84-3.5 4.85-8.34 9.05-14.52h6.66v14.75h2.93v3.78h-2.93v4.02h-4.49Zm-7.08-7.78v.12h7.18v-11.54h-.1a165.63 165.63 0 0 0-4.18 6.36 70.38 70.38 0 0 0-2.9 5.06Zm22.57 7.78v-18.22h-.1l-5.75 3.97V2445l5.83-4.05h4.69v22.55h-4.67Zm9.47-15.77c0-2.13.77-3.88 2.31-5.23a8.8 8.8 0 0 1 6.01-2.05c2.37 0 4.3.62 5.79 1.85a5.76 5.76 0 0 1 2.23 4.67c0 .68-.1 1.33-.31 1.97-.2.62-.52 1.25-.97 1.89-.44.62-.88 1.19-1.33 1.7-.45.5-1.03 1.11-1.75 1.83l-5.5 5.3v.09h10.17v3.75h-16.39v-3.17l8.5-8.19a16.56 16.56 0 0 0 2.35-2.76c.42-.7.64-1.44.64-2.22 0-.86-.34-1.58-1.02-2.16a3.8 3.8 0 0 0-2.56-.88c-1.1 0-2 .35-2.72 1.04a3.36 3.36 0 0 0-1.08 2.57v.08h-4.37v-.08Z" class="А-5"/>
      </g>
      <g class="Room">
        <rect width="144" height="326" x="1750" y="2386" fill="#8E96FF" rx="12"/>
        <path fill="#fff" d="M1805.98 2560v-4.02h-11.21v-4.01c1.83-3.5 4.84-8.34 9.04-14.52h6.66v14.75h2.94v3.78h-2.94v4.02h-4.49Zm-7.07-7.78v.12h7.17v-11.54h-.1a165.63 165.63 0 0 0-4.18 6.36 66.62 66.62 0 0 0-2.89 5.06Zm32.48 5.11a7.94 7.94 0 0 1-6.67 3.17 7.99 7.99 0 0 1-6.69-3.16c-1.62-2.11-2.44-5-2.44-8.65 0-3.64.82-6.5 2.44-8.6a8.03 8.03 0 0 1 6.69-3.15 7.96 7.96 0 0 1 6.67 3.14c1.63 2.09 2.44 4.96 2.44 8.59 0 3.65-.81 6.53-2.44 8.66Zm-9.86-2.72c.77 1.41 1.83 2.11 3.19 2.11 1.35 0 2.41-.7 3.17-2.1.76-1.4 1.14-3.38 1.14-5.93 0-2.53-.38-4.49-1.15-5.88-.77-1.39-1.82-2.09-3.16-2.09s-2.4.7-3.17 2.09c-.77 1.4-1.16 3.36-1.16 5.88 0 2.54.38 4.51 1.14 5.92Zm20.69 5.39v-18.22h-.1l-5.74 3.97v-4.25l5.82-4.05h4.69V2560h-4.67Z" class="А-5"/>
      </g>
      <g class="Room">
        <rect width="135" height="142" x="1607" y="2570" fill="#8E96FF" rx="12"/>
        <path fill="#fff" d="M1655.66 2632h-4.72v-9.27h-.19c-.46.36-1.14.7-2.05 1.02-.9.31-1.96.47-3.17.47-2.71 0-4.82-.77-6.34-2.31a8.33 8.33 0 0 1-2.27-6.05v-6.41h4.72v6.05a4.7 4.7 0 0 0 1.22 3.45c.82.82 2 1.22 3.53 1.22 1.12 0 2.05-.16 2.8-.48a5.6 5.6 0 0 0 1.75-1.1v-9.14h4.72V2632Zm8.15 0h-4.47v-16.75h4.47v10.47h.13l6.65-10.47h4.47V2632h-4.47v-10.59h-.12l-6.66 10.59Zm20.64-8.03a19.5 19.5 0 0 1-.45 3.41 9.42 9.42 0 0 1-1 2.56 4.33 4.33 0 0 1-1.75 1.7c-.72.38-1.58.56-2.59.56-.61 0-1.09-.07-1.46-.22v-3.84c.29.07.62.11.99.11.74 0 1.27-.4 1.59-1.19.33-.79.54-1.92.63-3.39l.47-8.42h12.7V2632h-4.55v-13.31h-4.25l-.33 5.28Zm18.53 0a19.5 19.5 0 0 1-.45 3.41 9.42 9.42 0 0 1-1 2.56 4.33 4.33 0 0 1-1.75 1.7c-.72.38-1.58.56-2.59.56-.61 0-1.09-.07-1.46-.22v-3.84c.3.07.62.11.99.11.74 0 1.27-.4 1.59-1.19.34-.79.54-1.92.63-3.39l.47-8.42h12.7V2632h-4.55v-13.31h-4.25l-.33 5.28Zm-46.07 45c1.01 0 1.86-.29 2.56-.88a2.77 2.77 0 0 0 1.06-2.23v-1.22l-3.53.22a3.6 3.6 0 0 0-1.98.64c-.46.36-.69.84-.69 1.44 0 .62.23 1.12.7 1.48.47.37 1.09.55 1.88.55Zm-1.5 3.3a5.8 5.8 0 0 1-4.02-1.43 4.66 4.66 0 0 1-1.59-3.65c0-1.52.56-2.72 1.68-3.58 1.13-.87 2.74-1.36 4.83-1.49l4.22-.24v-1.11c0-.78-.25-1.38-.76-1.82a3.05 3.05 0 0 0-2.05-.65c-.83 0-1.52.18-2.05.56-.52.37-.84.88-.95 1.52h-4.17a5.05 5.05 0 0 1 2.11-3.97c1.32-1.01 3.07-1.52 5.26-1.52 2.15 0 3.87.51 5.16 1.53a4.93 4.93 0 0 1 1.94 4.06V2672h-4.41v-2.56h-.09a5.02 5.02 0 0 1-2.1 2.08 6.3 6.3 0 0 1-3.01.75Zm14.98 5.93c-1 0-1.57-.01-1.72-.04v-3.52c.1.02.48.03 1.14.03.85 0 1.49-.14 1.92-.44.44-.28.74-.75.89-1.42l.08-.39c.06-.25.08-.38.07-.4l-5.83-16.77h5.01l3.57 13.09h.07l3.57-13.09h4.81l-5.77 17.13c-.72 2.14-1.66 3.65-2.84 4.51-1.17.88-2.82 1.31-4.97 1.31Zm29.13-22.95v3.44h-4.99V2672h-4.55v-13.31h-5v-3.44h14.54Z" class="А-5"/>
      </g>
      <g class="Room">
        <rect width="120" height="142" x="1287" y="2570" fill="#8E96FF" rx="12"/>
        <path fill="#fff" d="M1328.27 2652v-4.02h-11.22v-4.01c1.83-3.5 4.85-8.34 9.04-14.52h6.66v14.75h2.94v3.78h-2.94v4.02h-4.48Zm-7.08-7.78v.12h7.17v-11.54h-.09a167.6 167.6 0 0 0-4.19 6.36 70.21 70.21 0 0 0-2.89 5.06Zm32.48 5.11a7.94 7.94 0 0 1-6.67 3.17 7.99 7.99 0 0 1-6.69-3.16c-1.62-2.11-2.43-5-2.43-8.65 0-3.64.81-6.5 2.43-8.6a8.03 8.03 0 0 1 6.69-3.15 7.96 7.96 0 0 1 6.67 3.14c1.63 2.09 2.44 4.96 2.44 8.59 0 3.65-.81 6.53-2.44 8.66Zm-9.86-2.72c.77 1.41 1.84 2.11 3.19 2.11 1.35 0 2.41-.7 3.17-2.1.76-1.4 1.14-3.38 1.14-5.93 0-2.53-.38-4.49-1.15-5.88-.76-1.39-1.82-2.09-3.16-2.09s-2.4.7-3.17 2.09c-.77 1.4-1.16 3.36-1.16 5.88 0 2.54.38 4.51 1.14 5.92Zm23.47 5.89c-2.16 0-4-.58-5.55-1.73a7.01 7.01 0 0 1-2.78-4.52h4.66a3.3 3.3 0 0 0 1.36 1.83 4.2 4.2 0 0 0 2.39.69c1.57 0 2.79-.72 3.66-2.15.87-1.42 1.28-3.42 1.21-5.98h-.09a5.3 5.3 0 0 1-2.22 2.69c-1.06.66-2.32 1-3.78 1a7.32 7.32 0 0 1-5.34-2.11 7.19 7.19 0 0 1-2.14-5.33c0-2.31.81-4.21 2.45-5.7a8.85 8.85 0 0 1 6.23-2.25c1.64 0 3.1.35 4.39 1.06a8 8 0 0 1 3.13 3.06c1.26 1.94 1.89 4.43 1.89 7.47 0 3.74-.84 6.67-2.52 8.8-1.66 2.11-3.98 3.17-6.95 3.17Zm-2.84-12.86a4.04 4.04 0 0 0 2.94 1.14c1.17 0 2.15-.38 2.93-1.14a3.83 3.83 0 0 0 1.19-2.86c0-1.14-.4-2.11-1.19-2.89a3.95 3.95 0 0 0-2.9-1.19c-1.16 0-2.14.39-2.94 1.18-.8.78-1.2 1.73-1.2 2.87 0 1.16.39 2.12 1.17 2.89Z" class="А-5"/>
      </g>
      <g class="Room">
        <rect width="122" height="142" x="1005" y="2570" fill="#8E96FF" rx="12"/>
        <path fill="#fff" d="M1050.36 2652v-4.02h-11.22v-4.01c1.83-3.5 4.85-8.34 9.05-14.52h6.65v14.75h2.94v3.78h-2.94v4.02h-4.48Zm-7.08-7.78v.12h7.17v-11.54h-.09a167.6 167.6 0 0 0-4.19 6.36 74.2 74.2 0 0 0-2.89 5.06Zm22.56 7.78v-18.22h-.09l-5.75 3.97v-4.25l5.83-4.05h4.69V2652h-4.68Zm18.41.5a9.18 9.18 0 0 1-6-1.94 6.53 6.53 0 0 1-2.47-5.01h4.36a3.5 3.5 0 0 0 1.34 2.33 4.5 4.5 0 0 0 2.8.89c1.23 0 2.23-.39 3-1.16a4.1 4.1 0 0 0 1.17-3.02 4 4 0 0 0-4.14-4.25c-.85 0-1.63.19-2.33.57a4.2 4.2 0 0 0-1.62 1.51h-4.22l1.11-12.97h14.34v3.75h-10.64l-.51 6.18h.09a4.84 4.84 0 0 1 2-1.82 6.64 6.64 0 0 1 3.02-.65c2.15 0 3.92.71 5.31 2.14a7.36 7.36 0 0 1 2.09 5.42c0 2.38-.8 4.32-2.42 5.81-1.6 1.48-3.7 2.22-6.28 2.22Z" class="А-5"/>
      </g>
      <g class="Room">
        <rect width="118" height="142" x="879" y="2570" fill="#8E96FF" rx="12"/>
        <path fill="#fff" d="M923.2 2652v-4.02h-11.22v-4.01c1.84-3.5 4.85-8.34 9.05-14.52h6.66v14.75h2.93v3.78h-2.93v4.02h-4.49Zm-7.08-7.78v.12h7.18v-11.54h-.1a170.75 170.75 0 0 0-4.18 6.36 71.38 71.38 0 0 0-2.9 5.06Zm22.57 7.78v-18.22h-.1l-5.75 3.97v-4.25l5.83-4.05h4.69V2652h-4.67Zm10.9 0 9.7-18.7v-.1h-11.46v-3.75h16.12v3.8l-9.4 18.75h-4.96Z" class="А-5"/>
      </g>
      <g class="Room">
        <rect width="65" height="136" x="468" y="2576" fill="#8E96FF" rx="12"/>
        <path fill="#fff" d="M511.5 2660.84h-4.02v11.22h-4.01c-3.5-1.83-8.34-4.85-14.52-9.04v-6.66h14.75v-2.94h3.78v2.94h4.02v4.48Zm-7.78 7.08h.12v-7.17H492.3v.09a167.6 167.6 0 0 0 6.36 4.19 72.49 72.49 0 0 0 5.06 2.89Zm-7.99-16.81a6.65 6.65 0 0 1-5.23-2.31 8.8 8.8 0 0 1-2.05-6.02c0-2.36.62-4.29 1.85-5.78a5.77 5.77 0 0 1 4.67-2.23c.68 0 1.33.1 1.97.31.62.2 1.25.52 1.89.97.62.43 1.2.88 1.7 1.33.5.44 1.11 1.03 1.83 1.74l5.3 5.5h.09v-10.17h3.75v16.39h-3.17l-8.19-8.5a16.39 16.39 0 0 0-2.76-2.34 4.15 4.15 0 0 0-2.22-.64c-.86 0-1.58.34-2.16 1.02a3.77 3.77 0 0 0-.88 2.56c0 1.09.35 2 1.04 2.72a3.38 3.38 0 0 0 2.57 1.07h.08v4.38h-.08Zm15.77-20.75-18.7-9.7h-.1v11.46h-3.75V2616h3.8l18.75 9.41v4.95Z" class="А-5"/>
      </g>
      <g class="Room">
        <rect width="61" height="136" x="662" y="2576" fill="#8E96FF" rx="12"/>
        <path fill="#fff" d="M703.5 2661.77h-4.02v11.21h-4.01c-3.5-1.83-8.34-4.84-14.52-9.04v-6.66h14.75v-2.94h3.78v2.94h4.02v4.49Zm-7.78 7.07h.12v-7.17H684.3v.1c2.54 1.74 4.66 3.13 6.36 4.18a68.68 68.68 0 0 0 5.06 2.89Zm-7.99-16.81a6.65 6.65 0 0 1-5.23-2.31c-1.37-1.55-2.05-3.56-2.05-6.02 0-2.36.62-4.29 1.85-5.78a5.77 5.77 0 0 1 4.67-2.23c.68 0 1.33.1 1.97.31.62.2 1.25.52 1.89.97.62.44 1.2.88 1.7 1.33a41 41 0 0 1 1.83 1.75l5.3 5.5h.09v-10.17h3.75v16.39h-3.17l-8.19-8.5a16.08 16.08 0 0 0-2.76-2.35 4.15 4.15 0 0 0-2.22-.64c-.86 0-1.58.34-2.16 1.02a3.77 3.77 0 0 0-.88 2.56c0 1.09.35 2 1.04 2.72a3.39 3.39 0 0 0 2.57 1.08h.08v4.37h-.08Zm5.93-25.06h-3.41v-2.74c0-1.07-.3-1.94-.88-2.61a2.9 2.9 0 0 0-2.26-1c-.93 0-1.66.32-2.2.96a3.96 3.96 0 0 0-.83 2.69c0 1.09.3 1.97.89 2.65.6.68 1.38 1.05 2.37 1.11v4.35a6.57 6.57 0 0 1-5.01-2.4c-1.25-1.51-1.88-3.48-1.88-5.92 0-2.35.55-4.25 1.66-5.7a5.2 5.2 0 0 1 4.36-2.19c1.36 0 2.52.43 3.47 1.28a5.78 5.78 0 0 1 1.8 3.38h.09c.14-1.7.7-3.04 1.67-4.03.96-1 2.21-1.5 3.77-1.5a5.8 5.8 0 0 1 4.87 2.48c1.24 1.65 1.86 3.78 1.86 6.39 0 2.53-.63 4.58-1.9 6.14a6.7 6.7 0 0 1-5.05 2.5v-4.51a3.1 3.1 0 0 0 2.3-1.22c.57-.75.85-1.74.85-2.97 0-1.18-.3-2.14-.9-2.89a2.86 2.86 0 0 0-2.33-1.13c-1.03 0-1.84.37-2.42 1.1-.6.73-.9 1.73-.9 3v2.78Z" class="А-5"/>
      </g>
      <g class="Room">
        <rect width="67" height="136" x="731" y="2576" fill="#8E96FF" rx="12"/>
        <path fill="#fff" d="M775.5 2659.38h-4.02v11.21h-4.01c-3.5-1.83-8.34-4.85-14.52-9.04v-6.66h14.75v-2.94h3.78v2.94h4.02v4.49Zm-7.78 7.07h.12v-7.17H756.3v.1a178.6 178.6 0 0 0 6.36 4.18 72.49 72.49 0 0 0 5.06 2.89Zm-7.99-16.81a6.65 6.65 0 0 1-5.23-2.31c-1.37-1.55-2.05-3.56-2.05-6.02 0-2.36.62-4.29 1.85-5.78a5.77 5.77 0 0 1 4.67-2.23c.68 0 1.33.1 1.97.31.62.2 1.25.52 1.89.97.62.44 1.2.88 1.7 1.33a41 41 0 0 1 1.83 1.75l5.3 5.5h.09v-10.18h3.75v16.4h-3.17l-8.19-8.5a16.08 16.08 0 0 0-2.76-2.35 4.15 4.15 0 0 0-2.22-.64c-.86 0-1.58.34-2.16 1.02a3.77 3.77 0 0 0-.88 2.56c0 1.09.35 2 1.04 2.72a3.39 3.39 0 0 0 2.57 1.08h.08v4.37h-.08Zm15.77-25.22h-18.22v.1l3.97 5.75H757l-4.05-5.83v-4.69h22.55v4.67Z" class="А-5"/>
      </g>
      <g class="Room">
        <rect width="65" height="136" x="806" y="2576" fill="#8E96FF" rx="12"/>
        <path fill="#fff" d="M849.5 2659.92h-4.02v11.22h-4.01c-3.5-1.83-8.34-4.85-14.52-9.05v-6.65h14.75v-2.94h3.78v2.94h4.02v4.48Zm-7.78 7.08h.12v-7.17H830.3v.09a167.6 167.6 0 0 0 6.36 4.19 76.75 76.75 0 0 0 5.06 2.89Zm7.78-22.56h-18.22v.09l3.97 5.75H831l-4.05-5.83v-4.68h22.55v4.67Zm.5-17.91c0 2.16-.58 4.01-1.73 5.55a6.95 6.95 0 0 1-4.52 2.78v-4.66a3.3 3.3 0 0 0 1.83-1.36c.46-.68.69-1.48.69-2.39 0-1.57-.72-2.79-2.14-3.65-1.43-.88-3.43-1.28-5.99-1.22v.09a5.3 5.3 0 0 1 2.69 2.22c.66 1.06 1 2.32 1 3.78a7.23 7.23 0 0 1-7.44 7.49 7.36 7.36 0 0 1-5.7-2.46 8.85 8.85 0 0 1-2.25-6.23c0-1.64.35-3.1 1.06-4.39a8.04 8.04 0 0 1 3.06-3.13c1.94-1.26 4.43-1.89 7.47-1.89 3.74 0 6.67.84 8.8 2.52 2.11 1.66 3.17 3.98 3.17 6.95Zm-12.86 2.85a4.08 4.08 0 0 0 1.14-2.94c0-1.18-.38-2.16-1.14-2.94a3.84 3.84 0 0 0-2.86-1.19c-1.14 0-2.1.4-2.89 1.19a3.95 3.95 0 0 0-1.19 2.91c0 1.15.4 2.13 1.17 2.93a3.83 3.83 0 0 0 2.88 1.21 3.9 3.9 0 0 0 2.9-1.17Z" class="А-5"/>
      </g>
      <g class="Room">
        <rect width="127" height="133" x="813" y="2386" fill="#8E96FF" rx="12"/>
        <path fill="#fff" d="M860.56 2463.5v-4.02h-11.22v-4.01c1.84-3.5 4.85-8.34 9.05-14.52h6.66v14.75h2.93v3.78h-2.93v4.02h-4.49Zm-7.08-7.78v.12h7.18v-11.54h-.1a170.75 170.75 0 0 0-4.18 6.36 71.38 71.38 0 0 0-2.9 5.06Zm22.57 7.78v-18.22h-.1l-5.75 3.97V2445l5.83-4.05h4.69v22.55h-4.67Zm18.83.52a8.93 8.93 0 0 1-4.38-1.07 8.3 8.3 0 0 1-3.1-3.09c-1.27-1.93-1.9-4.41-1.9-7.45 0-3.72.84-6.64 2.53-8.77s4-3.2 6.92-3.2c2.15 0 3.99.58 5.52 1.73a6.93 6.93 0 0 1 2.76 4.5h-4.64a3.33 3.33 0 0 0-1.34-1.81 4 4 0 0 0-2.33-.69c-1.58 0-2.82.72-3.7 2.16-.88 1.44-1.29 3.42-1.24 5.95h.1c.46-1.11 1.22-2 2.28-2.67 1.06-.67 2.3-1 3.72-1 2.14 0 3.92.71 5.33 2.12a7.19 7.19 0 0 1 2.12 5.32c0 2.32-.81 4.23-2.44 5.73a8.85 8.85 0 0 1-6.22 2.24Zm-.05-3.77c1.14 0 2.11-.39 2.9-1.17.8-.79 1.2-1.76 1.2-2.89 0-1.17-.38-2.13-1.16-2.89a4 4 0 0 0-2.93-1.14 4.1 4.1 0 0 0-2.95 1.14 3.8 3.8 0 0 0-1.17 2.84 4 4 0 0 0 1.19 2.92 3.97 3.97 0 0 0 2.92 1.19Z" class="А-5"/>
      </g>
      <g class="Room">
        <rect width="64" height="133" x="1202" y="2386" fill="#8E96FF" rx="12"/>
        <path fill="#fff" d="M1245 2468.56h-4.02v11.22h-4.01c-3.5-1.83-8.34-4.85-14.52-9.05v-6.65h14.75v-2.94h3.78v2.94h4.02v4.48Zm-7.78 7.08h.12v-7.17h-11.54v.09a167.6 167.6 0 0 0 6.36 4.19 70.21 70.21 0 0 0 5.06 2.89Zm7.78-22.56h-18.22v.09l3.97 5.75h-4.25l-4.05-5.83v-4.68H1245v4.67Zm-2.67-25.24a7.95 7.95 0 0 1 3.17 6.68 7.96 7.96 0 0 1-3.16 6.68c-2.11 1.63-5 2.44-8.65 2.44-3.64 0-6.5-.81-8.6-2.44a8 8 0 0 1-3.15-6.68 7.98 7.98 0 0 1 3.14-6.68c2.09-1.62 4.96-2.43 8.59-2.43 3.65 0 6.53.81 8.66 2.43Zm-2.72 9.86c1.41-.77 2.11-1.83 2.11-3.18 0-1.36-.7-2.42-2.1-3.18-1.4-.76-3.38-1.14-5.93-1.14-2.53 0-4.49.39-5.88 1.16-1.39.76-2.09 1.81-2.09 3.16 0 1.34.7 2.4 2.09 3.17 1.4.77 3.36 1.15 5.88 1.15 2.54 0 4.51-.38 5.92-1.14Z" class="А-5"/>
      </g>
      <g class="Room">
        <rect width="65" height="133" x="1274" y="2386" fill="#8E96FF" rx="12"/>
        <path fill="#fff" d="M1317.5 2471.34h-4.02v11.22h-4.01c-3.5-1.83-8.34-4.85-14.52-9.04v-6.66h14.75v-2.94h3.78v2.94h4.02v4.48Zm-7.78 7.08h.12v-7.17h-11.54v.09a167.6 167.6 0 0 0 6.36 4.19 70.21 70.21 0 0 0 5.06 2.89Zm5.11-32.48a7.94 7.94 0 0 1 3.17 6.67 7.99 7.99 0 0 1-3.16 6.69c-2.11 1.62-5 2.43-8.65 2.43-3.64 0-6.5-.81-8.6-2.43a8.03 8.03 0 0 1-3.15-6.69 7.96 7.96 0 0 1 3.14-6.67c2.09-1.63 4.96-2.44 8.59-2.44 3.65 0 6.53.81 8.66 2.44Zm-2.72 9.86c1.41-.77 2.11-1.84 2.11-3.19 0-1.35-.7-2.41-2.1-3.17-1.4-.76-3.38-1.14-5.93-1.14-2.53 0-4.49.38-5.88 1.15-1.39.76-2.09 1.82-2.09 3.16s.7 2.4 2.09 3.17c1.4.77 3.36 1.16 5.88 1.16 2.54 0 4.51-.38 5.92-1.14Zm5.89-24.05c0 2.73-.61 4.94-1.83 6.63a5.68 5.68 0 0 1-4.78 2.51 5.4 5.4 0 0 1-3.8-1.47 6.46 6.46 0 0 1-1.98-3.83h-.09a5.87 5.87 0 0 1-1.85 3.19 5.08 5.08 0 0 1-7.53-1.11c-1.12-1.54-1.69-3.51-1.69-5.92 0-2.42.57-4.39 1.69-5.92a5.1 5.1 0 0 1 7.52-1.1 5.98 5.98 0 0 1 1.86 3.18h.09a6.48 6.48 0 0 1 2-3.83 5.38 5.38 0 0 1 3.8-1.47c1.95 0 3.54.85 4.76 2.55 1.22 1.68 1.83 3.88 1.83 6.59Zm-4.42 3.05c.65-.79.98-1.81.98-3.05 0-1.24-.33-2.25-.98-3.03a3.19 3.19 0 0 0-2.53-1.17c-1.02 0-1.86.39-2.52 1.17-.67.78-1 1.79-1 3.03 0 1.24.33 2.26 1 3.05.66.78 1.5 1.17 2.52 1.17s1.86-.39 2.53-1.17Zm-10.36-.49c.58-.66.87-1.52.87-2.56s-.29-1.9-.87-2.56c-.6-.67-1.34-1-2.24-1-.9 0-1.65.33-2.23 1a3.71 3.71 0 0 0-.89 2.56c0 1.04.3 1.9.89 2.56.58.67 1.33 1 2.23 1 .91 0 1.66-.33 2.24-1Z" class="А-5"/>
      </g>
      <g class="Room">
        <rect width="56" height="133" x="1347" y="2386" fill="#8E96FF" rx="12"/>
        <path fill="#fff" d="M1386 2471.2h-4.02v11.22h-4.01c-3.5-1.83-8.34-4.85-14.52-9.04v-6.66h14.75v-2.94h3.78v2.94h4.02v4.48Zm-7.78 7.08h.12v-7.17h-11.54v.09a167.6 167.6 0 0 0 6.36 4.19 70.21 70.21 0 0 0 5.06 2.89Zm5.11-32.48a7.94 7.94 0 0 1 3.17 6.67 7.99 7.99 0 0 1-3.16 6.69c-2.11 1.62-5 2.43-8.65 2.43-3.64 0-6.5-.81-8.6-2.43a8.03 8.03 0 0 1-3.15-6.69 7.96 7.96 0 0 1 3.14-6.67c2.09-1.63 4.96-2.44 8.59-2.44 3.65 0 6.53.81 8.66 2.44Zm-2.72 9.86c1.41-.77 2.11-1.84 2.11-3.19 0-1.36-.7-2.41-2.1-3.17-1.4-.76-3.38-1.14-5.93-1.14-2.53 0-4.49.38-5.88 1.15-1.39.76-2.09 1.81-2.09 3.16 0 1.34.7 2.4 2.09 3.17 1.4.77 3.36 1.16 5.88 1.16 2.54 0 4.51-.38 5.92-1.14Zm5.91-24.3a8.23 8.23 0 0 1-4.16 7.48c-1.93 1.26-4.41 1.89-7.45 1.89-3.72 0-6.64-.84-8.77-2.53a8.34 8.34 0 0 1-3.2-6.92c0-2.14.58-3.98 1.73-5.51a6.9 6.9 0 0 1 4.5-2.77v4.64c-.75.23-1.35.68-1.81 1.34a4.02 4.02 0 0 0-.69 2.33c0 1.59.72 2.82 2.16 3.71 1.44.87 3.42 1.28 5.95 1.23v-.09a5.68 5.68 0 0 1-2.67-2.28 6.86 6.86 0 0 1-1-3.72 7.2 7.2 0 0 1 2.12-5.33 7.18 7.18 0 0 1 5.32-2.13c2.32 0 4.23.82 5.73 2.44a8.86 8.86 0 0 1 2.24 6.22Zm-3.77.05c0-1.15-.39-2.12-1.17-2.91a3.92 3.92 0 0 0-2.89-1.2 3.98 3.98 0 0 0-4.03 4.09c0 1.18.38 2.16 1.14 2.95a3.82 3.82 0 0 0 2.84 1.18 4 4 0 0 0 2.92-1.19 3.98 3.98 0 0 0 1.19-2.92Z" class="А-5"/>
      </g>
      <g class="Room">
        <rect width="66" height="133" x="1411" y="2386" fill="#8E96FF" rx="12"/>
        <path fill="#fff" d="M1455 2471.28h-4.02v11.22h-4.01c-3.5-1.83-8.34-4.85-14.52-9.05v-6.65h14.75v-2.94h3.78v2.94h4.02v4.48Zm-7.78 7.08h.12v-7.17h-11.54v.09a167.6 167.6 0 0 0 6.36 4.19 74.2 74.2 0 0 0 5.06 2.89Zm5.11-32.48a7.92 7.92 0 0 1 3.17 6.67 7.96 7.96 0 0 1-3.16 6.68c-2.11 1.63-5 2.44-8.65 2.44-3.64 0-6.5-.81-8.6-2.44a8 8 0 0 1-3.15-6.68 7.95 7.95 0 0 1 3.14-6.67c2.09-1.63 4.96-2.44 8.59-2.44 3.65 0 6.53.81 8.66 2.44Zm-2.72 9.85c1.41-.77 2.11-1.83 2.11-3.18 0-1.36-.7-2.41-2.1-3.17-1.4-.77-3.38-1.15-5.93-1.15-2.53 0-4.49.39-5.88 1.16-1.39.76-2.09 1.81-2.09 3.16 0 1.34.7 2.4 2.09 3.17 1.4.77 3.36 1.16 5.88 1.16 2.54 0 4.51-.39 5.92-1.15Zm5.39-25.95h-4.02V2441h-4.01c-3.5-1.83-8.34-4.85-14.52-9.05v-6.65h14.75v-2.94h3.78v2.94h4.02v4.48Zm-7.78 7.08h.12v-7.17h-11.54v.09a167.6 167.6 0 0 0 6.36 4.19 74.2 74.2 0 0 0 5.06 2.89Z" class="А-5"/>
      </g>
      <g class="Room">
        <rect width="124" height="133" x="1485" y="2386" fill="#8E96FF" rx="12"/>
        <path fill="#fff" d="M1529.02 2463.5v-4.02h-11.22v-4.01c1.83-3.5 4.85-8.34 9.04-14.52h6.66v14.75h2.94v3.78h-2.94v4.02h-4.48Zm-7.08-7.78v.12h7.17v-11.54h-.09a167.6 167.6 0 0 0-4.19 6.36 70.21 70.21 0 0 0-2.89 5.06Zm32.48 5.11a7.94 7.94 0 0 1-6.67 3.17 7.99 7.99 0 0 1-6.69-3.16c-1.62-2.11-2.44-5-2.44-8.65 0-3.64.82-6.5 2.44-8.6a8.03 8.03 0 0 1 6.69-3.15 7.96 7.96 0 0 1 6.67 3.14c1.63 2.09 2.44 4.96 2.44 8.59 0 3.65-.81 6.53-2.44 8.66Zm-9.86-2.72c.77 1.41 1.84 2.11 3.19 2.11 1.35 0 2.41-.7 3.17-2.1.76-1.4 1.14-3.38 1.14-5.93 0-2.53-.38-4.49-1.15-5.88-.76-1.39-1.82-2.09-3.16-2.09s-2.4.7-3.17 2.09c-.77 1.4-1.16 3.36-1.16 5.88 0 2.54.38 4.51 1.14 5.92Zm14.78-10.38c0-2.13.77-3.88 2.32-5.23a8.78 8.78 0 0 1 6.01-2.05c2.37 0 4.29.62 5.78 1.85a5.77 5.77 0 0 1 2.24 4.67 6.54 6.54 0 0 1-1.28 3.86c-.44.62-.88 1.19-1.33 1.7-.45.5-1.03 1.11-1.75 1.83l-5.5 5.3v.09H1576v3.75h-16.39v-3.17l8.5-8.19a15.92 15.92 0 0 0 2.34-2.76c.43-.7.64-1.44.64-2.22 0-.86-.33-1.58-1.01-2.16a3.8 3.8 0 0 0-2.56-.88c-1.1 0-2 .35-2.72 1.04a3.36 3.36 0 0 0-1.08 2.57v.08h-4.38v-.08Z" class="А-5"/>
      </g>
      <g class="Room">
        <rect width="68" height="142" x="1135" y="2570" fill="#8E96FF" rx="12"/>
        <path fill="#fff" d="M1180 2656.72h-4.02v11.22h-4.01c-3.5-1.84-8.34-4.85-14.52-9.05v-6.66h14.75v-2.93h3.78v2.93h4.02v4.49Zm-7.78 7.08h.12v-7.18h-11.54v.1c2.54 1.74 4.66 3.13 6.36 4.19a74.2 74.2 0 0 0 5.06 2.89Zm7.78-22.57h-18.22v.1l3.97 5.75h-4.25l-4.05-5.83v-4.69H1180v4.67Zm-9.84-15.21h-3.41v-2.74c0-1.07-.29-1.94-.87-2.61a2.9 2.9 0 0 0-2.27-1c-.93 0-1.66.32-2.2.95a3.96 3.96 0 0 0-.83 2.69c0 1.1.3 1.98.89 2.66a3.26 3.26 0 0 0 2.37 1.11v4.34a6.52 6.52 0 0 1-5.01-2.39c-1.25-1.51-1.88-3.48-1.88-5.92 0-2.35.56-4.26 1.66-5.7a5.2 5.2 0 0 1 4.36-2.19c1.36 0 2.52.43 3.47 1.28a5.73 5.73 0 0 1 1.79 3.38h.1c.14-1.7.7-3.05 1.67-4.04.96-1 2.21-1.5 3.77-1.5a5.8 5.8 0 0 1 4.87 2.49c1.24 1.64 1.86 3.77 1.86 6.39 0 2.53-.64 4.58-1.91 6.14a6.72 6.72 0 0 1-5.04 2.5v-4.52a3.04 3.04 0 0 0 2.29-1.22c.58-.74.86-1.73.86-2.96 0-1.18-.3-2.14-.9-2.89a2.87 2.87 0 0 0-2.33-1.13c-1.03 0-1.84.37-2.42 1.09-.6.73-.89 1.73-.89 3v2.79Z" class="А-5"/>
      </g>
      <g class="Room">
        <rect width="68" height="142" x="1211" y="2570" fill="#8E96FF" rx="12"/>
        <path fill="#fff" d="M1256 2654.33h-4.02v11.22h-4.01c-3.5-1.84-8.34-4.85-14.52-9.05v-6.66h14.75v-2.93h3.78v2.93h4.02v4.49Zm-7.78 7.08h.12v-7.18h-11.54v.1c2.54 1.74 4.66 3.13 6.36 4.19a74.2 74.2 0 0 0 5.06 2.89Zm7.78-22.57h-18.22v.1l3.97 5.75h-4.25l-4.05-5.83v-4.69H1256v4.67Zm0-15.37h-18.22v.09l3.97 5.75h-4.25l-4.05-5.83v-4.68H1256v4.67Z" class="А-5"/>
      </g>
      <g class="Room">
        <rect width="94" height="142" x="1415" y="2570" fill="#8E96FF" rx="12"/>
        <path fill="#fff" d="M1444.72 2652v-4.02h-11.22v-4.01c1.83-3.5 4.85-8.34 9.05-14.52h6.65v14.75h2.94v3.78h-2.94v4.02h-4.48Zm-7.08-7.78v.12h7.17v-11.54h-.09a167.6 167.6 0 0 0-4.19 6.36 74.2 74.2 0 0 0-2.89 5.06Zm32.48 5.11a7.92 7.92 0 0 1-6.67 3.17 7.96 7.96 0 0 1-6.68-3.16c-1.63-2.11-2.44-5-2.44-8.65 0-3.64.81-6.5 2.44-8.6a8 8 0 0 1 6.68-3.15 7.95 7.95 0 0 1 6.67 3.14c1.63 2.09 2.44 4.96 2.44 8.59 0 3.65-.81 6.53-2.44 8.66Zm-9.85-2.72c.77 1.41 1.83 2.11 3.18 2.11 1.36 0 2.41-.7 3.17-2.1.77-1.4 1.15-3.38 1.15-5.93 0-2.53-.39-4.49-1.16-5.88-.76-1.39-1.81-2.09-3.16-2.09-1.34 0-2.4.7-3.17 2.09-.77 1.4-1.16 3.36-1.16 5.88 0 2.54.39 4.51 1.15 5.92Zm15.81 5.39 9.7-18.7v-.1h-11.47v-3.75h16.13v3.8l-9.41 18.75h-4.95Z" class="А-5"/>
      </g>
      <g class="Room">
        <rect width="82" height="142" x="1517" y="2570" fill="#8E96FF" rx="12"/>
        <path fill="#fff" d="M1539.67 2652v-4.02h-11.22v-4.01c1.84-3.5 4.85-8.34 9.05-14.52h6.66v14.75h2.93v3.78h-2.93v4.02h-4.49Zm-7.08-7.78v.12h7.18v-11.54h-.1a180.85 180.85 0 0 0-4.19 6.36 74.2 74.2 0 0 0-2.89 5.06Zm32.49 5.11a7.95 7.95 0 0 1-6.67 3.17 7.97 7.97 0 0 1-6.69-3.16c-1.63-2.11-2.44-5-2.44-8.65 0-3.64.81-6.5 2.44-8.6a8 8 0 0 1 6.69-3.15 7.98 7.98 0 0 1 6.67 3.14c1.62 2.09 2.44 4.96 2.44 8.59 0 3.65-.82 6.53-2.44 8.66Zm-9.86-2.72c.77 1.41 1.83 2.11 3.19 2.11 1.35 0 2.41-.7 3.17-2.1.76-1.4 1.14-3.38 1.14-5.93 0-2.53-.39-4.49-1.16-5.88-.76-1.39-1.81-2.09-3.15-2.09-1.35 0-2.4.7-3.18 2.09-.77 1.4-1.15 3.36-1.15 5.88 0 2.54.38 4.51 1.14 5.92Zm23.72 5.89a9.18 9.18 0 0 1-6-1.94 6.5 6.5 0 0 1-2.47-5.01h4.36c.13.96.58 1.73 1.34 2.33.77.59 1.71.89 2.8.89 1.23 0 2.23-.39 3-1.16a4.1 4.1 0 0 0 1.17-3.02c0-1.25-.38-2.27-1.16-3.06a3.98 3.98 0 0 0-2.98-1.19c-.85 0-1.63.19-2.33.57-.69.36-1.23.87-1.62 1.51h-4.22l1.11-12.97h14.34v3.75h-10.64l-.52 6.18h.1a4.78 4.78 0 0 1 2-1.82 6.6 6.6 0 0 1 3.01-.65c2.16 0 3.93.71 5.32 2.14a7.4 7.4 0 0 1 2.09 5.42c0 2.38-.81 4.32-2.42 5.81-1.61 1.48-3.7 2.22-6.28 2.22Z" class="А-5"/>
      </g>
      <g class="Room">
        <rect width="185" height="106" x="2582" y="569" fill="#8E96FF" rx="12"/>
        <path fill="#fff" d="M2656.47 633v-4.02h-11.22v-4.01c1.83-3.5 4.85-8.34 9.05-14.52h6.65v14.75h2.94v3.78h-2.94V633h-4.48Zm-7.08-7.78v.12h7.17V613.8h-.09a170.96 170.96 0 0 0-4.19 6.36 76.75 76.75 0 0 0-2.89 5.06Zm25.75 8.28a9.17 9.17 0 0 1-6-1.94 6.54 6.54 0 0 1-2.47-5.01h4.36c.14.96.58 1.73 1.35 2.33.77.59 1.7.89 2.79.89 1.23 0 2.23-.39 3-1.16a4.08 4.08 0 0 0 1.17-3.02 4.2 4.2 0 0 0-1.15-3.06 4 4 0 0 0-2.99-1.19 4.8 4.8 0 0 0-2.32.57c-.69.36-1.23.87-1.63 1.51h-4.22l1.11-12.97h14.34v3.75h-10.64l-.51 6.17h.09a4.87 4.87 0 0 1 2-1.8 6.68 6.68 0 0 1 3.02-.66 7.1 7.1 0 0 1 5.31 2.14 7.38 7.38 0 0 1 2.09 5.42c0 2.38-.8 4.32-2.42 5.81-1.6 1.48-3.7 2.22-6.28 2.22Zm20 0a9.17 9.17 0 0 1-6-1.94 6.54 6.54 0 0 1-2.47-5.01h4.36c.14.96.58 1.73 1.35 2.33.77.59 1.7.89 2.79.89 1.23 0 2.23-.39 3-1.16a4.08 4.08 0 0 0 1.17-3.02 4.2 4.2 0 0 0-1.15-3.06 4 4 0 0 0-2.99-1.19 4.8 4.8 0 0 0-2.32.57c-.69.36-1.23.87-1.63 1.51h-4.22l1.11-12.97h14.34v3.75h-10.64l-.51 6.17h.09a4.87 4.87 0 0 1 2-1.8 6.68 6.68 0 0 1 3.02-.66 7.1 7.1 0 0 1 5.31 2.14 7.38 7.38 0 0 1 2.09 5.42c0 2.38-.8 4.32-2.42 5.81-1.6 1.48-3.7 2.22-6.28 2.22Z" class="А-5"/>
      </g>
      <g class="Room">
        <rect width="108" height="84" x="2487" y="903" fill="#8E96FF" rx="12"/>
        <path fill="#fff" d="M2522.45 956v-4.02h-11.22v-4.01c1.84-3.5 4.85-8.34 9.05-14.52h6.66v14.75h2.94v3.78h-2.94V956h-4.49Zm-7.07-7.78v.12h7.17V936.8h-.1a168.92 168.92 0 0 0-4.18 6.36 68.68 68.68 0 0 0-2.89 5.06Zm22.56-2.06v-3.41h2.73c1.07 0 1.94-.3 2.61-.88.67-.58 1-1.33 1-2.26 0-.93-.32-1.66-.95-2.2a3.98 3.98 0 0 0-2.69-.83 3.9 3.9 0 0 0-2.66.89 3.3 3.3 0 0 0-1.1 2.37h-4.35a6.52 6.52 0 0 1 2.39-5.01c1.51-1.25 3.49-1.88 5.92-1.88 2.36 0 4.26.55 5.71 1.66a5.2 5.2 0 0 1 2.18 4.36c0 1.36-.42 2.52-1.28 3.47a5.75 5.75 0 0 1-3.37 1.8v.09c1.7.14 3.04.7 4.03 1.67 1 .96 1.5 2.21 1.5 3.77a5.8 5.8 0 0 1-2.49 4.87c-1.64 1.24-3.77 1.86-6.39 1.86-2.53 0-4.57-.63-6.14-1.9a6.73 6.73 0 0 1-2.5-5.05h4.52c.07.96.48 1.72 1.22 2.3.75.57 1.74.85 2.97.85a4.5 4.5 0 0 0 2.89-.9 2.85 2.85 0 0 0 1.12-2.33c0-1.03-.36-1.84-1.09-2.42-.73-.6-1.73-.9-3-.9h-2.78Zm23.51 10.34c-2.73 0-4.93-.6-6.62-1.83a5.67 5.67 0 0 1-2.52-4.78 5.4 5.4 0 0 1 1.47-3.8 6.49 6.49 0 0 1 3.83-1.98v-.1a5.86 5.86 0 0 1-3.19-1.84 5.07 5.07 0 0 1 1.11-7.53 9.83 9.83 0 0 1 5.92-1.69c2.42 0 4.39.57 5.93 1.7a5.08 5.08 0 0 1 1.09 7.5 5.86 5.86 0 0 1-3.17 1.87v.09c1.58.27 2.86.94 3.82 2a5.37 5.37 0 0 1 1.47 3.8c0 1.96-.85 3.54-2.54 4.76-1.69 1.22-3.89 1.83-6.6 1.83Zm-3.04-4.42c.79.65 1.8.98 3.04.98s2.25-.33 3.03-.98a3.17 3.17 0 0 0 1.18-2.53c0-1.02-.39-1.86-1.18-2.52a4.5 4.5 0 0 0-3.03-1c-1.24 0-2.25.34-3.04 1a3.12 3.12 0 0 0-1.18 2.52c0 1.02.39 1.86 1.18 2.53Zm.48-10.36c.67.58 1.52.87 2.56.87s1.9-.29 2.57-.87c.66-.6 1-1.34 1-2.24 0-.9-.34-1.65-1-2.23-.67-.6-1.53-.9-2.57-.9-1.04 0-1.89.3-2.56.9-.67.58-1 1.33-1 2.23 0 .91.33 1.65 1 2.24Z" class="А-5"/>
      </g>
      <g class="Room">
        <rect width="108" height="61" x="2487" y="995" fill="#8E96FF" rx="12"/>
        <path fill="#fff" d="M2522.94 1036.5v-4.02h-11.22v-4.01c1.83-3.5 4.85-8.34 9.05-14.52h6.65v14.75h2.94v3.78h-2.94v4.02h-4.48Zm-7.08-7.78v.12h7.17v-11.54h-.09a167.6 167.6 0 0 0-4.19 6.36 70.21 70.21 0 0 0-2.89 5.06Zm27.83 7.78v-4.02h-11.22v-4.01c1.83-3.5 4.85-8.34 9.05-14.52h6.65v14.75h2.94v3.78h-2.94v4.02h-4.48Zm-7.08-7.78v.12h7.17v-11.54h-.09a167.6 167.6 0 0 0-4.19 6.36 70.21 70.21 0 0 0-2.89 5.06Zm16.81-7.99c0-2.13.77-3.88 2.31-5.23a8.82 8.82 0 0 1 6.02-2.05c2.36 0 4.29.62 5.78 1.85a5.77 5.77 0 0 1 2.24 4.67 6.8 6.8 0 0 1-1.29 3.86c-.43.62-.88 1.19-1.32 1.7a59 59 0 0 1-1.75 1.83l-5.5 5.3v.09h10.17v3.75h-16.39v-3.17l8.5-8.19a16.9 16.9 0 0 0 2.34-2.76c.43-.7.64-1.44.64-2.22 0-.86-.34-1.58-1.01-2.16a3.83 3.83 0 0 0-2.57-.88c-1.09 0-2 .35-2.71 1.04a3.36 3.36 0 0 0-1.08 2.57v.08h-4.38v-.08Z" class="А-5"/>
      </g>
      <g class="Room">
        <rect width="108" height="60" x="2487" y="1064" fill="#8E96FF" rx="12"/>
        <path fill="#fff" d="M2522.22 1105v-4.02H2511v-4.01c1.83-3.5 4.85-8.34 9.05-14.52h6.65v14.75h2.94v3.78h-2.94v4.02h-4.48Zm-7.08-7.78v.12h7.17v-11.54h-.09a167.6 167.6 0 0 0-4.19 6.36 74.2 74.2 0 0 0-2.89 5.06Zm27.83 7.78v-4.02h-11.22v-4.01c1.83-3.5 4.85-8.34 9.05-14.52h6.65v14.75h2.94v3.78h-2.94v4.02h-4.48Zm-7.08-7.78v.12h7.17v-11.54h-.09a167.6 167.6 0 0 0-4.19 6.36 74.2 74.2 0 0 0-2.89 5.06Zm27.83 7.78v-4.02h-11.22v-4.01c1.83-3.5 4.85-8.34 9.05-14.52h6.65v14.75h2.94v3.78h-2.94v4.02h-4.48Zm-7.08-7.78v.12h7.17v-11.54h-.09a167.6 167.6 0 0 0-4.19 6.36 74.2 74.2 0 0 0-2.89 5.06Z" class="А-5"/>
      </g>
      <g class="Room">
        <rect width="108" height="86" x="2487" y="1132" fill="#8E96FF" rx="12"/>
        <path fill="#fff" d="M2522.34 1186v-4.02h-11.22v-4.01c1.84-3.5 4.85-8.34 9.05-14.52h6.66v14.75h2.94v3.78h-2.94v4.02h-4.49Zm-7.07-7.78v.12h7.17v-11.54h-.1a165.63 165.63 0 0 0-4.18 6.36 66.62 66.62 0 0 0-2.89 5.06Zm26.07 8.3a8.92 8.92 0 0 1-4.37-1.07 8.3 8.3 0 0 1-3.11-3.09c-1.26-1.93-1.89-4.41-1.89-7.45 0-3.72.84-6.64 2.53-8.77a8.35 8.35 0 0 1 6.92-3.2c2.15 0 3.99.58 5.52 1.73a6.92 6.92 0 0 1 2.76 4.5h-4.64a3.31 3.31 0 0 0-1.34-1.81 4 4 0 0 0-2.33-.69c-1.58 0-2.82.72-3.7 2.16-.88 1.44-1.29 3.42-1.24 5.95h.1c.46-1.11 1.22-2 2.28-2.67 1.06-.67 2.3-1 3.72-1a7.24 7.24 0 0 1 7.45 7.44c0 2.32-.81 4.23-2.44 5.73a8.84 8.84 0 0 1-6.22 2.24Zm-.04-3.77c1.14 0 2.11-.39 2.9-1.17a3.89 3.89 0 0 0 1.21-2.89 3.98 3.98 0 0 0-4.1-4.03 4.1 4.1 0 0 0-2.95 1.14 3.8 3.8 0 0 0-1.17 2.84c0 1.15.39 2.12 1.19 2.92a3.97 3.97 0 0 0 2.92 1.19Zm22.29 3.25v-4.02h-11.21v-4.01c1.83-3.5 4.84-8.34 9.04-14.52h6.66v14.75h2.94v3.78h-2.94v4.02h-4.49Zm-7.07-7.78v.12h7.17v-11.54h-.1a165.63 165.63 0 0 0-4.18 6.36 66.62 66.62 0 0 0-2.89 5.06Z" class="А-5"/>
      </g>
      <g class="Room">
        <rect width="125" height="82" x="2642" y="1136" fill="#8E96FF" rx="12"/>
        <path fill="#fff" d="M2686.14 1188v-4.02h-11.22v-4.01c1.84-3.5 4.85-8.34 9.05-14.52h6.65v14.75h2.94v3.78h-2.94v4.02h-4.48Zm-7.08-7.78v.12h7.17v-11.54h-.09a180.85 180.85 0 0 0-4.19 6.36 74.2 74.2 0 0 0-2.89 5.06Zm26.08 8.3a8.23 8.23 0 0 1-7.48-4.16c-1.26-1.93-1.89-4.41-1.89-7.45 0-3.72.84-6.64 2.53-8.77a8.34 8.34 0 0 1 6.92-3.2c2.14 0 3.98.58 5.51 1.73a6.9 6.9 0 0 1 2.77 4.5h-4.64a3.36 3.36 0 0 0-1.34-1.81 4.02 4.02 0 0 0-2.33-.69c-1.59 0-2.82.72-3.71 2.16-.87 1.44-1.28 3.42-1.23 5.95h.09c.46-1.11 1.22-2 2.28-2.67 1.07-.67 2.31-1 3.72-1a7.2 7.2 0 0 1 5.33 2.12 7.18 7.18 0 0 1 2.13 5.32c0 2.32-.82 4.23-2.44 5.73a8.86 8.86 0 0 1-6.22 2.24Zm-.05-3.77c1.15 0 2.12-.39 2.91-1.17.8-.79 1.2-1.76 1.2-2.89a3.98 3.98 0 0 0-4.09-4.03c-1.18 0-2.16.38-2.95 1.14a3.82 3.82 0 0 0-1.18 2.84 4 4 0 0 0 1.19 2.92 3.98 3.98 0 0 0 2.92 1.19Zm17.03-6.59v-3.41h2.74c1.07 0 1.94-.29 2.61-.87.67-.59 1-1.34 1-2.27 0-.93-.32-1.66-.95-2.2a3.96 3.96 0 0 0-2.69-.83c-1.1 0-1.98.3-2.66.89a3.26 3.26 0 0 0-1.11 2.37h-4.34a6.52 6.52 0 0 1 2.39-5.01c1.51-1.25 3.48-1.88 5.92-1.88 2.36 0 4.26.56 5.7 1.66a5.2 5.2 0 0 1 2.19 4.36c0 1.36-.43 2.52-1.28 3.47a5.73 5.73 0 0 1-3.37 1.79v.1a6.3 6.3 0 0 1 4.03 1.67c1 .96 1.5 2.21 1.5 3.77a5.8 5.8 0 0 1-2.49 4.87c-1.64 1.24-3.77 1.86-6.39 1.86-2.53 0-4.58-.64-6.14-1.91a6.72 6.72 0 0 1-2.5-5.04h4.52c.07.96.48 1.72 1.22 2.29.75.58 1.74.86 2.96.86 1.18 0 2.14-.3 2.9-.9a2.89 2.89 0 0 0 1.12-2.33c0-1.03-.36-1.84-1.09-2.42a4.59 4.59 0 0 0-3-.89h-2.79Z" class="А-5"/>
      </g>
      <g class="Room">
        <rect width="125" height="55" x="2642" y="1073" fill="#8E96FF" rx="12"/>
        <path fill="#fff" d="M2688.53 1111.5v-4.02h-11.22v-4.01c1.84-3.5 4.85-8.34 9.05-14.52h6.66v14.75h2.93v3.78h-2.93v4.02h-4.49Zm-7.08-7.78v.12h7.17v-11.54h-.09a180.85 180.85 0 0 0-4.19 6.36 74.2 74.2 0 0 0-2.89 5.06Zm26.08 8.3a8.92 8.92 0 0 1-4.37-1.07 8.3 8.3 0 0 1-3.11-3.09c-1.26-1.93-1.89-4.41-1.89-7.45 0-3.72.84-6.64 2.53-8.77a8.35 8.35 0 0 1 6.92-3.2 8.9 8.9 0 0 1 5.51 1.73 6.9 6.9 0 0 1 2.77 4.5h-4.64a3.36 3.36 0 0 0-1.34-1.81 4.02 4.02 0 0 0-2.33-.69c-1.59 0-2.82.72-3.7 2.16-.88 1.44-1.29 3.42-1.24 5.95h.09c.46-1.11 1.22-2 2.29-2.67a6.8 6.8 0 0 1 3.71-1 7.2 7.2 0 0 1 5.33 2.12 7.18 7.18 0 0 1 2.13 5.32c0 2.32-.81 4.23-2.44 5.73a8.86 8.86 0 0 1-6.22 2.24Zm-.05-3.77c1.15 0 2.12-.39 2.91-1.17.8-.79 1.2-1.76 1.2-2.89a3.98 3.98 0 0 0-4.09-4.03c-1.18 0-2.16.38-2.95 1.14a3.8 3.8 0 0 0-1.17 2.84c0 1.15.39 2.12 1.18 2.92a3.98 3.98 0 0 0 2.92 1.19Zm17.19 3.25v-18.22h-.09l-5.75 3.97V1093l5.83-4.05h4.68v22.55h-4.67Z" class="А-5"/>
      </g>
      <g class="Room">
        <rect width="125" height="85" x="2642" y="980" fill="#8E96FF" rx="12"/>
        <path fill="#fff" d="M2686.14 1033.5v-4.02h-11.22v-4.01c1.84-3.5 4.85-8.34 9.05-14.52h6.65v14.75h2.94v3.78h-2.94v4.02h-4.48Zm-7.08-7.78v.12h7.17v-11.54h-.09a180.85 180.85 0 0 0-4.19 6.36 74.2 74.2 0 0 0-2.89 5.06Zm25.75 8.28a9.22 9.22 0 0 1-6-1.94 6.56 6.56 0 0 1-2.47-5.01h4.36a3.5 3.5 0 0 0 1.35 2.33c.77.59 1.7.89 2.79.89 1.23 0 2.23-.39 3-1.16a4.1 4.1 0 0 0 1.18-3.02 4.2 4.2 0 0 0-1.16-3.06 4 4 0 0 0-2.98-1.19c-.86 0-1.64.19-2.33.57-.69.36-1.23.87-1.63 1.51h-4.22l1.11-12.97h14.35v3.75h-10.64l-.52 6.18h.09a4.84 4.84 0 0 1 2-1.82 6.64 6.64 0 0 1 3.02-.65c2.16 0 3.93.71 5.31 2.14a7.37 7.37 0 0 1 2.1 5.42c0 2.38-.81 4.32-2.43 5.81-1.6 1.48-3.69 2.22-6.28 2.22Zm19.6 0a9.02 9.02 0 0 1-5.55-1.73 6.97 6.97 0 0 1-2.78-4.52h4.65c.23.76.69 1.37 1.36 1.83.69.46 1.49.69 2.39.69 1.58 0 2.8-.72 3.66-2.15.88-1.42 1.28-3.42 1.22-5.98h-.09a5.3 5.3 0 0 1-2.22 2.69c-1.07.66-2.33 1-3.78 1a7.34 7.34 0 0 1-5.35-2.11 7.19 7.19 0 0 1-2.14-5.33c0-2.31.82-4.21 2.45-5.7a8.89 8.89 0 0 1 6.24-2.25c1.63 0 3.1.35 4.39 1.06a8.04 8.04 0 0 1 3.12 3.06c1.26 1.94 1.9 4.43 1.9 7.47 0 3.74-.84 6.67-2.52 8.8-1.67 2.11-3.98 3.17-6.95 3.17Zm-2.85-12.86a4.04 4.04 0 0 0 2.94 1.14c1.18 0 2.16-.38 2.94-1.14a3.82 3.82 0 0 0 1.18-2.86 3.9 3.9 0 0 0-1.18-2.89 3.96 3.96 0 0 0-2.91-1.19c-1.15 0-2.13.39-2.94 1.18-.8.78-1.2 1.73-1.2 2.87 0 1.16.39 2.12 1.17 2.89Z" class="А-5"/>
      </g>
      <g class="Room">
        <rect width="125" height="87" x="2642" y="683" fill="#8E96FF" rx="12"/>
        <path fill="#fff" d="M2687.31 737.5v-4.02h-11.22v-4.01c1.84-3.5 4.85-8.34 9.05-14.52h6.66v14.75h2.93v3.78h-2.93v4.02h-4.49Zm-7.08-7.78v.12h7.18V718.3h-.1a184.78 184.78 0 0 0-4.19 6.36 76.75 76.75 0 0 0-2.89 5.06Zm25.75 8.28a9.2 9.2 0 0 1-6-1.94 6.53 6.53 0 0 1-2.46-5.01h4.36c.13.96.58 1.73 1.34 2.33.77.59 1.7.89 2.8.89a4.1 4.1 0 0 0 3-1.16 4.08 4.08 0 0 0 1.17-3.02 4.2 4.2 0 0 0-1.16-3.06 3.97 3.97 0 0 0-2.98-1.19c-.86 0-1.63.2-2.33.57-.69.36-1.23.87-1.63 1.51h-4.21l1.1-12.97h14.35v3.75h-10.64l-.52 6.17h.1a4.75 4.75 0 0 1 2-1.8 6.64 6.64 0 0 1 3.01-.66c2.16 0 3.93.71 5.31 2.14a7.4 7.4 0 0 1 2.1 5.42c0 2.38-.81 4.32-2.42 5.81-1.61 1.48-3.7 2.22-6.29 2.22Zm12.5-.5 9.71-18.7v-.1h-11.47v-3.75h16.12v3.8l-9.4 18.75h-4.96Z" class="А-5"/>
      </g>
      <g class="Ladder">
        <rect width="51" height="110" x="2404" y="569" fill="#fff" rx="12"/>
        <g class="stairsup" clip-path="url(#a)">
          <path fill="#000" d="M2451.95 607h-7.49v7.5c0 .13-.01.22-.04.28a1.5 1.5 0 0 1-.5.87 1.4 1.4 0 0 1-.96.35h-7.49v7.5c0 .13-.01.22-.05.28a1.45 1.45 0 0 1-1.45 1.22h-7.49v7.5c0 .13-.02.22-.05.28a1.45 1.45 0 0 1-1.45 1.22h-7.49v7.5c0 .13-.02.22-.05.28a1.45 1.45 0 0 1-1.45 1.22H2407c-.41 0-.76-.15-1.06-.45-.29-.3-.44-.64-.44-1.05 0-.4.15-.76.44-1.05.3-.3.65-.45 1.06-.45h7.49v-7.5c0-.13.02-.22.05-.28.06-.35.23-.63.51-.87.28-.23.6-.35.94-.35h7.49v-7.5c0-.13.02-.22.05-.28.06-.35.23-.63.51-.87.29-.23.6-.35.94-.35h7.49v-7.5c0-.1.02-.19.05-.28.06-.35.23-.63.52-.87.28-.23.59-.35.93-.35h7.49v-7.5c0-.13.02-.22.05-.28.06-.35.23-.63.49-.87.27-.23.59-.35.96-.35h8.99c.41 0 .76.15 1.06.45.29.3.44.64.44 1.05 0 .4-.15.76-.44 1.05-.3.3-.65.45-1.06.45Z" class="Vector"/>
        </g>
      </g>
      <g class="Ladder">
        <rect width="51" height="113" x="1681" y="2406" fill="#fff" rx="12"/>
        <g class="stairsup" clip-path="url(#b)">
          <path fill="#000" d="M1728.95 2445.5h-7.49v7.5c0 .13-.01.22-.04.28-.07.35-.23.63-.5.87a1.4 1.4 0 0 1-.96.35h-7.49v7.5c0 .13-.01.22-.05.28a1.45 1.45 0 0 1-1.45 1.22h-7.49v7.5c0 .13-.02.22-.05.28a1.45 1.45 0 0 1-1.45 1.22h-7.49v7.5c0 .13-.02.22-.05.28a1.45 1.45 0 0 1-1.45 1.22H1684c-.41 0-.76-.15-1.06-.45a1.44 1.44 0 0 1-.44-1.05c0-.41.15-.76.44-1.05.3-.3.65-.45 1.06-.45h7.49v-7.5c0-.12.02-.22.05-.28.06-.34.23-.63.51-.87.28-.23.6-.35.94-.35h7.49v-7.5c0-.12.02-.22.05-.28.06-.34.23-.63.51-.87.29-.23.6-.35.94-.35h7.49v-7.5c0-.09.02-.19.05-.28.06-.34.23-.63.52-.87.28-.23.59-.35.93-.35h7.49v-7.5c0-.12.02-.22.05-.28.06-.34.23-.63.49-.87.27-.23.59-.35.96-.35h8.99c.41 0 .76.15 1.06.45.29.29.44.64.44 1.05 0 .41-.15.76-.44 1.05-.3.3-.65.45-1.06.45Z" class="Vector"/>
        </g>
      </g>
      <g class="Ladder">
        <rect width="51" height="113" x="1617" y="2406" fill="#fff" rx="12"/>
        <g class="stairsup" clip-path="url(#c)">
          <path fill="#000" d="M1664.95 2445.5h-7.49v7.5c0 .13-.01.22-.04.28-.07.35-.23.63-.5.87a1.4 1.4 0 0 1-.96.35h-7.49v7.5c0 .13-.01.22-.05.28a1.45 1.45 0 0 1-1.45 1.22h-7.49v7.5c0 .13-.02.22-.05.28a1.45 1.45 0 0 1-1.45 1.22h-7.49v7.5c0 .13-.02.22-.05.28a1.45 1.45 0 0 1-1.45 1.22H1620c-.41 0-.76-.15-1.06-.45a1.44 1.44 0 0 1-.44-1.05c0-.41.15-.76.44-1.05.3-.3.65-.45 1.06-.45h7.49v-7.5c0-.12.02-.22.05-.28.06-.34.23-.63.51-.87.28-.23.6-.35.94-.35h7.49v-7.5c0-.12.02-.22.05-.28.06-.34.23-.63.51-.87.29-.23.6-.35.94-.35h7.49v-7.5c0-.09.02-.19.05-.28.06-.34.23-.63.52-.87.28-.23.59-.35.93-.35h7.49v-7.5c0-.12.02-.22.05-.28.06-.34.23-.63.49-.87.27-.23.59-.35.96-.35h8.99c.41 0 .76.15 1.06.45.29.29.44.64.44 1.05 0 .41-.15.76-.44 1.05-.3.3-.65.45-1.06.45Z" class="Vector"/>
        </g>
      </g>
      <g class="Ladder">
        <rect width="112" height="54" x="564" y="2465" fill="#fff" rx="12"/>
        <g class="stairsup">
          <path fill="#000" d="M642.46 2475h-7.5v7.5c0 .13-.01.22-.05.28a1.45 1.45 0 0 1-1.45 1.22h-7.49v7.5c0 .13-.01.22-.05.28a1.45 1.45 0 0 1-1.45 1.22h-7.49v7.5c0 .13-.02.22-.05.28a1.5 1.5 0 0 1-.49.87 1.4 1.4 0 0 1-.96.35h-7.5v7.5c0 .13 0 .22-.04.28a1.5 1.5 0 0 1-.49.87c-.27.23-.59.35-.96.35h-9c-.4 0-.75-.15-1.04-.45a1.4 1.4 0 0 1-.45-1.05c0-.41.15-.76.45-1.05.3-.3.64-.45 1.05-.45h7.5v-7.5c0-.12 0-.22.04-.28.06-.34.23-.63.51-.87.28-.23.6-.35.94-.35h7.5v-7.5c0-.12 0-.22.04-.28.06-.34.23-.63.51-.87.29-.23.6-.35.94-.35h7.5v-7.5c0-.09 0-.19.04-.28.06-.34.24-.63.52-.87.28-.23.59-.35.93-.35h7.5v-7.5c0-.13.01-.22.04-.28.06-.35.23-.63.5-.87.26-.23.58-.35.95-.35h9c.4 0 .75.15 1.05.45.3.29.44.64.44 1.05 0 .41-.15.76-.44 1.05-.3.3-.65.45-1.05.45Z" class="Vector"/>
        </g>
      </g>
      <g class="Toilet">
        <rect width="105" height="102" x="564" y="2286" fill="#60A5FA" rx="12"/>
        <g fill="#fff" class="man">
          <path d="M616.5 2323.5a5.25 5.25 0 1 0 0-10.5 5.25 5.25 0 0 0 0 10.5Zm4.5 1.5h-9a6.01 6.01 0 0 0-6 6v10.08a1.9 1.9 0 0 0 1.8 1.92 1.86 1.86 0 0 0 1.95-1.88v-9.34a.76.76 0 0 1 .7-.78c.1 0 .2.01.3.04.1.04.19.09.26.16a.8.8 0 0 1 .18.25c.04.1.06.2.06.3v27.09a2.16 2.16 0 0 0 3.68 1.53c.4-.41.63-.95.63-1.53v-13.37a1 1 0 0 1 .25-.66.95.95 0 0 1 1-.26.93.93 0 0 1 .63.89v13.4a2.17 2.17 0 0 0 2.15 2.16 2.17 2.17 0 0 0 2.16-2.16v-27.06a.76.76 0 0 1 .7-.78c.1 0 .2.01.3.04.1.04.19.09.26.16a.8.8 0 0 1 .18.25c.04.1.06.2.06.3v9.33a1.9 1.9 0 0 0 1.8 1.92 1.86 1.86 0 0 0 1.8-1.14c.1-.23.15-.48.15-.74V2331a6.03 6.03 0 0 0-6-6Z" class="Vector"/>
        </g>
      </g>
    </g>
  </g>
  <defs>
    <clipPath id="a" class="a">
      <path fill="#fff" d="M2405.5 600h48v48h-48z"/>
    </clipPath>
    <clipPath id="b" class="b">
      <path fill="#fff" d="M1682.5 2438.5h48v48h-48z"/>
    </clipPath>
    <clipPath id="c" class="c">
      <path fill="#fff" d="M1618.5 2438.5h48v48h-48z"/>
    </clipPath>
  </defs>
</svg>
