<svg xmlns="http://www.w3.org/2000/svg" width="11000" height="9000" fill="none"
  viewBox="0 0 11000 9000">
  <defs>
    <path id="g" fill="#000"
      d="m3135.63 4274.4-6.96 2.78 2.77 6.96c.05.12.07.21.06.28.07.35.03.67-.13.99a1.4 1.4 0 0 1-.77.68l-6.96 2.77 2.78 6.97c.04.12.06.21.06.28.07.34.02.67-.14.99-.16.31-.41.54-.76.68l-6.96 2.77 2.77 6.97c.05.12.07.21.07.28.06.34.02.67-.14.99-.16.31-.41.54-.76.68l-6.96 2.77 2.77 6.97c.05.11.07.21.06.28a1.45 1.45 0 0 1-.9 1.67l-8.35 3.32c-.38.15-.76.15-1.14-.02a1.45 1.45 0 0 1-.81-.82c-.15-.37-.14-.76.03-1.14.16-.39.43-.65.81-.8l6.96-2.78-2.77-6.96a.56.56 0 0 1-.06-.28c-.07-.35-.02-.68.15-1 .18-.32.43-.55.74-.67l6.97-2.77-2.78-6.97a.56.56 0 0 1-.06-.28c-.07-.34-.02-.68.16-1 .17-.32.42-.54.74-.67l6.96-2.77-2.78-6.97a1.27 1.27 0 0 1-.06-.28c-.07-.34-.01-.67.16-.99.18-.33.42-.55.74-.68l6.96-2.77-2.77-6.97a.54.54 0 0 1-.06-.28c-.07-.34-.03-.67.13-.98.16-.32.42-.55.76-.69l8.36-3.32c.37-.15.76-.14 1.14.02.39.17.65.44.8.82.16.37.15.76-.02 1.14-.16.39-.44.65-.81.8Z" />
    <path id="u" fill="#fff" d="m3089.17 4284.42 44.6-17.76 17.75 44.6-44.6 17.75z" />
  </defs>
  <g>
    <g data-object="В-78__r__2318:4222">
      <rect width="64" height="89" x="2497" y="4511.5" fill="#8E96FF" rx="12"
        transform="rotate(-21.71 2497 4511.5)" />
      <path fill="#fff"
        d="m2560.2 4560.73-3.34 2.71 2.2 5.52 4.29-.32 1.34 3.38-17.88.8-1.54-3.86 13.53-11.73 1.4 3.5Zm-11.12 9.05 7.24-.54-1.64-4.11-5.63 4.58.03.07Zm1.27-19.25 2.84 7.15-2.77 1.11-2.85-7.15 2.78-1.11Zm.91-12.23-2.79 1.11 3.11 7.82-2.8 1.11a119.1 119.1 0 0 1-12.62-2.27l-1.85-4.64 10.28-4.09-.82-2.05 2.64-1.05.81 2.05 2.8-1.12 1.24 3.13Zm-3.45 7.09.08-.03-1.99-5-8.04 3.2.02.07c2.26.5 4.12.89 5.6 1.15 1.46.27 2.91.47 4.33.61Zm-7.81-15.43-2.38.95-.75-1.91a2.86 2.86 0 0 0-1.34-1.57 2.1 2.1 0 0 0-1.85-.07c-.65.26-1.07.68-1.27 1.27-.21.6-.16 1.3.16 2.11.31.76.76 1.29 1.36 1.6.6.31 1.26.35 1.96.11l1.21 3.03a4.94 4.94 0 0 1-4.16-.27 6.78 6.78 0 0 1-2.95-3.61 6.93 6.93 0 0 1-.43-4.43 3.94 3.94 0 0 1 2.43-2.74c.95-.37 1.88-.4 2.78-.07.89.34 1.62.95 2.18 1.86l.07-.03a4.74 4.74 0 0 1 .05-3.27 3.73 3.73 0 0 1 2.2-2.09 4.36 4.36 0 0 1 4.09.38 7.76 7.76 0 0 1 3.07 3.93c.7 1.77.83 3.37.37 4.81a4.98 4.98 0 0 1-2.82 3.14l-1.25-3.14a2.3 2.3 0 0 0 1.26-1.49 3.6 3.6 0 0 0-.22-2.31 3.38 3.38 0 0 0-1.44-1.76 2.16 2.16 0 0 0-1.93-.14c-.72.29-1.18.77-1.39 1.44-.21.67-.14 1.45.22 2.33l.77 1.94Zm.57-19.53c.76 1.9.94 3.61.56 5.12a4.25 4.25 0 0 1-2.63 3.08 4.03 4.03 0 0 1-3.05.03 4.83 4.83 0 0 1-2.45-2.12l-.06.03a4.4 4.4 0 0 1-.4 2.73 3.78 3.78 0 0 1-5.56 1.32 7.35 7.35 0 0 1-2.82-3.66 7.37 7.37 0 0 1-.47-4.59 3.83 3.83 0 0 1 4.94-2.85c.87.3 1.59.87 2.17 1.69l.07-.02a4.87 4.87 0 0 1 .33-3.22 4.02 4.02 0 0 1 2.24-2.08 4.24 4.24 0 0 1 4.03.45 8.29 8.29 0 0 1 3.1 4.09Zm-2.24 3.35c.24-.74.19-1.53-.16-2.4a3.45 3.45 0 0 0-1.52-1.84 2.4 2.4 0 0 0-2.09-.11c-.71.28-1.19.79-1.43 1.51-.25.73-.2 1.53.14 2.39.35.87.86 1.48 1.55 1.85.67.36 1.36.4 2.07.12.72-.29 1.2-.79 1.44-1.52Zm-7.35 2.54c.22-.63.19-1.31-.1-2.03a2.85 2.85 0 0 0-1.32-1.55c-.6-.3-1.21-.32-1.84-.07-.63.25-1.05.69-1.28 1.31-.22.63-.19 1.31.1 2.04.28.72.73 1.24 1.33 1.54.59.3 1.2.32 1.83.07a2.13 2.13 0 0 0 1.28-1.31Z" />
    </g>
    <g data-object="В-78__r__2318:4225">
      <rect width="96" height="171" x="3178.39" y="4341.33" fill="#8E96FF" rx="12"
        transform="rotate(-21.71 3178.39 4341.33)" />
      <path fill="#fff"
        d="m3277.16 4429.87-4.45 3.62 2.93 7.36 5.72-.42 1.79 4.5-23.84 1.07-2.05-5.16 18.04-15.63 1.86 4.66Zm-14.82 12.08 9.65-.73-2.18-5.48-7.51 6.1.04.11Zm1.83-25.3 3.8 9.53-3.7 1.48-3.8-9.54 3.7-1.47Zm3.53-10.53-16.93 6.74.04.09 5.81 3.88-3.95 1.57-5.91-3.92-1.74-4.35 20.95-8.35 1.73 4.34Zm-6.41-17.44c1.01 2.53 1.26 4.81.75 6.83a5.69 5.69 0 0 1-3.51 4.11 5.41 5.41 0 0 1-4.07.04 6.46 6.46 0 0 1-3.26-2.83l-.09.04a5.82 5.82 0 0 1-.53 3.64 5.07 5.07 0 0 1-7.41 1.76 9.83 9.83 0 0 1-3.76-4.88c-.89-2.24-1.1-4.29-.62-6.13a5.08 5.08 0 0 1 6.58-3.79 5.82 5.82 0 0 1 2.9 2.26l.09-.04c-.34-1.57-.19-3 .44-4.29a5.34 5.34 0 0 1 2.98-2.77 5.6 5.6 0 0 1 5.37.6c1.76 1.12 3.14 2.93 4.14 5.45Zm-2.98 4.47c.32-.98.24-2.05-.21-3.2a4.55 4.55 0 0 0-2.04-2.45 3.16 3.16 0 0 0-2.78-.15 3.12 3.12 0 0 0-1.91 2.02c-.33.97-.26 2.03.19 3.18a4.6 4.6 0 0 0 2.06 2.46c.9.49 1.82.54 2.77.16a3.19 3.19 0 0 0 1.92-2.02Zm-9.8 3.38c.29-.84.25-1.74-.14-2.71a3.72 3.72 0 0 0-1.76-2.05c-.8-.4-1.61-.44-2.45-.11-.84.34-1.41.93-1.7 1.76-.31.84-.27 1.74.12 2.71a3.7 3.7 0 0 0 1.77 2.05 2.8 2.8 0 0 0 2.45.1 2.85 2.85 0 0 0 1.71-1.75Zm-2.72-26.05 3.79 9.54-3.7 1.47-3.8-9.53 3.71-1.48Zm3.53-10.52-16.93 6.74.03.09 5.82 3.87-3.95 1.58-5.92-3.92-1.73-4.36 20.95-8.34 1.73 4.34Z" />
    </g>
    <g data-object="В-78__r__2318:4226">
      <rect width="64" height="89" x="2563.89" y="4484.87" fill="#8E96FF" rx="12"
        transform="rotate(-21.71 2563.89 4484.87)" />
      <path fill="#fff"
        d="m2627.04 4533.96-3.34 2.72 2.2 5.52 4.29-.32 1.34 3.37-17.88.8-1.54-3.86 13.53-11.72 1.4 3.49Zm-11.12 9.06 7.24-.55-1.64-4.11-5.63 4.58.03.08Zm1.26-19.26 2.85 7.16-2.77 1.1-2.85-7.15 2.77-1.11Zm.92-12.23-2.8 1.12 3.12 7.81-2.8 1.12a121.9 121.9 0 0 1-12.62-2.28l-1.85-4.64 10.28-4.09-.82-2.05 2.64-1.05.81 2.05 2.8-1.11 1.24 3.12Zm-3.45 7.09.08-.03-1.99-5-8.04 3.2.02.07c2.26.51 4.12.89 5.6 1.15 1.46.27 2.91.47 4.33.61Zm-7.81-15.42-2.38.94-.76-1.9a2.83 2.83 0 0 0-1.33-1.58 2.16 2.16 0 0 0-1.86-.07c-.64.26-1.07.68-1.27 1.28-.2.59-.15 1.29.17 2.1.31.76.76 1.3 1.36 1.6.6.31 1.26.35 1.96.12l1.21 3.02a4.87 4.87 0 0 1-4.16-.27 6.78 6.78 0 0 1-2.95-3.61 6.86 6.86 0 0 1-.43-4.43 3.93 3.93 0 0 1 2.43-2.73 3.7 3.7 0 0 1 2.77-.07c.9.33 1.63.95 2.19 1.85l.07-.03a4.68 4.68 0 0 1 .05-3.27 3.73 3.73 0 0 1 2.2-2.09 4.36 4.36 0 0 1 4.09.38 7.74 7.74 0 0 1 3.07 3.94c.7 1.76.83 3.36.37 4.8a5 5 0 0 1-2.82 3.15l-1.25-3.15a2.31 2.31 0 0 0 1.26-1.49 3.5 3.5 0 0 0-.23-2.3 3.35 3.35 0 0 0-1.43-1.77 2.13 2.13 0 0 0-1.93-.13 2.2 2.2 0 0 0-1.39 1.43 3.5 3.5 0 0 0 .21 2.34l.78 1.94Zm.54-19.65c.45 1.13.6 2.24.47 3.34a6.36 6.36 0 0 1-1.29 3.03c-1 1.41-2.55 2.54-4.67 3.38-2.59 1.03-4.86 1.26-6.81.67a6.26 6.26 0 0 1-4.16-3.93 6.72 6.72 0 0 1-.32-4.33 5.16 5.16 0 0 1 2.37-3.17l1.29 3.23c-.46.37-.76.85-.89 1.44-.14.59-.08 1.19.17 1.81a3.08 3.08 0 0 0 2.53 1.98c1.24.21 2.74-.05 4.49-.79l-.03-.06c-.9-.01-1.74-.3-2.49-.85a5.14 5.14 0 0 1-1.73-2.32 5.36 5.36 0 0 1 0-4.3 5.36 5.36 0 0 1 3.11-2.95 5.6 5.6 0 0 1 4.67.1 6.65 6.65 0 0 1 3.29 3.72Zm-2.62 1.08a2.92 2.92 0 0 0-1.62-1.7 2.91 2.91 0 0 0-2.35-.04 2.9 2.9 0 0 0-1.69 1.62 3 3 0 0 0 .02 2.35c.33.82.87 1.4 1.61 1.74a2.9 2.9 0 0 0 2.31.03 3.03 3.03 0 0 0 1.72-4Z" />
    </g>
    <g data-object="В-78__r__2318:4227">
      <rect width="64" height="89" x="2630.78" y="4458.23" fill="#8E96FF" rx="12"
        transform="rotate(-21.71 2630.78 4458.23)" />
      <path fill="#fff"
        d="m2693.96 4507.41-3.33 2.71 2.2 5.52 4.28-.32 1.35 3.38-17.89.8-1.53-3.87 13.53-11.72 1.39 3.5Zm-11.11 9.05 7.23-.54-1.63-4.11-5.63 4.58.03.07Zm1.26-19.25 2.85 7.15-2.78 1.11-2.85-7.16 2.78-1.1Zm.92-12.23-2.8 1.11 3.11 7.82-2.79 1.11a119.2 119.2 0 0 1-12.63-2.27l-1.85-4.64 10.28-4.09-.81-2.05 2.63-1.05.82 2.05 2.79-1.12 1.25 3.13Zm-3.46 7.09.09-.04-1.99-4.99-8.05 3.2.03.07c2.25.5 4.12.89 5.59 1.15a57 57 0 0 0 4.33.61Zm-7.81-15.43-2.37.95-.76-1.91a2.84 2.84 0 0 0-1.33-1.57 2.13 2.13 0 0 0-1.86-.07c-.65.26-1.07.68-1.27 1.27a3 3 0 0 0 .17 2.11c.3.76.75 1.29 1.36 1.6.6.31 1.25.34 1.96.11l1.2 3.03a4.92 4.92 0 0 1-4.15-.27 6.73 6.73 0 0 1-2.95-3.61 6.8 6.8 0 0 1-.43-4.43 3.88 3.88 0 0 1 2.43-2.74c.95-.38 1.87-.4 2.77-.07.9.34 1.63.95 2.19 1.86l.06-.03a4.74 4.74 0 0 1 .05-3.27 3.72 3.72 0 0 1 2.21-2.09 4.34 4.34 0 0 1 4.08.38 7.7 7.7 0 0 1 3.07 3.93c.71 1.77.83 3.37.38 4.81a5.06 5.06 0 0 1-2.82 3.14l-1.26-3.14a2.35 2.35 0 0 0 1.27-1.49 3.6 3.6 0 0 0-.23-2.31 3.33 3.33 0 0 0-1.43-1.76 2.18 2.18 0 0 0-1.94-.14 2.2 2.2 0 0 0-1.38 1.44c-.21.67-.14 1.45.21 2.33l.77 1.94Zm-.3-20.72-2.8 1.11 3.11 7.82-2.8 1.11c-2.94-.3-7.15-1.06-12.62-2.27l-1.85-4.64 10.28-4.09-.82-2.05 2.64-1.05.81 2.05 2.8-1.12 1.25 3.13Zm-3.46 7.09.08-.04-1.99-4.99-8.04 3.2.03.07c2.25.5 4.11.89 5.59 1.15a57 57 0 0 0 4.33.61Z" />
    </g>
    <g data-object="В-78__r__2318:4228">
      <rect width="128" height="88.68" fill="#8E96FF" rx="12"
        transform="rotate(-21.71 12901.92 -4816.87) skewX(-.08)" />
      <path fill="#fff"
        d="m2748.07 4471.05-3.62-4.44-7.36 2.93.42 5.72-4.5 1.79-1.04-23.86 5.15-2.05 15.6 18.06-4.65 1.85Zm-12.06-14.83.72 9.66 5.48-2.18-6.09-7.52-.11.04Zm25.29 1.84-9.54 3.8-1.46-3.7 9.53-3.8 1.47 3.7Zm15.93 1.38-1.48-3.73-10.42 4.15-1.49-3.74c.42-3.93 1.43-9.54 3.06-16.84l6.18-2.46 5.44 13.71 2.73-1.08 1.39 3.51-2.73 1.09 1.48 3.73-4.16 1.66Zm-9.45-4.62.05.12 6.66-2.65-4.26-10.74-.08.04c-.68 3.01-1.2 5.49-1.55 7.46a76.23 76.23 0 0 0-.82 5.77Zm20.2-10.26-1.25-3.17 2.54-1.01c1-.39 1.7-.99 2.1-1.78.4-.79.44-1.61.09-2.47a2.74 2.74 0 0 0-1.69-1.7c-.8-.28-1.73-.2-2.81.23-1.01.4-1.73 1-2.14 1.81-.41.8-.46 1.67-.15 2.62l-4.04 1.6a6.53 6.53 0 0 1 .38-5.54c.94-1.72 2.54-3.04 4.81-3.94 2.18-.87 4.15-1.06 5.91-.57a5.23 5.23 0 0 1 3.64 3.24 5 5 0 0 1 .08 3.7 5.71 5.71 0 0 1-2.47 2.92l.04.09a6.36 6.36 0 0 1 4.36.06 4.96 4.96 0 0 1 2.78 2.95 5.82 5.82 0 0 1-.51 5.45c-1.07 1.76-2.82 3.12-5.25 4.09-2.35.94-4.49 1.1-6.41.5a6.67 6.67 0 0 1-4.18-3.77l4.19-1.67a3.06 3.06 0 0 0 1.98 1.69 4.8 4.8 0 0 0 3.07-.3 4.55 4.55 0 0 0 2.36-1.91c.47-.84.53-1.7.18-2.58a2.9 2.9 0 0 0-1.91-1.85 4.61 4.61 0 0 0-3.11.28l-2.59 1.03Zm18.73-7.46-1.26-3.16 2.54-1.02c1-.39 1.7-.99 2.11-1.77.4-.79.43-1.62.09-2.48a2.76 2.76 0 0 0-1.7-1.7 4 4 0 0 0-2.8.23 3.86 3.86 0 0 0-2.14 1.81 3.3 3.3 0 0 0-.15 2.62l-4.04 1.61a6.58 6.58 0 0 1 .37-5.55c.94-1.72 2.55-3.03 4.81-3.94 2.19-.87 4.16-1.06 5.91-.57a5.2 5.2 0 0 1 3.64 3.25c.5 1.27.53 2.5.09 3.7a5.74 5.74 0 0 1-2.47 2.91l.03.09a6.36 6.36 0 0 1 4.36.06 4.98 4.98 0 0 1 2.78 2.95 5.77 5.77 0 0 1-.51 5.45c-1.07 1.76-2.82 3.13-5.25 4.09-2.35.94-4.48 1.11-6.41.5a6.67 6.67 0 0 1-4.18-3.76l4.2-1.67a3.07 3.07 0 0 0 1.98 1.68c.9.26 1.93.16 3.07-.3a4.48 4.48 0 0 0 2.35-1.91c.48-.84.54-1.7.19-2.58a2.93 2.93 0 0 0-1.91-1.85 4.64 4.64 0 0 0-3.12.28l-2.58 1.03Z" />
    </g>
    <g data-object="В-78__r__2318:4229">
      <rect width="64" height="89" x="2824.02" y="4381.27" fill="#8E96FF" rx="12"
        transform="rotate(-21.71 2824.02 4381.27)" />
      <path fill="#fff"
        d="m2887.2 4430.45-3.33 2.72 2.2 5.52 4.28-.32 1.35 3.37-17.88.81-1.54-3.87 13.53-11.72 1.39 3.49Zm-11.11 9.06 7.23-.55-1.63-4.1-5.63 4.57.03.08Zm1.26-19.25 2.85 7.15-2.78 1.1-2.84-7.15 2.77-1.1Zm.92-12.23-2.8 1.11 3.12 7.82-2.8 1.11c-2.95-.31-7.16-1.06-12.63-2.28l-1.84-4.63 10.27-4.1-.81-2.04 2.63-1.05.82 2.04 2.8-1.11 1.24 3.13Zm-3.46 7.09.09-.04-1.99-5-8.05 3.21.03.06c2.25.51 4.12.89 5.59 1.16 1.47.26 2.91.46 4.33.61Zm-7.81-15.43-2.37.94-.76-1.9a2.9 2.9 0 0 0-1.33-1.58 2.2 2.2 0 0 0-1.86-.07c-.64.26-1.07.69-1.27 1.28-.21.6-.15 1.3.17 2.1.3.76.76 1.3 1.36 1.61.6.3 1.25.34 1.96.11l1.21 3.03a4.9 4.9 0 0 1-4.16-.28 6.67 6.67 0 0 1-2.95-3.6 6.83 6.83 0 0 1-.43-4.44 3.89 3.89 0 0 1 2.43-2.73c.95-.38 1.87-.4 2.77-.07.9.33 1.63.95 2.19 1.85l.07-.02a4.77 4.77 0 0 1 .04-3.28 3.75 3.75 0 0 1 2.21-2.09 4.39 4.39 0 0 1 4.09.38 7.83 7.83 0 0 1 3.07 3.94 7.1 7.1 0 0 1 .37 4.81 5 5 0 0 1-2.82 3.14l-1.26-3.15a2.3 2.3 0 0 0 1.27-1.48 3.6 3.6 0 0 0-.23-2.31 3.28 3.28 0 0 0-1.43-1.76 2.15 2.15 0 0 0-1.94-.14 2.2 2.2 0 0 0-1.38 1.43c-.21.68-.14 1.46.21 2.34l.77 1.94Zm-3.46-23.23a5.97 5.97 0 0 1 4.07 3.77 6 6 0 0 1-.35 5.54c-1.02 1.72-2.81 3.08-5.35 4.1-2.54 1.01-4.76 1.23-6.67.68a5.97 5.97 0 0 1-4.05-3.78 6 6 0 0 1 .33-5.52c1.01-1.71 2.78-3.08 5.32-4.08 2.54-1.02 4.77-1.25 6.7-.71Zm.85 7.63c.76-.93.96-1.87.58-2.81-.37-.94-1.15-1.49-2.34-1.63-1.19-.14-2.67.15-4.45.85-1.77.71-3.02 1.52-3.77 2.44-.77.92-.96 1.84-.59 2.78.38.94 1.15 1.48 2.34 1.63 1.19.15 2.66-.13 4.42-.83 1.77-.7 3.04-1.51 3.81-2.43Z" />
    </g>
    <g data-object="В-78__r__2318:4230">
      <rect width="64" height="89" x="2890.91" y="4354.64" fill="#8E96FF" rx="12"
        transform="rotate(-21.71 2890.91 4354.64)" />
      <path fill="#fff"
        d="m2953.99 4403.57-3.33 2.71 2.2 5.52 4.29-.32 1.34 3.38-17.88.8-1.54-3.87 13.53-11.72 1.39 3.5Zm-11.11 9.05 7.24-.55-1.64-4.1-5.63 4.58.03.07Zm1.26-19.25 2.85 7.15-2.78 1.11-2.84-7.16 2.77-1.1Zm.92-12.23-2.8 1.11 3.12 7.82-2.8 1.11a119.2 119.2 0 0 1-12.63-2.27l-1.84-4.64 10.27-4.09-.81-2.05 2.63-1.05.82 2.05 2.8-1.12 1.24 3.13Zm-3.46 7.09.09-.04-1.99-4.99-8.05 3.2.03.07c2.25.5 4.12.89 5.59 1.15a57 57 0 0 0 4.33.61Zm-10.34-9.78a5 5 0 0 1-4.29-.16 6.56 6.56 0 0 1-3.09-3.62 6.59 6.59 0 0 1-.32-4.54 4.3 4.3 0 0 1 2.63-2.85 4.97 4.97 0 0 1 3.05-.18c.56.13 1.07.28 1.55.45.48.17 1.06.41 1.76.71l5.22 2.36.07-.02-2.83-7.09 2.62-1.04 4.55 11.42-2.22.88-8.06-3.65a12.04 12.04 0 0 0-2.58-.87c-.6-.1-1.18-.04-1.72.17-.59.24-1 .68-1.22 1.31-.22.63-.19 1.31.1 2.03.3.76.8 1.3 1.47 1.61.68.31 1.37.32 2.1.03l.05-.02 1.22 3.05-.06.02Zm3.34-24.6c.76 1.91.95 3.61.56 5.13a4.25 4.25 0 0 1-2.63 3.08 4.03 4.03 0 0 1-3.05.03 4.92 4.92 0 0 1-2.45-2.12l-.06.03a4.4 4.4 0 0 1-.4 2.73 3.82 3.82 0 0 1-5.56 1.32 7.4 7.4 0 0 1-2.82-3.66 7.32 7.32 0 0 1-.46-4.6 3.8 3.8 0 0 1 4.93-2.84c.87.3 1.59.86 2.17 1.69l.07-.03a4.88 4.88 0 0 1 .33-3.22 4.03 4.03 0 0 1 2.24-2.07 4.19 4.19 0 0 1 4.03.45 8.3 8.3 0 0 1 3.1 4.08Zm-2.24 3.35a3.4 3.4 0 0 0-.16-2.39 3.38 3.38 0 0 0-1.52-1.84 2.37 2.37 0 0 0-2.09-.11c-.71.28-1.19.78-1.43 1.51-.25.73-.2 1.53.15 2.39.34.86.85 1.48 1.54 1.85.67.36 1.36.4 2.08.11a2.35 2.35 0 0 0 1.43-1.52Zm-7.35 2.54c.22-.62.19-1.3-.1-2.03a2.83 2.83 0 0 0-1.32-1.54 2.2 2.2 0 0 0-1.84-.08c-.63.26-1.05.69-1.27 1.32-.23.63-.2 1.31.09 2.03.29.73.73 1.24 1.33 1.54.59.3 1.2.33 1.83.08a2.12 2.12 0 0 0 1.28-1.32Z" />
    </g>
    <g data-object="В-78__r__2318:4231">
      <rect width="128" height="89" x="5261.78" y="3601.36" fill="#8E96FF" rx="12"
        transform="rotate(-21.71 5261.78 3601.36)" />
      <path fill="#fff"
        d="m5313.15 3640.64-3.62-4.44-7.36 2.93.42 5.71-4.5 1.8-1.06-23.85 5.15-2.05 15.63 18.04-4.66 1.86Zm-12.08-14.82.74 9.65 5.47-2.18-6.1-7.51-.11.04Zm25.31 1.83-9.54 3.8-1.48-3.7 9.54-3.8 1.48 3.7Zm15.93 1.38-1.48-3.73-10.43 4.15-1.48-3.73c.41-3.93 1.42-9.54 3.03-16.84l6.19-2.46 5.45 13.7 2.73-1.08 1.4 3.51-2.73 1.09 1.49 3.73-4.17 1.66Zm-9.45-4.61.04.11 6.67-2.65-4.28-10.73-.08.04c-.68 3-1.19 5.49-1.54 7.45a75.66 75.66 0 0 0-.81 5.78Zm12.66-13.64a6.65 6.65 0 0 1 .21-5.72 8.8 8.8 0 0 1 4.84-4.13c2.19-.87 4.21-1.01 6.05-.42a5.77 5.77 0 0 1 3.8 3.51c.25.63.4 1.28.44 1.95.05.65-.02 1.35-.2 2.11a20.4 20.4 0 0 1-.6 2.07c-.23.63-.55 1.42-.95 2.35l-3.15 6.96.03.08 9.45-3.76 1.39 3.48-15.23 6.07-1.17-2.95 4.87-10.75a15.96 15.96 0 0 0 1.15-3.44c.14-.8.06-1.57-.23-2.3a2.7 2.7 0 0 0-1.74-1.62 3.79 3.79 0 0 0-2.7.13 3.8 3.8 0 0 0-2.15 1.97 3.39 3.39 0 0 0-.04 2.79l.03.07-4.07 1.62-.03-.07Zm17.94-7.15a6.62 6.62 0 0 1 .22-5.72c.93-1.84 2.54-3.21 4.83-4.12 2.19-.88 4.21-1.02 6.05-.43a5.74 5.74 0 0 1 3.8 3.52c.26.62.4 1.27.44 1.94.05.65-.02 1.36-.2 2.11-.17.75-.37 1.44-.6 2.08-.23.63-.55 1.41-.95 2.34l-3.15 6.96.03.09 9.45-3.77 1.39 3.49-15.23 6.06-1.17-2.94 4.87-10.76a15.91 15.91 0 0 0 1.15-3.43c.14-.81.07-1.58-.22-2.3a2.76 2.76 0 0 0-1.74-1.63 3.82 3.82 0 0 0-2.71.14 3.74 3.74 0 0 0-2.14 1.96c-.42.9-.44 1.83-.05 2.79l.03.08-4.07 1.62-.03-.08Z" />
    </g>
    <g data-object="В-78__r__2318:4232">
      <rect width="146.69" height="89.03" x="5182" y="3441.27" fill="#8E96FF" rx="12"
        transform="rotate(-21.71 5182 3441.27)" />
      <path fill="#fff"
        d="m5235.81 3476.91-2.72-3.34-5.52 2.2.32 4.29-3.37 1.34-.8-17.88 3.86-1.54 11.72 13.54-3.49 1.39Zm-9.06-11.12.55 7.24 4.11-1.64-4.58-5.63-.08.03Zm19.26 1.27-7.15 2.84-1.11-2.77 7.15-2.85 1.11 2.78Zm12.23.91-1.11-2.79-7.82 3.11-1.12-2.8c.31-2.95 1.07-7.15 2.28-12.62l4.64-1.85 4.09 10.28 2.05-.82 1.05 2.64-2.05.81 1.11 2.8-3.12 1.24Zm-7.09-3.45.03.08 5-1.99-3.2-8.04-.07.02c-.51 2.26-.89 4.12-1.15 5.6a52.36 52.36 0 0 0-.61 4.33Zm9.78-10.34a4.96 4.96 0 0 1 .16-4.29 6.62 6.62 0 0 1 3.62-3.1 6.64 6.64 0 0 1 4.54-.32 4.62 4.62 0 0 1 3.18 4.1c.04.49-.01 1.02-.15 1.58a14.5 14.5 0 0 1-.45 1.56c-.18.47-.41 1.06-.72 1.76l-2.36 5.22.03.06 7.09-2.82 1.04 2.61-11.42 4.55-.88-2.21 3.65-8.06c.48-1.12.77-1.98.86-2.58.11-.61.05-1.18-.17-1.73-.23-.59-.67-1-1.3-1.22a2.87 2.87 0 0 0-2.03.11c-.76.3-1.3.79-1.61 1.47a2.58 2.58 0 0 0-.04 2.09l.03.06-3.05 1.21-.02-.05Zm28.28-.7a5.92 5.92 0 0 1-3.76 4.06 5.97 5.97 0 0 1-5.54-.34c-1.72-1.02-3.09-2.81-4.1-5.35-1.01-2.54-1.24-4.76-.69-6.67a6 6 0 0 1 3.79-4.05 6 6 0 0 1 5.52.33c1.71 1.01 3.07 2.78 4.08 5.31 1.01 2.55 1.25 4.78.7 6.71Zm-7.62.84c.93.77 1.86.97 2.81.59.94-.38 1.48-1.16 1.63-2.34.14-1.19-.15-2.68-.86-4.45-.7-1.77-1.51-3.02-2.43-3.78-.92-.76-1.85-.95-2.78-.58-.94.37-1.48 1.15-1.63 2.34-.15 1.19.12 2.66.82 4.41.71 1.78 1.52 3.05 2.44 3.81Zm17.77-8.51-7.15 2.85-1.11-2.78 7.15-2.85 1.11 2.78Zm8.44-.02c.7-.28 1.22-.72 1.54-1.32.33-.61.37-1.23.12-1.85l-.34-.85-2.4 1.13c-.57.28-.97.61-1.2 1-.22.38-.25.78-.08 1.19.17.44.47.72.9.84.43.12.92.08 1.46-.14Zm-.13 2.71a4.37 4.37 0 0 1-3.19.13 3.5 3.5 0 0 1-2.13-2.11 3.21 3.21 0 0 1 .18-2.96 6.57 6.57 0 0 1 2.96-2.37l2.87-1.35-.31-.77a1.67 1.67 0 0 0-1.04-1.05c-.47-.17-1-.13-1.61.11-.58.23-1 .55-1.27.96-.25.41-.34.85-.24 1.32l-2.91 1.16a3.85 3.85 0 0 1 .37-3.35 6.38 6.38 0 0 1 3.25-2.52 6 6 0 0 1 4.02-.36 3.68 3.68 0 0 1 2.48 2.29l3.19 8.02-3.07 1.23-.71-1.79-.07.03a3.73 3.73 0 0 1-.88 2.03 4.66 4.66 0 0 1-1.89 1.35Z" />
    </g>
    <g data-object="В-78__r__2318:4233">
      <rect width="109.73" height="89.22" x="6331.15" y="3287.54" fill="#8E96FF" rx="12"
        transform="rotate(14.75 6331.15 3287.54)" />
      <path fill="#fff"
        d="m6349.6 3347.32-.2-4.29-5.74-1.52-2.3 3.64-3.51-.92 9.98-14.86 4.03 1.06 1.38 17.85-3.64-.96Zm-.67-14.32-3.86 6.15 4.27 1.12-.33-7.25-.08-.02Zm14.73 12.46-7.44-1.96.76-2.89 7.44 1.96-.76 2.89Zm9.29 8.01.77-2.91-8.14-2.15.77-2.91c2-2.19 5.11-5.12 9.33-8.8l4.83 1.27-2.82 10.7 2.13.56-.72 2.74-2.13-.56-.77 2.91-3.25-.85Zm-3.65-7-.02.09 5.2 1.37 2.21-8.37-.07-.02a119.51 119.51 0 0 0-4.25 3.81 59.87 59.87 0 0 0-3.07 3.12Zm15.17 10.03 3.48-13.21-.07-.02-4.93 1.78.82-3.08 5-1.82 3.4.89-4.31 16.35-3.39-.89Zm8.2 2.16 10.61-11.71.02-.07-8.32-2.19.72-2.72 11.69 3.08-.72 2.75-10.41 11.81-3.59-.95Z" />
    </g>
    <g data-object="В-78__r__2318:4234">
      <rect width="129.69" height="89.22" x="6444.21" y="3317.29" fill="#8E96FF" rx="12"
        transform="rotate(14.75 6444.21 3317.29)" />
      <path fill="#fff"
        d="m6459.7 3376.29-.2-4.3-5.74-1.51-2.3 3.64-3.51-.93 9.98-14.85 4.03 1.06 1.38 17.85-3.64-.96Zm-.67-14.32-3.86 6.14 4.27 1.13-.33-7.25-.08-.02Zm14.73 12.46-7.44-1.96.76-2.89 7.44 1.96-.76 2.89Zm9.29 8.01.77-2.92-8.14-2.14.77-2.91c2-2.19 5.11-5.12 9.33-8.8l4.83 1.27-2.82 10.7 2.13.56-.72 2.74-2.13-.56-.77 2.91-3.25-.85Zm-3.65-7-.02.09 5.2 1.37 2.21-8.37-.07-.02a119.51 119.51 0 0 0-4.25 3.81 52.92 52.92 0 0 0-3.07 3.12Zm15.17 10.03 3.48-13.22-.07-.01-4.93 1.78.82-3.09 5-1.82 3.4.9-4.31 16.35-3.39-.89Zm13.85 4.04a6.69 6.69 0 0 1-2.97-1.6 6.27 6.27 0 0 1-1.67-2.84c-.54-1.64-.52-3.56.06-5.77.71-2.69 1.88-4.65 3.51-5.87a6.24 6.24 0 0 1 5.63-1 6.7 6.7 0 0 1 3.67 2.31 5.15 5.15 0 0 1 1.14 3.79l-3.36-.89a2.53 2.53 0 0 0-.63-1.57c-.4-.46-.92-.77-1.56-.94a3.1 3.1 0 0 0-3.1.86c-.9.87-1.58 2.23-2.03 4.08l.07.02a4.32 4.32 0 0 1 2.17-1.51 5.12 5.12 0 0 1 2.88-.01 5.38 5.38 0 0 1 3.46 2.56c.76 1.29.94 2.71.53 4.26a5.6 5.6 0 0 1-2.86 3.69 6.65 6.65 0 0 1-4.94.43Zm.68-2.74a3.02 3.02 0 0 0 3.76-2.16 2.96 2.96 0 0 0-2.2-3.7 3.05 3.05 0 0 0-2.36.26 2.82 2.82 0 0 0-1.39 1.84c-.22.83-.12 1.61.3 2.34.42.73 1.06 1.2 1.89 1.42Zm17.11 1.47-7.44-1.96.76-2.89 7.44 1.96-.76 2.89Zm6.69 4.97c.73.19 1.4.14 2.02-.15a2.08 2.08 0 0 0 1.2-1.42l.23-.88-2.6-.52a2.81 2.81 0 0 0-1.56.09c-.4.18-.66.48-.78.91-.11.45-.04.86.23 1.21.27.36.69.61 1.26.76Zm-1.72 2.1a4.37 4.37 0 0 1-2.64-1.8 3.5 3.5 0 0 1-.46-2.95 3.21 3.21 0 0 1 1.91-2.28 6.5 6.5 0 0 1 3.78-.15l3.11.62.21-.8c.15-.56.08-1.05-.21-1.46-.28-.41-.73-.7-1.36-.87a2.6 2.6 0 0 0-1.59.02c-.45.17-.77.48-.98.92l-3.02-.8a3.8 3.8 0 0 1 2.28-2.48 6.34 6.34 0 0 1 4.11-.09 6.04 6.04 0 0 1 3.45 2.1c.74.98.95 2.09.63 3.31l-2.2 8.35-3.2-.84.49-1.86-.06-.01c-.5.54-1.14.91-1.92 1.1a4.6 4.6 0 0 1-2.33-.03Z" />
    </g>
    <g data-object="В-78__r__2318:4235">
      <rect width="124.75" height="89.02" x="6577.07" y="3352.27" fill="#8E96FF" rx="12"
        transform="rotate(14.75 6577.07 3352.27)" />
      <path fill="#fff"
        d="m6589.7 3410.42-.2-4.3-5.75-1.51-2.29 3.64-3.51-.93 9.98-14.85 4.02 1.05 1.39 17.85-3.64-.95Zm-.68-14.32-3.86 6.14 4.28 1.13-.34-7.25-.08-.02Zm14.74 12.46-7.45-1.96.76-2.89 7.45 1.96-.76 2.89Zm9.29 8 .76-2.91-8.13-2.14.76-2.91c2-2.19 5.11-5.13 9.34-8.8l4.83 1.27-2.82 10.7 2.13.56-.72 2.74-2.13-.56-.77 2.91-3.25-.86Zm-3.65-6.99-.02.09 5.2 1.37 2.2-8.38-.07-.01a140.43 140.43 0 0 0-4.25 3.81 56.02 56.02 0 0 0-3.06 3.12Zm15.17 10.03 3.48-13.22-.07-.01-4.93 1.78.81-3.09 5-1.82 3.4.9-4.3 16.35-3.39-.89Zm13.85 4.04a6.69 6.69 0 0 1-2.97-1.6 6.23 6.23 0 0 1-1.67-2.84c-.55-1.64-.53-3.56.05-5.77.71-2.69 1.88-4.65 3.51-5.87a6.24 6.24 0 0 1 5.63-1 6.66 6.66 0 0 1 3.67 2.31 5.16 5.16 0 0 1 1.15 3.79l-3.37-.89a2.52 2.52 0 0 0-.62-1.57c-.4-.46-.92-.77-1.56-.94a3.1 3.1 0 0 0-3.1.86c-.91.87-1.59 2.23-2.03 4.08l.07.02a4.13 4.13 0 0 1 2.16-1.51c.9-.28 1.86-.28 2.89-.01a5.38 5.38 0 0 1 3.46 2.56c.76 1.29.93 2.71.53 4.26a5.62 5.62 0 0 1-2.87 3.69 6.63 6.63 0 0 1-4.93.43Zm.68-2.74a3 3 0 0 0 2.33-.29 2.94 2.94 0 0 0 1.43-1.87c.22-.85.12-1.62-.3-2.32a3.03 3.03 0 0 0-1.9-1.39 3.1 3.1 0 0 0-2.36.27 2.86 2.86 0 0 0-1.4 1.84 3.03 3.03 0 0 0 2.2 3.76Zm17.11 1.46-7.45-1.96.76-2.89 7.45 1.96-.76 2.89Zm7.23 7.75c-1.98-.52-3.33-1.53-4.08-3.04-.73-1.51-.79-3.44-.17-5.8.6-2.25 1.34-4.01 2.22-5.29a6.2 6.2 0 0 1 3.06-2.49 7.27 7.27 0 0 1 4-.05l1.42.34c.72.16 1.4.27 2.04.33a5.4 5.4 0 0 0 1.29.01l-.67 2.56c-.14.07-.5.09-1.1.05-.59-.03-1.27-.14-2.03-.32l-1.35-.3c-1.48-.34-2.64-.24-3.49.3-.84.54-1.58 1.58-2.2 3.12l.09.02c1.19-1.32 2.76-1.72 4.71-1.21a5.38 5.38 0 0 1 3.52 2.6c.71 1.3.83 2.82.37 4.58-.51 1.92-1.44 3.28-2.82 4.1a6.04 6.04 0 0 1-4.81.49Zm.63-2.62c.84.22 1.58.09 2.21-.39a4.35 4.35 0 0 0 1.38-2.39 4 4 0 0 0-.06-2.67 2.45 2.45 0 0 0-1.73-1.41 2.49 2.49 0 0 0-2.22.37 4.01 4.01 0 0 0-1.37 2.3 4.28 4.28 0 0 0 .03 2.76c.32.72.9 1.2 1.76 1.43Z" />
    </g>
    <g data-object="В-78__r__2318:4236">
      <rect width="149.39" height="87.68" x="5037" y="3501.27" fill="#8E96FF" rx="12"
        transform="rotate(-21.71 5037 3501.27)" />
      <path fill="#fff"
        d="m5103.23 3531.23-2.71-3.33-5.52 2.2.32 4.28-3.38 1.35-.8-17.88 3.87-1.54 11.72 13.53-3.5 1.39Zm-9.05-11.11.54 7.23 4.11-1.63-4.58-5.63-.07.03Zm19.25 1.26-7.15 2.85-1.11-2.78 7.16-2.85 1.1 2.78Zm12.23.92-1.11-2.8-7.82 3.11-1.11-2.79c.3-2.95 1.06-7.16 2.27-12.63l4.64-1.85 4.09 10.28 2.05-.81 1.05 2.63-2.05.82 1.12 2.79-3.13 1.25Zm-7.09-3.46.04.09 4.99-1.99-3.2-8.05-.07.03c-.5 2.25-.89 4.12-1.15 5.59a57 57 0 0 0-.61 4.33Zm9.78-10.34a5 5 0 0 1 .16-4.29 6.56 6.56 0 0 1 3.62-3.09 6.59 6.59 0 0 1 4.54-.32 4.28 4.28 0 0 1 2.85 2.63 4.97 4.97 0 0 1 .18 3.05 14.3 14.3 0 0 1-.45 1.55c-.17.48-.41 1.06-.71 1.76l-2.37 5.22.03.07 7.09-2.83 1.04 2.62-11.42 4.54-.88-2.21 3.65-8.06c.48-1.12.77-1.98.86-2.58.11-.6.05-1.18-.16-1.72-.24-.6-.68-1-1.31-1.22a2.82 2.82 0 0 0-2.03.1c-.76.3-1.3.79-1.61 1.47a2.56 2.56 0 0 0-.03 2.1l.02.05-3.05 1.22-.02-.06Zm28.29-.69a5.97 5.97 0 0 1-3.77 4.06 6 6 0 0 1-5.54-.35c-1.72-1.02-3.08-2.8-4.1-5.35-1.01-2.53-1.24-4.75-.68-6.66a5.99 5.99 0 0 1 3.78-4.06 6 6 0 0 1 5.52.34c1.71 1.01 3.07 2.78 4.08 5.31 1.02 2.54 1.25 4.78.71 6.71Zm-7.63.84c.93.76 1.87.96 2.81.58.94-.37 1.49-1.15 1.63-2.34.14-1.19-.15-2.67-.85-4.45-.71-1.76-1.52-3.02-2.44-3.77-.92-.76-1.84-.96-2.78-.58-.94.37-1.48 1.15-1.63 2.33-.15 1.19.13 2.66.82 4.42.71 1.77 1.52 3.04 2.44 3.81Z" />
    </g>
    <g data-object="В-78__r__2318:4237">
      <rect width="144.18" height="89.33" x="5467" y="3327.34" fill="#8E96FF" rx="12"
        transform="rotate(-21.71 5467 3327.34)" />
      <path fill="#fff"
        d="m5530.86 3359.14-2.72-3.33-5.52 2.19.32 4.29-3.37 1.35-.81-17.89 3.87-1.54 11.72 13.54-3.49 1.39Zm-9.06-11.12.55 7.24 4.1-1.63-4.57-5.64-.08.03Zm19.25 1.27-7.15 2.85-1.1-2.78 7.15-2.85 1.1 2.78Zm12.23.92-1.11-2.8-7.82 3.11-1.11-2.8c.31-2.94 1.06-7.15 2.28-12.62l4.63-1.85 4.1 10.28 2.04-.82 1.05 2.64-2.04.81 1.11 2.8-3.13 1.25Zm-7.09-3.46.04.09 5-1.99-3.21-8.05-.06.03a136.8 136.8 0 0 0-1.16 5.59 62.53 62.53 0 0 0-.61 4.33Zm15.43-7.81-.94-2.37 1.9-.76c.75-.3 1.27-.74 1.58-1.34.3-.59.32-1.21.07-1.85a2.07 2.07 0 0 0-1.28-1.27c-.6-.21-1.3-.15-2.1.17-.76.3-1.3.75-1.61 1.35-.3.61-.34 1.26-.11 1.97l-3.03 1.2a4.9 4.9 0 0 1 .28-4.16 6.71 6.71 0 0 1 3.6-2.95 6.88 6.88 0 0 1 4.44-.42 3.89 3.89 0 0 1 2.73 2.43c.38.95.4 1.87.07 2.77a4.3 4.3 0 0 1-1.85 2.19l.02.06a4.76 4.76 0 0 1 3.28.05 3.72 3.72 0 0 1 2.09 2.21c.55 1.4.43 2.76-.38 4.08a7.78 7.78 0 0 1-3.94 3.07 7.1 7.1 0 0 1-4.81.38 5.05 5.05 0 0 1-3.14-2.83l3.15-1.25c.31.65.81 1.07 1.48 1.26a3.6 3.6 0 0 0 2.31-.22 3.34 3.34 0 0 0 1.76-1.44c.36-.62.4-1.27.14-1.93a2.18 2.18 0 0 0-1.43-1.38 3.49 3.49 0 0 0-2.34.21l-1.94.77Zm19.13.73a6.7 6.7 0 0 1-4.34.33 5.15 5.15 0 0 1-3.19-2.37l3.24-1.29c.37.46.86.76 1.45.89.61.13 1.23.07 1.86-.18a3.03 3.03 0 0 0 1.95-2.51c.22-1.24-.05-2.74-.81-4.51l-.03.02-.02.01h-.01a4 4 0 0 1-.8 2.49 5.19 5.19 0 0 1-2.36 1.74 5.47 5.47 0 0 1-7.28-3.1 5.53 5.53 0 0 1 .13-4.66 6.65 6.65 0 0 1 3.72-3.29 6.61 6.61 0 0 1 3.35-.48 5.9 5.9 0 0 1 3.03 1.27c1.42 1 2.55 2.56 3.39 4.67 1.04 2.61 1.27 4.89.69 6.83a6.27 6.27 0 0 1-3.97 4.14Zm-5.55-8.17c.76.31 1.55.31 2.37-.02a3.05 3.05 0 0 0 1.73-1.61c.33-.76.35-1.53.03-2.32a2.95 2.95 0 0 0-1.63-1.69 3 3 0 0 0-2.35-.02c-.81.32-1.38.87-1.72 1.63a2.89 2.89 0 0 0-.05 2.34c.33.81.86 1.37 1.62 1.69Z" />
    </g>
    <g data-object="В-78__r__2318:4238">
      <rect width="144.63" height="88.4" x="5326" y="3384.51" fill="#8E96FF" rx="12"
        transform="rotate(-21.71 5326 3384.51)" />
      <path fill="#fff"
        d="m5391.64 3415.09-2.71-3.33-5.52 2.2.32 4.28-3.38 1.35-.8-17.89 3.87-1.53 11.72 13.53-3.5 1.39Zm-9.05-11.11.55 7.23 4.1-1.63-4.57-5.63-.08.03Zm19.25 1.26-7.15 2.85-1.1-2.78 7.15-2.85 1.1 2.78Zm12.23.92-1.11-2.8-7.82 3.11-1.11-2.79c.3-2.95 1.06-7.16 2.27-12.63l4.64-1.85 4.1 10.28 2.04-.81 1.05 2.63-2.05.82 1.12 2.79-3.13 1.25Zm-7.09-3.46.04.09 5-1.99-3.21-8.05-.06.03c-.51 2.25-.9 4.12-1.16 5.59a57 57 0 0 0-.61 4.33Zm18.16-.95-5.05-12.69-.07.02-2.9 4.36-1.18-2.96 2.93-4.43 3.27-1.31 6.26 15.71-3.26 1.3Zm12.9-4.73c-1.51.6-2.95.71-4.35.33a5.21 5.21 0 0 1-3.19-2.37l3.24-1.3c.37.47.86.77 1.46.9s1.22.07 1.85-.18a3.07 3.07 0 0 0 1.96-2.51c.21-1.24-.06-2.74-.81-4.51l-.04.02h-.02l-.01.01c.02.9-.24 1.73-.8 2.49a5.14 5.14 0 0 1-2.36 1.74 5.44 5.44 0 0 1-7.27-3.1 5.53 5.53 0 0 1 .12-4.66 6.7 6.7 0 0 1 3.72-3.3 6.73 6.73 0 0 1 3.36-.47c1.1.13 2.11.55 3.02 1.26 1.42 1 2.55 2.56 3.39 4.68 1.04 2.61 1.27 4.88.69 6.83a6.25 6.25 0 0 1-3.96 4.14Zm-5.55-8.17c.75.31 1.54.31 2.36-.02.82-.33 1.4-.86 1.73-1.61.34-.76.35-1.53.03-2.32a2.92 2.92 0 0 0-1.63-1.69 2.95 2.95 0 0 0-2.35-.02c-.81.32-1.38.87-1.72 1.63a2.89 2.89 0 0 0-.04 2.34 2.9 2.9 0 0 0 1.62 1.69Z" />
    </g>
    <g data-object="В-78__r__2318:4239">
      <rect width="64" height="89" x="2957.8" y="4328" fill="#8E96FF" rx="12"
        transform="rotate(-21.71 2957.8 4328)" />
      <path fill="#fff"
        d="m3020.83 4376.8-3.33 2.71 2.2 5.52 4.28-.32 1.35 3.38-17.88.8-1.54-3.87 13.53-11.72 1.39 3.5Zm-11.11 9.05 7.23-.55-1.63-4.1-5.63 4.58.03.07Zm1.26-19.25 2.85 7.15-2.78 1.11-2.85-7.16 2.78-1.1Zm.92-12.23-2.8 1.11 3.11 7.82-2.79 1.11a119.2 119.2 0 0 1-12.63-2.27l-1.85-4.64 10.28-4.09-.81-2.05 2.63-1.05.82 2.05 2.8-1.12 1.24 3.13Zm-3.46 7.09.09-.04-1.99-4.99-8.05 3.2.03.06c2.25.51 4.12.9 5.59 1.16a57 57 0 0 0 4.33.61Zm-10.34-9.78a5 5 0 0 1-4.29-.16 6.56 6.56 0 0 1-3.09-3.62 6.59 6.59 0 0 1-.32-4.54 4.32 4.32 0 0 1 2.63-2.86 4.97 4.97 0 0 1 3.05-.17c.56.13 1.07.28 1.55.45.48.17 1.06.41 1.76.71l5.22 2.36.07-.02-2.83-7.09 2.62-1.04 4.54 11.42-2.21.88-8.06-3.65a12.42 12.42 0 0 0-2.58-.87c-.6-.1-1.18-.04-1.72.17-.6.24-1 .68-1.22 1.31-.22.63-.19 1.31.1 2.03.3.76.79 1.3 1.47 1.61.67.31 1.37.32 2.1.03l.05-.02 1.22 3.05-.06.02Zm3.31-24.71c.45 1.13.6 2.25.47 3.34a6.32 6.32 0 0 1-1.29 3.03c-1 1.41-2.55 2.54-4.67 3.38-2.59 1.04-4.86 1.26-6.81.67a6.23 6.23 0 0 1-4.15-3.93 6.66 6.66 0 0 1-.33-4.33 5.19 5.19 0 0 1 2.37-3.17l1.29 3.23c-.46.37-.76.85-.89 1.44-.14.59-.08 1.2.17 1.81a3.1 3.1 0 0 0 2.53 1.99c1.24.21 2.74-.06 4.49-.8l-.03-.06a4.18 4.18 0 0 1-2.49-.85 5.11 5.11 0 0 1-1.73-2.31c-.6-1.5-.6-2.93 0-4.31a5.39 5.39 0 0 1 3.11-2.95 5.6 5.6 0 0 1 4.67.11 6.63 6.63 0 0 1 3.29 3.71Zm-2.62 1.08a2.92 2.92 0 0 0-1.62-1.7 2.95 2.95 0 0 0-2.35-.04 2.96 2.96 0 0 0-1.67 3.97c.33.82.87 1.4 1.62 1.74a2.8 2.8 0 0 0 2.3.03 3 3 0 0 0 1.71-1.64c.33-.77.34-1.56.01-2.36Z" />
    </g>
    <g data-object="В-78__r__2318:4240">
      <rect width="64" height="89" x="9153.09" y="4213.52" fill="#8E96FF" rx="12"
        transform="rotate(14.75 9153.09 4213.52)" />
      <path fill="#fff"
        d="m9175.14 4288.83-4.29.2-1.52 5.75 3.64 2.29-.92 3.51-14.86-9.98 1.06-4.02 17.85-1.39-.96 3.64Zm-14.32.68 6.15 3.86 1.12-4.27-7.25.33-.02.08Zm12.46-14.74-1.96 7.45-2.89-.76 1.96-7.45 2.89.76Zm8.01-9.29-2.92-.76-2.14 8.13-2.91-.76c-2.19-2-5.12-5.11-8.8-9.34l1.27-4.82 10.7 2.81.56-2.13 2.74.72-.56 2.13 2.91.77-.85 3.25Zm-7 3.65.09.03 1.37-5.21-8.37-2.2-.02.07c1.51 1.74 2.78 3.16 3.81 4.25a59.69 59.69 0 0 0 3.12 3.06Zm9.99-22.87a5.95 5.95 0 0 1 1.02 5.44 6 6 0 0 1-3.56 4.25c-1.85.77-4.09.81-6.75.11-2.63-.69-4.56-1.83-5.76-3.41a5.98 5.98 0 0 1-1.02-5.45 6 6 0 0 1 3.56-4.24c1.82-.78 4.06-.82 6.69-.12 2.65.69 4.59 1.83 5.82 3.42Zm-3.86 6.63c1.17-.29 1.88-.93 2.14-1.91.26-.98-.04-1.88-.91-2.7-.88-.82-2.24-1.48-4.09-1.96-1.84-.49-3.33-.58-4.48-.29-1.16.29-1.87.92-2.12 1.89-.26.98.04 1.88.91 2.7.86.83 2.21 1.48 4.04 1.96 1.84.49 3.35.59 4.51.31Zm7.94-14.27-13.22-3.48-.01.07 1.78 4.93-3.09-.81-1.82-5 .9-3.4 16.35 4.3-.89 3.39Z" />
    </g>
    <g data-object="В-78__r__2318:4241">
      <rect width="64" height="89" x="9083.46" y="4195.19" fill="#8E96FF" rx="12"
        transform="rotate(14.75 9083.46 4195.19)" />
      <path fill="#fff"
        d="m9105.04 4272.29-4.29.2-1.52 5.75 3.64 2.29-.92 3.51-14.86-9.98 1.06-4.03 17.85-1.38-.96 3.64Zm-14.32.68 6.15 3.86 1.12-4.28-7.25.34-.02.08Zm12.46-14.74-1.96 7.45-2.89-.76 1.96-7.45 2.89.76Zm8.01-9.29-2.91-.77-2.15 8.14-2.91-.77a118.2 118.2 0 0 1-8.8-9.33l1.27-4.83 10.7 2.82.56-2.13 2.74.72-.56 2.13 2.91.77-.85 3.25Zm-7 3.65.09.02 1.37-5.2-8.37-2.2-.02.06c1.51 1.75 2.78 3.17 3.81 4.26a63.88 63.88 0 0 0 3.12 3.06Zm9.99-22.88a5.95 5.95 0 0 1 1.02 5.45 6.01 6.01 0 0 1-3.56 4.25c-1.85.77-4.09.81-6.75.11-2.63-.69-4.55-1.83-5.76-3.41a6.01 6.01 0 0 1-1.02-5.45 6 6 0 0 1 3.56-4.24c1.83-.78 4.06-.82 6.69-.13 2.65.7 4.59 1.84 5.82 3.42Zm-3.86 6.64c1.17-.29 1.88-.93 2.14-1.91.26-.99-.04-1.89-.91-2.7-.88-.82-2.24-1.48-4.09-1.96-1.84-.49-3.33-.58-4.48-.29-1.16.29-1.87.92-2.12 1.89-.26.98.04 1.88.91 2.7.87.83 2.21 1.48 4.04 1.96 1.84.49 3.35.59 4.51.31Zm.8-16.15-2.47-.65.52-1.98c.21-.78.16-1.47-.13-2.06-.3-.6-.78-.98-1.46-1.16a2.04 2.04 0 0 0-1.78.27c-.52.36-.89.95-1.11 1.79-.21.8-.16 1.49.14 2.1.3.6.8 1.02 1.51 1.26l-.83 3.15a4.92 4.92 0 0 1-3.18-2.69 6.72 6.72 0 0 1-.23-4.66 6.85 6.85 0 0 1 2.29-3.82 3.9 3.9 0 0 1 3.58-.75c.99.26 1.75.79 2.27 1.59s.74 1.73.66 2.79l.07.02a4.77 4.77 0 0 1 1.98-2.61 3.77 3.77 0 0 1 3.02-.37 4.38 4.38 0 0 1 3.06 2.74c.58 1.43.63 3.09.13 4.99a7.13 7.13 0 0 1-2.56 4.09 5.07 5.07 0 0 1-4.14.85l.87-3.28c.7.13 1.34-.02 1.89-.44.56-.44.96-1.1 1.19-1.99.23-.86.19-1.61-.1-2.27a2.16 2.16 0 0 0-1.47-1.26 2.19 2.19 0 0 0-1.97.33 3.42 3.42 0 0 0-1.22 2l-.53 2.02Z" />
    </g>
    <g data-object="В-78__r__2318:4242">
      <rect width="64" height="89" x="9013.83" y="4176.86" fill="#8E96FF" rx="12"
        transform="rotate(14.75 9013.83 4176.86)" />
      <path fill="#fff"
        d="m9035.44 4253.85-4.29.2-1.51 5.75 3.64 2.29-.93 3.51-14.86-9.98 1.06-4.03 17.85-1.38-.96 3.64Zm-14.32.67 6.15 3.86 1.12-4.27-7.24.34-.03.07Zm12.46-14.73-1.96 7.45-2.89-.77 1.96-7.44 2.89.76Zm8.01-9.29-2.91-.77-2.14 8.14-2.92-.77a122 122 0 0 1-8.8-9.33l1.27-4.83 10.7 2.82.56-2.13 2.75.72-.57 2.13 2.92.77-.86 3.25Zm-6.99 3.65.09.02 1.37-5.2-8.38-2.2-.02.06c1.51 1.75 2.79 3.17 3.82 4.25a52.92 52.92 0 0 0 3.12 3.07Zm9.98-22.88a5.95 5.95 0 0 1 1.03 5.45 6 6 0 0 1-3.57 4.25c-1.84.77-4.09.81-6.74.11-2.64-.69-4.56-1.83-5.77-3.41a6.01 6.01 0 0 1-1.01-5.45 5.99 5.99 0 0 1 3.55-4.24c1.83-.78 4.06-.82 6.7-.13 2.64.7 4.58 1.84 5.81 3.42Zm-3.85 6.63c1.16-.29 1.88-.92 2.13-1.9.26-.99-.04-1.89-.91-2.7-.87-.82-2.24-1.48-4.09-1.97-1.83-.48-3.33-.57-4.48-.28-1.16.29-1.86.92-2.12 1.89-.26.97.05 1.88.91 2.7.87.83 2.21 1.48 4.04 1.96 1.85.49 3.35.59 4.52.3Zm8.87-16.36a6.87 6.87 0 0 1-2.55 3.98 4.9 4.9 0 0 1-4.11.83l.84-3.16a2.6 2.6 0 0 0 1.94-.53c.58-.45.97-1.07 1.18-1.86.24-.89.15-1.69-.26-2.4a3.08 3.08 0 0 0-1.97-1.42 3.14 3.14 0 0 0-2.44.25 3 3 0 0 0-1.43 1.94 3.67 3.67 0 0 0-.04 1.8c.14.56.4 1.05.79 1.46l-.8 3.06-9.2-3.28 2.74-10.4 2.72.72-2.03 7.71 4.38 1.56.01-.07a3.62 3.62 0 0 1-.93-1.8 4.94 4.94 0 0 1 .1-2.31 5.32 5.32 0 0 1 2.57-3.45 5.55 5.55 0 0 1 4.33-.48 5.65 5.65 0 0 1 3.75 2.87c.77 1.44.91 3.1.41 4.98Z" />
    </g>
    <g data-object="В-78__r__2318:4243">
      <rect width="64" height="89" x="8944.2" y="4158.53" fill="#8E96FF" rx="12"
        transform="rotate(14.75 8944.2 4158.53)" />
      <path fill="#fff"
        d="m8966.01 4234.75-4.29.21-1.51 5.74 3.64 2.29-.93 3.52-14.86-9.99 1.06-4.02 17.85-1.38-.96 3.63Zm-14.32.68 6.15 3.86 1.12-4.27-7.24.33-.03.08Zm12.46-14.73-1.96 7.44-2.89-.76 1.96-7.44 2.89.76Zm8.01-9.29-2.91-.77-2.14 8.14-2.92-.77c-2.18-2-5.12-5.11-8.8-9.33l1.27-4.83 10.7 2.82.56-2.13 2.75.72-.56 2.13 2.91.76-.86 3.26Zm-6.99 3.64.09.03 1.37-5.2-8.38-2.21-.02.07c1.51 1.75 2.79 3.16 3.82 4.25a49.77 49.77 0 0 0 3.12 3.06Zm9.98-22.87a5.93 5.93 0 0 1 1.03 5.44 5.97 5.97 0 0 1-3.57 4.25c-1.84.78-4.09.82-6.74.12-2.64-.7-4.56-1.83-5.77-3.41a6.02 6.02 0 0 1-1.01-5.45 5.97 5.97 0 0 1 3.55-4.24c1.83-.78 4.06-.83 6.7-.13 2.64.7 4.58 1.84 5.81 3.42Zm-3.85 6.63c1.16-.29 1.88-.93 2.13-1.91.26-.98-.04-1.88-.91-2.7-.87-.82-2.24-1.47-4.09-1.96-1.83-.48-3.33-.58-4.48-.28-1.16.28-1.86.91-2.12 1.89-.26.97.05 1.87.91 2.7a9.34 9.34 0 0 0 4.04 1.96c1.85.48 3.35.58 4.52.3Zm7-10.73-11.71-10.61-.07-.01-2.19 8.31-2.72-.71 3.08-11.7 2.75.73 11.81 10.4-.95 3.59Z" />
    </g>
    <g data-object="В-78__r__2318:4244">
      <rect width="64" height="89" x="8874.58" y="4140.2" fill="#8E96FF" rx="12"
        transform="rotate(14.75 8874.58 4140.2)" />
      <path fill="#fff"
        d="m8896.11 4217.48-4.29.2-1.52 5.75 3.64 2.29-.92 3.51-14.86-9.98 1.06-4.03 17.85-1.38-.96 3.64Zm-14.32.68 6.15 3.86 1.12-4.28-7.25.34-.02.08Zm12.46-14.74-1.96 7.45-2.89-.76 1.96-7.45 2.89.76Zm8.01-9.29-2.91-.77-2.15 8.14-2.91-.77a120.04 120.04 0 0 1-8.8-9.33l1.27-4.83 10.7 2.82.56-2.13 2.74.72-.56 2.13 2.91.77-.85 3.25Zm-7 3.65.09.02 1.37-5.2-8.37-2.2-.02.06c1.51 1.75 2.78 3.17 3.81 4.26a63.88 63.88 0 0 0 3.12 3.06Zm9.99-22.88a5.97 5.97 0 0 1 1.02 5.45 6.01 6.01 0 0 1-3.56 4.25c-1.85.77-4.09.81-6.75.11-2.63-.69-4.56-1.83-5.76-3.41a6.01 6.01 0 0 1-1.02-5.45 6 6 0 0 1 3.56-4.24c1.82-.78 4.06-.82 6.69-.13 2.65.7 4.59 1.84 5.82 3.42Zm-3.86 6.64c1.17-.3 1.88-.93 2.14-1.91.26-.99-.04-1.89-.91-2.7-.88-.82-2.24-1.48-4.09-1.97-1.84-.48-3.33-.57-4.48-.28-1.16.29-1.87.92-2.12 1.89-.26.98.04 1.88.91 2.7.86.83 2.21 1.48 4.04 1.96 1.84.49 3.35.59 4.51.31Zm8.83-16.19a6.75 6.75 0 0 1-2.31 3.69 5.23 5.23 0 0 1-3.81 1.16l.89-3.38a2.5 2.5 0 0 0 1.58-.64c.47-.41.79-.94.96-1.6.3-1.14.01-2.16-.86-3.06-.86-.91-2.23-1.58-4.1-2.03l-.01.04-.01.02v.01a3.92 3.92 0 0 1 1.52 2.12c.29.9.29 1.88.01 2.94a5.42 5.42 0 0 1-6.83 4 5.5 5.5 0 0 1-3.66-2.86 6.61 6.61 0 0 1-.44-4.96 6.72 6.72 0 0 1 1.6-2.98 6.06 6.06 0 0 1 2.82-1.68c1.65-.54 3.57-.53 5.78.06 2.71.71 4.68 1.88 5.9 3.5a6.25 6.25 0 0 1 .97 5.65Zm-9.87-.39a3.04 3.04 0 0 0 1.39-1.92 2.99 2.99 0 0 0-2.11-3.75 2.92 2.92 0 0 0-2.33.31 2.97 2.97 0 0 0-1.41 1.88 3 3 0 0 0 .29 2.35 2.86 2.86 0 0 0 1.85 1.42c.84.22 1.61.12 2.32-.29Z" />
    </g>
    <g data-object="В-78__r__2318:4245">
      <rect width="64" height="89" x="8804.95" y="4121.87" fill="#8E96FF" rx="12"
        transform="rotate(14.75 8804.95 4121.87)" />
      <path fill="#fff"
        d="m8827.52 4195.23-4.3.2-1.51 5.74 3.64 2.29-.93 3.52-14.86-9.99 1.06-4.02 17.85-1.38-.95 3.64Zm-14.32.67 6.14 3.86 1.13-4.27-7.25.33-.02.08Zm12.45-14.73-1.96 7.44-2.89-.76 1.96-7.44 2.89.76Zm8.01-9.29-2.91-.77-2.14 8.14-2.92-.77c-2.18-2-5.12-5.11-8.8-9.33l1.28-4.83 10.69 2.82.56-2.13 2.75.72-.56 2.13 2.91.77-.86 3.25Zm-6.99 3.65.09.02 1.37-5.2-8.38-2.21-.02.07c1.52 1.75 2.79 3.17 3.82 4.25a52.92 52.92 0 0 0 3.12 3.07Zm10.03-15.17-13.22-3.48-.02.07 1.78 4.93-3.08-.82-1.82-5 .89-3.4 16.36 4.31-.89 3.39Zm3.01-11.44-13.22-3.48-.01.07 1.78 4.92-3.09-.81-1.82-5 .9-3.4 16.35 4.31-.89 3.39Z" />
    </g>
    <g data-object="В-78__r__2318:4246">
      <rect width="64" height="89" x="8780.39" y="3932.37" fill="#8E96FF" rx="12"
        transform="rotate(14.75 8780.39 3932.37)" />
      <path fill="#fff"
        d="m8802.58 4007.16-4.3.2-1.51 5.74 3.64 2.3-.93 3.51-14.85-9.98 1.06-4.03 17.85-1.38-.96 3.64Zm-14.32.67 6.14 3.86 1.13-4.27-7.25.33-.02.08Zm12.46-14.73-1.96 7.44-2.89-.76 1.96-7.44 2.89.76Zm8-9.29-2.91-.77-2.14 8.14-2.91-.77c-2.19-2-5.12-5.11-8.8-9.33l1.27-4.83 10.7 2.82.56-2.13 2.74.72-.56 2.13 2.91.77-.86 3.25Zm-6.99 3.65.09.02 1.37-5.2-8.38-2.21-.01.07c1.51 1.75 2.78 3.17 3.81 4.25a52.92 52.92 0 0 0 3.12 3.07Zm10.03-15.17-13.22-3.48-.01.07 1.78 4.93-3.09-.82-1.82-5 .9-3.4 16.35 4.31-.89 3.39Zm-9.55-10.17a5 5 0 0 1-3.36-2.68 6.58 6.58 0 0 1-.33-4.75c.45-1.72 1.26-3 2.44-3.84a4.32 4.32 0 0 1 3.81-.73 4.8 4.8 0 0 1 2.56 1.67 15.08 15.08 0 0 1 1.97 2.9l2.79 5 .07.02 1.94-7.38 2.72.72-3.13 11.89-2.3-.61-4.31-7.73a11.9 11.9 0 0 0-1.56-2.22 3.11 3.11 0 0 0-1.49-.89 2.04 2.04 0 0 0-1.76.32c-.55.38-.92.95-1.12 1.69-.21.8-.13 1.52.23 2.17.35.65.91 1.08 1.66 1.28l.06.01-.84 3.18-.05-.02Z" />
    </g>
    <g data-object="В-78__r__2318:4247">
      <rect width="64" height="89" x="8989.27" y="3987.36" fill="#8E96FF" rx="12"
        transform="rotate(14.75 8989.27 3987.36)" />
      <path fill="#fff"
        d="m9010.78 4064.72-4.29.2-1.52 5.75 3.64 2.29-.92 3.51-14.86-9.98 1.06-4.02 17.85-1.39-.96 3.64Zm-14.32.68 6.15 3.86 1.12-4.27-7.25.33-.02.08Zm12.46-14.74-1.96 7.45-2.89-.76 1.96-7.45 2.89.76Zm8.01-9.29-2.91-.76-2.15 8.13-2.91-.76c-2.19-2-5.12-5.11-8.8-9.34l1.27-4.82 10.7 2.81.56-2.13 2.74.72-.56 2.13 2.91.77-.85 3.25Zm-7 3.65.09.03 1.37-5.21-8.37-2.2-.02.07c1.51 1.74 2.78 3.16 3.81 4.25a63.88 63.88 0 0 0 3.12 3.06Zm9.99-22.87a5.93 5.93 0 0 1 1.02 5.44 6 6 0 0 1-3.56 4.25c-1.85.77-4.09.81-6.75.11-2.63-.69-4.55-1.83-5.76-3.4a6.04 6.04 0 0 1-1.02-5.46 6 6 0 0 1 3.56-4.24c1.83-.78 4.06-.82 6.69-.12 2.65.69 4.59 1.83 5.82 3.42Zm-3.86 6.63c1.17-.29 1.88-.93 2.14-1.91.26-.98-.04-1.88-.91-2.7-.88-.82-2.24-1.47-4.09-1.96-1.84-.49-3.33-.58-4.48-.29-1.16.29-1.87.92-2.12 1.89-.26.98.04 1.88.91 2.7.87.83 2.21 1.48 4.04 1.97 1.84.48 3.35.58 4.51.3Zm8.94-16.61c-.52 1.98-1.38 3.47-2.59 4.46a4.27 4.27 0 0 1-3.95.91 4.04 4.04 0 0 1-2.47-1.79 4.9 4.9 0 0 1-.71-3.16l-.07-.01a4.38 4.38 0 0 1-1.94 1.96 3.81 3.81 0 0 1-5.25-2.25 7.33 7.33 0 0 1-.09-4.61 7.3 7.3 0 0 1 2.35-3.98 3.84 3.84 0 0 1 3.54-.85c.89.24 1.59.73 2.12 1.5.52.75.77 1.64.74 2.65l.07.02a4.9 4.9 0 0 1 2.18-2.4 4.05 4.05 0 0 1 3.04-.34 4.24 4.24 0 0 1 2.97 2.76c.56 1.46.58 3.17.06 5.13Zm-3.79 1.37a3.46 3.46 0 0 0 1.3-2.02c.24-.9.19-1.7-.13-2.39a2.4 2.4 0 0 0-1.62-1.33 2.32 2.32 0 0 0-2.05.37 3.38 3.38 0 0 0-1.3 2c-.24.9-.19 1.7.14 2.4s.86 1.14 1.61 1.33c.74.2 1.42.08 2.05-.36Zm-7.42-2.33c.55-.37.93-.94 1.13-1.69a2.8 2.8 0 0 0-.15-2.03c-.3-.6-.78-.98-1.43-1.15a2.15 2.15 0 0 0-1.81.3c-.56.37-.94.93-1.13 1.69a2.8 2.8 0 0 0 .15 2.03c.3.59.77.97 1.43 1.15.66.17 1.26.07 1.81-.3Z" />
    </g>
    <g data-object="В-78__r__2318:4248">
      <rect width="64" height="89" x="9058.89" y="4005.69" fill="#8E96FF" rx="12"
        transform="rotate(14.75 9058.89 4005.69)" />
      <path fill="#fff"
        d="m9080.44 4082.95-4.3.2-1.51 5.75 3.64 2.29-.93 3.51-14.86-9.98 1.06-4.02 17.85-1.39-.95 3.64Zm-14.32.68 6.14 3.86 1.13-4.27-7.25.33-.02.08Zm12.45-14.74-1.96 7.45-2.89-.76 1.96-7.45 2.89.76Zm8.01-9.29-2.91-.76-2.14 8.13-2.92-.76c-2.18-2-5.12-5.11-8.8-9.34l1.28-4.82 10.69 2.81.56-2.13 2.75.72-.56 2.13 2.91.77-.86 3.25Zm-6.99 3.65.09.03 1.37-5.21-8.38-2.2-.02.07c1.52 1.74 2.79 3.16 3.82 4.25a56.02 56.02 0 0 0 3.12 3.06Zm9.98-22.87a5.93 5.93 0 0 1 1.03 5.44 5.99 5.99 0 0 1-3.57 4.25c-1.84.77-4.09.81-6.74.11-2.64-.69-4.56-1.83-5.77-3.4a6.03 6.03 0 0 1-1.01-5.46 5.99 5.99 0 0 1 3.55-4.24c1.83-.78 4.06-.82 6.7-.12 2.64.69 4.58 1.83 5.81 3.42Zm-3.85 6.63c1.16-.29 1.88-.93 2.14-1.91.25-.98-.05-1.88-.92-2.7-.87-.82-2.23-1.47-4.09-1.96-1.83-.49-3.33-.58-4.48-.28-1.16.28-1.86.91-2.12 1.88-.26.98.05 1.88.91 2.7.87.83 2.22 1.48 4.04 1.97 1.85.48 3.35.58 4.52.3Zm9-16.79a6.18 6.18 0 0 1-4.45 4.64c-1.64.54-3.56.53-5.76-.05-2.7-.71-4.66-1.88-5.88-3.51a6.27 6.27 0 0 1-1-5.63 6.66 6.66 0 0 1 2.31-3.67 5.17 5.17 0 0 1 3.79-1.15l-.88 3.37a2.5 2.5 0 0 0-1.57.62c-.46.4-.78.92-.95 1.56a3.12 3.12 0 0 0 .86 3.1c.88.91 2.24 1.58 4.08 2.03l.02-.07a4.17 4.17 0 0 1-1.5-2.16 5.15 5.15 0 0 1-.02-2.89 5.38 5.38 0 0 1 2.56-3.46 5.41 5.41 0 0 1 4.26-.53 5.6 5.6 0 0 1 3.69 2.87c.77 1.46.92 3.11.44 4.93Zm-2.74-.68c.22-.83.12-1.61-.3-2.33a2.91 2.91 0 0 0-1.87-1.43 2.92 2.92 0 0 0-2.32.3 3 3 0 0 0-1.38 1.9c-.23.86-.14 1.64.26 2.36.4.71 1.02 1.18 1.84 1.39a3.02 3.02 0 0 0 3.77-2.19Z" />
    </g>
    <g data-object="В-78__r__2318:4249">
      <rect width="136" height="89" x="9128.52" y="4024.02" fill="#8E96FF" rx="12"
        transform="rotate(14.75 9128.52 4024.02)" />
      <path fill="#fff"
        d="m9148.96 4086.79-.26-5.72-7.67-2.02-3.05 4.85-4.68-1.23 13.31-19.81 5.36 1.41 1.85 23.8-4.86-1.28Zm-.9-19.09-5.14 8.19 5.69 1.5-.44-9.66-.11-.03Zm19.26 16.51-9.93-2.62 1.02-3.85 9.93 2.62-1.02 3.85Zm12 10.57 1.02-3.88-10.85-2.86 1.03-3.88c2.66-2.92 6.81-6.83 12.44-11.73l6.44 1.69-3.76 14.27 2.84.74-.96 3.66-2.84-.75-1.02 3.89-4.34-1.15Zm-4.86-9.32-.03.12 6.93 1.82 2.94-11.16-.09-.03a171.45 171.45 0 0 0-5.67 5.09 69.23 69.23 0 0 0-4.08 4.16Zm30.11 13.21a7.95 7.95 0 0 1-7.26 1.37 7.97 7.97 0 0 1-5.66-4.76c-1.04-2.46-1.09-5.45-.16-8.99.93-3.51 2.44-6.08 4.55-7.69a8 8 0 0 1 7.27-1.35 7.99 7.99 0 0 1 5.65 4.74c1.04 2.44 1.1 5.41.17 8.93-.93 3.52-2.45 6.11-4.56 7.75Zm-8.84-5.14c.39 1.56 1.23 2.51 2.54 2.85 1.31.35 2.51-.06 3.6-1.22 1.1-1.16 1.97-2.98 2.62-5.45.64-2.45.77-4.44.38-5.97-.38-1.55-1.22-2.49-2.52-2.83-1.3-.34-2.5.06-3.6 1.21-1.1 1.16-1.98 2.95-2.62 5.39-.64 2.46-.78 4.47-.4 6.02Zm23.72 11.82 1.03-3.88-10.85-2.86 1.02-3.88c2.66-2.92 6.81-6.83 12.44-11.74l6.44 1.7-3.75 14.26 2.84.75-.97 3.66-2.84-.75-1.02 3.88-4.34-1.14Zm-4.86-9.33-.03.12 6.93 1.83 2.94-11.17-.09-.02a172.78 172.78 0 0 0-5.67 5.08 79.58 79.58 0 0 0-4.08 4.16Z" />
    </g>
    <g data-object="В-78__r__2318:4250">
      <rect width="136" height="89" x="8850.01" y="3950.7" fill="#8E96FF" rx="12"
        transform="rotate(14.75 8850.01 3950.7)" />
      <path fill="#fff"
        d="m8873.09 4014.17-.27-5.73-7.67-2.02-3.05 4.85-4.68-1.23 13.31-19.81 5.36 1.41 1.85 23.8-4.85-1.27Zm-.91-19.1-5.14 8.2 5.69 1.5-.44-9.67-.11-.03Zm19.26 16.51-9.93-2.61 1.02-3.85 9.93 2.61-1.02 3.85Zm12 10.58 1.02-3.89-10.84-2.85 1.02-3.89c2.66-2.91 6.81-6.82 12.44-11.73l6.44 1.7-3.76 14.26 2.84.75-.96 3.65-2.84-.74-1.02 3.88-4.34-1.14Zm-4.86-9.33-.03.12 6.93 1.83 2.94-11.17-.09-.02a172.78 172.78 0 0 0-5.67 5.08 75.78 75.78 0 0 0-4.08 4.16Zm19.84 13.27 4.63-17.62-.09-.02-6.57 2.37 1.08-4.11 6.67-2.43 4.53 1.2-5.74 21.8-4.51-1.19Zm25.08 3.84a7.95 7.95 0 0 1-7.26 1.37 7.97 7.97 0 0 1-5.66-4.76c-1.04-2.45-1.09-5.45-.16-8.99.93-3.51 2.44-6.08 4.55-7.69a8 8 0 0 1 7.27-1.35 7.99 7.99 0 0 1 5.65 4.74c1.04 2.44 1.1 5.41.17 8.93-.93 3.53-2.45 6.11-4.56 7.75Zm-8.84-5.14c.38 1.56 1.23 2.51 2.54 2.85 1.31.35 2.51-.06 3.6-1.21 1.1-1.17 1.97-2.99 2.62-5.46.64-2.44.77-4.44.37-5.97-.38-1.55-1.21-2.49-2.51-2.83-1.3-.34-2.5.06-3.6 1.22-1.11 1.15-1.98 2.95-2.62 5.38-.65 2.46-.78 4.47-.4 6.02Z" />
    </g>
    <g data-object="В-78__r__2318:4251">
      <rect width="64" height="89" x="9267.78" y="4060.68" fill="#8E96FF" rx="12"
        transform="rotate(14.75 9267.78 4060.68)" />
      <path fill="#fff"
        d="m9289.45 4137.42-4.29.2-1.51 5.75 3.64 2.29-.93 3.51-14.86-9.98 1.06-4.02 17.85-1.39-.96 3.64Zm-14.32.68 6.15 3.86 1.13-4.27-7.25.33-.03.08Zm12.46-14.74-1.96 7.45-2.89-.76 1.96-7.45 2.89.76Zm8.01-9.29-2.91-.76-2.14 8.13-2.92-.76c-2.18-2-5.12-5.11-8.8-9.34l1.27-4.82 10.7 2.81.56-2.13 2.75.72-.56 2.13 2.91.77-.86 3.25Zm-6.99 3.65.09.03 1.37-5.21-8.38-2.2-.02.07c1.52 1.74 2.79 3.16 3.82 4.25a52.7 52.7 0 0 0 3.12 3.06Zm9.98-22.87a5.93 5.93 0 0 1 1.03 5.44 5.99 5.99 0 0 1-3.57 4.25c-1.84.77-4.09.81-6.74.11-2.64-.69-4.56-1.83-5.77-3.4a6.03 6.03 0 0 1-1.01-5.46 6 6 0 0 1 3.55-4.24c1.83-.78 4.06-.82 6.7-.12 2.64.69 4.58 1.83 5.81 3.42Zm-3.85 6.63c1.16-.29 1.88-.93 2.14-1.91.25-.98-.05-1.88-.92-2.7-.87-.82-2.24-1.47-4.09-1.96-1.83-.49-3.33-.58-4.48-.28-1.16.28-1.86.91-2.12 1.88-.26.98.05 1.88.91 2.7.87.83 2.22 1.48 4.04 1.97 1.85.48 3.35.58 4.52.3Zm-4.63-12.99a4.96 4.96 0 0 1-3.35-2.68 6.54 6.54 0 0 1-.34-4.75c.45-1.72 1.27-3 2.44-3.84a4.3 4.3 0 0 1 3.82-.73 4.74 4.74 0 0 1 2.55 1.66c.37.44.7.87.98 1.29.28.42.61.96.99 1.62l2.8 5 .06.02 1.95-7.38 2.72.72-3.13 11.88-2.3-.6-4.32-7.73a11.91 11.91 0 0 0-1.56-2.23 3.14 3.14 0 0 0-1.49-.89 2.05 2.05 0 0 0-1.75.33c-.56.38-.93.94-1.13 1.69-.21.79-.13 1.52.23 2.17.36.65.91 1.07 1.67 1.27l.05.02-.83 3.17-.06-.01Z" />
    </g>
    <g data-object="В-78__r__2318:4252">
      <rect width="128" height="136" x="8476.51" y="3986.8" fill="#8E96FF" rx="12"
        transform="rotate(14.75 8476.51 3986.8)" />
      <path fill="#fff"
        d="m8524.74 4098.19-5.72.26-2.02 7.67 4.85 3.05-1.23 4.68-19.81-13.31 1.41-5.36 23.8-1.85-1.28 4.86Zm-19.09.9 8.2 5.14 1.49-5.69-9.66.44-.03.11Zm16.51-19.26-2.61 9.93-3.86-1.02 2.62-9.93 3.85 1.02Zm10.43-9.47a9.02 9.02 0 0 1-3.09 4.92 6.91 6.91 0 0 1-5.08 1.54l1.19-4.5a3.3 3.3 0 0 0 2.11-.85 4.2 4.2 0 0 0 1.28-2.14c.4-1.52.02-2.88-1.14-4.08-1.16-1.21-2.99-2.11-5.48-2.7l-.01.04-.01.03v.02a5.25 5.25 0 0 1 2.03 2.83c.37 1.2.38 2.5 0 3.91a7.25 7.25 0 0 1-9.09 5.35 7.37 7.37 0 0 1-4.89-3.83 8.84 8.84 0 0 1-.59-6.6 8.98 8.98 0 0 1 2.14-3.98 8.14 8.14 0 0 1 3.76-2.24c2.19-.72 4.76-.7 7.7.07 3.62.96 6.24 2.51 7.87 4.68 1.62 2.15 2.05 4.66 1.3 7.53Zm-13.16-.53a4.05 4.05 0 0 0 1.85-2.55c.3-1.13.18-2.18-.36-3.13a3.81 3.81 0 0 0-2.46-1.87 3.9 3.9 0 0 0-3.1.41 4 4 0 0 0-1.89 2.51 4.08 4.08 0 0 0 5.96 4.63Zm11.59-23.67-2.61 9.93-3.85-1.01 2.61-9.93 3.85 1.01Zm6.57-8.67c.26-.98.19-1.88-.19-2.7a2.82 2.82 0 0 0-1.89-1.6l-1.18-.31-.69 3.47c-.16.84-.12 1.54.11 2.08.24.54.64.88 1.22 1.03.6.16 1.14.06 1.61-.3.48-.36.81-.92 1.01-1.67Zm2.81 2.29a5.8 5.8 0 0 1-2.4 3.52 4.7 4.7 0 0 1-3.94.61 4.28 4.28 0 0 1-3.03-2.54c-.55-1.31-.62-3-.21-5.05l.83-4.14-1.07-.29a2.3 2.3 0 0 0-1.95.28 3 3 0 0 0-1.15 1.81c-.22.81-.21 1.52.02 2.13.23.6.64 1.03 1.22 1.3l-1.06 4.04a5.09 5.09 0 0 1-3.3-3.05c-.64-1.54-.68-3.36-.13-5.48.55-2.07 1.48-3.61 2.8-4.6a4.91 4.91 0 0 1 4.42-.84l11.14 2.94-1.13 4.26-2.47-.66-.03.1a4.96 4.96 0 0 1 1.48 2.55 6.42 6.42 0 0 1-.04 3.11Z" />
    </g>
    <g data-object="В-78__r__2318:4253">
      <rect width="128" height="89" x="2629.38" y="4649.3" fill="#8E96FF" rx="12"
        transform="rotate(-21.71 2629.38 4649.3)" />
      <path fill="#fff"
        d="m2680.12 4688.84-3.62-4.45-7.36 2.93.43 5.72-4.5 1.79-1.07-23.84 5.15-2.05 15.63 18.04-4.66 1.86Zm-12.07-14.82.73 9.65 5.47-2.18-6.1-7.51-.1.04Zm25.3 1.83-9.54 3.8-1.47-3.7 9.53-3.8 1.48 3.7Zm15.93 1.37-1.48-3.73-10.43 4.15-1.48-3.73c.41-3.93 1.42-9.54 3.03-16.83l6.19-2.46 5.45 13.7 2.73-1.09 1.4 3.52-2.73 1.08 1.49 3.73-4.17 1.66Zm-9.45-4.61.04.12 6.67-2.65-4.28-10.73-.08.03c-.68 3.01-1.19 5.49-1.54 7.46a76.11 76.11 0 0 0-.81 5.77Zm12.66-13.64a6.6 6.6 0 0 1 .22-5.71c.93-1.85 2.54-3.22 4.83-4.13 2.19-.88 4.21-1.02 6.05-.43a5.78 5.78 0 0 1 3.8 3.52c.25.63.4 1.27.44 1.94.05.66-.02 1.36-.2 2.12-.17.74-.37 1.43-.6 2.07-.23.63-.55 1.41-.95 2.35l-3.15 6.95.03.09 9.45-3.76 1.39 3.48-15.23 6.06-1.17-2.94 4.87-10.75a16.13 16.13 0 0 0 1.15-3.44c.14-.81.06-1.57-.22-2.3a2.76 2.76 0 0 0-1.75-1.63 3.8 3.8 0 0 0-2.7.14 3.74 3.74 0 0 0-2.14 1.96c-.42.9-.44 1.83-.05 2.8l.03.07-4.07 1.62-.03-.08Zm31.89 4.81c-2 .8-3.94.95-5.8.45a6.97 6.97 0 0 1-4.25-3.17l4.33-1.72a3.27 3.27 0 0 0 1.93 1.19c.81.17 1.64.09 2.48-.24a4.07 4.07 0 0 0 2.6-3.34c.29-1.65-.07-3.66-1.08-6.02l-.04.02-.03.01-.01.01a5.3 5.3 0 0 1-1.07 3.32 6.92 6.92 0 0 1-3.14 2.32c-1.99.79-3.9.8-5.75.02a7.19 7.19 0 0 1-3.96-4.16 7.37 7.37 0 0 1 .17-6.2c.96-2 2.62-3.47 4.96-4.4a9.04 9.04 0 0 1 4.47-.64c1.47.18 2.82.74 4.04 1.69 1.89 1.34 3.39 3.42 4.52 6.24 1.38 3.48 1.69 6.51.92 9.11-.77 2.58-2.53 4.42-5.29 5.51Zm-7.4-10.89a4 4 0 0 0 3.15-.03 4.07 4.07 0 0 0 2.31-2.14c.45-1.01.46-2.04.04-3.1a3.94 3.94 0 0 0-2.17-2.25 3.94 3.94 0 0 0-3.14-.02 4.01 4.01 0 0 0-2.29 2.17 3.85 3.85 0 0 0-.06 3.12 3.92 3.92 0 0 0 2.16 2.25Z" />
    </g>
    <g data-object="В-78__r__2318:4254">
      <rect width="128" height="89" x="2755.73" y="4598.99" fill="#8E96FF" rx="12"
        transform="rotate(-21.71 2755.73 4598.99)" />
      <path fill="#fff"
        d="m2807.56 4638.09-3.62-4.44-7.36 2.93.42 5.71-4.5 1.79-1.06-23.84 5.15-2.05 15.63 18.04-4.66 1.86Zm-12.08-14.82.74 9.65 5.47-2.18-6.1-7.51-.11.04Zm25.31 1.83-9.54 3.8-1.48-3.7 9.54-3.8 1.48 3.7Zm15.93 1.38-1.48-3.73-10.43 4.15-1.48-3.73c.41-3.93 1.42-9.55 3.03-16.84l6.19-2.46 5.45 13.7 2.73-1.08 1.4 3.51-2.73 1.09 1.49 3.73-4.17 1.66Zm-9.45-4.61.04.11 6.67-2.65-4.28-10.73-.08.04c-.68 3-1.19 5.49-1.54 7.45a75.66 75.66 0 0 0-.81 5.78Zm12.66-13.64a6.65 6.65 0 0 1 .21-5.72 8.8 8.8 0 0 1 4.84-4.13c2.19-.87 4.21-1.01 6.05-.42a5.77 5.77 0 0 1 3.8 3.51c.25.63.4 1.28.44 1.94.05.66-.02 1.36-.2 2.12a20.4 20.4 0 0 1-.6 2.07c-.23.63-.55 1.42-.95 2.35l-3.15 6.95.03.09 9.45-3.76 1.39 3.48-15.23 6.07-1.17-2.95 4.87-10.75a16.13 16.13 0 0 0 1.15-3.44c.14-.8.06-1.57-.23-2.3a2.7 2.7 0 0 0-1.74-1.62 3.74 3.74 0 0 0-2.7.13 3.82 3.82 0 0 0-2.15 1.96c-.41.9-.43 1.83-.04 2.8l.03.07-4.07 1.62-.03-.07Zm25.11 6.97 2.1-20.97-.04-.09-10.65 4.25-1.39-3.49 14.98-5.96 1.41 3.53-1.81 20.9-4.6 1.83Z" />
    </g>
    <g data-object="В-78__r__2318:4255">
      <rect width="128" height="89" x="2882.08" y="4548.67" fill="#8E96FF" rx="12"
        transform="rotate(-21.71 2882.08 4548.67)" />
      <path fill="#fff"
        d="m2933.12 4588.08-3.62-4.44-7.36 2.93.43 5.72-4.5 1.79-1.07-23.84 5.15-2.06 15.63 18.05-4.66 1.85Zm-12.07-14.81.73 9.64 5.47-2.18-6.1-7.51-.1.05Zm25.3 1.83-9.54 3.79-1.47-3.7 9.54-3.79 1.47 3.7Zm15.94 1.37-1.49-3.73-10.42 4.15-1.49-3.73c.41-3.93 1.42-9.54 3.04-16.83l6.18-2.47 5.46 13.71 2.73-1.09 1.4 3.51-2.73 1.09 1.48 3.73-4.16 1.66Zm-9.46-4.61.05.12 6.66-2.66-4.27-10.72-.09.03c-.67 3-1.19 5.49-1.54 7.46a75.4 75.4 0 0 0-.81 5.77Zm12.67-13.64a6.66 6.66 0 0 1 .21-5.72c.94-1.84 2.55-3.21 4.83-4.12 2.2-.88 4.22-1.02 6.05-.43a5.76 5.76 0 0 1 3.81 3.51 6.57 6.57 0 0 1 .24 4.06c-.18.75-.38 1.44-.61 2.08-.23.63-.55 1.41-.95 2.34l-3.15 6.96.04.09 9.45-3.77 1.38 3.49-15.22 6.06-1.18-2.95 4.87-10.75a16.25 16.25 0 0 0 1.16-3.43c.13-.81.06-1.58-.23-2.3-.32-.8-.9-1.34-1.74-1.63a3.77 3.77 0 0 0-2.71.14 3.74 3.74 0 0 0-2.14 1.96 3.39 3.39 0 0 0-.05 2.79l.03.08-4.06 1.61-.03-.07Zm32.26 4.66a9.11 9.11 0 0 1-6.29.42 6.54 6.54 0 0 1-4.15-3.74l4.05-1.62c.48.84 1.18 1.4 2.11 1.67.94.26 1.91.2 2.93-.21a4.05 4.05 0 0 0 2.36-2.18 4.1 4.1 0 0 0-.03-3.24 4.2 4.2 0 0 0-2.21-2.42 3.98 3.98 0 0 0-3.21 0c-.79.32-1.44.78-1.95 1.39a4.08 4.08 0 0 0-.95 2.01l-3.92 1.56-3.77-12.46 13.33-5.31 1.38 3.49-9.88 3.93 1.8 5.93.09-.04c.15-.89.55-1.69 1.19-2.42a6.62 6.62 0 0 1 2.56-1.73c2-.79 3.91-.79 5.72.03a7.44 7.44 0 0 1 3.96 4.26 7.6 7.6 0 0 1-.1 6.3c-.95 1.96-2.62 3.43-5.02 4.38Z" />
    </g>
    <g data-object="В-78__r__2318:4256">
      <rect width="128" height="89" x="6301.29" y="3463.33" fill="#8E96FF" rx="12"
        transform="rotate(14.75 6301.29 3463.33)" />
      <path fill="#fff"
        d="m6318.84 3525.35-.27-5.73-7.66-2.02-3.05 4.85-4.69-1.23 13.31-19.81 5.37 1.41 1.84 23.8-4.85-1.27Zm-.9-19.1-5.15 8.2 5.7 1.5-.45-9.67-.1-.03Zm19.26 16.51-9.93-2.61 1.01-3.85 9.93 2.61-1.01 3.85Zm12 10.58 1.02-3.88-10.85-2.86 1.02-3.88c2.67-2.92 6.82-6.83 12.45-11.74l6.43 1.7-3.75 14.26 2.84.75-.96 3.65-2.84-.74-1.03 3.88-4.33-1.14Zm-4.87-9.33-.03.12 6.94 1.83 2.94-11.17-.09-.02a172.78 172.78 0 0 0-5.67 5.08 76.02 76.02 0 0 0-4.09 4.16Zm18.3-3.44a6.63 6.63 0 0 1 3.56-4.47 8.73 8.73 0 0 1 6.34-.45c2.29.6 4 1.69 5.12 3.25a5.8 5.8 0 0 1 .98 5.09 6.4 6.4 0 0 1-2.23 3.41 20.58 20.58 0 0 1-3.87 2.63l-6.67 3.72-.02.09 9.83 2.59-.95 3.63-15.85-4.18.81-3.06 10.3-5.76c1.4-.81 2.39-1.51 2.97-2.07.59-.57.99-1.23 1.19-1.99.21-.82.07-1.6-.44-2.34a3.75 3.75 0 0 0-2.25-1.5 3.76 3.76 0 0 0-2.9.31 3.38 3.38 0 0 0-1.69 2.21l-.02.08-4.23-1.11.02-.08Zm22.72 12.11.87-3.3 2.65.7c1.03.27 1.95.21 2.74-.18a2.9 2.9 0 0 0 1.55-1.94c.23-.89.11-1.69-.37-2.37a3.97 3.97 0 0 0-2.38-1.49 3.95 3.95 0 0 0-2.8.19c-.8.4-1.36 1.07-1.68 2.01l-4.2-1.1a6.53 6.53 0 0 1 3.59-4.24c1.78-.83 3.85-.93 6.21-.31 2.27.6 3.97 1.62 5.09 3.05a5.24 5.24 0 0 1 1.01 4.78 4.96 4.96 0 0 1-2.13 3.02c-1.06.7-2.3 1-3.72.88l-.02.09a6.37 6.37 0 0 1 3.47 2.65c.72 1.18.89 2.52.49 4.02a5.79 5.79 0 0 1-3.64 4.08c-1.91.78-4.13.84-6.65.17-2.45-.64-4.27-1.78-5.46-3.4a6.72 6.72 0 0 1-1.13-5.52l4.37 1.15c-.18.94.02 1.79.59 2.53a4.77 4.77 0 0 0 2.65 1.59 4.5 4.5 0 0 0 3.03-.14 2.86 2.86 0 0 0 1.68-1.97c.26-1 .11-1.87-.44-2.62a4.63 4.63 0 0 0-2.68-1.62l-2.69-.71Z" />
    </g>
    <g data-object="В-78__r__2318:4257">
      <rect width="156.07" height="89" x="6172.43" y="3246" fill="#8E96FF" rx="12"
        transform="rotate(14.75 6172.43 3246)" />
      <path fill="#fff"
        d="m6205.19 3312.02-.27-5.73-7.66-2.02-3.05 4.86-4.69-1.24 13.31-19.81 5.37 1.41 1.84 23.8-4.85-1.27Zm-.9-19.1-5.15 8.2 5.7 1.5-.45-9.67-.1-.03Zm19.26 16.51-9.93-2.61 1.01-3.85 9.93 2.61-1.01 3.85Zm12 10.58 1.02-3.88-10.85-2.86 1.02-3.88c2.67-2.92 6.82-6.83 12.45-11.74l6.43 1.7-3.75 14.26 2.84.75-.96 3.66-2.84-.75-1.03 3.88-4.33-1.14Zm-4.87-9.33-.03.12 6.94 1.83 2.94-11.17-.09-.02a172.78 172.78 0 0 0-5.67 5.08 76.02 76.02 0 0 0-4.09 4.16Zm19.84 13.27 4.64-17.62-.09-.02-6.57 2.37 1.08-4.11 6.67-2.43 4.53 1.2-5.74 21.8-4.52-1.19Zm17.84 5.21c-2.64-.69-4.62-1.84-5.94-3.45a5.7 5.7 0 0 1-1.22-5.26 5.42 5.42 0 0 1 2.39-3.3 6.52 6.52 0 0 1 4.21-.95l.02-.09a5.84 5.84 0 0 1-2.61-2.59 5.04 5.04 0 0 1 2.99-7c1.78-.7 3.83-.74 6.16-.13 2.33.62 4.1 1.67 5.29 3.14a5.07 5.07 0 0 1-.85 7.55 5.9 5.9 0 0 1-3.54.99l-.03.09a6.57 6.57 0 0 1 3.2 2.91 5.4 5.4 0 0 1 .45 4.05 5.64 5.64 0 0 1-3.68 3.96c-1.94.74-4.22.77-6.84.08Zm-1.82-5.05c.6.84 1.5 1.41 2.7 1.73a4.5 4.5 0 0 0 3.18-.18 3.2 3.2 0 0 0 1.78-2.15c.26-.99.09-1.9-.5-2.73a4.54 4.54 0 0 0-2.67-1.74 4.64 4.64 0 0 0-3.21.19 3.15 3.15 0 0 0-1.77 2.14c-.26.98-.1 1.9.49 2.74Zm3.11-9.89a3.75 3.75 0 0 0 2.25 1.5c1.01.26 1.91.2 2.7-.2.8-.4 1.31-1.04 1.54-1.9.23-.88.1-1.68-.4-2.42a3.68 3.68 0 0 0-2.25-1.51 3.67 3.67 0 0 0-2.71.21 2.83 2.83 0 0 0-1.53 1.9c-.23.88-.1 1.68.4 2.42Z" />
    </g>
    <g data-object="В-78__r__2318:4258">
      <rect width="64" height="89" x="3008.43" y="4498.36" fill="#8E96FF" rx="12"
        transform="rotate(-21.71 3008.43 4498.36)" />
      <path fill="#fff"
        d="m3072.18 4551.69-2.78 2.26 1.83 4.6 3.58-.27 1.12 2.82-14.9.67-1.29-3.23 11.28-9.76 1.16 2.91Zm-9.26 7.55 6.03-.46-1.36-3.42-4.7 3.81.03.07Zm1.14-15.82 2.38 5.96-2.32.92-2.37-5.96 2.31-.92Zm.86-9.96-2.33.93 2.59 6.51-2.33.93a99.2 99.2 0 0 1-10.52-1.89l-1.54-3.87 8.57-3.41-.68-1.7 2.19-.88.68 1.71 2.34-.93 1.03 2.6Zm-2.88 5.91.07-.03-1.66-4.16-6.7 2.67.02.05c1.88.42 3.43.75 4.66.96 1.23.22 2.43.39 3.61.51Zm-8.52-7.91a4.15 4.15 0 0 1-3.58-.14 5.47 5.47 0 0 1-2.58-3.02 5.51 5.51 0 0 1-.26-3.78 3.6 3.6 0 0 1 2.19-2.38 4.39 4.39 0 0 1 2.54-.15 13.4 13.4 0 0 1 2.76.97l4.35 1.97.05-.02-2.35-5.9 2.18-.87 3.79 9.52-1.84.73-6.72-3.04c-.93-.4-1.65-.64-2.15-.72-.5-.09-.98-.04-1.44.14a1.7 1.7 0 0 0-1.01 1.08c-.19.53-.16 1.1.08 1.7.25.63.66 1.08 1.23 1.34.56.26 1.14.27 1.75.03l.04-.02 1.01 2.54-.04.02Zm2.84-20.36a5.14 5.14 0 0 1-.68 5.3 8.32 8.32 0 0 1-3.89 2.82c-2.16.86-4.05 1.05-5.68.56a5.2 5.2 0 0 1-3.46-3.28 5.56 5.56 0 0 1-.26-3.6 4.29 4.29 0 0 1 1.97-2.65l1.07 2.7c-.38.3-.63.7-.74 1.2-.11.49-.07.99.14 1.51a2.59 2.59 0 0 0 2.11 1.65 6.8 6.8 0 0 0 3.74-.66l-.02-.05a3.53 3.53 0 0 1-2.08-.71 4.32 4.32 0 0 1-1.44-1.93 4.46 4.46 0 0 1 0-3.58 4.5 4.5 0 0 1 2.59-2.47 4.73 4.73 0 0 1 3.9.09 5.5 5.5 0 0 1 2.73 3.1Zm-2.17.89a2.51 2.51 0 0 0-1.36-1.41 2.45 2.45 0 0 0-1.95-.03c-.68.27-1.15.72-1.41 1.35-.26.62-.26 1.27.01 1.96a2.6 2.6 0 0 0 1.35 1.45c.62.28 1.26.28 1.92.02a2.47 2.47 0 0 0 1.42-1.36c.28-.65.28-1.3.02-1.98Zm-7.4-11.95 2.37 5.96-2.31.92-2.38-5.96 2.32-.92Zm2.2-6.58-10.58 4.21.03.06 3.63 2.42-2.47.98-3.7-2.45-1.08-2.72 13.09-5.21 1.08 2.71Z" />
    </g>
    <g data-object="В-78__t__2318:4259">
      <rect width="64" height="89" x="3142.21" y="4445.08" fill="#60A5FA" rx="12"
        transform="rotate(-21.71 3142.21 4445.08)" />
      <g fill="#fff" clip-path="url(#a)">
        <path
          d="M3183.39 4462.05a5.25 5.25 0 1 0-3.9-9.76 5.25 5.25 0 0 0 3.9 9.76Zm17.84 9.64-2.09-2.64v-.01l-4.56-5.74-.51-.65a4.22 4.22 0 0 0-4.86-1.3l-10.45 4.16a4.22 4.22 0 0 0-2.63 4.28l.07.83.64 7.3v.01l.29 3.35a1.9 1.9 0 0 0 1.97 1.76 1.9 1.9 0 0 0 1.32-.64 1.9 1.9 0 0 0 .45-1.4l-.73-8.31-.06-.71a.71.71 0 0 1 .16-.48c.1-.14.26-.24.43-.27a.7.7 0 0 1 .51.07.72.72 0 0 1 .38.52l1.25 14.22a1.52 1.52 0 0 0 1.37 1.36c.23.02.46-.02.68-.1l2.53-1.01 3.97 9.99c.57 1.43 1.94 2.19 3.11 1.72s1.65-1.95 1.07-3.38l-3.97-9.99 1.39-.56 3.98 9.99c.57 1.43 1.93 2.19 3.1 1.72 1.18-.47 1.65-1.95 1.08-3.38l-3.98-9.99 2.61-1.04c.22-.09.41-.23.57-.4a1.47 1.47 0 0 0 .05-1.93l-8.86-11.18-.07-.13a.72.72 0 0 1-.01-.52.7.7 0 0 1 .32-.4.74.74 0 0 1 .95.15l.44.55 5.18 6.54a1.91 1.91 0 0 0 2.04.62c.24-.08.46-.2.65-.36a1.9 1.9 0 0 0 .22-2.62Z" />
      </g>
    </g>
    <path fill="#262A34" fill-rule="evenodd"
      d="M8651.33 3904.09a12 12 0 0 0-14.66 8.55l-22.57 85.75-13.65 51.83a12 12 0 0 0 8.55 14.66l48.64 12.81a9.69 9.69 0 0 1 6.92 11.84 9.7 9.7 0 0 0 6.91 11.85l43.13 11.36a9.7 9.7 0 0 0 11.85-6.91 9.69 9.69 0 0 1 11.85-6.91l476.36 125.41a9.7 9.7 0 0 1 6.91 11.85 9.7 9.7 0 0 0 6.92 11.85l40.9 10.77a12 12 0 0 0 14.66-8.55l1.89-7.16 16.69-63.43a12 12 0 0 0-8.54-14.66l-50.29-13.24-483.53-127.29a12 12 0 0 1-8.54-14.66l16.46-62.55a12 12 0 0 0-8.55-14.66l-108.31-28.51ZM3055.1 4377.71a12 12 0 0 1-6.7 15.59l-468.24 186.47-37.16 14.8a12 12 0 0 0-6.71 15.59l19.83 49.79 11.27 28.32a12 12 0 0 0 15.59 6.7l37.16-14.79a12 12 0 0 0 6.71-15.59l-2.4-6.03a12 12 0 0 1 6.71-15.58l431.08-171.67a12 12 0 0 1 15.59 6.71l.34.87a12 12 0 0 0 15.59 6.71l37.16-14.8a12 12 0 0 0 6.71-15.59l-.35-.87a12 12 0 0 1 6.71-15.59l44.6-17.76a12 12 0 0 0 6.71-15.59l-19.83-49.79-32.81-82.38a12 12 0 0 0-15.59-6.71l-89.19 35.52a12 12 0 0 0-6.71 15.58l23.93 60.09Z"
      clip-rule="evenodd" />
    <g data-object="В-78__s__2318:4271">
      <rect width="64" height="89" x="2562.48" y="4675.95" fill="#fff" rx="12"
        transform="rotate(-21.71 2562.48 4675.95)" />
      <g clip-path="url(#b)">
        <path fill="#000"
          d="m2623.25 4681.35-6.96 2.77 2.77 6.97c.05.11.07.21.06.27.07.35.03.68-.13.99-.16.32-.41.55-.76.68l-6.96 2.78 2.77 6.96c.05.12.07.21.06.28.07.35.03.67-.13.99a1.4 1.4 0 0 1-.77.68l-6.96 2.77 2.78 6.97c.04.12.06.21.06.28.07.34.02.67-.14.99-.16.31-.41.54-.76.68l-6.96 2.77 2.77 6.97c.05.12.07.21.06.28a1.45 1.45 0 0 1-.89 1.67l-8.36 3.32c-.37.15-.75.15-1.14-.02a1.45 1.45 0 0 1-.8-.81c-.15-.38-.15-.76.02-1.15.17-.38.44-.65.81-.8l6.96-2.77-2.77-6.97a.56.56 0 0 1-.06-.28c-.07-.34-.02-.68.16-1 .17-.32.42-.54.74-.67l6.96-2.77-2.78-6.97a.94.94 0 0 1-.06-.28c-.07-.34-.01-.67.16-1 .17-.32.42-.54.74-.67l6.96-2.77-2.77-6.97a.67.67 0 0 1-.06-.28c-.07-.34-.02-.67.15-.99.18-.33.43-.55.74-.68l6.97-2.77-2.78-6.97a.54.54 0 0 1-.06-.28c-.07-.34-.02-.67.14-.98.16-.32.41-.55.76-.68l8.35-3.33c.38-.15.76-.14 1.14.02.39.17.66.44.81.82.15.38.14.76-.03 1.14a1.4 1.4 0 0 1-.81.81Z" />
      </g>
    </g>
    <g data-object="В-78__s__2318:4272">
      <rect width="64" height="89" x="3075.32" y="4471.72" fill="#fff" rx="12"
        transform="rotate(-21.71 3075.32 4471.72)" />
      <g clip-path="url(#c)">
        <path fill="#000"
          d="m3136.08 4477.12-6.96 2.77 2.78 6.97c.04.12.06.21.06.28.07.34.02.67-.14.99-.16.31-.41.54-.76.68l-6.96 2.77 2.77 6.97c.05.11.07.21.06.28.07.34.03.67-.13.98-.16.32-.42.55-.76.69l-6.97 2.77 2.78 6.97c.05.11.07.2.06.27a1.47 1.47 0 0 1-.9 1.67l-6.96 2.78 2.78 6.96c.04.12.06.21.06.28.07.34.02.67-.14.99-.16.32-.41.54-.76.68l-8.35 3.33c-.38.15-.76.14-1.15-.03a1.48 1.48 0 0 1-.78-1.96c.17-.38.44-.65.82-.8l6.96-2.77-2.78-6.97a.94.94 0 0 1-.06-.28c-.07-.34-.02-.67.16-.99.17-.33.42-.55.74-.68l6.96-2.77-2.77-6.97a.71.71 0 0 1-.07-.28 1.5 1.5 0 0 1 .16-.99c.18-.32.42-.55.74-.68l6.96-2.77-2.77-6.97a.63.63 0 0 1-.06-.27 1.4 1.4 0 0 1 .16-1c.17-.32.42-.55.74-.67l6.96-2.78-2.78-6.96a.94.94 0 0 1-.06-.28c-.07-.34-.02-.67.14-.99.16-.32.41-.54.76-.68l8.35-3.33c.38-.15.76-.14 1.15.03a1.48 1.48 0 0 1 .78 1.96c-.17.38-.44.65-.82.8Z" />
      </g>
    </g>
    <g data-object="В-78__s__2318:4273">
      <rect width="64" height="89" x="9222.71" y="4231.85" fill="#fff" rx="12"
        transform="rotate(14.75 9222.71 4231.85)" />
      <g clip-path="url(#d)">
        <path fill="#000"
          d="m9268.37 4272.31-7.24-1.91-1.91 7.25a.57.57 0 0 1-.12.26 1.43 1.43 0 0 1-1.71.81l-7.25-1.91-1.91 7.26a.8.8 0 0 1-.11.26 1.5 1.5 0 0 1-.7.71c-.32.16-.66.19-1.02.09l-7.24-1.9-1.91 7.25a.57.57 0 0 1-.12.26c-.15.32-.38.55-.7.71a1.4 1.4 0 0 1-1.01.1l-7.25-1.91-1.91 7.25a.52.52 0 0 1-.12.26c-.14.32-.38.56-.69.72-.32.16-.66.19-1.02.09l-8.7-2.29c-.39-.1-.69-.33-.9-.69a1.44 1.44 0 0 1-.16-1.14c.1-.39.33-.69.7-.9.36-.22.74-.27 1.13-.17l7.24 1.91 1.91-7.25a.7.7 0 0 1 .12-.26c.15-.32.39-.55.72-.71.33-.15.66-.19.99-.1l7.25 1.91 1.91-7.26c.03-.12.07-.2.12-.26.14-.31.38-.55.72-.7.33-.16.66-.19.99-.11l7.25 1.91 1.91-7.25a.85.85 0 0 1 .11-.26c.15-.32.39-.55.72-.71.33-.15.67-.19 1-.1l7.24 1.91 1.91-7.25a.52.52 0 0 1 .12-.26c.15-.32.38-.56.7-.72.31-.16.65-.19 1.01-.09l8.7 2.29c.39.1.69.33.9.69a1.47 1.47 0 0 1-.53 2.04c-.37.22-.74.27-1.14.17Z" />
      </g>
    </g>
    <g data-object="В-78__s__2318:4274">
      <rect width="64" height="89" x="8665.7" y="4085.2" fill="#fff" rx="12"
        transform="rotate(14.75 8665.7 4085.2)" />
      <g clip-path="url(#e)">
        <path fill="#000"
          d="m8711.36 4125.66-7.25-1.91-1.91 7.25a.57.57 0 0 1-.12.26c-.14.32-.38.56-.69.72-.32.16-.66.19-1.02.09l-7.25-1.91-1.91 7.26a.72.72 0 0 1-.11.26 1.5 1.5 0 0 1-.7.71c-.32.16-.65.19-1.02.1l-7.24-1.91-1.91 7.25a.57.57 0 0 1-.12.26c-.15.32-.38.56-.7.72a1.4 1.4 0 0 1-1.01.09l-7.25-1.91-1.91 7.26a.63.63 0 0 1-.12.26c-.14.31-.38.55-.69.71-.32.16-.66.19-1.02.1l-8.69-2.29c-.4-.11-.7-.34-.91-.7a1.44 1.44 0 0 1-.16-1.14c.1-.39.33-.69.7-.9.36-.21.74-.27 1.13-.17l7.24 1.91 1.91-7.25a.91.91 0 0 1 .12-.26c.15-.32.39-.55.72-.71.33-.15.66-.19 1-.1l7.24 1.91 1.91-7.25a.52.52 0 0 1 .12-.26c.15-.32.39-.56.72-.71.33-.16.66-.19.99-.1l7.25 1.9 1.91-7.25a.85.85 0 0 1 .11-.26c.15-.32.39-.55.72-.71.33-.15.67-.19 1-.1l7.24 1.91 1.91-7.25a.7.7 0 0 1 .12-.26c.15-.32.38-.56.7-.72.31-.16.65-.19 1.01-.09l8.7 2.29c.39.1.69.33.9.7.22.36.27.74.17 1.13a1.51 1.51 0 0 1-1.83 1.07Z" />
      </g>
    </g>
    <path fill="#262A34" d="m2620.93 4564.1 14.86-5.92-2.45-6.17-14.87 5.92z" />
    <path fill="#262A34" d="m2553.9 4590.36 14.87-5.92-2.31-5.8-14.86 5.92z" />
    <path fill="#262A34" d="m2687.59 4536.92 14.86-5.92-2.23-5.61-14.87 5.91z" />
    <path fill="#262A34" d="m2783.97 4497.9 14.87-5.93-2.22-5.57-14.87 5.92z" />
    <path fill="#262A34" d="m2880.85 4460.1 14.86-5.92-2.28-5.74-14.87 5.92z" />
    <path fill="#262A34" d="m2947.72 4433.44 14.86-5.92-2.26-5.7-14.87 5.92z" />
    <path fill="#262A34" d="m3014.4 4406.31 14.87-5.92-2.07-5.2-14.87 5.91z" />
    <path fill="#262A34" d="m3184.65 4379.83 7.44-2.96-4.07-10.22-7.43 2.96z" />
    <path fill="#262A34" d="m3030.01 4488.77 14.87-5.92-2.02-5.06-14.86 5.92z" />
    <path fill="#262A34" d="m2899.97 4540.54 14.87-5.92-2.04-5.12-14.87 5.92z" />
    <path fill="#262A34" d="m2769 4592.7 14.86-5.92-1.98-4.97-14.87 5.92z" />
    <path fill="#262A34" d="m2643.6 4642.63 14.86-5.92-2.22-5.56-14.86 5.92z" />
    <path fill="#262A34" d="m3156.34 4438.46 29.73-11.84-2.5-6.28-29.73 11.84z" />
    <g data-object="В-78__s__2318:4288">
      <rect width="69.15" height="44" x="3080.79" y="4290.86" fill="#fff" rx="12"
        transform="rotate(-21.71 3080.79 4290.86)" />
      <g clip-path="url(#f)">
        <use href="#g" />
      </g>
    </g>
    <g data-object="В-78__s__2318:4289">
      <rect width="69.15" height="44" x="3080.79" y="4290.86" fill="#fff" rx="12"
        transform="rotate(-21.71 3080.79 4290.86)" />
      <g clip-path="url(#h)">
        <use href="#g" />
      </g>
    </g>
    <g data-object="В-78__s__2318:4290">
      <rect width="69.15" height="44" x="8602.2" y="3892" fill="#fff" rx="12"
        transform="rotate(14.75 8602.2 3892)" />
      <g clip-path="url(#i)">
        <path fill="#000"
          d="m8656.08 3911.35-7.24-1.9-1.91 7.25a.7.7 0 0 1-.12.26c-.15.32-.38.55-.7.71a1.4 1.4 0 0 1-1.01.1l-7.25-1.91-1.91 7.25a.57.57 0 0 1-.12.26c-.14.32-.38.56-.69.72-.32.16-.66.19-1.02.09l-7.25-1.91-1.91 7.26a.8.8 0 0 1-.11.26 1.5 1.5 0 0 1-.7.71c-.32.16-.65.19-1.02.1l-7.24-1.91-1.91 7.25a.57.57 0 0 1-.12.26c-.15.32-.38.56-.7.71-.31.16-.65.2-1.01.1l-8.7-2.29a1.4 1.4 0 0 1-.9-.7 1.42 1.42 0 0 1-.17-1.13c.11-.39.34-.7.7-.91.37-.21.74-.26 1.14-.16l7.24 1.91 1.91-7.26c.03-.12.07-.2.12-.26.15-.31.39-.55.72-.7.33-.16.66-.19.99-.1l7.25 1.9 1.91-7.25a.72.72 0 0 1 .11-.26c.15-.32.39-.55.72-.71.33-.15.67-.19 1-.1l7.24 1.91 1.91-7.25c.03-.09.07-.18.12-.26.15-.32.39-.56.72-.71.33-.16.66-.19.99-.1l7.25 1.91 1.91-7.26a.57.57 0 0 1 .12-.26c.14-.31.38-.55.69-.71.32-.16.66-.19 1.02-.1l8.7 2.29c.39.11.69.34.9.7.21.36.27.74.16 1.13-.1.4-.33.7-.7.91-.36.21-.74.27-1.13.16Z" />
      </g>
    </g>
    <g data-object="В-78__s__2318:4291">
      <rect width="69.15" height="44" x="8591.2" y="3938" fill="#fff" rx="12"
        transform="rotate(14.75 8591.2 3938)" />
      <g clip-path="url(#j)">
        <path fill="#000"
          d="m8645.08 3957.35-7.24-1.9-1.91 7.25a.7.7 0 0 1-.12.26c-.15.32-.38.55-.7.71a1.4 1.4 0 0 1-1.01.1l-7.25-1.91-1.91 7.25a.57.57 0 0 1-.12.26c-.14.32-.38.56-.69.72-.32.16-.66.19-1.02.09l-7.25-1.91-1.91 7.26a.8.8 0 0 1-.11.26 1.5 1.5 0 0 1-.7.71c-.32.16-.65.19-1.02.1l-7.24-1.91-1.91 7.25a.57.57 0 0 1-.12.26c-.15.32-.38.56-.7.71-.31.16-.65.2-1.01.1l-8.7-2.29a1.4 1.4 0 0 1-.9-.7 1.42 1.42 0 0 1-.17-1.13c.11-.39.34-.7.7-.91.37-.21.74-.26 1.14-.16l7.24 1.91 1.91-7.26c.03-.12.07-.2.12-.26.15-.31.39-.55.72-.7.33-.16.66-.19.99-.1l7.25 1.9 1.91-7.25a.72.72 0 0 1 .11-.26c.15-.32.39-.55.72-.71.33-.15.67-.19 1-.1l7.24 1.91 1.91-7.25c.03-.09.07-.18.12-.26.15-.32.39-.56.72-.71.33-.16.66-.19.99-.1l7.25 1.91 1.91-7.26a.57.57 0 0 1 .12-.26c.14-.31.38-.55.69-.71.32-.16.66-.19 1.02-.1l8.7 2.29c.39.11.69.34.9.7.21.36.27.74.16 1.13-.1.4-.33.7-.7.91-.36.21-.74.27-1.13.16Z" />
      </g>
    </g>
    <path fill="#777D89" fill-rule="evenodd"
      d="M3187.56 4331.92a12 12 0 0 1-15.59-6.71l-21.88-54.94a12 12 0 0 1 6.71-15.59l773.89-308.19a12 12 0 0 1 15.59 6.71l21.88 54.94 1.45 3.63 6.75 16.97a12 12 0 0 1-6.71 15.59l-215.53 85.83a12 12 0 0 1-15.59-6.71c-2.08-5.22-8-7.76-13.21-5.68l-113.19 45.07a12 12 0 0 0-6.71 15.59l54.69 137.32a12 12 0 0 1-6.71 15.59l-305.65 121.72a12 12 0 0 1-15.59-6.71l-54.69-137.32a12 12 0 0 0-15.59-6.71l-74.32 29.6Z"
      clip-rule="evenodd" />
    <rect width="254" height="733" x="4169.76" y="4125.19" fill="#777D89" rx="12"
      transform="rotate(-111.71 4169.76 4125.19)" />
    <g data-object="В-78__s__2426:14842">
      <rect width="52" height="89" x="5851" y="3392" fill="#fff" rx="12" />
      <g>
        <path fill="#000"
          d="M5899.45 3419.5h-7.49v7.5c0 .13-.01.22-.04.28-.07.35-.23.63-.5.87a1.4 1.4 0 0 1-.96.35h-7.49v7.5c0 .13-.01.22-.05.28a1.45 1.45 0 0 1-1.45 1.22h-7.49v7.5c0 .13-.02.22-.05.28a1.45 1.45 0 0 1-1.45 1.22h-7.49v7.5c0 .13-.02.22-.05.28a1.45 1.45 0 0 1-1.45 1.22h-8.99c-.41 0-.76-.15-1.06-.45a1.44 1.44 0 0 1-.44-1.05c0-.41.15-.76.44-1.05.3-.3.65-.45 1.06-.45h7.49v-7.5c0-.12.02-.22.05-.28.06-.34.23-.63.51-.87.28-.23.6-.35.94-.35h7.49v-7.5c0-.12.02-.22.05-.28.06-.34.23-.63.51-.87.29-.23.6-.35.94-.35h7.49v-7.5c0-.09.02-.19.05-.28.06-.34.23-.63.52-.87.28-.23.59-.35.93-.35h7.49v-7.5c0-.12.02-.22.05-.28.06-.34.23-.63.49-.87.27-.23.59-.35.96-.35h8.99c.41 0 .76.15 1.06.45.29.29.44.64.44 1.05 0 .41-.15.76-.44 1.05-.3.3-.65.45-1.06.45Z" />
      </g>
    </g>
    <g data-object="В-78__s__2426:14846">
      <rect width="52" height="89" x="5911" y="3392" fill="#fff" rx="12" />
      <g>
        <path fill="#000"
          d="M5959.45 3419.5h-7.49v7.5c0 .13-.01.22-.04.28-.07.35-.23.63-.5.87a1.4 1.4 0 0 1-.96.35h-7.49v7.5c0 .13-.01.22-.05.28a1.45 1.45 0 0 1-1.45 1.22h-7.49v7.5c0 .13-.02.22-.05.28a1.45 1.45 0 0 1-1.45 1.22h-7.49v7.5c0 .13-.02.22-.05.28a1.45 1.45 0 0 1-1.45 1.22h-8.99c-.41 0-.76-.15-1.06-.45a1.44 1.44 0 0 1-.44-1.05c0-.41.15-.76.44-1.05.3-.3.65-.45 1.06-.45h7.49v-7.5c0-.12.02-.22.05-.28.06-.34.23-.63.51-.87.28-.23.6-.35.94-.35h7.49v-7.5c0-.12.02-.22.05-.28.06-.34.23-.63.51-.87.29-.23.6-.35.94-.35h7.49v-7.5c0-.09.02-.19.05-.28.06-.34.23-.63.52-.87.28-.23.59-.35.93-.35h7.49v-7.5c0-.12.02-.22.05-.28.06-.34.23-.63.49-.87.27-.23.59-.35.96-.35h8.99c.41 0 .76.15 1.06.45.29.29.44.64.44 1.05 0 .41-.15.76-.44 1.05-.3.3-.65.45-1.06.45Z" />
      </g>
    </g>
    <g data-object="В-78__s__2318:4298">
      <rect width="64" height="89" x="5128" y="3654.63" fill="#F75555" rx="12"
        transform="rotate(-21.71 5128 3654.63)" />
      <g clip-path="url(#k)">
        <path fill="#fff"
          d="m5188.77 3660.03-6.96 2.78 2.77 6.96c.05.12.07.21.06.28.07.34.02.67-.14.99-.16.32-.41.54-.76.68l-6.96 2.77 2.78 6.97c.04.12.06.21.06.28.07.34.02.67-.14.99-.16.31-.41.54-.76.68l-6.96 2.77 2.77 6.97c.05.12.07.21.06.28a1.45 1.45 0 0 1-.89 1.67l-6.97 2.77 2.78 6.97c.05.11.07.21.06.28.07.34.02.67-.14.98a1.4 1.4 0 0 1-.76.69l-8.35 3.32c-.38.15-.76.14-1.14-.02a1.45 1.45 0 0 1-.81-.82c-.15-.37-.14-.76.03-1.14.16-.39.43-.66.81-.81l6.96-2.77-2.77-6.97a.67.67 0 0 1-.07-.27 1.52 1.52 0 0 1 .9-1.67l6.96-2.78-2.77-6.96a.56.56 0 0 1-.06-.28c-.07-.34-.02-.68.16-1 .17-.32.42-.54.74-.67l6.96-2.77-2.78-6.97a1.27 1.27 0 0 1-.06-.28c-.07-.34-.01-.67.16-1 .17-.32.42-.54.74-.67l6.96-2.77-2.77-6.97a.56.56 0 0 1-.06-.28 1.45 1.45 0 0 1 .89-1.67l8.36-3.32c.37-.15.75-.15 1.14.02.39.17.65.44.8.82.15.37.15.75-.02 1.14-.17.39-.44.65-.81.8Z" />
      </g>
    </g>
    <path fill="#262A34" fill-rule="evenodd"
      d="M3756.16 4135.31a11.99 11.99 0 0 0-6.7 15.58l7.52 18.9a12 12 0 0 0 15.59 6.71l65.96-26.27a12 12 0 0 1 15.59 6.71l1.63 4.09a12 12 0 0 0 15.59 6.71l37.16-14.8a12 12 0 0 0 6.71-15.59l-1.63-4.09a12 12 0 0 1 6.71-15.59l67.82-27a12 12 0 0 0 6.7-15.59l-7.52-18.9a12 12 0 0 0-15.59-6.71l-215.54 85.84Z"
      clip-rule="evenodd" />
    <path fill="#262A34" d="m3989.01 4060.5 7.43-2.96 4.07 10.22-7.43 2.96z" />
    <path fill="#262A34" d="m3743.74 4158.17 7.43-2.96 4.07 10.22-7.43 2.96z" />
    <path fill="#262A34" d="m4001.31 4031.92 14.87-5.92 1.84 4.65-14.86 5.92z" />
    <path fill="#262A34" d="m9178.02 4213.06 15.47 4.07-1.73 6.57-15.47-4.07z" />
    <path fill="#262A34" d="m9108.13 4195.75 15.47 4.07-1.46 5.55-15.47-4.07z" />
    <path fill="#262A34" d="m9038.7 4176.68 15.47 4.07-1.65 6.29-15.47-4.07z" />
    <path fill="#262A34" d="m8969.09 4158.25 15.47 4.07-1.68 6.4-15.47-4.08z" />
    <path fill="#262A34" d="m8899.38 4140.27 15.47 4.07-1.59 6.04-15.47-4.08z" />
    <path fill="#262A34" d="m8829.81 4121.68 15.47 4.07-1.65 6.3-15.48-4.07z" />
    <path fill="#262A34" d="m8780.94 4024.54 15.47 4.07-1.45 5.5-15.47-4.07z" />
    <path fill="#262A34" d="m6559.04 3390 8.07 2.12-2.04 7.74-8.07-2.12z" />
    <path fill="#262A34" d="m6664.09 3508 8.07 2.12-3.1 11.72-8.06-2.12z" />
    <path fill="#262A34" d="m6477.6 3418 15.47 4.07-1.6 6.07-15.47-4.08z" />
    <path fill="#262A34" d="m6792.68 3540.39 7.74 2.04-3.06 11.6-7.74-2.04z" />
    <path fill="#262A34" d="m6353.49 3385 15.47 4.07-1.5 5.68-15.46-4.07z" />
    <path fill="#262A34" d="m5559.85 3386.54 14.87-5.92 2 5.03-14.87 5.92z" />
    <path fill="#262A34" d="m5413.31 3444.7 14.87-5.92 2.57 6.47-14.87 5.92z" />
    <path fill="#262A34" d="m5278 3498.92 14.87-5.92 2.25 5.67-14.86 5.92z" />
    <path fill="#262A34" d="m5134 3556.92 14.87-5.92 1.9 4.8-14.86 5.91z" />
    <path fill="#262A34" d="m5076 3623.44 11.15-4.44 2.96 7.43-11.15 4.44z" />
    <path fill="#262A34" d="m5195.74 3653.48 9.89-3.94 2.95 7.44-9.88 3.93z" />
    <path fill="#262A34" d="m5261.37 3627.35 9.56-3.8 2.96 7.43-9.56 3.8z" />
    <path fill="#262A34" d="m6227.14 3352.44 15.47 4.07-1.34 5.12-15.48-4.07z" />
    <path fill="#262A34" d="M5929 3387h16v5.29h-16z" />
    <path fill="#262A34" d="M5869 3387h16v5.29h-16z" />
    <path fill="#262A34" d="m6417.02 3518.62 11.6 3.06-2.03 7.73-11.6-3.05z" />
    <path fill="#262A34" d="m6475.45 3559.86 21.28 5.6-2.04 7.74-21.28-5.6z" />
    <path fill="#262A34" d="m8858.3 4044.91 15.47 4.07-1.63 6.2-15.47-4.07z" />
    <path fill="#262A34" d="m8989.82 4079.54 15.47 4.07-1.47 5.6-15.47-4.08z" />
    <path fill="#262A34" d="m9059.45 4097.87 15.47 4.07-1.49 5.66-15.47-4.07z" />
    <path fill="#262A34" d="m9136.81 4118.23 15.47 4.07-1.44 5.49-15.47-4.08z" />
    <path fill="#262A34" d="m9268.33 4152.86 15.47 4.07-1.42 5.39-15.47-4.07z" />
    <path fill="#262A34" d="m8613.14 4064.87 30.95 8.15-1.6 6.08-30.95-8.15z" />
    <path fill="#262A34" d="m8501.22 3987.23 15.47 4.07-1.5 5.68-15.46-4.07z" />
    <path fill="#262A34" d="m8752.35 4101.68 30.95 8.15-1.57 5.93-30.94-8.15z" />
    <path fill="#262A34" fill-rule="evenodd"
      d="M8505.7 3923.06a12 12 0 0 0-14.66 8.55l-10.11 38.43a12 12 0 0 0 8.55 14.66l38.68 10.18a12 12 0 0 0 14.66-8.55 7.4 7.4 0 0 1 9.03-5.27l9.29 2.45a12 12 0 0 0 14.66-8.55l5.18-19.67a12 12 0 0 0-8.55-14.66l-28.05-7.38-.96-.26-37.72-9.93Z"
      clip-rule="evenodd" />
    <g>
      <rect width="136" height="89" x="6502.43" y="3516.29" fill="#60A5FA" rx="12"
        transform="rotate(14.75 6502.43 3516.29)" />
      <g clip-path="url(#l)">
        <path fill="#fff"
          d="M6563.65 3550.85c-.34-.09-.7-.04-1.01.14a1.3 1.3 0 0 0-.62.81l-1.02 3.87c-.09.34-.04.7.14 1.01.18.3.47.53.81.62.35.09.71.04 1.02-.14.3-.18.52-.47.61-.81l1.02-3.87c.09-.34.04-.71-.14-1.01a1.3 1.3 0 0 0-.81-.62Zm7.81-3.46.68-2.58a6.68 6.68 0 0 0-9.81-7.46 6.65 6.65 0 0 0-3.09 4.06l-.68 2.58a3.98 3.98 0 0 0-4.88 2.85l-2.38 9.03a4.01 4.01 0 0 0 2.85 4.89l12.89 3.39c1.03.27 2.12.12 3.04-.41a4.03 4.03 0 0 0 1.85-2.44l2.38-9.03a3.98 3.98 0 0 0-2.85-4.88Zm-9.64-5.3a4 4 0 0 1 7.74 2.04l-.68 2.58-7.74-2.04.68-2.58Zm7.53 18.53a1.3 1.3 0 0 1-.62.81c-.3.18-.67.23-1.01.14l-12.89-3.39a1.33 1.33 0 0 1-.95-1.63l2.37-9.03c.09-.34.32-.63.62-.81.31-.18.67-.23 1.01-.14l12.9 3.4c.34.09.63.31.81.61.18.31.23.67.14 1.02l-2.38 9.02Z" />
      </g>
      <g fill="#fff">
        <g clip-path="url(#m)">
          <path
            d="M6541.67 3579.36a5.25 5.25 0 1 0 2.67-10.16 5.25 5.25 0 0 0-2.67 10.16Zm3.97 2.6-8.7-2.3a6.03 6.03 0 0 0-7.33 4.28l-2.57 9.75a1.9 1.9 0 0 0 2 2.38 1.84 1.84 0 0 0 1.28-.71c.16-.2.27-.43.33-.67l2.38-9.05a.79.79 0 0 1 .88-.57c.1.02.2.06.28.12a.8.8 0 0 1 .32.51c.01.1.01.2-.02.3l-6.9 26.2a2.17 2.17 0 0 0 1.54 2.64 2.16 2.16 0 0 0 2.63-1.54l3.41-12.93a1 1 0 0 1 .4-.58.99.99 0 0 1 .69-.14 1 1 0 0 1 .62.42.97.97 0 0 1 .11.74l-3.41 12.97c-.15.55-.07 1.14.22 1.63.29.5.76.86 1.31 1 .56.15 1.14.07 1.64-.22a2.2 2.2 0 0 0 1-1.31l6.89-26.18a.8.8 0 0 1 .32-.46c.17-.1.36-.14.55-.11.1.02.2.06.28.12.09.05.16.13.22.22a.81.81 0 0 1 .09.59l-2.38 9.02c-.26.98.29 2.02 1.26 2.32.24.07.49.09.74.07a1.89 1.89 0 0 0 1.28-.72c.16-.2.27-.43.34-.67l2.57-9.79a6.03 6.03 0 0 0-4.27-7.33Z" />
        </g>
        <g clip-path="url(#n)">
          <path
            d="M6568.72 3586.48a5.25 5.25 0 1 0 2.69-10.15 5.25 5.25 0 0 0-2.69 10.15Zm8.64 18.35-.12-3.36v-.01l-.25-7.32v-.01l-.03-.82a4.24 4.24 0 0 0-3.13-3.94l-10.88-2.86a4.19 4.19 0 0 0-4.66 1.88l-.43.71h-.01l-3.82 6.25v.01l-1.76 2.87a1.9 1.9 0 0 0 .53 2.58 1.94 1.94 0 0 0 1.45.27 1.9 1.9 0 0 0 1.19-.86l4.35-7.11.37-.61a.8.8 0 0 1 .42-.3.81.81 0 0 1 .51.04c.16.08.29.2.37.36.07.16.09.34.05.51a.58.58 0 0 1-.05.14l-7.45 12.18a1.51 1.51 0 0 0 .9 2.23l2.63.69-2.74 10.4c-.39 1.49.25 2.91 1.48 3.23 1.22.32 2.48-.59 2.87-2.08l2.74-10.4 1.45.38-2.74 10.4c-.39 1.49.26 2.91 1.48 3.23 1.22.32 2.48-.59 2.87-2.09l2.74-10.4 2.72.72a1.47 1.47 0 0 0 1.32-.28c.18-.14.33-.33.43-.54.09-.21.14-.45.13-.68l-.48-14.26.02-.15a.75.75 0 0 1 .3-.42c.14-.1.32-.15.49-.13.18.01.34.09.47.21.12.13.2.29.21.47l.03.71.28 8.34c.01.25.07.5.18.72a1.9 1.9 0 0 0 1.83 1.08 1.9 1.9 0 0 0 1.74-1.98Z" />
        </g>
      </g>
    </g>
    <g data-object="В-78__r__2318:4338">
      <rect width="348.18" height="266" x="6704.93" y="3385.97" fill="#8E96FF" rx="12"
        transform="rotate(14.75 6704.93 3385.97)" />
      <path fill="#fff"
        d="m6800.67 3563.18-.34-7.16-9.58-2.52-3.82 6.07-5.85-1.55 16.64-24.76 6.7 1.77 2.31 29.75-6.06-1.6Zm-1.13-23.87-6.44 10.25 7.13 1.87-.56-12.08-.13-.04Zm24.07 20.64-12.41-3.27 1.27-4.81 12.41 3.27-1.27 4.81Zm15 13.22 1.28-4.85-13.56-3.57 1.28-4.86c3.33-3.64 8.51-8.53 15.55-14.67l8.05 2.12-4.7 17.83 3.55.94-1.2 4.57-3.55-.94-1.28 4.86-5.42-1.43Zm-6.08-11.66-.04.15 8.67 2.29 3.68-13.96-.12-.03a226.74 226.74 0 0 0-7.08 6.35 95.88 95.88 0 0 0-5.11 5.2Zm24.8 16.59 5.8-22.02-.12-.03-8.21 2.96 1.35-5.13 8.34-3.04 5.66 1.49-7.17 27.26-5.65-1.49Zm22.09 6.46c-2.92-.77-5.13-2.19-6.64-4.25a8.18 8.18 0 0 1-1.38-6.85l5.27 1.39c-.15 1.2.15 2.28.88 3.24a5.56 5.56 0 0 0 3.1 1.97c1.48.39 2.81.24 3.99-.45a5.08 5.08 0 0 0 2.38-3.27 5.3 5.3 0 0 0-.43-4.07c-.68-1.2-1.75-2-3.23-2.38a5.84 5.84 0 0 0-2.99-.06c-.95.22-1.76.66-2.45 1.31l-5.1-1.34 5.47-15.33 17.34 4.57-1.19 4.53-12.86-3.38-2.59 7.29.11.03a6 6 0 0 1 3-1.55 8.32 8.32 0 0 1 3.85.16 8.88 8.88 0 0 1 5.74 4.28 9.24 9.24 0 0 1 .81 7.22 9.45 9.45 0 0 1-4.78 6.26c-2.41 1.28-5.18 1.5-8.3.68Z" />
    </g>
    <g data-object="В-78__r__2318:4339">
      <rect width="287.28" height="266" x="4762" y="3609.51" fill="#8E96FF" rx="12"
        transform="rotate(-21.71 4762 3609.51)" />
      <path fill="#fff"
        d="m4916.34 3706.27-4.52-5.55-9.2 3.66.53 7.15-5.63 2.24-1.33-29.81 6.44-2.56 19.53 22.55-5.82 2.32Zm-15.09-18.52.91 12.06 6.84-2.72-7.62-9.39-.13.05Zm31.62 2.29-11.92 4.75-1.84-4.63 11.92-4.75 1.84 4.63Zm19.92 1.72-1.85-4.67-13.03 5.19-1.86-4.66c.51-4.91 1.78-11.93 3.79-21.04l7.73-3.08 6.83 17.13 3.41-1.36 1.75 4.39-3.42 1.36 1.86 4.66-5.21 2.08Zm-11.81-5.77.05.15 8.33-3.32-5.34-13.41-.11.05a227 227 0 0 0-1.92 9.32 89.77 89.77 0 0 0-1.01 7.21Zm15.83-17.04a8.32 8.32 0 0 1 .26-7.15c1.17-2.31 3.19-4.02 6.04-5.16 2.75-1.1 5.27-1.27 7.57-.53a7.18 7.18 0 0 1 4.75 4.39c.32.78.5 1.59.55 2.43.06.82-.02 1.7-.25 2.64-.22.93-.47 1.79-.75 2.59-.29.79-.69 1.77-1.19 2.94l-3.94 8.69.04.11 11.82-4.7 1.73 4.35-19.03 7.58-1.47-3.68 6.09-13.44c.8-1.86 1.28-3.29 1.44-4.3a5.26 5.26 0 0 0-.28-2.87 3.42 3.42 0 0 0-2.18-2.03 4.73 4.73 0 0 0-3.38.16 4.72 4.72 0 0 0-2.68 2.46 4.24 4.24 0 0 0-.06 3.49l.03.09-5.08 2.03-.03-.09Zm36.58 6.64-8.43-21.16-.11.05-4.84 7.27-1.97-4.94 4.9-7.4 5.44-2.16 10.43 26.18-5.42 2.16Z" />
    </g>
    <g data-object="В-78__r__2318:4340">
      <rect width="128" height="172" x="3610.39" y="4169.29" fill="#8E96FF" rx="12"
        transform="rotate(-21.71 3610.39 4169.29)" />
      <path fill="#fff"
        d="m3672.11 4246.43-2.71-3.33-5.52 2.2.32 4.28-3.38 1.35-.8-17.88 3.87-1.54 11.72 13.53-3.5 1.39Zm-9.05-11.11.55 7.23 4.1-1.63-4.58-5.63-.07.03Zm19.25 1.26-7.15 2.85-1.11-2.78 7.16-2.84 1.1 2.77Zm12.23.92-1.11-2.8-7.82 3.12-1.11-2.8c.3-2.95 1.06-7.16 2.27-12.63l4.64-1.84 4.09 10.27 2.05-.81 1.05 2.63-2.05.82 1.12 2.8-3.13 1.24Zm-7.09-3.46.04.09 4.99-1.99-3.2-8.05-.07.03c-.5 2.25-.89 4.12-1.15 5.59a57 57 0 0 0-.61 4.33Zm9.78-10.34a5 5 0 0 1 .16-4.29 6.56 6.56 0 0 1 3.62-3.09 6.59 6.59 0 0 1 4.54-.32 4.3 4.3 0 0 1 2.85 2.63 4.97 4.97 0 0 1 .18 3.05 14.3 14.3 0 0 1-.45 1.55c-.17.48-.41 1.06-.71 1.76l-2.36 5.22.02.07 7.09-2.83 1.04 2.62-11.42 4.54-.88-2.21 3.65-8.06c.48-1.12.77-1.97.86-2.58.11-.6.05-1.18-.16-1.72-.24-.6-.68-1-1.31-1.22a2.82 2.82 0 0 0-2.03.1c-.76.3-1.3.8-1.61 1.47a2.56 2.56 0 0 0-.03 2.1l.02.05-3.05 1.22-.02-.06Zm25.5 2.57-1.11-2.79-7.82 3.11-1.11-2.8c.3-2.95 1.06-7.15 2.27-12.62l4.64-1.85 4.09 10.28 2.05-.82 1.05 2.64-2.05.81 1.12 2.8-3.13 1.24Zm-7.09-3.45.03.08 5-1.99-3.2-8.04-.07.02c-.5 2.26-.89 4.12-1.15 5.6a52.36 52.36 0 0 0-.61 4.33Zm19.74-7.37-7.15 2.85-1.11-2.78 7.15-2.85 1.11 2.78Zm8.17 2.53-5.06-12.69-.06.03-2.91 4.36-1.18-2.96 2.94-4.44 3.27-1.3 6.25 15.71-3.25 1.29Z" />
    </g>
    <g data-object="В-78__r__2318:4341">
      <rect width="128" height="111" x="3947.23" y="3933.98" fill="#8E96FF" rx="12"
        transform="rotate(-21.71 3947.23 3933.98)" />
      <path fill="#fff"
        d="m3996.05 3983.42-2.72-3.33-5.52 2.2.32 4.29-3.37 1.34-.81-17.88 3.87-1.54 11.72 13.53-3.49 1.39Zm-9.06-11.11.55 7.24 4.1-1.64-4.57-5.63-.08.03Zm19.25 1.26-7.15 2.85-1.1-2.77 7.15-2.85 1.1 2.77Zm12.24.92-1.12-2.8-7.82 3.12-1.11-2.8c.31-2.95 1.06-7.16 2.28-12.63l4.63-1.84 4.1 10.28 2.04-.82 1.05 2.64-2.04.81 1.11 2.8-3.12 1.24Zm-7.1-3.46.04.09 5-1.99-3.21-8.04-.06.02c-.51 2.26-.89 4.12-1.16 5.6a62.26 62.26 0 0 0-.61 4.32Zm9.78-10.33a5 5 0 0 1 .16-4.29 6.54 6.54 0 0 1 3.62-3.1 6.59 6.59 0 0 1 4.54-.32 4.36 4.36 0 0 1 2.86 2.64 4.84 4.84 0 0 1 .18 3.04 17.15 17.15 0 0 1-1.17 3.32l-2.36 5.21.02.07 7.09-2.82 1.04 2.61-11.42 4.55-.88-2.21 3.65-8.07c.48-1.11.77-1.97.87-2.57.1-.61.05-1.18-.17-1.73-.24-.59-.67-1-1.31-1.22a2.87 2.87 0 0 0-2.03.1c-.76.31-1.29.8-1.6 1.48a2.5 2.5 0 0 0-.04 2.09l.02.06-3.05 1.21-.02-.05Zm25.5 2.57-1.11-2.8-7.82 3.11-1.11-2.8c.31-2.94 1.06-7.15 2.27-12.62l4.64-1.85 4.1 10.28 2.04-.82 1.05 2.64-2.05.81 1.12 2.8-3.13 1.25Zm-7.09-3.46.04.09 5-1.99-3.21-8.05-.06.03c-.51 2.25-.9 4.11-1.16 5.59a57 57 0 0 0-.61 4.33Zm19.74-7.37-7.15 2.85-1.11-2.78 7.16-2.85 1.1 2.78Zm.18-7.01a5 5 0 0 1 .16-4.29 6.59 6.59 0 0 1 3.63-3.09 6.53 6.53 0 0 1 4.54-.32 4.33 4.33 0 0 1 2.85 2.63c.19.47.3.96.33 1.46.03.49-.02 1.02-.15 1.59-.13.55-.28 1.07-.46 1.55-.17.47-.41 1.06-.71 1.76l-2.36 5.22.03.06 7.08-2.82 1.04 2.61-11.42 4.55-.88-2.21 3.65-8.06c.48-1.12.77-1.98.87-2.58.1-.6.05-1.18-.17-1.72a2.02 2.02 0 0 0-1.31-1.22 2.79 2.79 0 0 0-2.02.1c-.77.3-1.3.79-1.61 1.47a2.52 2.52 0 0 0-.04 2.1l.02.05-3.04 1.21-.03-.05Z" />
    </g>
    <g data-object="В-78__r__2318:4342">
      <rect width="128" height="150" x="3990.15" y="4041.74" fill="#8E96FF" rx="12"
        transform="rotate(-21.71 3990.15 4041.74)" />
      <path fill="#fff"
        d="m4045.88 4109.42-2.71-3.33-5.52 2.2.32 4.29-3.38 1.34-.8-17.88 3.87-1.54 11.72 13.53-3.5 1.39Zm-9.05-11.11.55 7.24 4.1-1.64-4.57-5.63-.08.03Zm19.25 1.26-7.15 2.85-1.11-2.77 7.16-2.85 1.1 2.77Zm12.23.92-1.11-2.8-7.82 3.12-1.11-2.8c.3-2.95 1.06-7.16 2.27-12.63l4.64-1.84 4.1 10.28 2.04-.82 1.05 2.63-2.05.82 1.12 2.8-3.13 1.24Zm-7.09-3.46.04.09 4.99-1.99-3.2-8.04-.06.02c-.51 2.26-.9 4.12-1.16 5.59a57.71 57.71 0 0 0-.61 4.33Zm9.78-10.33a5 5 0 0 1 .16-4.29 6.54 6.54 0 0 1 3.62-3.1 6.59 6.59 0 0 1 4.54-.32 4.36 4.36 0 0 1 2.86 2.64 4.83 4.83 0 0 1 .17 3.04 14.5 14.5 0 0 1-.45 1.56c-.17.47-.41 1.06-.71 1.76l-2.36 5.21.02.07 7.09-2.82 1.04 2.61-11.42 4.55-.88-2.21 3.65-8.07c.48-1.11.77-1.97.87-2.57.1-.61.04-1.18-.17-1.73-.24-.59-.67-1-1.31-1.22a2.87 2.87 0 0 0-2.03.1c-.76.31-1.29.8-1.6 1.48a2.5 2.5 0 0 0-.04 2.09l.02.06-3.05 1.21-.02-.05Zm25.5 2.57-1.11-2.8-7.82 3.11-1.11-2.8c.3-2.94 1.06-7.15 2.27-12.62l4.64-1.85 4.09 10.28 2.05-.82 1.05 2.64-2.05.81 1.12 2.8-3.13 1.25Zm-7.09-3.46.04.09 4.99-1.99-3.2-8.05-.07.03c-.5 2.25-.89 4.11-1.15 5.59a57 57 0 0 0-.61 4.33Zm19.74-7.37-7.15 2.85-1.11-2.78 7.16-2.85 1.1 2.78Zm5.83-4.48-.94-2.37 1.9-.76c.75-.3 1.28-.74 1.58-1.34.3-.59.32-1.21.07-1.85a2.07 2.07 0 0 0-1.28-1.27c-.6-.21-1.3-.15-2.1.17-.76.3-1.3.75-1.61 1.35-.3.61-.34 1.26-.11 1.97l-3.03 1.2a4.9 4.9 0 0 1 .28-4.16 6.75 6.75 0 0 1 3.6-2.95 6.88 6.88 0 0 1 4.44-.42 3.89 3.89 0 0 1 2.73 2.43c.38.95.4 1.87.07 2.77a4.3 4.3 0 0 1-1.85 2.19l.02.06a4.76 4.76 0 0 1 3.28.05 3.75 3.75 0 0 1 2.09 2.21c.55 1.4.43 2.76-.38 4.08a7.73 7.73 0 0 1-3.94 3.07 7.1 7.1 0 0 1-4.81.38 5.05 5.05 0 0 1-3.14-2.83l3.15-1.25c.31.65.81 1.07 1.48 1.26.69.2 1.45.12 2.31-.22a3.37 3.37 0 0 0 1.76-1.43c.36-.63.4-1.28.14-1.94a2.16 2.16 0 0 0-1.43-1.38 3.5 3.5 0 0 0-2.34.21l-1.94.77Z" />
    </g>
    <g data-object="В-78__t__2318:4343">
      <rect width="64" height="89" x="8735.32" y="4103.54" fill="#60A5FA" rx="12"
        transform="rotate(14.75 8735.32 4103.54)" />
      <g fill="#fff" clip-path="url(#o)">
        <path
          d="M8758.35 4141.65a5.25 5.25 0 1 0 2.69-10.15 5.25 5.25 0 0 0-2.69 10.15Zm8.63 18.36-.11-3.37v-.01l-.25-7.32-.03-.83a4.2 4.2 0 0 0-3.13-3.93l-10.88-2.87a4.19 4.19 0 0 0-4.66 1.88l-.43.71h-.01l-3.82 6.25v.01l-1.77 2.87c-.53.87-.3 2.02.54 2.58a1.94 1.94 0 0 0 1.45.27 2 2 0 0 0 1.19-.85l4.35-7.12.37-.61c.1-.14.25-.25.42-.29a.7.7 0 0 1 .51.04c.16.07.29.19.37.35.07.16.09.34.05.51-.02.05-.03.1-.06.14l-7.44 12.18a1.46 1.46 0 0 0-.11 1.34 1.49 1.49 0 0 0 1.01.89l2.63.69-2.74 10.4c-.39 1.49.25 2.91 1.47 3.23 1.23.32 2.49-.59 2.88-2.08l2.74-10.4 1.45.38-2.74 10.4c-.39 1.49.26 2.91 1.48 3.23 1.22.32 2.48-.59 2.87-2.09l2.74-10.39 2.72.71a1.47 1.47 0 0 0 1.32-.28c.18-.14.33-.33.42-.54.1-.21.15-.45.14-.68l-.48-14.26.02-.15a.78.78 0 0 1 .29-.42c.15-.1.33-.15.5-.13.18.01.34.09.47.22.12.12.2.29.21.46l.03.71.28 8.34c.01.25.07.5.17.73.11.22.26.43.45.6.19.16.41.29.64.37a1.88 1.88 0 0 0 2.48-1.87Z" />
      </g>
    </g>
    <g data-object="В-78__t__2318:4344">
      <rect width="64" height="89" x="8596.07" y="4066.88" fill="#60A5FA" rx="12"
        transform="rotate(14.75 8596.07 4066.88)" />
      <g fill="#fff" clip-path="url(#p)">
        <path
          d="M8619.12 4105a5.25 5.25 0 1 0 2.67-10.15 5.25 5.25 0 0 0-2.67 10.15Zm3.97 2.6-8.7-2.3a6.03 6.03 0 0 0-7.33 4.28l-2.57 9.75a1.9 1.9 0 0 0 1.26 2.31c.24.08.49.1.74.07a1.83 1.83 0 0 0 1.62-1.38l2.38-9.05a.73.73 0 0 1 .32-.45.76.76 0 0 1 .55-.12c.1.02.2.06.28.12a.8.8 0 0 1 .32.51c.01.1.01.2-.02.3l-6.9 26.2a2.19 2.19 0 0 0 1.54 2.64 2.17 2.17 0 0 0 2.64-1.54l3.4-12.93c.06-.24.2-.44.41-.57.2-.14.44-.19.68-.15a1 1 0 0 1 .62.42.98.98 0 0 1 .11.74l-3.41 12.97c-.15.55-.07 1.14.22 1.63.29.5.76.86 1.31 1 .56.15 1.15.07 1.64-.22a2.2 2.2 0 0 0 1-1.31l6.89-26.18a.77.77 0 0 1 .87-.57.74.74 0 0 1 .6.62.8.8 0 0 1-.01.31l-2.38 9.02c-.26.98.29 2.02 1.26 2.32.24.07.49.09.75.07a1.9 1.9 0 0 0 1.61-1.39l2.57-9.79a6.03 6.03 0 0 0-4.27-7.33Z" />
      </g>
    </g>
    <path fill="#777D89" fill-rule="evenodd"
      d="M8500.79 3910.3a12 12 0 0 0-14.66 8.55l-47.51 180.47a12 12 0 0 1-14.66 8.54l-1429.3-376.28a12 12 0 0 1-8.55-14.66l58.8-223.34a12 12 0 0 1 14.66-8.55l1422.51 374.5h.02l104.44 27.5a12 12 0 0 1 8.55 14.66l-5.18 19.67a12 12 0 0 1-14.66 8.55l-74.46-19.61Z"
      clip-rule="evenodd" />
    <g data-object="В-78__s__2318:4349">
      <rect width="64" height="89" x="3855.71" y="4160.94" fill="#fff" rx="12"
        transform="rotate(-21.71 3855.71 4160.94)" />
      <g clip-path="url(#q)">
        <path fill="#000"
          d="m3916.48 4166.34-6.96 2.77 2.77 6.97c.05.12.07.21.06.28a1.44 1.44 0 0 1-.9 1.67l-6.96 2.77 2.78 6.97c.04.12.06.21.06.28.07.34.02.67-.14.99-.16.31-.41.54-.76.68l-6.96 2.77 2.77 6.97c.05.11.07.21.06.28.07.34.03.67-.13.98-.16.32-.42.55-.76.69l-6.96 2.77 2.77 6.97c.05.11.07.2.06.27.07.35.03.68-.13.99-.16.32-.42.55-.77.68l-8.35 3.33c-.38.15-.76.14-1.14-.02a1.45 1.45 0 0 1-.81-.82c-.15-.38-.14-.76.03-1.14.16-.39.43-.66.81-.81l6.96-2.77-2.77-6.97a.54.54 0 0 1-.06-.28c-.07-.34-.02-.67.15-.99.18-.32.42-.55.74-.67l6.96-2.78-2.77-6.96a.56.56 0 0 1-.06-.28 1.4 1.4 0 0 1 .16-1c.17-.32.42-.55.74-.67l6.96-2.77-2.78-6.97a1.27 1.27 0 0 1-.06-.28c-.07-.34-.01-.68.16-1 .17-.32.42-.54.74-.67l6.96-2.77-2.77-6.97a.56.56 0 0 1-.06-.28 1.45 1.45 0 0 1 .89-1.67l8.36-3.32c.37-.15.76-.15 1.14.02.39.17.65.44.8.81.15.38.15.76-.02 1.15-.16.38-.44.65-.81.8Z" />
      </g>
    </g>
    <rect width="755.42" height="77.05" fill="#262A34" rx="12"
      transform="scale(1 -1) rotate(21.79 12053.05 11420.14)" />
    <rect width="300" height="77" fill="#262A34" rx="12" transform="matrix(1 0 0 -1 5757 3387)" />
    <rect width="62.46" height="101.25" fill="#262A34" rx="12"
      transform="scale(1 -1) rotate(21.79 12251.28 11728.54)" />
    <rect width="658.39" height="77.39" fill="#262A34" rx="12"
      transform="matrix(.96705 .25457 .25448 -.96708 6019.12 3382.82)" />
    <rect width="56.07" height="127.71" fill="#262A34" rx="12"
      transform="matrix(.96705 .25457 .25448 -.96708 6411.59 3584.53)" />
    <g>
      <g>
        <rect width="1473.19" height="719.32" fill="#63656A" rx="12"
          transform="matrix(.90815 .41864 -.4249 .90524 9351.88 177.45)" />
        <g clip-path="url(#r)">
          <path fill="#fff"
            d="M9823.82 769.01a20.1 20.1 0 0 0-22.02 3.44 19.91 19.91 0 0 0-5.33 21.55 20.01 20.01 0 0 0 17.95 13.05 20.22 20.22 0 0 0 19.07-11.56 19.92 19.92 0 0 0-3.36-21.9 19.92 19.92 0 0 0-6.31-4.58Zm-1.7 3.62a15.72 15.72 0 0 1 8.12 8.64 50.2 50.2 0 0 1-10.62-.1c-.3-3.31-.88-6.6-1.74-9.8 1.47.22 2.9.64 4.24 1.26Zm-8.44-1.36a52.9 52.9 0 0 1 1.83 9.33c-3.98-.76-7.85-2-11.52-3.69l-.66-.3c2.66-3 6.36-4.9 10.35-5.34Zm-13.77 20.44c-1.12-3.74-.8-7.76.88-11.29l.25-.52 1.24.56a53.44 53.44 0 0 0 13.56 4.05c.06 1.38.07 2.77.05 4.19a28.8 28.8 0 0 0-9.84.77l-.75.18a42.7 42.7 0 0 0-5.39 2.06Zm8.62 9.9a15.74 15.74 0 0 1-6.96-6.23c1.36-.6 2.76-1.12 4.18-1.55l.81-.23a25.46 25.46 0 0 1 9.19-.76 64.38 64.38 0 0 1-1.7 10.23 16.14 16.14 0 0 1-5.52-1.47Zm9.67 1.17a70.71 70.71 0 0 0 1.47-9.14l.61.28a.5.5 0 0 1 .22.1l.2.1.18.08.88.4c1.91.88 3.65 2.08 5.16 3.54a16.04 16.04 0 0 1-8.72 4.64Zm5.3-11.9-1.13-.51a12.78 12.78 0 0 0-2.26-.82l-.18-.09c.04-1.46.05-2.88.02-4.4 3.78.4 7.59.38 11.36-.04.37 3-.14 6.06-1.45 8.8l-.44.92a22.94 22.94 0 0 0-5.92-3.85Z" />
        </g>
        <g clip-path="url(#s)">
          <path fill="#fff"
            d="m9882.58 806.12-2.74-7.52a1.98 1.98 0 0 0-1.04-1.13 2.04 2.04 0 0 0-1.54-.06 2 2 0 0 0-1.2 2.55l2.05 5.62-21.6 7.88-2.05-5.61c-.18-.5-.55-.9-1.03-1.12a2.02 2.02 0 0 0-2.67.97 2 2 0 0 0-.06 1.54l2.71 7.44 2.72 7.44a1.97 1.97 0 0 0 1.03 1.13 2.01 2.01 0 0 0 2.75-2.5l-2.02-5.53 21.59-7.88 2.05 5.61a2 2 0 0 0 3.24.77 2 2 0 0 0 .53-2.16l-2.72-7.44Zm-34.28 8.22a2 2 0 0 0-2.58-1.19c-.5.19-.91.56-1.14 1.04a2.03 2.03 0 0 0-.07 1.53l2.74 7.5a1.95 1.95 0 0 0 1.04 1.12 2.02 2.02 0 0 0 2.87-1.73c.01-.26-.03-.53-.13-.77l-2.73-7.5Zm43.18-7.27-2.74-7.5a1.95 1.95 0 0 0-1.03-1.12 2.02 2.02 0 0 0-2.75 2.51l2.73 7.5a1.98 1.98 0 0 0 1.04 1.13 2.02 2.02 0 0 0 2.68-.98 2.03 2.03 0 0 0 .07-1.53Z" />
        </g>
        <g clip-path="url(#t)">
          <path fill="#fff"
            d="M9940.61 833.64a2 2 0 0 0-.05-.24 19.81 19.81 0 0 0-6.65-12.76 20.05 20.05 0 0 0-13.58-4.94l-.13-.06a20.2 20.2 0 0 0-16.88 10.52 19.9 19.9 0 0 0 .46 19.76l.43.64.12.21c1.93 3 4.64 5.43 7.84 7.01l.38.18a20.13 20.13 0 0 0 19.86-2.18 19.99 19.99 0 0 0 8.2-18.14Zm-3.88.76c.1 1.07.08 2.13-.06 3.2a19.92 19.92 0 0 0-5.03-3.4 1.64 1.64 0 0 0-.56-.27c-2.25-1-4.66-1.56-7.13-1.67a15.97 15.97 0 0 1-1.98-4.44c2.83-.27 5.68.19 8.27 1.34a16.17 16.17 0 0 1 6.49 5.25Zm-9.26-13.2a15.68 15.68 0 0 1 6.36 5.28c-.57-.36-1.16-.68-1.76-.96a20.13 20.13 0 0 0-10.7-1.7c-.01-1.36.16-2.72.49-4.05 1.94.13 3.84.61 5.61 1.42Zm-13.2-.12c1.1-.47 2.25-.82 3.43-1.04a19.7 19.7 0 0 0 3.3 14.94 15.86 15.86 0 0 1-3.84 4.56 15.8 15.8 0 0 1-3.14-17.94l.25-.52Zm-8.13 7.9c.69-1.45 1.59-2.8 2.67-3.99a19.73 19.73 0 0 0 4.78 16.65 15.85 15.85 0 0 1-7.14 1.42 15.8 15.8 0 0 1-.31-14.08Zm7.48 21.06a15.65 15.65 0 0 1-4.33-3.07 20.12 20.12 0 0 0 8.61-3.12c2.92-1.89 5.3-4.5 6.9-7.57 1.21.14 2.4.43 3.54.84a16.13 16.13 0 0 1-14.72 12.92Zm8.61 1.51a19.99 19.99 0 0 0 9.76-12.6 16.7 16.7 0 0 1 3.35 3.1l-.16.32a16.07 16.07 0 0 1-12.94 9.16l-.01.02Z" />
        </g>
      </g>
    </g>
    <g>
      <rect width="1446.05" height="806.37" x="93.77" y="3999.2" fill="#777D89" rx="12"
        transform="rotate(-21.37 93.77 3999.2)" />
      <path fill="#fff"
        d="m1006.22 4150.62 13.35 34.11-130.4 51.03-77.04-196.83 130.4-51.04 13.3 33.96-89.22 34.92 18.58 47.47 84.17-32.94 12.38 31.65-84.16 32.94 19.43 49.65 89.21-34.92Z" />
    </g>
    <path fill="#fff"
      d="m5960.94 3269-16.11-51.27h-74.27l-16.11 51.27h-45.41l73.39-211.38h52l73.53 211.38h-47.02Zm-53.76-170.95-27.1 86.57h55.23l-27.1-86.57h-1.03Z" />
    <g>
      <rect width="1763.91" height="919" x="2938.08" y="5019.86" fill="#777D89" rx="12"
        transform="rotate(-21.37 2938.08 5019.86)" />
      <path fill="#fff"
        d="m4010.58 5208.44-52.11-133.13-1.64.64-37.24 168.1-39.69 15.54-77.04-196.84 41.06-16.07 52.16 133.27 1.63-.64 37.19-168.24 39.7-15.53 77.04 196.84-41.06 16.06Z" />
    </g>
  </g>
  <defs>
    <clipPath id="a">
      <path fill="#fff" d="m3156.49 4460.47 44.6-17.76 17.75 44.6-44.6 17.75z" />
    </clipPath>
    <clipPath id="b">
      <path fill="#fff" d="m2576.87 4691.27 44.6-17.76 17.75 44.6-44.6 17.75z" />
    </clipPath>
    <clipPath id="c">
      <path fill="#fff" d="m3089.61 4487.09 44.6-17.76 17.75 44.6-44.6 17.75z" />
    </clipPath>
    <clipPath id="d">
      <path fill="#fff" d="m9225.52 4253.9 46.42 12.22-12.22 46.41-46.42-12.22z" />
    </clipPath>
    <clipPath id="e">
      <path fill="#fff" d="m8668.48 4107.24 46.42 12.22-12.22 46.41-46.42-12.22z" />
    </clipPath>
    <clipPath id="f">
      <use href="#u" />
    </clipPath>
    <clipPath id="h">
      <use href="#u" />
    </clipPath>
    <clipPath id="i">
      <path fill="#fff" d="m8612.94 3892.76 46.42 12.22-12.22 46.42-46.42-12.22z" />
    </clipPath>
    <clipPath id="j">
      <path fill="#fff" d="m8601.94 3938.76 46.42 12.22-12.22 46.42-46.42-12.22z" />
    </clipPath>
    <clipPath id="k">
      <path fill="#fff" d="m5141.96 3670.23 44.6-17.76 17.75 44.6-44.6 17.76z" />
    </clipPath>
    <clipPath id="l">
      <path fill="#fff" d="m6552.8 3530.16 30.94 8.14-8.15 30.95-30.94-8.15z" />
    </clipPath>
    <clipPath id="m">
      <path fill="#fff" d="m6521.33 3563.24 46.42 12.22-12.22 46.42-46.42-12.22z" />
    </clipPath>
    <clipPath id="n">
      <path fill="#fff" d="m6548.41 3570.37 46.42 12.22-12.22 46.42-46.42-12.22z" />
    </clipPath>
    <clipPath id="o">
      <path fill="#fff" d="m8738.12 4125.57 46.42 12.22-12.23 46.42-46.41-12.22z" />
    </clipPath>
    <clipPath id="p">
      <path fill="#fff" d="m8598.85 4088.9 46.42 12.23-12.22 46.42-46.42-12.23z" />
    </clipPath>
    <clipPath id="q">
      <path fill="#fff" d="m3869.88 4176.4 44.6-17.75 17.75 44.6-44.6 17.75z" />
    </clipPath>
    <clipPath id="r">
      <path fill="#fff" d="m9803.73 755.34 43.6 20.1-20.4 43.45-43.6-20.1z" />
    </clipPath>
    <clipPath id="s">
      <path fill="#fff" d="m9856.4 779.63 43.6 20.1-20.4 43.45-43.6-20.1z" />
    </clipPath>
    <clipPath id="t">
      <path fill="#fff" d="m9909.07 803.9 43.6 20.1-20.4 43.45-43.6-20.1z" />
    </clipPath>
  </defs>
</svg>