<svg xmlns="http://www.w3.org/2000/svg" width="5520" height="5200" fill="none" viewBox="0 0 5520 5200">
  <g class="5">
    <g class="Main">
      <rect width="257" height="90" x="3757" y="1464" fill="#262A34" class="BigAreaPath" rx="12"/>
      <rect width="35" height="35" x="3935" y="1443" fill="#262A34" class="BigAreaPath" rx="12"/>
      <rect width="35" height="35" x="3999" y="1498" fill="#262A34" class="BigAreaPath" rx="12"/>
      <rect width="103" height="115" x="3783" y="1369" fill="#262A34" class="BigAreaPath" rx="12"/>
      <rect width="163" height="121" x="1576" y="1465" fill="#262A34" class="BigAreaPath" rx="12"/>
      <rect width="35" height="35" x="1553" y="1492" fill="#262A34" class="BigAreaPath" rx="12"/>
      <rect width="35" height="35" x="1620" y="1445" fill="#262A34" class="BigAreaPath" rx="12"/>
      <rect width="84" height="145" x="1704" y="1343" fill="#262A34" class="BigAreaPath" rx="12"/>
      <g class="Paths">
        <path fill="#262A34" d="M993 1212v-16h8v16z" class="Rectangle 101"/>
      </g>
      <g class="Paths">
        <path fill="#262A34" d="M1012 1327v-16h8v16z" class="Rectangle 101"/>
      </g>
      <g class="Paths">
        <path fill="#262A34" d="M1056 1274h-16v-8h16z" class="Rectangle 101"/>
      </g>
      <g class="Paths">
        <path fill="#262A34" d="M1158 1271h-16v-8h16z" class="Rectangle 101"/>
      </g>
      <g class="Paths">
        <path fill="#262A34" d="M1114 1374h-16v-8h16z" class="Rectangle 101"/>
      </g>
      <g class="Paths">
        <path fill="#262A34" d="M1290 1371h-16v-8h16z" class="Rectangle 101"/>
      </g>
      <g class="Paths">
        <path fill="#262A34" d="M1412 1371h-16v-8h16z" class="Rectangle 101"/>
      </g>
      <g class="Paths">
        <path fill="#262A34" d="M1412 1271h-16v-8h16z" class="Rectangle 101"/>
      </g>
      <g class="Paths">
        <path fill="#262A34" d="M1483 1371h-16v-8h16z" class="Rectangle 101"/>
      </g>
      <g class="Paths">
        <path fill="#262A34" d="M1520 1284h-16v-8h16z" class="Rectangle 101"/>
      </g>
      <g class="Paths">
        <path fill="#262A34" d="M1641 1287h-16v-8h16z" class="Rectangle 101"/>
      </g>
      <g class="Paths">
        <path fill="#262A34" d="M1814 1284h-16v-8h16z" class="Rectangle 101"/>
      </g>
      <g class="Paths">
        <path fill="#262A34" d="M1843 1340v-16h8v16z" class="Rectangle 101"/>
      </g>
      <g class="Paths">
        <path fill="#262A34" d="M1843 1580v-16h8v16z" class="Rectangle 101"/>
      </g>
      <g class="Paths">
        <path fill="#262A34" d="M1988 1677h-16v-8h16z" class="Rectangle 101"/>
      </g>
      <g class="Paths">
        <path fill="#262A34" d="M1973 1828h-16v-8h16z" class="Rectangle 101"/>
      </g>
      <g class="Paths">
        <path fill="#262A34" d="M1822 2247h-16v-8h16z" class="Rectangle 101"/>
      </g>
      <g class="Paths">
        <path fill="#262A34" d="M1953 2247h-16v-8h16z" class="Rectangle 101"/>
      </g>
      <g class="Paths">
        <path fill="#262A34" d="M3608 1078v-16h8v16z" class="Rectangle 101"/>
      </g>
      <g class="Paths">
        <path fill="#262A34" d="M3703 1294v-16h8v16z" class="Rectangle 101"/>
      </g>
      <g class="Paths">
        <path fill="#262A34" d="M3703 1453v-16h8v16z" class="Rectangle 101"/>
      </g>
      <g class="Paths">
        <path fill="#262A34" d="M4147 1494v-16h8v16z" class="Rectangle 101"/>
      </g>
      <g class="Paths">
        <path fill="#262A34" d="M3593 1492h-16v-8h16z" class="Rectangle 101"/>
      </g>
      <g class="Paths">
        <path fill="#262A34" d="M3760 1562h-16v-8h16z" class="Rectangle 101"/>
      </g>
      <g class="Paths">
        <path fill="#262A34" d="M3629 1944v-16h8v16z" class="Rectangle 101"/>
      </g>
      <g class="Paths">
        <path fill="#262A34" d="M3691 2150v-16h8v16z" class="Rectangle 101"/>
      </g>
      <g class="Paths">
        <path fill="#262A34" d="M3691 2301v-16h8v16z" class="Rectangle 101"/>
      </g>
      <g class="Paths">
        <path fill="#262A34" d="M3760 1170h-16v-8h16z" class="Rectangle 101"/>
      </g>
      <g class="Paths">
        <path fill="#262A34" d="M1820 1813h-16v-8h16z" class="Rectangle 101"/>
      </g>
      <g class="Paths">
        <path fill="#262A34" d="M1890 1936v-16h8v16z" class="Rectangle 101"/>
      </g>
      <g class="Paths">
        <path fill="#262A34" d="M1815 2070v-31h37v31z" class="Rectangle 101"/>
      </g>
      <g class="Paths">
        <path fill="#262A34" d="M3544 2052v-31h37v31z" class="Rectangle 101"/>
      </g>
      <g class="Paths">
        <path fill="#262A34" d="M1812 1203h-16v-8h16z" class="Rectangle 101"/>
      </g>
      <g class="Paths">
        <path fill="#262A34" d="M1509 1546v-16h11v16z" class="Rectangle 101"/>
      </g>
      <g class="Paths">
        <path fill="#262A34" d="M1292 1274h-16v-8h16z" class="Rectangle 101"/>
      </g>
      <g class="Room">
        <rect width="208" height="125" x="785" y="1141" fill="#8E96FF" rx="12"/>
        <path fill="#fff" d="m848.52 1214.5-1.72-5.47h-7.92l-1.72 5.47h-4.85l7.83-22.55h5.55l7.84 22.55h-5.01Zm-5.74-18.23-2.89 9.23h5.9l-2.9-9.23h-.1Zm22.83 11.06h-10.27v-3.99h10.27v3.99Zm12.22 7.67a9.2 9.2 0 0 1-6-1.94 6.53 6.53 0 0 1-2.47-5.01h4.36c.13.96.58 1.73 1.34 2.33.77.59 1.7.89 2.8.89 1.23 0 2.23-.39 3-1.16a4.09 4.09 0 0 0 1.17-3.02 4 4 0 0 0-4.14-4.25c-.85 0-1.63.19-2.33.57-.68.36-1.23.87-1.62 1.51h-4.22l1.1-12.97h14.35v3.75h-10.64l-.51 6.18h.09a4.8 4.8 0 0 1 2-1.82 6.62 6.62 0 0 1 3.01-.65c2.16 0 3.93.71 5.32 2.14a7.39 7.39 0 0 1 2.1 5.42c0 2.38-.82 4.32-2.43 5.81-1.6 1.48-3.7 2.22-6.28 2.22Zm22.08-.5v-4.02h-11.22v-4.01c1.83-3.5 4.85-8.34 9.04-14.52h6.66v14.75h2.94v3.78h-2.94v4.02h-4.48Zm-7.08-7.78v.12H900v-11.54h-.1a170.75 170.75 0 0 0-4.18 6.36 71.38 71.38 0 0 0-2.9 5.06Zm22.56-2.06v-3.41h2.74a3.8 3.8 0 0 0 2.6-.87c.67-.59 1-1.34 1-2.27 0-.93-.31-1.66-.95-2.2-.63-.56-1.53-.83-2.69-.83-1.09 0-1.98.3-2.65.89a3.28 3.28 0 0 0-1.11 2.37h-4.35a6.54 6.54 0 0 1 2.4-5.01c1.5-1.25 3.48-1.88 5.92-1.88 2.35 0 4.25.56 5.7 1.66a5.2 5.2 0 0 1 2.19 4.36c0 1.36-.43 2.52-1.28 3.47a5.74 5.74 0 0 1-3.38 1.79v.1c1.7.14 3.04.7 4.03 1.67 1 .96 1.5 2.21 1.5 3.77a5.8 5.8 0 0 1-2.48 4.87c-1.65 1.24-3.78 1.86-6.4 1.86-2.52 0-4.57-.64-6.13-1.91a6.7 6.7 0 0 1-2.5-5.04h4.51c.08.96.48 1.72 1.22 2.29.75.58 1.74.86 2.97.86 1.18 0 2.14-.3 2.9-.9a2.86 2.86 0 0 0 1.12-2.33c0-1.03-.37-1.84-1.1-2.42a4.58 4.58 0 0 0-3-.89h-2.78Zm21.19 6.81c1 0 1.86-.29 2.56-.88a2.78 2.78 0 0 0 1.06-2.23v-1.22l-3.53.22c-.85.06-1.51.28-1.98.64-.46.36-.69.84-.69 1.44 0 .62.23 1.12.7 1.48.47.37 1.1.55 1.88.55Zm-1.5 3.3a5.8 5.8 0 0 1-4.02-1.43 4.65 4.65 0 0 1-1.6-3.65c0-1.52.57-2.72 1.7-3.58 1.12-.87 2.73-1.36 4.82-1.49l4.22-.24v-1.11c0-.78-.25-1.38-.76-1.82a3.04 3.04 0 0 0-2.05-.65c-.83 0-1.51.18-2.05.56-.52.37-.84.88-.95 1.52h-4.17a5.07 5.07 0 0 1 2.1-3.97c1.33-1.01 3.09-1.52 5.27-1.52 2.15 0 3.87.51 5.16 1.53a4.92 4.92 0 0 1 1.94 4.06v11.52h-4.4v-2.56h-.1a5.01 5.01 0 0 1-2.1 2.08c-.93.5-1.94.75-3.01.75Z" class="А-5"/>
      </g>
      <g class="Room">
        <rect width="94" height="125" x="1001" y="1141" fill="#8E96FF" rx="12"/>
        <path fill="#fff" d="m1023.72 1212-1.29-4.1h-5.94l-1.29 4.1h-3.64l5.88-16.91h4.16l5.88 16.91h-3.76Zm-4.3-13.68-2.17 6.93h4.42l-2.17-6.93h-.08Zm17.42 8.3h-7.7v-2.99h7.7v2.99Zm9.46 5.76a6.9 6.9 0 0 1-4.5-1.46 4.88 4.88 0 0 1-1.85-3.76h3.27c.1.72.44 1.3 1.01 1.75.57.44 1.27.66 2.09.66a3 3 0 0 0 2.25-.86c.59-.59.88-1.34.88-2.26 0-.94-.29-1.71-.86-2.3a2.98 2.98 0 0 0-2.24-.89c-.64 0-1.22.14-1.75.42-.51.27-.92.65-1.22 1.14h-3.16l.83-9.73h10.76v2.81h-7.98l-.39 4.63h.07a3.6 3.6 0 0 1 1.5-1.36 4.98 4.98 0 0 1 2.26-.49c1.62 0 2.95.53 3.99 1.61a5.56 5.56 0 0 1 1.57 4.06c0 1.79-.61 3.24-1.82 4.36a6.66 6.66 0 0 1-4.71 1.67Zm16.86-.38v-3.01h-8.41v-3.01c1.37-2.63 3.63-6.26 6.78-10.89h4.99v11.06h2.21v2.84h-2.21v3.01h-3.36Zm-5.31-5.84v.1h5.38v-8.66h-.07c-1.31 1.9-2.35 3.49-3.14 4.77a56.37 56.37 0 0 0-2.17 3.79Zm17.22-1.54v-2.56h2.05a2.9 2.9 0 0 0 1.96-.65c.5-.44.75-1.01.75-1.7 0-.7-.24-1.25-.71-1.66a3.01 3.01 0 0 0-2.02-.62c-.82 0-1.48.23-1.99.67a2.45 2.45 0 0 0-.83 1.78h-3.26a4.9 4.9 0 0 1 1.79-3.76 6.71 6.71 0 0 1 4.44-1.41c1.77 0 3.19.42 4.28 1.25a3.92 3.92 0 0 1 1.64 3.27c0 1.02-.32 1.89-.96 2.6a4.32 4.32 0 0 1-2.53 1.35v.07c1.27.11 2.28.52 3.02 1.25a3.74 3.74 0 0 1 1.13 2.82c0 1.51-.62 2.73-1.87 3.66a7.74 7.74 0 0 1-4.79 1.4c-1.9 0-3.43-.48-4.61-1.43a5.07 5.07 0 0 1-1.87-3.79h3.39c.05.72.36 1.29.91 1.72.56.43 1.31.65 2.23.65.88 0 1.6-.23 2.17-.68.56-.46.84-1.04.84-1.75 0-.77-.27-1.38-.82-1.81a3.45 3.45 0 0 0-2.25-.67h-2.09Z" class="А-5"/>
      </g>
      <g class="Room">
        <rect width="94" height="125" x="1103" y="1141" fill="#8E96FF" rx="12"/>
        <path fill="#fff" d="m1125.49 1212-1.29-4.1h-5.94l-1.29 4.1h-3.63l5.87-16.91h4.16l5.89 16.91h-3.77Zm-4.3-13.68-2.16 6.93h4.41l-2.16-6.93h-.09Zm17.42 8.3h-7.7v-2.99h7.7v2.99Zm9.47 5.76a6.9 6.9 0 0 1-4.5-1.46 4.88 4.88 0 0 1-1.85-3.76h3.27c.1.72.43 1.3 1 1.75.58.44 1.28.66 2.1.66.92 0 1.67-.28 2.25-.86.59-.59.88-1.34.88-2.26 0-.94-.29-1.71-.87-2.3a2.94 2.94 0 0 0-2.23-.89c-.65 0-1.23.14-1.75.42-.52.27-.92.65-1.22 1.14H1142l.83-9.73h10.76v2.81h-7.98l-.39 4.63h.07a3.6 3.6 0 0 1 1.5-1.36 4.98 4.98 0 0 1 2.26-.49c1.62 0 2.95.53 3.99 1.61a5.56 5.56 0 0 1 1.57 4.06c0 1.79-.61 3.24-1.82 4.36a6.66 6.66 0 0 1-4.71 1.67Zm16.86-.38v-3.01h-8.42v-3.01c1.38-2.63 3.64-6.26 6.79-10.89h4.99v11.06h2.2v2.84h-2.2v3.01h-3.36Zm-5.31-5.84v.1h5.38v-8.66h-.07c-1.31 1.9-2.35 3.49-3.14 4.77a52.34 52.34 0 0 0-2.17 3.79Zm21.17 5.84v-3.01h-8.41v-3.01c1.37-2.63 3.63-6.26 6.78-10.89h4.99v11.06h2.21v2.84h-2.21v3.01h-3.36Zm-5.31-5.84v.1h5.38v-8.66h-.07c-1.31 1.9-2.35 3.49-3.14 4.77a56.37 56.37 0 0 0-2.17 3.79Z" class="А-5"/>
      </g>
      <g class="Room">
        <rect width="157" height="125" x="1205" y="1141" fill="#8E96FF" rx="12"/>
        <path fill="#fff" d="m1252 1214.5-1.72-5.47h-7.92l-1.72 5.47h-4.84l7.82-22.55h5.55l7.85 22.55H1252Zm-5.73-18.23-2.89 9.23h5.89l-2.89-9.23h-.11Zm22.82 11.06h-10.26v-3.99h10.26v3.99Zm12.22 7.67a9.22 9.22 0 0 1-6-1.94 6.56 6.56 0 0 1-2.47-5.01h4.36a3.5 3.5 0 0 0 1.35 2.33c.77.59 1.7.89 2.79.89 1.23 0 2.23-.39 3-1.16a4.1 4.1 0 0 0 1.18-3.02 4.2 4.2 0 0 0-1.16-3.06 4 4 0 0 0-2.98-1.19c-.86 0-1.64.19-2.33.57-.69.36-1.23.87-1.63 1.51h-4.22l1.11-12.97h14.35v3.75h-10.64l-.52 6.18h.09a4.84 4.84 0 0 1 2-1.82 6.64 6.64 0 0 1 3.02-.65c2.16 0 3.93.71 5.31 2.14a7.37 7.37 0 0 1 2.1 5.42c0 2.38-.81 4.32-2.43 5.81-1.6 1.48-3.69 2.22-6.28 2.22Zm22.08-.5v-4.02h-11.22v-4.01c1.84-3.5 4.85-8.34 9.05-14.52h6.66v14.75h2.93v3.78h-2.93v4.02h-4.49Zm-7.08-7.78v.12h7.17v-11.54h-.09a180.85 180.85 0 0 0-4.19 6.36 74.2 74.2 0 0 0-2.89 5.06Zm25.75 8.28a9.22 9.22 0 0 1-6-1.94 6.56 6.56 0 0 1-2.47-5.01h4.36a3.5 3.5 0 0 0 1.35 2.33c.77.59 1.7.89 2.79.89 1.23 0 2.23-.39 3-1.16a4.06 4.06 0 0 0 1.18-3.02 4 4 0 0 0-4.15-4.25c-.85 0-1.63.19-2.32.57-.69.36-1.23.87-1.63 1.51h-4.22l1.11-12.97h14.35v3.75h-10.64l-.52 6.18h.09a4.84 4.84 0 0 1 2-1.82 6.64 6.64 0 0 1 3.02-.65c2.16 0 3.93.71 5.31 2.14a7.37 7.37 0 0 1 2.1 5.42c0 2.38-.81 4.32-2.43 5.81-1.6 1.48-3.69 2.22-6.28 2.22Z" class="А-5"/>
      </g>
      <g class="Room">
        <rect width="64" height="125" x="1370" y="1141" fill="#8E96FF" rx="12"/>
        <path fill="#fff" d="m1413 1235.25-5.47 1.72v7.92l5.47 1.72v4.84l-22.55-7.83v-5.54l22.55-7.85v5.02Zm-18.23 5.73 9.23 2.9v-5.9l-9.23 2.9v.1Zm11.06-22.82v10.26h-3.99v-10.26h3.99Zm7.67-12.22c0 2.41-.65 4.41-1.94 6a6.56 6.56 0 0 1-5.01 2.47v-4.36a3.5 3.5 0 0 0 2.33-1.35c.59-.77.89-1.7.89-2.79 0-1.23-.39-2.23-1.16-3a4.06 4.06 0 0 0-3.02-1.18 4 4 0 0 0-4.25 4.15c0 .85.19 1.63.57 2.32.36.69.87 1.23 1.51 1.63v4.22l-12.97-1.11v-14.35h3.75v10.64l6.18.52v-.09a4.84 4.84 0 0 1-1.82-2 6.64 6.64 0 0 1-.65-3.02c0-2.16.71-3.93 2.14-5.31a7.37 7.37 0 0 1 5.42-2.1c2.38 0 4.32.81 5.81 2.43 1.48 1.6 2.22 3.69 2.22 6.28Zm-.5-22.08h-4.02v11.22h-4.01c-3.5-1.84-8.34-4.85-14.52-9.05v-6.65h14.75v-2.94h3.78v2.94h4.02v4.48Zm-7.78 7.08h.12v-7.17h-11.54v.09c2.54 1.74 4.66 3.13 6.36 4.19a74.2 74.2 0 0 0 5.06 2.89Zm8.3-26.08a8.23 8.23 0 0 1-4.16 7.48c-1.93 1.26-4.41 1.89-7.45 1.89-3.72 0-6.64-.84-8.77-2.53a8.34 8.34 0 0 1-3.2-6.92c0-2.14.58-3.98 1.73-5.51a6.9 6.9 0 0 1 4.5-2.77v4.64c-.75.23-1.35.68-1.81 1.34a4.02 4.02 0 0 0-.69 2.33c0 1.59.72 2.82 2.16 3.71 1.44.87 3.42 1.28 5.95 1.23v-.09a5.68 5.68 0 0 1-2.67-2.28 6.86 6.86 0 0 1-1-3.72 7.2 7.2 0 0 1 2.12-5.33 7.18 7.18 0 0 1 5.32-2.13c2.32 0 4.23.82 5.73 2.44a8.86 8.86 0 0 1 2.24 6.22Zm-3.77.05c0-1.15-.39-2.12-1.17-2.91a3.92 3.92 0 0 0-2.89-1.2 3.98 3.98 0 0 0-4.03 4.09c0 1.18.38 2.16 1.14 2.95a3.82 3.82 0 0 0 2.84 1.18 4 4 0 0 0 2.92-1.19 3.98 3.98 0 0 0 1.19-2.92Z" class="А-5"/>
      </g>
      <g class="Room">
        <rect width="141" height="138" x="1441" y="1141" fill="#8E96FF" rx="12"/>
        <path fill="#fff" d="m1481 1221-1.72-5.47h-7.92l-1.72 5.47h-4.84l7.82-22.55h5.55l7.85 22.55H1481Zm-5.73-18.23-2.89 9.23h5.89l-2.89-9.23h-.11Zm22.82 11.06h-10.26v-3.99h10.26v3.99Zm12.22 7.67a9.22 9.22 0 0 1-6-1.94 6.56 6.56 0 0 1-2.47-5.01h4.36a3.5 3.5 0 0 0 1.35 2.33c.77.59 1.7.89 2.79.89 1.23 0 2.23-.39 3-1.16a4.1 4.1 0 0 0 1.18-3.02 4.2 4.2 0 0 0-1.16-3.06 4 4 0 0 0-2.98-1.19c-.86 0-1.64.19-2.33.57-.69.36-1.23.87-1.63 1.51h-4.22l1.11-12.97h14.35v3.75h-10.64l-.52 6.18h.09a4.84 4.84 0 0 1 2-1.82 6.64 6.64 0 0 1 3.02-.65c2.16 0 3.93.71 5.31 2.14a7.37 7.37 0 0 1 2.1 5.42c0 2.38-.81 4.32-2.43 5.81-1.6 1.48-3.69 2.22-6.28 2.22Zm22.08-.5v-4.02h-11.22v-4.01c1.84-3.5 4.85-8.34 9.05-14.52h6.66v14.75h2.93v3.78h-2.93v4.02h-4.49Zm-7.08-7.78v.12h7.17v-11.54h-.09a180.85 180.85 0 0 0-4.19 6.36 74.2 74.2 0 0 0-2.89 5.06Zm17.94 7.78 9.7-18.7v-.1h-11.47v-3.75h16.13v3.8l-9.41 18.75h-4.95Z" class="А-5"/>
      </g>
      <g class="Room">
        <rect width="86" height="138" x="1590" y="1141" fill="#8E96FF" rx="12"/>
        <path fill="#fff" d="m1644 1241.94-5.47 1.72v7.92l5.47 1.72v4.84l-22.55-7.83v-5.54l22.55-7.85v5.02Zm-18.23 5.73 9.23 2.89v-5.89l-9.23 2.89v.11Zm11.06-22.83v10.27h-3.99v-10.27h3.99Zm7.67-12.22c0 2.42-.65 4.42-1.94 6a6.5 6.5 0 0 1-5.01 2.47v-4.36a3.45 3.45 0 0 0 2.33-1.34c.59-.77.89-1.7.89-2.8 0-1.23-.39-2.23-1.16-3a4.1 4.1 0 0 0-3.02-1.17 4.2 4.2 0 0 0-3.06 1.16 3.98 3.98 0 0 0-1.19 2.98c0 .86.19 1.63.57 2.33.36.69.87 1.23 1.51 1.63v4.21l-12.97-1.11v-14.34h3.75v10.64l6.18.52v-.1a4.72 4.72 0 0 1-1.82-2 6.6 6.6 0 0 1-.65-3.01c0-2.16.71-3.93 2.14-5.31a7.37 7.37 0 0 1 5.42-2.1c2.38 0 4.32.81 5.81 2.42 1.48 1.61 2.22 3.7 2.22 6.28Zm-.5-22.07h-4.02v11.22h-4.01c-3.5-1.84-8.34-4.85-14.52-9.05v-6.66h14.75v-2.94h3.78v2.94h4.02v4.49Zm-7.78 7.07h.12v-7.17h-11.54v.1c2.54 1.74 4.66 3.13 6.36 4.18a66.62 66.62 0 0 0 5.06 2.89Zm8.28-25.92c0 2.73-.61 4.94-1.83 6.63a5.66 5.66 0 0 1-4.78 2.51 5.43 5.43 0 0 1-3.8-1.46 6.5 6.5 0 0 1-1.98-3.83h-.09a5.87 5.87 0 0 1-1.85 3.18 5.07 5.07 0 0 1-7.53-1.11c-1.12-1.54-1.69-3.51-1.69-5.92s.57-4.39 1.69-5.92a5.1 5.1 0 0 1 4.28-2.3c1.22 0 2.3.41 3.24 1.21.92.8 1.54 1.86 1.86 3.17h.09a6.51 6.51 0 0 1 2-3.83 5.38 5.38 0 0 1 3.8-1.47c1.95 0 3.54.85 4.76 2.55 1.22 1.69 1.83 3.88 1.83 6.59Zm-4.42 3.05c.65-.79.98-1.81.98-3.05 0-1.24-.33-2.25-.98-3.03a3.19 3.19 0 0 0-2.53-1.17c-1.02 0-1.86.39-2.52 1.17-.67.78-1 1.79-1 3.03 0 1.24.33 2.26 1 3.05.66.78 1.5 1.17 2.52 1.17s1.86-.39 2.53-1.17Zm-10.36-.48a3.8 3.8 0 0 0 .87-2.57c0-1.04-.29-1.89-.87-2.56-.6-.67-1.34-1-2.24-1-.9 0-1.65.33-2.23 1a3.73 3.73 0 0 0-.89 2.56c0 1.04.3 1.9.89 2.57.58.66 1.33 1 2.23 1 .91 0 1.66-.34 2.24-1Z" class="А-5"/>
      </g>
      <g class="Room">
        <rect width="274" height="224" x="1766" y="975" fill="#8E96FF" rx="12"/>
        <path fill="#fff" d="m1874.53 1098-1.72-5.47h-7.92l-1.72 5.47h-4.84l7.83-22.55h5.54l7.85 22.55h-5.02Zm-5.73-18.23-2.89 9.23h5.89l-2.89-9.23h-.11Zm22.82 11.06h-10.26v-3.99h10.26v3.99Zm12.22 7.67a9.22 9.22 0 0 1-6-1.94 6.52 6.52 0 0 1-2.46-5.01h4.35a3.5 3.5 0 0 0 1.35 2.33c.77.59 1.7.89 2.8.89a4.1 4.1 0 0 0 3-1.16 4.1 4.1 0 0 0 1.17-3.02 4.2 4.2 0 0 0-1.16-3.06 4 4 0 0 0-2.98-1.19c-.86 0-1.63.19-2.33.57-.69.36-1.23.87-1.63 1.51h-4.22l1.11-12.97h14.35v3.75h-10.64l-.52 6.18h.09a4.84 4.84 0 0 1 2-1.82 6.67 6.67 0 0 1 3.02-.65c2.16 0 3.93.71 5.31 2.14a7.37 7.37 0 0 1 2.1 5.42c0 2.38-.81 4.32-2.43 5.81-1.6 1.48-3.69 2.22-6.28 2.22Zm11.07-16.27c0-2.13.77-3.88 2.31-5.23a8.8 8.8 0 0 1 6.01-2.05c2.37 0 4.3.62 5.79 1.85a5.76 5.76 0 0 1 2.23 4.67c0 .68-.1 1.33-.31 1.97-.2.62-.52 1.25-.97 1.89-.44.62-.88 1.19-1.33 1.7-.45.5-1.03 1.11-1.75 1.83l-5.5 5.3v.09h10.17v3.75h-16.39v-3.17l8.5-8.19a16.56 16.56 0 0 0 2.35-2.76c.42-.7.64-1.44.64-2.22 0-.86-.34-1.58-1.02-2.16a3.8 3.8 0 0 0-2.56-.88c-1.1 0-2 .35-2.72 1.04a3.36 3.36 0 0 0-1.08 2.57v.08h-4.37v-.08Zm25.21 15.77v-18.22h-.09l-5.75 3.97v-4.25l5.83-4.05h4.69V1098h-4.68Z" class="А-5"/>
      </g>
      <rect width="80" height="155" x="1766" y="1124" fill="#8E96FF" class="Room" rx="12"/>
      <g class="Room">
        <rect width="189" height="250" x="1851" y="1207" fill="#8E96FF" rx="12"/>
        <path fill="#fff" d="m1915.06 1343-1.72-5.47h-7.92l-1.72 5.47h-4.84l7.83-22.55h5.54l7.85 22.55h-5.02Zm-5.73-18.23-2.89 9.23h5.89l-2.89-9.23h-.11Zm22.83 11.06h-10.27v-3.99h10.27v3.99Zm12.22 7.67a9.18 9.18 0 0 1-6-1.94 6.5 6.5 0 0 1-2.47-5.01h4.36c.13.96.58 1.73 1.34 2.33.77.59 1.7.89 2.8.89 1.23 0 2.23-.39 3-1.16a4.1 4.1 0 0 0 1.17-3.02 4.2 4.2 0 0 0-1.16-3.06 3.98 3.98 0 0 0-2.98-1.19c-.86 0-1.63.19-2.33.57-.69.36-1.23.87-1.63 1.51h-4.21l1.11-12.97h14.34v3.75h-10.64l-.52 6.18h.1a4.72 4.72 0 0 1 2-1.82 6.6 6.6 0 0 1 3.01-.65c2.16 0 3.93.71 5.31 2.14a7.37 7.37 0 0 1 2.1 5.42c0 2.38-.81 4.32-2.42 5.81-1.61 1.48-3.7 2.22-6.28 2.22Zm11.06-16.27c0-2.13.77-3.88 2.31-5.23a8.8 8.8 0 0 1 6.02-2.05c2.36 0 4.29.62 5.78 1.85a5.76 5.76 0 0 1 2.23 4.67c0 .68-.1 1.33-.31 1.97-.2.62-.52 1.25-.97 1.89-.44.62-.88 1.19-1.33 1.7-.45.5-1.03 1.11-1.75 1.83l-5.5 5.3v.09h10.17v3.75h-16.39v-3.17l8.5-8.19a16.56 16.56 0 0 0 2.35-2.76c.42-.7.64-1.44.64-2.22 0-.86-.34-1.58-1.02-2.16a3.8 3.8 0 0 0-2.56-.88c-1.09 0-2 .35-2.72 1.04a3.36 3.36 0 0 0-1.08 2.57v.08h-4.37v-.08Zm19.31 0c0-2.13.77-3.88 2.31-5.23a8.8 8.8 0 0 1 6.02-2.05c2.36 0 4.29.62 5.78 1.85a5.76 5.76 0 0 1 2.23 4.67c0 .68-.1 1.33-.31 1.97-.2.62-.52 1.25-.97 1.89a18.6 18.6 0 0 1-1.33 1.7c-.44.5-1.03 1.11-1.75 1.83l-5.5 5.3v.09h10.18v3.75h-16.39v-3.17l8.5-8.19a16.9 16.9 0 0 0 2.34-2.76c.43-.7.64-1.44.64-2.22 0-.86-.34-1.58-1.02-2.16a3.79 3.79 0 0 0-2.56-.88c-1.09 0-2 .35-2.72 1.04a3.36 3.36 0 0 0-1.08 2.57v.08h-4.37v-.08Z" class="А-5"/>
      </g>
      <g class="Room">
        <rect width="181" height="195" x="1851" y="1474" fill="#8E96FF" rx="12"/>
        <path fill="#fff" d="m1910.64 1582.5-1.72-5.47H1901l-1.72 5.47h-4.84l7.83-22.55h5.54l7.85 22.55h-5.02Zm-5.73-18.23-2.89 9.23h5.89l-2.89-9.23h-.11Zm22.82 11.06h-10.26v-3.99h10.26v3.99Zm12.22 7.67a9.22 9.22 0 0 1-6-1.94 6.56 6.56 0 0 1-2.47-5.01h4.36a3.5 3.5 0 0 0 1.35 2.33c.77.59 1.7.89 2.79.89 1.23 0 2.23-.39 3-1.16a4.06 4.06 0 0 0 1.18-3.02 4.2 4.2 0 0 0-1.16-3.06 4 4 0 0 0-2.98-1.19c-.86 0-1.63.19-2.33.57-.69.36-1.23.87-1.63 1.51h-4.22l1.11-12.97h14.35v3.75h-10.64l-.52 6.18h.09a4.84 4.84 0 0 1 2-1.82 6.64 6.64 0 0 1 3.02-.65c2.16 0 3.93.71 5.31 2.14a7.37 7.37 0 0 1 2.1 5.42c0 2.38-.81 4.32-2.43 5.81-1.6 1.48-3.69 2.22-6.28 2.22Zm11.07-16.27c0-2.13.77-3.88 2.31-5.23a8.8 8.8 0 0 1 6.01-2.05c2.37 0 4.3.62 5.78 1.85a5.77 5.77 0 0 1 2.24 4.67c0 .68-.1 1.33-.31 1.97-.2.62-.52 1.25-.97 1.89-.44.62-.88 1.19-1.33 1.7-.45.5-1.03 1.11-1.75 1.83l-5.5 5.3v.09h10.17v3.75h-16.39v-3.17l8.5-8.19a15.92 15.92 0 0 0 2.34-2.76c.43-.7.65-1.44.65-2.22 0-.86-.34-1.58-1.02-2.16a3.8 3.8 0 0 0-2.56-.88c-1.1 0-2 .35-2.72 1.04a3.36 3.36 0 0 0-1.08 2.57v.08h-4.37v-.08Zm25.06 5.93v-3.41h2.73c1.08 0 1.95-.29 2.61-.87.67-.59 1-1.34 1-2.27 0-.93-.32-1.66-.95-2.2a3.94 3.94 0 0 0-2.69-.83c-1.09 0-1.98.3-2.66.89a3.29 3.29 0 0 0-1.1 2.37h-4.35a6.56 6.56 0 0 1 2.39-5.01c1.51-1.25 3.49-1.88 5.92-1.88 2.36 0 4.26.56 5.71 1.66a5.2 5.2 0 0 1 2.19 4.36 5 5 0 0 1-1.29 3.47 5.73 5.73 0 0 1-3.37 1.79v.1c1.7.14 3.04.7 4.03 1.67 1 .96 1.5 2.21 1.5 3.77 0 2.01-.83 3.63-2.48 4.87-1.65 1.24-3.78 1.86-6.39 1.86-2.54 0-4.58-.64-6.15-1.91a6.72 6.72 0 0 1-2.5-5.04h4.52c.07.96.48 1.72 1.22 2.29.75.58 1.74.86 2.97.86a4.5 4.5 0 0 0 2.89-.9 2.86 2.86 0 0 0 1.12-2.33c0-1.03-.36-1.84-1.09-2.42a4.59 4.59 0 0 0-3-.89h-2.78Z" class="А-5"/>
      </g>
      <g class="Room">
        <rect width="104" height="70" x="1928" y="1677" fill="#8E96FF" rx="12"/>
        <path fill="#fff" d="m1949.43 1720.5-1.29-4.1h-5.94l-1.29 4.1h-3.64l5.87-16.91h4.16l5.89 16.91h-3.76Zm-4.31-13.68-2.16 6.93h4.42l-2.17-6.93h-.09Zm17.43 8.3h-7.7v-2.99h7.7v2.99Zm9.46 5.76a6.9 6.9 0 0 1-4.5-1.46 4.88 4.88 0 0 1-1.85-3.76h3.27c.1.72.44 1.3 1.01 1.75.57.44 1.27.66 2.09.66a3 3 0 0 0 2.25-.86c.59-.59.88-1.34.88-2.26 0-.94-.29-1.71-.86-2.3a2.98 2.98 0 0 0-2.24-.89c-.64 0-1.23.14-1.75.42-.51.27-.92.65-1.22 1.14h-3.16l.83-9.73h10.76v2.81h-7.98l-.39 4.63h.07a3.6 3.6 0 0 1 1.5-1.36 4.98 4.98 0 0 1 2.26-.49c1.62 0 2.95.53 3.99 1.61a5.56 5.56 0 0 1 1.57 4.06c0 1.79-.61 3.24-1.82 4.36a6.66 6.66 0 0 1-4.71 1.67Zm8.6-12.2a5 5 0 0 1 1.73-3.93 6.61 6.61 0 0 1 4.51-1.54 6.6 6.6 0 0 1 4.34 1.39 4.3 4.3 0 0 1 1.67 3.5c0 .51-.07 1-.23 1.48-.15.47-.39.94-.73 1.42-.32.46-.66.89-.99 1.27-.34.38-.78.84-1.31 1.37l-4.13 3.98v.07h7.63v2.81h-12.29v-2.38l6.37-6.14c.86-.86 1.45-1.55 1.76-2.07.32-.53.48-1.08.48-1.67 0-.64-.25-1.18-.76-1.62a2.88 2.88 0 0 0-1.92-.65c-.82 0-1.5.26-2.04.77a2.54 2.54 0 0 0-.81 1.94v.05h-3.28v-.05Zm19.09 4.44v-2.56h2.05a2.9 2.9 0 0 0 1.96-.65c.5-.44.75-1.01.75-1.7 0-.7-.24-1.25-.71-1.66a3.01 3.01 0 0 0-2.02-.62c-.82 0-1.48.23-1.99.67a2.45 2.45 0 0 0-.83 1.78h-3.26a4.9 4.9 0 0 1 1.79-3.76 6.75 6.75 0 0 1 4.44-1.41c1.77 0 3.2.42 4.28 1.25a3.92 3.92 0 0 1 1.64 3.27c0 1.02-.32 1.89-.96 2.6a4.32 4.32 0 0 1-2.53 1.35v.07c1.27.11 2.28.52 3.02 1.25a3.74 3.74 0 0 1 1.13 2.82c0 1.51-.62 2.73-1.87 3.66a7.74 7.74 0 0 1-4.79 1.4c-1.9 0-3.43-.48-4.6-1.43a5.05 5.05 0 0 1-1.88-3.79h3.39c.05.72.36 1.29.91 1.72.56.43 1.31.65 2.23.65.88 0 1.6-.23 2.17-.68.56-.46.84-1.04.84-1.75 0-.77-.27-1.38-.82-1.81a3.45 3.45 0 0 0-2.25-.67h-2.09Zm16.19 5.11c.76 0 1.4-.22 1.93-.66.53-.45.79-1 .79-1.68v-.91l-2.65.16c-.64.05-1.13.21-1.48.48-.35.28-.52.64-.52 1.08 0 .47.18.84.53 1.12.35.27.82.41 1.4.41Zm-1.12 2.47a4.35 4.35 0 0 1-3.01-1.07 3.5 3.5 0 0 1-1.2-2.74c0-1.14.42-2.03 1.27-2.68a6.53 6.53 0 0 1 3.62-1.12l3.16-.18v-.84c0-.57-.19-1.03-.57-1.36a2.31 2.31 0 0 0-1.54-.49 2.6 2.6 0 0 0-1.53.42c-.39.29-.63.66-.72 1.14h-3.13a3.83 3.83 0 0 1 1.59-2.98 6.39 6.39 0 0 1 3.95-1.13c1.61 0 2.89.38 3.86 1.15a3.68 3.68 0 0 1 1.46 3.04v8.64h-3.31v-1.92h-.07a3.8 3.8 0 0 1-1.57 1.56c-.7.37-1.46.56-2.26.56Z" class="А-5"/>
      </g>
      <g class="Room">
        <rect width="134" height="65" x="1898" y="1755" fill="#8E96FF" rx="12"/>
        <path fill="#fff" d="m1925.14 1798.5-1.72-5.47h-7.92l-1.72 5.47h-4.84l7.83-22.55h5.54l7.85 22.55h-5.02Zm-5.73-18.23-2.89 9.23h5.89l-2.89-9.23h-.11Zm22.82 11.06h-10.26v-3.99h10.26v3.99Zm12.22 7.67a9.22 9.22 0 0 1-6-1.94 6.56 6.56 0 0 1-2.47-5.01h4.36a3.5 3.5 0 0 0 1.35 2.33c.77.59 1.7.89 2.79.89 1.23 0 2.23-.39 3-1.16a4.06 4.06 0 0 0 1.18-3.02 4.2 4.2 0 0 0-1.16-3.06 4 4 0 0 0-2.98-1.19c-.86 0-1.63.19-2.33.57-.69.36-1.23.87-1.63 1.51h-4.22l1.11-12.97h14.35v3.75h-10.64l-.52 6.18h.09a4.84 4.84 0 0 1 2-1.82 6.64 6.64 0 0 1 3.02-.65c2.16 0 3.93.71 5.31 2.14a7.37 7.37 0 0 1 2.1 5.42c0 2.38-.81 4.32-2.43 5.81-1.6 1.48-3.69 2.22-6.28 2.22Zm11.07-16.27c0-2.13.77-3.88 2.31-5.23a8.8 8.8 0 0 1 6.01-2.05c2.37 0 4.3.62 5.78 1.85a5.77 5.77 0 0 1 2.24 4.67c0 .68-.1 1.33-.31 1.97-.2.62-.52 1.25-.97 1.89-.44.62-.88 1.19-1.33 1.7-.45.5-1.03 1.11-1.75 1.83l-5.5 5.3v.09h10.17v3.75h-16.39v-3.17l8.5-8.19a15.92 15.92 0 0 0 2.34-2.76c.43-.7.65-1.44.65-2.22 0-.86-.34-1.58-1.02-2.16a3.8 3.8 0 0 0-2.56-.88c-1.1 0-2 .35-2.72 1.04a3.36 3.36 0 0 0-1.08 2.57v.08h-4.37v-.08Zm29.92 15.77v-4.02h-11.22v-4.01c1.83-3.5 4.85-8.34 9.05-14.52h6.65v14.75h2.94v3.78h-2.94v4.02h-4.48Zm-7.08-7.78v.12h7.17v-11.54h-.09a167.6 167.6 0 0 0-4.19 6.36 70.21 70.21 0 0 0-2.89 5.06Zm23.59 4.75c1.01 0 1.87-.29 2.57-.88a2.8 2.8 0 0 0 1.06-2.23v-1.22l-3.53.22c-.86.06-1.52.28-1.99.64-.46.36-.68.84-.68 1.44 0 .62.23 1.12.7 1.48.47.37 1.09.55 1.87.55Zm-1.5 3.3a5.8 5.8 0 0 1-4.01-1.43 4.67 4.67 0 0 1-1.6-3.65c0-1.52.57-2.72 1.69-3.58 1.13-.87 2.74-1.36 4.83-1.49l4.22-.24v-1.11c0-.78-.26-1.38-.77-1.82a3.03 3.03 0 0 0-2.04-.65c-.84 0-1.52.18-2.05.56-.52.37-.84.88-.95 1.52h-4.18a5.1 5.1 0 0 1 2.11-3.97c1.33-1.01 3.08-1.52 5.27-1.52 2.14 0 3.86.51 5.15 1.53a4.9 4.9 0 0 1 1.94 4.06v11.52h-4.4v-2.56h-.1a4.99 4.99 0 0 1-2.09 2.08c-.94.5-1.94.75-3.02.75Z" class="А-5"/>
      </g>
      <g class="Room">
        <rect width="134" height="218" x="1898" y="1828" fill="#8E96FF" rx="12"/>
        <path fill="#fff" d="m1924.59 1948-1.71-5.47h-7.93l-1.72 5.47h-4.84l7.83-22.55h5.55l7.84 22.55h-5.02Zm-5.73-18.23-2.89 9.23h5.89l-2.89-9.23h-.11Zm22.83 11.06h-10.27v-3.99h10.27v3.99Zm12.22 7.67a9.18 9.18 0 0 1-6-1.94 6.5 6.5 0 0 1-2.47-5.01h4.36c.13.96.58 1.73 1.34 2.33.77.59 1.7.89 2.8.89 1.23 0 2.23-.39 3-1.16a4.1 4.1 0 0 0 1.17-3.02 4.2 4.2 0 0 0-1.16-3.06 3.98 3.98 0 0 0-2.98-1.19c-.86 0-1.63.19-2.33.57-.69.36-1.23.87-1.62 1.51h-4.22l1.11-12.97h14.34v3.75h-10.64l-.52 6.18h.1a4.78 4.78 0 0 1 2-1.82 6.6 6.6 0 0 1 3.01-.65c2.16 0 3.93.71 5.32 2.14a7.4 7.4 0 0 1 2.09 5.42c0 2.38-.81 4.32-2.42 5.81-1.61 1.48-3.7 2.22-6.28 2.22Zm11.06-16.27c0-2.13.77-3.88 2.31-5.23a8.8 8.8 0 0 1 6.02-2.05c2.36 0 4.29.62 5.78 1.85a5.76 5.76 0 0 1 2.23 4.67c0 .68-.1 1.33-.31 1.97-.2.62-.52 1.25-.97 1.89-.44.62-.88 1.19-1.33 1.7-.44.5-1.03 1.11-1.75 1.83l-5.5 5.3v.09h10.17v3.75h-16.39v-3.17l8.5-8.19a16.56 16.56 0 0 0 2.35-2.76c.43-.7.64-1.44.64-2.22 0-.86-.34-1.58-1.02-2.16a3.79 3.79 0 0 0-2.56-.88c-1.09 0-2 .35-2.72 1.04a3.36 3.36 0 0 0-1.08 2.57v.08h-4.37v-.08Zm29.92 15.77v-4.02h-11.22v-4.01c1.84-3.5 4.85-8.34 9.05-14.52h6.66v14.75h2.93v3.78h-2.93v4.02h-4.49Zm-7.08-7.78v.12h7.17v-11.54h-.09a180.85 180.85 0 0 0-4.19 6.36 74.2 74.2 0 0 0-2.89 5.06Zm25.08 8.14c-2.72 0-4.81-.84-6.28-2.53-1.46-1.7-2.19-4.17-2.19-7.42 0-3.11.36-5.63 1.06-7.58.72-1.95 1.75-3.37 3.1-4.25a9.65 9.65 0 0 1 5.14-1.42l1.95-.05c.98-.03 1.89-.12 2.74-.27a6.47 6.47 0 0 0 1.67-.42v3.53c-.15.14-.61.28-1.39.44-.78.16-1.7.25-2.74.28l-1.84.06c-2.02.07-3.49.59-4.39 1.58-.91.98-1.5 2.57-1.78 4.77h.12c1.09-2.11 2.97-3.16 5.66-3.16 2.26 0 4.07.72 5.42 2.16 1.35 1.43 2.03 3.35 2.03 5.78 0 2.63-.74 4.71-2.23 6.23-1.48 1.51-3.5 2.27-6.05 2.27Zm-.08-3.59c1.17 0 2.08-.42 2.72-1.25.65-.84.97-2.02.97-3.55 0-1.47-.33-2.61-.98-3.42a3.24 3.24 0 0 0-2.71-1.24c-1.16 0-2.08.41-2.73 1.24a5.28 5.28 0 0 0-.99 3.42c0 1.53.33 2.71.97 3.55a3.33 3.33 0 0 0 2.75 1.25Z" class="А-5"/>
      </g>
      <g class="Room">
        <rect width="255" height="173" x="1777" y="2066" fill="#8E96FF" rx="12"/>
        <path fill="#fff" d="m1873.72 2163.5-1.72-5.47h-7.92l-1.72 5.47h-4.84l7.82-22.55h5.55l7.84 22.55h-5.01Zm-5.74-18.23-2.89 9.23h5.89l-2.89-9.23h-.11Zm22.83 11.06h-10.26v-3.99h10.26v3.99Zm12.22 7.67a9.18 9.18 0 0 1-6-1.94 6.56 6.56 0 0 1-2.47-5.01h4.36a3.5 3.5 0 0 0 1.35 2.33c.77.59 1.7.89 2.79.89 1.23 0 2.23-.39 3-1.16a4.1 4.1 0 0 0 1.17-3.02 4 4 0 0 0-4.14-4.25c-.85 0-1.63.19-2.32.57-.69.36-1.23.87-1.63 1.51h-4.22l1.11-12.97h14.35v3.75h-10.65l-.51 6.18h.09a4.84 4.84 0 0 1 2-1.82 6.64 6.64 0 0 1 3.02-.65c2.15 0 3.93.71 5.31 2.14a7.36 7.36 0 0 1 2.09 5.42c0 2.38-.8 4.32-2.42 5.81-1.6 1.48-3.7 2.22-6.28 2.22Zm11.06-16.27c0-2.13.77-3.88 2.32-5.23a8.78 8.78 0 0 1 6.01-2.05c2.37 0 4.29.62 5.78 1.85a5.77 5.77 0 0 1 2.24 4.67c0 .68-.11 1.33-.32 1.97a7.03 7.03 0 0 1-.96 1.89c-.44.62-.88 1.19-1.33 1.7-.45.5-1.03 1.11-1.75 1.83l-5.5 5.3v.09h10.17v3.75h-16.39v-3.17l8.5-8.19a15.92 15.92 0 0 0 2.34-2.76c.43-.7.64-1.44.64-2.22 0-.86-.33-1.58-1.01-2.16a3.8 3.8 0 0 0-2.56-.88c-1.1 0-2 .35-2.72 1.04a3.36 3.36 0 0 0-1.08 2.57v.08h-4.38v-.08Zm28.25 16.27a9.22 9.22 0 0 1-6-1.94 6.52 6.52 0 0 1-2.46-5.01h4.35a3.5 3.5 0 0 0 1.35 2.33c.77.59 1.7.89 2.8.89a4.1 4.1 0 0 0 3-1.16 4.1 4.1 0 0 0 1.17-3.02 4.2 4.2 0 0 0-1.16-3.06 4 4 0 0 0-2.98-1.19c-.86 0-1.63.19-2.33.57-.69.36-1.23.87-1.63 1.51h-4.22l1.11-12.97h14.35v3.75h-10.64l-.52 6.18h.09a4.84 4.84 0 0 1 2-1.82 6.67 6.67 0 0 1 3.02-.65c2.16 0 3.93.71 5.31 2.14a7.37 7.37 0 0 1 2.1 5.42c0 2.38-.81 4.32-2.43 5.81-1.6 1.48-3.69 2.22-6.28 2.22Z" class="А-5"/>
      </g>
      <g class="Room">
        <rect width="73" height="99" x="1777" y="2247" fill="#8E96FF" rx="12"/>
        <path fill="#fff" d="m1788.35 2304-1.07-3.42h-4.95l-1.08 3.42h-3.02l4.89-14.09h3.47l4.9 14.09h-3.14Zm-3.58-11.4-1.81 5.78h3.68l-1.8-5.78h-.07Zm14.27 6.92h-6.42v-2.49h6.42v2.49Zm7.63 4.79c-1.51 0-2.76-.4-3.75-1.21a4.1 4.1 0 0 1-1.54-3.13h2.73c.08.6.36 1.08.84 1.45.48.37 1.06.56 1.74.56.77 0 1.4-.24 1.88-.72.49-.49.73-1.12.73-1.89 0-.78-.24-1.42-.72-1.91a2.49 2.49 0 0 0-1.87-.75 2.94 2.94 0 0 0-2.47 1.3h-2.63l.69-8.1h8.96v2.34h-6.65l-.32 3.86h.06c.29-.48.71-.86 1.25-1.13a4.06 4.06 0 0 1 1.88-.41c1.35 0 2.46.44 3.32 1.33a4.61 4.61 0 0 1 1.31 3.39c0 1.49-.5 2.7-1.51 3.64a5.58 5.58 0 0 1-3.93 1.38Zm6.92-10.16c0-1.34.48-2.43 1.44-3.27a5.46 5.46 0 0 1 3.76-1.28 5.5 5.5 0 0 1 3.62 1.15 3.6 3.6 0 0 1 1.39 2.92 3.95 3.95 0 0 1-.8 2.41c-.27.39-.55.75-.83 1.06-.28.32-.64.7-1.09 1.15l-3.44 3.31v.06h6.36v2.34h-10.25v-1.98l5.32-5.12a10.2 10.2 0 0 0 1.46-1.73c.27-.43.4-.9.4-1.38 0-.54-.21-.99-.63-1.35a2.36 2.36 0 0 0-1.6-.55c-.69 0-1.25.22-1.7.65-.45.42-.68.96-.68 1.61v.05h-2.73v-.05Zm17.65 10.16c-1.51 0-2.76-.4-3.75-1.21a4.1 4.1 0 0 1-1.54-3.13h2.73c.08.6.36 1.08.84 1.45.48.37 1.06.56 1.74.56.77 0 1.4-.24 1.88-.72.49-.49.73-1.12.73-1.89 0-.78-.24-1.42-.72-1.91a2.49 2.49 0 0 0-1.87-.75 2.94 2.94 0 0 0-2.47 1.3h-2.63l.69-8.1h8.96v2.34h-6.65l-.32 3.86h.06c.29-.48.71-.86 1.25-1.13a4.1 4.1 0 0 1 1.88-.41c1.35 0 2.46.44 3.33 1.33.87.89 1.3 2.02 1.3 3.39 0 1.49-.5 2.7-1.51 3.64a5.58 5.58 0 0 1-3.93 1.38Zm12.08-.09c-1.7 0-3-.52-3.92-1.58-.91-1.06-1.37-2.6-1.37-4.64 0-1.94.22-3.51.67-4.73a5.13 5.13 0 0 1 1.93-2.66 6.1 6.1 0 0 1 3.21-.89l1.22-.03c.61-.02 1.18-.07 1.71-.16.54-.09.88-.18 1.05-.27v2.21c-.09.09-.38.18-.87.27-.49.1-1.06.16-1.71.18l-1.15.04c-1.27.04-2.18.37-2.75.99-.56.61-.94 1.6-1.11 2.97h.08c.67-1.31 1.85-1.97 3.53-1.97 1.41 0 2.54.45 3.39 1.35.85.89 1.27 2.1 1.27 3.61 0 1.65-.47 2.95-1.4 3.9a5.05 5.05 0 0 1-3.78 1.41Zm-.04-2.24c.72 0 1.29-.26 1.69-.78.41-.52.61-1.26.61-2.22 0-.92-.2-1.63-.62-2.14-.4-.51-.96-.77-1.68-.77-.73 0-1.3.26-1.71.77a3.33 3.33 0 0 0-.62 2.14c0 .96.2 1.7.61 2.22.41.52.98.78 1.72.78Z" class="А-5"/>
      </g>
      <g class="Room">
        <rect width="174" height="99" x="1858" y="2247" fill="#8E96FF" rx="12"/>
        <path fill="#fff" d="m1905.31 2307.5-1.72-5.47h-7.92l-1.72 5.47h-4.84l7.83-22.55h5.54l7.85 22.55h-5.02Zm-5.73-18.23-2.89 9.23h5.89l-2.89-9.23h-.11Zm22.83 11.06h-10.27v-3.99h10.27v3.99Zm12.21 7.67a9.22 9.22 0 0 1-6-1.94 6.52 6.52 0 0 1-2.46-5.01h4.36c.13.96.58 1.73 1.34 2.33.77.59 1.7.89 2.8.89 1.23 0 2.23-.39 3-1.16a4.1 4.1 0 0 0 1.17-3.02 4.2 4.2 0 0 0-1.16-3.06 3.98 3.98 0 0 0-2.98-1.19c-.86 0-1.63.19-2.33.57-.69.36-1.23.87-1.63 1.51h-4.21l1.1-12.97h14.35v3.75h-10.64l-.52 6.18h.1a4.78 4.78 0 0 1 2-1.82 6.6 6.6 0 0 1 3.01-.65c2.16 0 3.93.71 5.31 2.14a7.37 7.37 0 0 1 2.1 5.42c0 2.38-.81 4.32-2.42 5.81-1.61 1.48-3.7 2.22-6.29 2.22Zm11.07-16.27c0-2.13.77-3.88 2.31-5.23a8.8 8.8 0 0 1 6.02-2.05c2.36 0 4.29.62 5.78 1.85a5.76 5.76 0 0 1 2.23 4.67c0 .68-.1 1.33-.31 1.97-.2.62-.52 1.25-.97 1.89-.44.62-.88 1.19-1.33 1.7-.45.5-1.03 1.11-1.75 1.83l-5.5 5.3v.09h10.17v3.75h-16.39v-3.17l8.5-8.19a16.56 16.56 0 0 0 2.35-2.76c.42-.7.64-1.44.64-2.22 0-.86-.34-1.58-1.02-2.16a3.8 3.8 0 0 0-2.56-.88c-1.09 0-2 .35-2.72 1.04a3.36 3.36 0 0 0-1.08 2.57v.08h-4.37v-.08Zm28.25 16.27a9.18 9.18 0 0 1-6-1.94 6.5 6.5 0 0 1-2.47-5.01h4.36c.13.96.58 1.73 1.34 2.33.77.59 1.71.89 2.8.89 1.23 0 2.23-.39 3-1.16a4.1 4.1 0 0 0 1.17-3.02c0-1.25-.38-2.27-1.16-3.06a3.98 3.98 0 0 0-2.98-1.19c-.85 0-1.63.19-2.33.57-.69.36-1.23.87-1.62 1.51h-4.22l1.11-12.97h14.34v3.75h-10.64l-.52 6.18h.1a4.78 4.78 0 0 1 2-1.82 6.6 6.6 0 0 1 3.01-.65c2.16 0 3.93.71 5.32 2.14a7.4 7.4 0 0 1 2.09 5.42c0 2.38-.81 4.32-2.42 5.81-1.61 1.48-3.7 2.22-6.28 2.22Zm17.84-3.53c1.01 0 1.87-.29 2.56-.88a2.78 2.78 0 0 0 1.07-2.23v-1.22l-3.53.22c-.86.06-1.52.28-1.99.64-.46.36-.69.84-.69 1.44 0 .62.24 1.12.71 1.48.47.37 1.09.55 1.87.55Zm-1.5 3.3a5.8 5.8 0 0 1-4.01-1.43 4.63 4.63 0 0 1-1.6-3.65c0-1.52.56-2.72 1.69-3.58 1.12-.87 2.73-1.36 4.83-1.49l4.22-.24v-1.11c0-.78-.26-1.38-.77-1.82a3.04 3.04 0 0 0-2.05-.65c-.83 0-1.51.18-2.04.56-.52.37-.84.88-.96 1.52h-4.17a5.1 5.1 0 0 1 2.11-3.97c1.32-1.01 3.08-1.52 5.27-1.52 2.14 0 3.86.51 5.15 1.53a4.93 4.93 0 0 1 1.94 4.06v11.52h-4.41v-2.56h-.09a5.05 5.05 0 0 1-2.09 2.08c-.94.5-1.95.75-3.02.75Z" class="А-5"/>
      </g>
      <g class="Room">
        <rect width="192" height="294" x="3499" y="2052" fill="#8E96FF" rx="12"/>
        <path fill="#fff" d="m3563.16 2210-1.72-5.47h-7.92l-1.72 5.47h-4.85l7.83-22.55h5.55l7.84 22.55h-5.01Zm-5.74-18.23-2.89 9.23h5.89l-2.89-9.23h-.11Zm22.83 11.06h-10.27v-3.99h10.27v3.99Zm12.22 7.67a9.18 9.18 0 0 1-6-1.94 6.53 6.53 0 0 1-2.47-5.01h4.36c.13.96.58 1.73 1.34 2.33.77.59 1.71.89 2.8.89 1.23 0 2.23-.39 3-1.16a4.1 4.1 0 0 0 1.17-3.02 4.2 4.2 0 0 0-1.15-3.06 4.02 4.02 0 0 0-2.99-1.19c-.85 0-1.63.19-2.33.57-.68.36-1.23.87-1.62 1.51h-4.22l1.11-12.97h14.34v3.75h-10.64l-.51 6.18h.09a4.84 4.84 0 0 1 2-1.82 6.61 6.61 0 0 1 3.02-.65c2.15 0 3.92.71 5.31 2.14a7.4 7.4 0 0 1 2.09 5.42c0 2.38-.81 4.32-2.42 5.81-1.6 1.48-3.7 2.22-6.28 2.22Zm26.83-3.17a7.95 7.95 0 0 1-6.68 3.17 7.96 7.96 0 0 1-6.68-3.16c-1.63-2.11-2.44-5-2.44-8.65 0-3.64.81-6.5 2.44-8.6a8 8 0 0 1 6.68-3.15 7.98 7.98 0 0 1 6.68 3.14c1.62 2.09 2.43 4.96 2.43 8.59 0 3.65-.81 6.53-2.43 8.66Zm-9.86-2.72c.77 1.41 1.83 2.11 3.18 2.11 1.36 0 2.42-.7 3.18-2.1.76-1.4 1.14-3.38 1.14-5.93 0-2.53-.39-4.49-1.16-5.88-.76-1.39-1.81-2.09-3.16-2.09-1.34 0-2.4.7-3.17 2.09-.77 1.4-1.15 3.36-1.15 5.88 0 2.54.38 4.51 1.14 5.92Zm24.29 5.91a8.92 8.92 0 0 1-4.37-1.07 8.3 8.3 0 0 1-3.11-3.09c-1.26-1.93-1.89-4.41-1.89-7.45 0-3.72.84-6.64 2.53-8.77s4-3.2 6.92-3.2c2.15 0 3.99.58 5.52 1.73a6.92 6.92 0 0 1 2.76 4.5h-4.64a3.31 3.31 0 0 0-1.34-1.81 4 4 0 0 0-2.33-.69c-1.58 0-2.82.72-3.7 2.16-.88 1.44-1.29 3.42-1.24 5.95h.1c.46-1.11 1.22-2 2.28-2.67 1.06-.67 2.3-1 3.72-1a7.24 7.24 0 0 1 7.45 7.44c0 2.32-.81 4.23-2.44 5.73a8.83 8.83 0 0 1-6.22 2.24Zm-.04-3.77c1.14 0 2.11-.39 2.9-1.17a3.89 3.89 0 0 0 1.21-2.89 3.98 3.98 0 0 0-4.1-4.03 4.1 4.1 0 0 0-2.95 1.14 3.8 3.8 0 0 0-1.17 2.84c0 1.15.39 2.12 1.19 2.92a3.97 3.97 0 0 0 2.92 1.19Z" class="А-5"/>
      </g>
      <g class="Room">
        <rect width="96" height="107" x="3699" y="2239" fill="#8E96FF" rx="12"/>
        <path fill="#fff" d="m3722.41 2301-1.29-4.1h-5.94l-1.29 4.1h-3.63l5.87-16.91h4.16l5.88 16.91h-3.76Zm-4.3-13.68-2.17 6.93h4.42l-2.17-6.93h-.08Zm17.42 8.3h-7.7v-2.99h7.7v2.99Zm9.47 5.76a6.86 6.86 0 0 1-4.5-1.46 4.92 4.92 0 0 1-1.86-3.76h3.27c.11.72.44 1.3 1.01 1.75.58.44 1.28.66 2.1.66.92 0 1.67-.28 2.25-.86.59-.59.88-1.34.88-2.26 0-.94-.29-1.71-.87-2.3a2.96 2.96 0 0 0-2.24-.89c-.64 0-1.22.14-1.74.42-.52.27-.92.65-1.22 1.14h-3.17l.84-9.73h10.75v2.81h-7.98l-.38 4.63h.07a3.6 3.6 0 0 1 1.5-1.36 4.95 4.95 0 0 1 2.26-.49c1.62 0 2.94.53 3.98 1.61a5.52 5.52 0 0 1 1.57 4.06c0 1.79-.6 3.24-1.81 4.36a6.7 6.7 0 0 1-4.71 1.67Zm20.42-2.38a5.97 5.97 0 0 1-5.01 2.38 5.99 5.99 0 0 1-5.01-2.37c-1.22-1.59-1.83-3.75-1.83-6.49 0-2.73.61-4.88 1.83-6.45a6 6 0 0 1 5.01-2.37 6 6 0 0 1 5.01 2.36c1.22 1.57 1.83 3.72 1.83 6.44 0 2.74-.61 4.9-1.83 6.5Zm-7.4-2.04c.58 1.05 1.38 1.58 2.39 1.58 1.02 0 1.81-.52 2.38-1.57.57-1.06.86-2.54.86-4.45 0-1.9-.29-3.37-.87-4.41-.57-1.05-1.36-1.57-2.37-1.57-1 0-1.8.52-2.38 1.57-.57 1.05-.86 2.51-.86 4.41 0 1.9.28 3.38.85 4.44Zm18.34 4.42c-2.05 0-3.71-.46-4.97-1.38a4.24 4.24 0 0 1-1.89-3.58c0-1.11.37-2.06 1.1-2.85a4.9 4.9 0 0 1 2.88-1.49v-.07a4.39 4.39 0 0 1-2.4-1.38 3.8 3.8 0 0 1 .84-5.65 7.34 7.34 0 0 1 4.44-1.27c1.81 0 3.29.43 4.44 1.27a3.82 3.82 0 0 1 .82 5.64 4.37 4.37 0 0 1-2.38 1.39v.07a4.9 4.9 0 0 1 2.87 1.5c.74.79 1.1 1.74 1.1 2.85 0 1.47-.63 2.66-1.91 3.57a8.19 8.19 0 0 1-4.94 1.38Zm-2.29-3.32c.6.49 1.36.74 2.29.74a3.4 3.4 0 0 0 2.27-.74c.59-.5.88-1.13.88-1.9s-.29-1.39-.88-1.89a3.36 3.36 0 0 0-2.27-.75c-.93 0-1.69.25-2.29.75-.58.5-.88 1.12-.88 1.89 0 .77.3 1.4.88 1.9Zm.37-7.77c.5.44 1.14.66 1.92.66a2.8 2.8 0 0 0 1.92-.66c.5-.45.75-1 .75-1.68 0-.68-.25-1.23-.75-1.67a2.76 2.76 0 0 0-1.92-.67c-.78 0-1.42.22-1.92.67-.5.44-.75.99-.75 1.67 0 .68.25 1.24.75 1.68Z" class="А-5"/>
      </g>
      <g class="Room">
        <rect width="96" height="179" x="3699" y="2052" fill="#8E96FF" rx="12"/>
        <path fill="#fff" d="m3723.58 2150-1.29-4.1h-5.94l-1.29 4.1h-3.63l5.87-16.91h4.16l5.89 16.91h-3.77Zm-4.3-13.68-2.17 6.93h4.42l-2.17-6.93h-.08Zm17.42 8.3h-7.7v-2.99h7.7v2.99Zm9.47 5.76a6.9 6.9 0 0 1-4.5-1.46 4.88 4.88 0 0 1-1.85-3.76h3.27c.1.72.43 1.3 1 1.75.58.44 1.28.66 2.1.66.92 0 1.67-.28 2.25-.86.59-.59.88-1.34.88-2.26 0-.94-.29-1.71-.87-2.3a2.95 2.95 0 0 0-2.24-.89c-.64 0-1.22.14-1.74.42-.52.27-.92.65-1.22 1.14h-3.16l.83-9.73h10.76v2.81h-7.98l-.39 4.63h.07a3.6 3.6 0 0 1 1.5-1.36 4.98 4.98 0 0 1 2.26-.49c1.62 0 2.95.53 3.99 1.61a5.56 5.56 0 0 1 1.57 4.06c0 1.79-.61 3.24-1.82 4.36a6.66 6.66 0 0 1-4.71 1.67Zm20.42-2.38a5.96 5.96 0 0 1-5 2.38 6 6 0 0 1-5.02-2.37c-1.22-1.59-1.83-3.75-1.83-6.49 0-2.73.61-4.88 1.83-6.45a6.02 6.02 0 0 1 5.02-2.37 6 6 0 0 1 5 2.36c1.22 1.57 1.83 3.72 1.83 6.44 0 2.74-.61 4.9-1.83 6.5Zm-7.4-2.04c.58 1.05 1.38 1.58 2.4 1.58 1.01 0 1.8-.52 2.37-1.57.57-1.06.86-2.54.86-4.45 0-1.9-.29-3.37-.87-4.41-.57-1.05-1.36-1.57-2.36-1.57-1.01 0-1.81.52-2.38 1.57-.58 1.05-.87 2.51-.87 4.41 0 1.9.28 3.38.85 4.44Zm12.16 4.04 7.28-14.03v-.07h-8.6v-2.81h12.09v2.85l-7.05 14.06h-3.72Z" class="А-5"/>
      </g>
      <g class="Room">
        <rect width="158" height="179" x="3637" y="1846" fill="#8E96FF" rx="12"/>
        <path fill="#fff" d="m3675.62 1946.5-1.71-5.47h-7.93l-1.71 5.47h-4.85l7.83-22.55h5.55l7.84 22.55h-5.02Zm-5.73-18.23-2.89 9.23h5.89l-2.89-9.23h-.11Zm22.83 11.06h-10.27v-3.99h10.27v3.99Zm12.22 7.67a9.18 9.18 0 0 1-6-1.94 6.5 6.5 0 0 1-2.47-5.01h4.36c.13.96.58 1.73 1.34 2.33.77.59 1.71.89 2.8.89 1.23 0 2.23-.39 3-1.16a4.1 4.1 0 0 0 1.17-3.02c0-1.25-.38-2.27-1.16-3.06a3.98 3.98 0 0 0-2.98-1.19c-.85 0-1.63.19-2.33.57-.69.36-1.23.87-1.62 1.51h-4.22l1.11-12.97h14.34v3.75h-10.64l-.52 6.18h.1a4.78 4.78 0 0 1 2-1.82 6.6 6.6 0 0 1 3.01-.65c2.16 0 3.93.71 5.32 2.14a7.4 7.4 0 0 1 2.09 5.42c0 2.38-.81 4.32-2.42 5.81-1.61 1.48-3.7 2.22-6.28 2.22Zm26.83-3.17a7.95 7.95 0 0 1-6.68 3.17 7.96 7.96 0 0 1-6.68-3.16c-1.63-2.11-2.44-5-2.44-8.65 0-3.64.81-6.5 2.44-8.6a8 8 0 0 1 6.68-3.15 7.98 7.98 0 0 1 6.68 3.14c1.62 2.09 2.43 4.96 2.43 8.59 0 3.65-.81 6.53-2.43 8.66Zm-9.86-2.72c.77 1.41 1.83 2.11 3.18 2.11 1.36 0 2.42-.7 3.18-2.1.76-1.4 1.14-3.38 1.14-5.93 0-2.53-.39-4.49-1.16-5.88-.76-1.39-1.81-2.09-3.16-2.09-1.34 0-2.4.7-3.17 2.09-.77 1.4-1.15 3.36-1.15 5.88 0 2.54.38 4.51 1.14 5.92Zm23.71 5.89a9.22 9.22 0 0 1-6-1.94 6.52 6.52 0 0 1-2.46-5.01h4.36c.13.96.58 1.73 1.34 2.33.77.59 1.7.89 2.8.89 1.23 0 2.23-.39 3-1.16a4.1 4.1 0 0 0 1.17-3.02 4.2 4.2 0 0 0-1.16-3.06 3.98 3.98 0 0 0-2.98-1.19c-.86 0-1.63.19-2.33.57-.69.36-1.23.87-1.63 1.51h-4.21l1.1-12.97h14.35v3.75h-10.64l-.52 6.18h.1a4.78 4.78 0 0 1 2-1.82 6.6 6.6 0 0 1 3.01-.65c2.16 0 3.93.71 5.31 2.14a7.37 7.37 0 0 1 2.1 5.42c0 2.38-.81 4.32-2.42 5.81-1.61 1.48-3.7 2.22-6.29 2.22Zm17.85-3.53c1.01 0 1.86-.29 2.56-.88a2.77 2.77 0 0 0 1.06-2.23v-1.22l-3.53.22c-.85.06-1.51.28-1.98.64-.46.36-.69.84-.69 1.44 0 .62.23 1.12.7 1.48.47.37 1.1.55 1.88.55Zm-1.5 3.3a5.82 5.82 0 0 1-4.02-1.43 4.66 4.66 0 0 1-1.59-3.65c0-1.52.56-2.72 1.69-3.58 1.12-.87 2.73-1.36 4.83-1.49l4.21-.24v-1.11c0-.78-.25-1.38-.76-1.82a3.04 3.04 0 0 0-2.05-.65c-.83 0-1.51.18-2.05.56-.52.37-.83.88-.95 1.52h-4.17a5.08 5.08 0 0 1 2.11-3.97c1.32-1.01 3.08-1.52 5.26-1.52 2.15 0 3.87.51 5.16 1.53a4.93 4.93 0 0 1 1.94 4.06v11.52h-4.41v-2.56h-.09a5.02 5.02 0 0 1-2.1 2.08c-.93.5-1.94.75-3.01.75Z" class="А-5"/>
      </g>
      <rect width="133" height="466" x="3496" y="1559" fill="#8E96FF" class="Room" rx="12"/>
      <g class="Room">
        <rect width="192" height="279" x="3603" y="1559" fill="#8E96FF" rx="12"/>
        <path fill="#fff" d="m3667.53 1709.5-1.72-5.47h-7.92l-1.72 5.47h-4.84l7.83-22.55h5.54l7.85 22.55h-5.02Zm-5.73-18.23-2.89 9.23h5.89l-2.89-9.23h-.11Zm22.82 11.06h-10.26v-3.99h10.26v3.99Zm12.22 7.67a9.22 9.22 0 0 1-6-1.94 6.52 6.52 0 0 1-2.46-5.01h4.35a3.5 3.5 0 0 0 1.35 2.33c.77.59 1.7.89 2.8.89a4.1 4.1 0 0 0 3-1.16 4.1 4.1 0 0 0 1.17-3.02 4.2 4.2 0 0 0-1.16-3.06 4 4 0 0 0-2.98-1.19c-.86 0-1.63.19-2.33.57-.69.36-1.23.87-1.63 1.51h-4.22l1.11-12.97h14.35v3.75h-10.64l-.52 6.18h.09a4.84 4.84 0 0 1 2-1.82 6.67 6.67 0 0 1 3.02-.65c2.16 0 3.93.71 5.31 2.14a7.37 7.37 0 0 1 2.1 5.42c0 2.38-.81 4.32-2.43 5.81-1.6 1.48-3.69 2.22-6.28 2.22Zm26.83-3.17a7.94 7.94 0 0 1-6.67 3.17 7.99 7.99 0 0 1-6.69-3.16c-1.62-2.11-2.43-5-2.43-8.65 0-3.64.81-6.5 2.43-8.6a8.03 8.03 0 0 1 6.69-3.15 7.96 7.96 0 0 1 6.67 3.14c1.63 2.09 2.44 4.96 2.44 8.59 0 3.65-.81 6.53-2.44 8.66Zm-9.86-2.72c.77 1.41 1.84 2.11 3.19 2.11 1.35 0 2.41-.7 3.17-2.1.76-1.4 1.14-3.38 1.14-5.93 0-2.53-.38-4.49-1.15-5.88-.76-1.39-1.82-2.09-3.16-2.09s-2.4.7-3.17 2.09c-.77 1.4-1.16 3.36-1.16 5.88 0 2.54.38 4.51 1.14 5.92Zm23.72 5.89a9.18 9.18 0 0 1-6-1.94 6.56 6.56 0 0 1-2.47-5.01h4.36a3.5 3.5 0 0 0 1.35 2.33c.77.59 1.7.89 2.79.89 1.23 0 2.23-.39 3-1.16a4.1 4.1 0 0 0 1.17-3.02 4 4 0 0 0-4.14-4.25c-.85 0-1.63.19-2.32.57-.69.36-1.23.87-1.63 1.51h-4.22l1.11-12.97h14.35v3.75h-10.65l-.51 6.18h.09a4.84 4.84 0 0 1 2-1.82 6.64 6.64 0 0 1 3.02-.65c2.15 0 3.93.71 5.31 2.14a7.36 7.36 0 0 1 2.09 5.42c0 2.38-.8 4.32-2.42 5.81-1.6 1.48-3.7 2.22-6.28 2.22Z" class="А-5"/>
      </g>
      <g class="Room">
        <rect width="177" height="59" x="3496" y="1492" fill="#8E96FF" rx="12"/>
        <path fill="#fff" d="m3543.67 1532.5-1.72-5.47h-7.92l-1.72 5.47h-4.84l7.83-22.55h5.54l7.85 22.55h-5.02Zm-5.73-18.23-2.89 9.23h5.89l-2.89-9.23h-.11Zm22.83 11.06h-10.27v-3.99h10.27v3.99Zm12.21 7.67a9.22 9.22 0 0 1-6-1.94 6.52 6.52 0 0 1-2.46-5.01h4.36c.13.96.58 1.73 1.34 2.33.77.59 1.7.89 2.8.89a4.1 4.1 0 0 0 3-1.16 4.1 4.1 0 0 0 1.17-3.02 4.2 4.2 0 0 0-1.16-3.06 3.98 3.98 0 0 0-2.98-1.19c-.86 0-1.63.19-2.33.57-.69.36-1.23.87-1.63 1.51h-4.21l1.1-12.97h14.35v3.75h-10.64l-.52 6.18h.1a4.72 4.72 0 0 1 2-1.82 6.6 6.6 0 0 1 3.01-.65c2.16 0 3.93.71 5.31 2.14a7.37 7.37 0 0 1 2.1 5.42c0 2.38-.81 4.32-2.42 5.81-1.61 1.48-3.7 2.22-6.29 2.22Zm26.83-3.17a7.94 7.94 0 0 1-6.67 3.17 7.99 7.99 0 0 1-6.69-3.16c-1.62-2.11-2.43-5-2.43-8.65 0-3.64.81-6.5 2.43-8.6a8.03 8.03 0 0 1 6.69-3.15 7.96 7.96 0 0 1 6.67 3.14c1.63 2.09 2.44 4.96 2.44 8.59 0 3.65-.81 6.53-2.44 8.66Zm-9.86-2.72c.77 1.41 1.84 2.11 3.19 2.11 1.35 0 2.41-.7 3.17-2.1.76-1.4 1.14-3.38 1.14-5.93 0-2.53-.38-4.49-1.15-5.88-.76-1.39-1.82-2.09-3.16-2.09s-2.4.7-3.17 2.09c-.77 1.4-1.16 3.36-1.16 5.88 0 2.54.38 4.51 1.14 5.92Zm25.96 5.39v-4.02h-11.22v-4.01c1.83-3.5 4.85-8.34 9.04-14.52h6.66v14.75h2.94v3.78h-2.94v4.02h-4.48Zm-7.08-7.78v.12h7.17v-11.54h-.09a167.6 167.6 0 0 0-4.19 6.36 70.21 70.21 0 0 0-2.89 5.06Zm23.59 4.75c1.01 0 1.87-.29 2.56-.88a2.78 2.78 0 0 0 1.07-2.23v-1.22l-3.53.22c-.86.06-1.52.28-1.99.64-.46.36-.69.84-.69 1.44 0 .62.24 1.12.71 1.48.47.37 1.09.55 1.87.55Zm-1.5 3.3a5.8 5.8 0 0 1-4.01-1.43 4.63 4.63 0 0 1-1.6-3.65c0-1.52.57-2.72 1.69-3.58 1.12-.87 2.73-1.36 4.83-1.49l4.22-.24v-1.11c0-.78-.26-1.38-.77-1.82a3.04 3.04 0 0 0-2.05-.65c-.83 0-1.51.18-2.04.56-.52.37-.84.88-.96 1.52h-4.17a5.1 5.1 0 0 1 2.11-3.97c1.32-1.01 3.08-1.52 5.27-1.52 2.14 0 3.86.51 5.15 1.53a4.9 4.9 0 0 1 1.94 4.06v11.52h-4.41v-2.56h-.09a4.99 4.99 0 0 1-2.09 2.08c-.94.5-1.95.75-3.02.75Z" class="А-5"/>
      </g>
      <g class="Room">
        <rect width="207" height="78" x="3496" y="1406" fill="#8E96FF" rx="12"/>
        <path fill="#fff" d="m3567.58 1456-1.72-5.47h-7.92l-1.72 5.47h-4.84l7.82-22.55h5.55l7.84 22.55h-5.01Zm-5.74-18.23-2.89 9.23h5.89l-2.89-9.23h-.11Zm22.83 11.06h-10.26v-3.99h10.26v3.99Zm12.22 7.67a9.18 9.18 0 0 1-6-1.94 6.53 6.53 0 0 1-2.47-5.01h4.36a3.5 3.5 0 0 0 1.34 2.33 4.5 4.5 0 0 0 2.8.89c1.23 0 2.23-.39 3-1.16a4.1 4.1 0 0 0 1.17-3.02 4 4 0 0 0-4.14-4.25c-.85 0-1.63.19-2.33.57a4.2 4.2 0 0 0-1.62 1.51h-4.22l1.11-12.97h14.34v3.75h-10.64l-.51 6.18h.09a4.84 4.84 0 0 1 2-1.82 6.64 6.64 0 0 1 3.02-.65c2.15 0 3.92.71 5.31 2.14a7.36 7.36 0 0 1 2.09 5.42c0 2.38-.8 4.32-2.42 5.81-1.6 1.48-3.7 2.22-6.28 2.22Zm26.83-3.17a7.95 7.95 0 0 1-6.67 3.17 7.97 7.97 0 0 1-6.69-3.16c-1.63-2.11-2.44-5-2.44-8.65 0-3.64.81-6.5 2.44-8.6a8 8 0 0 1 6.69-3.15 7.98 7.98 0 0 1 6.67 3.14c1.62 2.09 2.44 4.96 2.44 8.59 0 3.65-.82 6.53-2.44 8.66Zm-9.86-2.72c.77 1.41 1.83 2.11 3.19 2.11 1.35 0 2.41-.7 3.17-2.1.76-1.4 1.14-3.38 1.14-5.93 0-2.53-.39-4.49-1.16-5.88-.76-1.39-1.81-2.09-3.15-2.09-1.35 0-2.4.7-3.17 2.09-.78 1.4-1.16 3.36-1.16 5.88 0 2.54.38 4.51 1.14 5.92Zm25.95 5.39v-4.02h-11.22v-4.01c1.84-3.5 4.85-8.34 9.05-14.52h6.66v14.75h2.93v3.78h-2.93v4.02h-4.49Zm-7.08-7.78v.12h7.18v-11.54h-.1a180.85 180.85 0 0 0-4.19 6.36 74.2 74.2 0 0 0-2.89 5.06Z" class="А-5"/>
      </g>
      <g class="Room">
        <rect width="207" height="225" x="3496" y="1173" fill="#8E96FF" rx="12"/>
        <path fill="#fff" d="m3567.88 1296.5-1.72-5.47h-7.93l-1.71 5.47h-4.85l7.83-22.55h5.55l7.84 22.55h-5.01Zm-5.74-18.23-2.89 9.23h5.89l-2.89-9.23h-.11Zm22.83 11.06h-10.27v-3.99h10.27v3.99Zm12.22 7.67a9.18 9.18 0 0 1-6-1.94 6.5 6.5 0 0 1-2.47-5.01h4.36c.13.96.58 1.73 1.34 2.33.77.59 1.7.89 2.8.89 1.23 0 2.23-.39 3-1.16a4.1 4.1 0 0 0 1.17-3.02c0-1.25-.38-2.27-1.16-3.06a3.98 3.98 0 0 0-2.98-1.19c-.85 0-1.63.19-2.33.57-.69.36-1.23.87-1.62 1.51h-4.22l1.11-12.97h14.34v3.75h-10.64l-.51 6.18h.09a4.78 4.78 0 0 1 2-1.82 6.6 6.6 0 0 1 3.01-.65c2.16 0 3.93.71 5.32 2.14a7.4 7.4 0 0 1 2.09 5.42c0 2.38-.81 4.32-2.42 5.81-1.61 1.48-3.7 2.22-6.28 2.22Zm26.83-3.17a7.95 7.95 0 0 1-6.68 3.17 7.96 7.96 0 0 1-6.68-3.16c-1.63-2.11-2.44-5-2.44-8.65 0-3.64.81-6.5 2.44-8.6a8 8 0 0 1 6.68-3.15 7.98 7.98 0 0 1 6.68 3.14c1.62 2.09 2.43 4.96 2.43 8.59 0 3.65-.81 6.53-2.43 8.66Zm-9.86-2.72c.77 1.41 1.83 2.11 3.18 2.11 1.36 0 2.42-.7 3.18-2.1.76-1.4 1.14-3.38 1.14-5.93 0-2.53-.39-4.49-1.16-5.88-.76-1.39-1.81-2.09-3.16-2.09-1.34 0-2.4.7-3.17 2.09-.77 1.4-1.15 3.36-1.15 5.88 0 2.54.38 4.51 1.14 5.92Zm20.68-4.45v-3.41h2.74c1.07 0 1.94-.29 2.61-.87a2.9 2.9 0 0 0 1-2.27c0-.93-.32-1.66-.96-2.2-.63-.56-1.53-.83-2.68-.83-1.1 0-1.98.3-2.66.89a3.26 3.26 0 0 0-1.11 2.37h-4.34a6.52 6.52 0 0 1 2.39-5.01c1.51-1.25 3.48-1.88 5.92-1.88 2.35 0 4.26.56 5.7 1.66a5.2 5.2 0 0 1 2.19 4.36c0 1.36-.43 2.52-1.28 3.47a5.73 5.73 0 0 1-3.38 1.79v.1c1.7.14 3.05.7 4.04 1.67 1 .96 1.5 2.21 1.5 3.77a5.8 5.8 0 0 1-2.49 4.87c-1.64 1.24-3.77 1.86-6.39 1.86-2.53 0-4.58-.64-6.14-1.91a6.69 6.69 0 0 1-2.5-5.04h4.52c.07.96.47 1.72 1.21 2.29.75.58 1.74.86 2.97.86 1.18 0 2.14-.3 2.89-.9a2.87 2.87 0 0 0 1.13-2.33c0-1.03-.37-1.84-1.1-2.42a4.55 4.55 0 0 0-3-.89h-2.78Z" class="А-5"/>
      </g>
      <g class="Room">
        <rect width="112" height="190" x="3496" y="975" fill="#8E96FF" rx="12"/>
        <path fill="#fff" d="m3522.84 1081-1.72-5.47h-7.92l-1.72 5.47h-4.84l7.83-22.55h5.55l7.84 22.55h-5.02Zm-5.73-18.23-2.89 9.23h5.89l-2.89-9.23h-.11Zm22.83 11.06h-10.27v-3.99h10.27v3.99Zm12.22 7.67a9.18 9.18 0 0 1-6-1.94 6.5 6.5 0 0 1-2.47-5.01h4.36c.13.96.58 1.73 1.34 2.33.77.59 1.7.89 2.8.89 1.23 0 2.23-.39 3-1.16a4.1 4.1 0 0 0 1.17-3.02 4.2 4.2 0 0 0-1.16-3.06 3.98 3.98 0 0 0-2.98-1.19c-.86 0-1.63.19-2.33.57-.69.36-1.23.87-1.62 1.51h-4.22l1.11-12.97h14.34v3.75h-10.64l-.52 6.18h.1a4.78 4.78 0 0 1 2-1.82 6.6 6.6 0 0 1 3.01-.65c2.16 0 3.93.71 5.32 2.14a7.4 7.4 0 0 1 2.09 5.42c0 2.38-.81 4.32-2.42 5.81-1.61 1.48-3.7 2.22-6.28 2.22Zm26.82-3.17a7.92 7.92 0 0 1-6.67 3.17 7.99 7.99 0 0 1-6.69-3.16c-1.62-2.11-2.43-5-2.43-8.65 0-3.64.81-6.5 2.43-8.6a8.03 8.03 0 0 1 6.69-3.15 7.95 7.95 0 0 1 6.67 3.14c1.63 2.09 2.44 4.96 2.44 8.59 0 3.65-.81 6.53-2.44 8.66Zm-9.86-2.72c.78 1.41 1.84 2.11 3.19 2.11 1.36 0 2.41-.7 3.17-2.1.76-1.4 1.14-3.38 1.14-5.93 0-2.53-.38-4.49-1.15-5.88-.76-1.39-1.81-2.09-3.16-2.09-1.34 0-2.4.7-3.17 2.09-.77 1.4-1.16 3.36-1.16 5.88 0 2.54.38 4.51 1.14 5.92Zm20.69 5.39v-18.22h-.09l-5.75 3.97v-4.25l5.83-4.05h4.68V1081h-4.67Z" class="А-5"/>
      </g>
      <g class="Room">
        <rect width="177" height="190" x="3616" y="975" fill="#8E96FF" rx="12"/>
        <path fill="#fff" d="m3673.38 1081-1.72-5.47h-7.93l-1.71 5.47h-4.85l7.83-22.55h5.55l7.84 22.55h-5.01Zm-5.74-18.23-2.89 9.23h5.89l-2.89-9.23h-.11Zm22.83 11.06h-10.27v-3.99h10.27v3.99Zm12.22 7.67a9.18 9.18 0 0 1-6-1.94 6.5 6.5 0 0 1-2.47-5.01h4.36c.13.96.58 1.73 1.34 2.33.77.59 1.7.89 2.8.89 1.23 0 2.23-.39 3-1.16a4.1 4.1 0 0 0 1.17-3.02c0-1.25-.38-2.27-1.16-3.06a3.98 3.98 0 0 0-2.98-1.19c-.85 0-1.63.19-2.33.57-.69.36-1.23.87-1.62 1.51h-4.22l1.11-12.97h14.34v3.75h-10.64l-.51 6.18h.09a4.78 4.78 0 0 1 2-1.82 6.6 6.6 0 0 1 3.01-.65c2.16 0 3.93.71 5.32 2.14a7.4 7.4 0 0 1 2.09 5.42c0 2.38-.81 4.32-2.42 5.81-1.61 1.48-3.7 2.22-6.28 2.22Zm26.83-3.17a7.95 7.95 0 0 1-6.68 3.17 7.96 7.96 0 0 1-6.68-3.16c-1.63-2.11-2.44-5-2.44-8.65 0-3.64.81-6.5 2.44-8.6a8 8 0 0 1 6.68-3.15 7.98 7.98 0 0 1 6.68 3.14c1.62 2.09 2.43 4.96 2.43 8.59 0 3.65-.81 6.53-2.43 8.66Zm-9.86-2.72c.77 1.41 1.83 2.11 3.18 2.11 1.36 0 2.42-.7 3.18-2.1.76-1.4 1.14-3.38 1.14-5.93 0-2.53-.39-4.49-1.16-5.88-.76-1.39-1.81-2.09-3.16-2.09-1.34 0-2.4.7-3.17 2.09-.77 1.4-1.15 3.36-1.15 5.88 0 2.54.38 4.51 1.14 5.92Zm14.78-10.38c0-2.13.77-3.88 2.31-5.23a8.8 8.8 0 0 1 6.02-2.05c2.36 0 4.29.62 5.78 1.85a5.76 5.76 0 0 1 2.23 4.67c0 .68-.1 1.33-.31 1.97-.2.62-.52 1.25-.97 1.89-.44.62-.88 1.19-1.33 1.7-.45.5-1.03 1.11-1.75 1.83l-5.5 5.3v.09h10.17v3.75h-16.39v-3.17l8.5-8.19a16.56 16.56 0 0 0 2.35-2.76c.42-.7.64-1.44.64-2.22 0-.86-.34-1.58-1.02-2.16a3.8 3.8 0 0 0-2.56-.88c-1.09 0-2 .35-2.72 1.04a3.36 3.36 0 0 0-1.08 2.57v.08h-4.37v-.08Z" class="А-5"/>
      </g>
      <g class="Room">
        <rect width="981" height="310" x="3801" y="1030" fill="#8E96FF" rx="12"/>
        <path fill="#fff" d="m4262.27 1196-1.72-5.47h-7.93l-1.71 5.47h-4.85l7.83-22.55h5.55l7.84 22.55h-5.01Zm-5.74-18.23-2.89 9.23h5.89l-2.89-9.23h-.11Zm22.83 11.06h-10.27v-3.99h10.27v3.99Zm12.22 7.67a9.18 9.18 0 0 1-6-1.94 6.53 6.53 0 0 1-2.47-5.01h4.36c.13.96.58 1.73 1.34 2.33.77.59 1.71.89 2.8.89 1.23 0 2.23-.39 3-1.16a4.1 4.1 0 0 0 1.17-3.02c0-1.25-.38-2.27-1.16-3.06a3.98 3.98 0 0 0-2.98-1.19c-.85 0-1.63.19-2.33.57-.69.36-1.23.87-1.62 1.51h-4.22l1.11-12.97h14.34v3.75h-10.64l-.51 6.18h.09a4.78 4.78 0 0 1 2-1.82 6.61 6.61 0 0 1 3.02-.65c2.15 0 3.92.71 5.31 2.14a7.4 7.4 0 0 1 2.09 5.42c0 2.38-.81 4.32-2.42 5.81-1.6 1.48-3.7 2.22-6.28 2.22Zm16.97-.5v-18.22h-.1l-5.75 3.97v-4.25l5.83-4.05h4.69V1196h-4.67Zm25.23-2.67a7.94 7.94 0 0 1-6.67 3.17 7.99 7.99 0 0 1-6.69-3.16c-1.62-2.11-2.44-5-2.44-8.65 0-3.64.82-6.5 2.44-8.6a8.03 8.03 0 0 1 6.69-3.15 7.96 7.96 0 0 1 6.67 3.14c1.63 2.09 2.44 4.96 2.44 8.59 0 3.65-.81 6.53-2.44 8.66Zm-9.86-2.72c.77 1.41 1.84 2.11 3.19 2.11 1.35 0 2.41-.7 3.17-2.1.76-1.4 1.14-3.38 1.14-5.93 0-2.53-.38-4.49-1.15-5.88-.76-1.39-1.82-2.09-3.16-2.09s-2.4.7-3.17 2.09c-.77 1.4-1.16 3.36-1.16 5.88 0 2.54.38 4.51 1.14 5.92Z" class="А-5"/>
      </g>
      <rect width="627" height="358" x="4155" y="1292" fill="#8E96FF" class="Room" rx="12"/>
      <g class="Room">
        <rect width="69" height="285" x="4078" y="1365" fill="#8E96FF" rx="12"/>
        <path fill="#fff" d="m4123.5 1539.38-5.47 1.71v7.93l5.47 1.71v4.85l-22.55-7.83v-5.55l22.55-7.84v5.02Zm-18.23 5.73 9.23 2.89v-5.89l-9.23 2.89v.11Zm11.06-22.83v10.27h-3.99v-10.27h3.99Zm7.67-12.22c0 2.42-.65 4.42-1.94 6a6.5 6.5 0 0 1-5.01 2.47v-4.36a3.45 3.45 0 0 0 2.33-1.34c.59-.77.89-1.71.89-2.8 0-1.23-.39-2.23-1.16-3a4.1 4.1 0 0 0-3.02-1.17c-1.25 0-2.27.38-3.06 1.16a3.98 3.98 0 0 0-1.19 2.98c0 .85.19 1.63.57 2.33.36.69.87 1.23 1.51 1.62v4.22l-12.97-1.11v-14.34h3.75v10.64l6.18.52v-.1a4.78 4.78 0 0 1-1.82-2 6.6 6.6 0 0 1-.65-3.01c0-2.16.71-3.93 2.14-5.32a7.4 7.4 0 0 1 5.42-2.09c2.38 0 4.32.81 5.81 2.42 1.48 1.61 2.22 3.7 2.22 6.28Zm-3.17-26.83a7.95 7.95 0 0 1 3.17 6.68 7.96 7.96 0 0 1-3.16 6.68c-2.11 1.63-5 2.44-8.65 2.44-3.64 0-6.5-.81-8.6-2.44a8 8 0 0 1-3.15-6.68 7.98 7.98 0 0 1 3.14-6.68c2.09-1.62 4.96-2.43 8.59-2.43 3.65 0 6.53.81 8.66 2.43Zm-2.72 9.86c1.41-.77 2.11-1.83 2.11-3.18 0-1.36-.7-2.42-2.1-3.18-1.4-.76-3.38-1.14-5.93-1.14-2.53 0-4.49.39-5.88 1.16-1.39.76-2.09 1.81-2.09 3.16 0 1.34.7 2.4 2.09 3.17 1.4.77 3.36 1.15 5.88 1.15 2.54 0 4.51-.38 5.92-1.14Zm5.89-23.47c0 2.16-.58 4.01-1.73 5.55a6.97 6.97 0 0 1-4.52 2.78v-4.65a3.36 3.36 0 0 0 1.83-1.36c.46-.69.69-1.49.69-2.39 0-1.58-.72-2.79-2.15-3.66-1.42-.87-3.42-1.28-5.98-1.22v.1a5.23 5.23 0 0 1 2.69 2.21c.66 1.07 1 2.33 1 3.79 0 2.13-.71 3.91-2.11 5.34a7.19 7.19 0 0 1-5.33 2.14 7.39 7.39 0 0 1-5.7-2.45 8.89 8.89 0 0 1-2.25-6.24c0-1.63.35-3.1 1.06-4.39a8.04 8.04 0 0 1 3.06-3.12c1.94-1.26 4.43-1.89 7.47-1.89 3.74 0 6.67.83 8.8 2.51 2.11 1.67 3.17 3.99 3.17 6.95Zm-12.86 2.85a4.04 4.04 0 0 0 1.14-2.94c0-1.18-.38-2.15-1.14-2.94a3.82 3.82 0 0 0-2.86-1.18 3.9 3.9 0 0 0-2.89 1.18 3.98 3.98 0 0 0-1.19 2.91c0 1.16.39 2.14 1.18 2.94.78.8 1.73 1.2 2.87 1.2 1.16 0 2.12-.39 2.89-1.17Z" class="А-5"/>
      </g>
      <g class="Room">
        <rect width="113" height="236" x="1777" y="1810" fill="#8E96FF" rx="12"/>
        <path fill="#fff" d="m1802.55 1939-1.72-5.47h-7.92l-1.72 5.47h-4.85l7.83-22.55h5.55l7.84 22.55h-5.01Zm-5.74-18.23-2.89 9.23h5.89l-2.89-9.23h-.11Zm22.83 11.06h-10.26v-3.99h10.26v3.99Zm12.22 7.67a9.18 9.18 0 0 1-6-1.94 6.53 6.53 0 0 1-2.47-5.01h4.36a3.5 3.5 0 0 0 1.34 2.33c.77.59 1.71.89 2.8.89 1.23 0 2.23-.39 3-1.16a4.1 4.1 0 0 0 1.17-3.02 4 4 0 0 0-4.14-4.25c-.85 0-1.63.19-2.33.57-.68.36-1.23.87-1.62 1.51h-4.22l1.11-12.97h14.34v3.75h-10.64l-.51 6.18h.09a4.84 4.84 0 0 1 2-1.82 6.64 6.64 0 0 1 3.02-.65c2.15 0 3.92.71 5.31 2.14a7.4 7.4 0 0 1 2.09 5.42c0 2.38-.8 4.32-2.42 5.81-1.6 1.48-3.7 2.22-6.28 2.22Zm11.06-16.27c0-2.13.77-3.88 2.31-5.23a8.82 8.82 0 0 1 6.02-2.05c2.36 0 4.29.62 5.78 1.85a5.77 5.77 0 0 1 2.24 4.67 6.8 6.8 0 0 1-1.29 3.86c-.43.62-.88 1.19-1.32 1.7a59 59 0 0 1-1.75 1.83l-5.5 5.3v.09h10.17v3.75h-16.39v-3.17l8.5-8.19a16.9 16.9 0 0 0 2.34-2.76c.43-.7.64-1.44.64-2.22 0-.86-.34-1.58-1.01-2.16a3.83 3.83 0 0 0-2.57-.88c-1.09 0-2 .35-2.71 1.04a3.36 3.36 0 0 0-1.08 2.57v.08h-4.38v-.08Zm29.92 15.77v-4.02h-11.22v-4.01c1.84-3.5 4.85-8.34 9.05-14.52h6.66v14.75h2.94v3.78h-2.94v4.02h-4.49Zm-7.07-7.78v.12h7.17v-11.54h-.1a165.63 165.63 0 0 0-4.18 6.36 66.62 66.62 0 0 0-2.89 5.06Z" class="А-5"/>
      </g>
      <g class="Room">
        <rect width="230" height="193" x="785" y="1274" fill="#8E96FF" rx="12"/>
        <path fill="#fff" d="m868.84 1381.5-1.72-5.47h-7.92l-1.72 5.47h-4.84l7.83-22.55h5.55l7.84 22.55h-5.02Zm-5.73-18.23-2.9 9.23h5.9l-2.9-9.23h-.1Zm22.83 11.06h-10.27v-3.99h10.27v3.99Zm12.22 7.67a9.2 9.2 0 0 1-6-1.94 6.53 6.53 0 0 1-2.47-5.01h4.36c.13.96.58 1.73 1.34 2.33.77.59 1.7.89 2.8.89 1.23 0 2.23-.39 3-1.16a4.09 4.09 0 0 0 1.17-3.02 4.2 4.2 0 0 0-1.16-3.06 3.99 3.99 0 0 0-2.98-1.19c-.86 0-1.63.19-2.33.57-.69.36-1.23.87-1.62 1.51h-4.22l1.1-12.97h14.35v3.75h-10.64l-.52 6.18h.1a4.8 4.8 0 0 1 2-1.82 6.62 6.62 0 0 1 3.01-.65c2.16 0 3.93.71 5.32 2.14a7.39 7.39 0 0 1 2.09 5.42c0 2.38-.8 4.32-2.42 5.81-1.6 1.48-3.7 2.22-6.28 2.22Zm22.07-.5v-4.02h-11.21v-4.01c1.83-3.5 4.85-8.34 9.04-14.52h6.66v14.75h2.94v3.78h-2.94v4.02h-4.49Zm-7.07-7.78v.12h7.17v-11.54h-.1a170.75 170.75 0 0 0-4.18 6.36 71.38 71.38 0 0 0-2.9 5.06Zm16.8-7.99c0-2.13.78-3.88 2.32-5.23a8.8 8.8 0 0 1 6.02-2.05c2.36 0 4.29.62 5.78 1.85a5.76 5.76 0 0 1 2.23 4.67 6.3 6.3 0 0 1-1.28 3.86 20.3 20.3 0 0 1-1.33 1.7c-.45.5-1.03 1.11-1.75 1.83l-5.5 5.3v.09h10.17v3.75h-16.39v-3.17l8.5-8.19a16.5 16.5 0 0 0 2.35-2.76c.42-.7.64-1.44.64-2.22 0-.86-.34-1.58-1.02-2.16a3.8 3.8 0 0 0-2.56-.88c-1.1 0-2 .35-2.72 1.04a3.36 3.36 0 0 0-1.08 2.57v.08h-4.37v-.08Z" class="А-5"/>
      </g>
      <g class="Room">
        <rect width="165" height="96" x="1023" y="1371" fill="#8E96FF" rx="12"/>
        <path fill="#fff" d="m1067.48 1430-1.71-5.47h-7.93l-1.72 5.47h-4.84l7.83-22.55h5.55l7.84 22.55h-5.02Zm-5.73-18.23-2.89 9.23h5.89l-2.89-9.23h-.11Zm22.83 11.06h-10.27v-3.99h10.27v3.99Zm12.22 7.67a9.18 9.18 0 0 1-6-1.94 6.5 6.5 0 0 1-2.47-5.01h4.36c.13.96.58 1.73 1.34 2.33.77.59 1.7.89 2.8.89 1.23 0 2.23-.39 3-1.16a4.1 4.1 0 0 0 1.17-3.02 4.2 4.2 0 0 0-1.16-3.06 3.98 3.98 0 0 0-2.98-1.19c-.85 0-1.63.19-2.33.57-.69.36-1.23.87-1.62 1.51h-4.22l1.11-12.97h14.34v3.75h-10.64l-.52 6.18h.1a4.78 4.78 0 0 1 2-1.82 6.6 6.6 0 0 1 3.01-.65c2.16 0 3.93.71 5.32 2.14a7.4 7.4 0 0 1 2.09 5.42c0 2.38-.81 4.32-2.42 5.81-1.61 1.48-3.7 2.22-6.28 2.22Zm22.08-.5v-4.02h-11.22v-4.01c1.83-3.5 4.85-8.34 9.04-14.52h6.66v14.75h2.94v3.78h-2.94v4.02h-4.48Zm-7.08-7.78v.12h7.17v-11.54h-.09a167.6 167.6 0 0 0-4.19 6.36 70.21 70.21 0 0 0-2.89 5.06Zm22.56 7.78v-18.22h-.09l-5.75 3.97v-4.25l5.82-4.05h4.69V1430h-4.67Zm16.25-3.03c1.01 0 1.86-.29 2.56-.88a2.77 2.77 0 0 0 1.06-2.23v-1.22l-3.53.22c-.85.06-1.51.28-1.98.64-.46.36-.69.84-.69 1.44 0 .62.24 1.12.7 1.48.47.37 1.1.55 1.88.55Zm-1.5 3.3a5.82 5.82 0 0 1-4.02-1.43 4.66 4.66 0 0 1-1.59-3.65c0-1.52.56-2.72 1.69-3.58 1.12-.87 2.73-1.36 4.83-1.49l4.21-.24v-1.11c0-.78-.25-1.38-.76-1.82a3.04 3.04 0 0 0-2.05-.65c-.83 0-1.51.18-2.04.56-.53.37-.84.88-.96 1.52h-4.17a5.08 5.08 0 0 1 2.11-3.97c1.32-1.01 3.08-1.52 5.26-1.52 2.15 0 3.87.51 5.16 1.53a4.93 4.93 0 0 1 1.94 4.06V1430h-4.41v-2.56h-.09a5.02 5.02 0 0 1-2.1 2.08c-.93.5-1.94.75-3.01.75Z" class="А-5"/>
      </g>
      <g class="Room">
        <rect width="171" height="96" x="1196" y="1371" fill="#8E96FF" rx="12"/>
        <path fill="#fff" d="m1252.39 1430-1.72-5.47h-7.92l-1.72 5.47h-4.84l7.83-22.55h5.54l7.85 22.55h-5.02Zm-5.73-18.23-2.89 9.23h5.89l-2.89-9.23h-.11Zm22.82 11.06h-10.26v-3.99h10.26v3.99Zm12.22 7.67a9.22 9.22 0 0 1-6-1.94 6.56 6.56 0 0 1-2.47-5.01h4.36a3.5 3.5 0 0 0 1.35 2.33c.77.59 1.7.89 2.79.89 1.23 0 2.23-.39 3-1.16a4.06 4.06 0 0 0 1.18-3.02 4.2 4.2 0 0 0-1.16-3.06 4 4 0 0 0-2.98-1.19c-.86 0-1.63.19-2.33.57-.69.36-1.23.87-1.63 1.51h-4.22l1.11-12.97h14.35v3.75h-10.64l-.52 6.18h.09a4.84 4.84 0 0 1 2-1.82 6.64 6.64 0 0 1 3.02-.65c2.16 0 3.93.71 5.31 2.14a7.37 7.37 0 0 1 2.1 5.42c0 2.38-.81 4.32-2.43 5.81-1.6 1.48-3.69 2.22-6.28 2.22Zm22.08-.5v-4.02h-11.22v-4.01c1.84-3.5 4.85-8.34 9.05-14.52h6.66v14.75h2.93v3.78h-2.93v4.02h-4.49Zm-7.08-7.78v.12h7.18v-11.54h-.1a180.85 180.85 0 0 0-4.19 6.36 74.2 74.2 0 0 0-2.89 5.06Zm22.57 7.78v-18.22h-.1l-5.75 3.97v-4.25l5.83-4.05h4.69V1430h-4.67Z" class="А-5"/>
      </g>
      <g class="Room">
        <rect width="58" height="96" x="1375" y="1371" fill="#8E96FF" rx="12"/>
        <path fill="#fff" d="m1411.5 1444.83-3.42 1.07v4.96l3.42 1.07v3.03l-14.09-4.9v-3.46l14.09-4.9v3.13Zm-11.4 3.58 5.78 1.81v-3.68l-5.78 1.81v.06Zm6.92-14.26v6.41h-2.49v-6.41h2.49Zm4.79-7.64c0 1.51-.4 2.76-1.21 3.75a4.07 4.07 0 0 1-3.13 1.54v-2.72a2.2 2.2 0 0 0 1.45-.84 2.8 2.8 0 0 0 .56-1.75c0-.77-.24-1.39-.72-1.87a2.56 2.56 0 0 0-1.89-.74c-.78 0-1.42.24-1.91.73-.5.48-.75 1.1-.75 1.86a3 3 0 0 0 .36 1.46c.22.43.54.76.94 1.01v2.64l-8.1-.7v-8.96h2.34v6.65l3.86.32v-.06a2.99 2.99 0 0 1-1.13-1.25 4.04 4.04 0 0 1-.41-1.88c0-1.35.44-2.46 1.33-3.32a4.65 4.65 0 0 1 3.39-1.31c1.49 0 2.7.5 3.64 1.51a5.61 5.61 0 0 1 1.38 3.93Zm-.31-13.8h-2.51v7.01h-2.51a99.63 99.63 0 0 1-9.07-5.65v-4.16h9.22v-1.84h2.36v1.84h2.51v2.8Zm-4.86 4.42h.07v-4.48h-7.21v.06c1.59 1.09 2.91 1.96 3.97 2.62 1.06.66 2.11 1.26 3.17 1.8Zm3.19-20.3a4.96 4.96 0 0 1 1.98 4.17 5 5 0 0 1-1.97 4.18c-1.32 1.02-3.13 1.53-5.41 1.53-2.27 0-4.06-.51-5.37-1.53a4.98 4.98 0 0 1-1.97-4.18 5 5 0 0 1 1.96-4.17c1.31-1.01 3.1-1.52 5.37-1.52 2.28 0 4.08.51 5.41 1.52Zm-1.7 6.16c.88-.48 1.32-1.14 1.32-1.99 0-.84-.44-1.51-1.31-1.98a7.87 7.87 0 0 0-3.71-.71c-1.58 0-2.81.24-3.67.72-.87.47-1.31 1.13-1.31 1.97 0 .84.44 1.5 1.31 1.98.87.49 2.09.73 3.67.73a7.8 7.8 0 0 0 3.7-.72Zm3.59-14.5c0 1.7-.52 3.01-1.58 3.93-1.06.91-2.6 1.37-4.64 1.37-1.94 0-3.51-.23-4.73-.67a5.19 5.19 0 0 1-2.66-1.93 6.12 6.12 0 0 1-.89-3.22l-.03-1.22c-.02-.61-.07-1.18-.16-1.71a3.9 3.9 0 0 0-.27-1.04h2.21c.09.09.18.38.27.87.1.49.16 1.06.18 1.71l.04 1.15c.04 1.26.37 2.18.99 2.74.61.57 1.6.94 2.97 1.12v-.08c-1.31-.68-1.97-1.86-1.97-3.54a4.4 4.4 0 0 1 1.35-3.38 5.02 5.02 0 0 1 3.61-1.27c1.65 0 2.95.46 3.9 1.39a5.08 5.08 0 0 1 1.41 3.78Zm-2.24.05c0-.73-.26-1.29-.78-1.7-.52-.4-1.26-.6-2.22-.6-.92 0-1.63.2-2.14.61-.51.41-.77.97-.77 1.69 0 .73.26 1.3.77 1.71.51.41 1.22.62 2.14.62.96 0 1.7-.21 2.22-.61.52-.41.78-.98.78-1.72Z" class="А-5"/>
      </g>
      <g class="Room">
        <rect width="68" height="50" x="1441" y="1371" fill="#8E96FF" rx="12"/>
        <path fill="#fff" d="m1452.06 1402-.97-3.08h-4.45l-.97 3.08h-2.72l4.4-12.68h3.12l4.41 12.68h-2.82Zm-3.23-10.26-1.62 5.2h3.31l-1.62-5.2h-.07Zm12.85 6.23h-5.78v-2.25h5.78v2.25Zm6.87 4.31a5.16 5.16 0 0 1-3.38-1.09 3.67 3.67 0 0 1-1.38-2.82h2.45c.07.54.33.98.75 1.31.44.33.96.5 1.58.5.69 0 1.25-.22 1.68-.65.44-.44.66-1 .66-1.7s-.21-1.27-.65-1.72a2.25 2.25 0 0 0-1.68-.67c-.48 0-.91.11-1.31.32-.38.2-.69.49-.91.85h-2.37l.62-7.29h8.07v2.11h-5.99l-.29 3.47h.06c.26-.44.64-.78 1.12-1.02a3.7 3.7 0 0 1 1.7-.37 4 4 0 0 1 2.99 1.2 4.2 4.2 0 0 1 1.17 3.05c0 1.35-.45 2.44-1.36 3.27a4.97 4.97 0 0 1-3.53 1.25Zm12.42-.28v-2.26h-6.31v-2.26a87.79 87.79 0 0 1 5.09-8.16h3.74v8.29h1.65v2.13h-1.65v2.26h-2.52Zm-3.98-4.38v.07h4.03v-6.49h-.05a90.55 90.55 0 0 0-2.36 3.58c-.59.94-1.13 1.89-1.62 2.84Zm18.27 2.88a4.46 4.46 0 0 1-3.75 1.78c-1.6 0-2.85-.59-3.77-1.77-.91-1.19-1.37-2.82-1.37-4.87 0-2.05.46-3.66 1.37-4.84a4.53 4.53 0 0 1 3.77-1.77c1.58 0 2.83.59 3.75 1.76.91 1.18 1.37 2.79 1.37 4.84s-.46 3.67-1.37 4.87Zm-5.55-1.53c.44.79 1.03 1.18 1.8 1.18.76 0 1.35-.39 1.78-1.17a7.1 7.1 0 0 0 .64-3.34c0-1.43-.22-2.53-.65-3.31-.43-.78-1.02-1.18-1.77-1.18-.76 0-1.35.4-1.79 1.18a6.99 6.99 0 0 0-.65 3.31c0 1.43.22 2.54.64 3.33Zm12.22 1.32c.57 0 1.05-.16 1.44-.49.4-.33.6-.75.6-1.25v-.69l-1.99.12c-.48.04-.85.16-1.11.36a1 1 0 0 0-.39.81 1 1 0 0 0 .4.84c.26.2.61.3 1.05.3Zm-.84 1.86c-.91 0-1.67-.27-2.26-.8-.6-.53-.9-1.22-.9-2.06 0-.85.32-1.52.95-2.01a4.85 4.85 0 0 1 2.72-.83l2.37-.15v-.62c0-.43-.14-.77-.43-1.02a1.73 1.73 0 0 0-1.15-.37c-.47 0-.86.11-1.15.32-.3.21-.48.49-.54.85h-2.35c.05-.92.44-1.67 1.19-2.23a4.73 4.73 0 0 1 2.96-.85c1.21 0 2.17.28 2.9.86a2.74 2.74 0 0 1 1.09 2.28v6.48h-2.48v-1.44h-.05c-.26.49-.65.88-1.18 1.17-.53.28-1.09.42-1.69.42Z" class="А-5"/>
      </g>
      <g class="Room">
        <rect width="68" height="92" x="1441" y="1505" fill="#8E96FF" rx="12"/>
        <path fill="#fff" d="m1455.11 1558.5-1.08-3.42h-4.95l-1.07 3.42h-3.03l4.89-14.09h3.47l4.9 14.09h-3.13Zm-3.59-11.4-1.8 5.78h3.68l-1.81-5.78h-.07Zm14.27 6.92h-6.41v-2.49h6.41v2.49Zm7.64 4.79c-1.51 0-2.76-.4-3.75-1.21a4.08 4.08 0 0 1-1.55-3.13h2.73c.08.6.36 1.08.84 1.45.48.37 1.06.56 1.75.56.77 0 1.39-.24 1.87-.72.49-.49.73-1.12.73-1.89 0-.78-.24-1.42-.72-1.91-.48-.5-1.1-.75-1.86-.75-.54 0-1.02.12-1.46.36-.43.22-.77.54-1.01.94h-2.64l.69-8.1h8.97v2.34h-6.65l-.33 3.86h.06c.3-.48.71-.86 1.25-1.13a4.1 4.1 0 0 1 1.89-.41c1.35 0 2.45.44 3.32 1.33a4.65 4.65 0 0 1 1.31 3.39c0 1.49-.51 2.7-1.52 3.64a5.57 5.57 0 0 1-3.92 1.38Zm13.8-.31v-2.51h-7.02v-2.51c1.15-2.19 3.04-5.21 5.66-9.07h4.16v9.22h1.84v2.36h-1.84v2.51h-2.8Zm-4.43-4.86v.07h4.49v-7.21h-.06a111.35 111.35 0 0 0-2.62 3.97 46.5 46.5 0 0 0-1.81 3.17Zm15.84 5.17a5.6 5.6 0 0 1-3.46-1.08 4.3 4.3 0 0 1-1.74-2.82h2.91c.14.47.42.85.85 1.14.43.29.92.43 1.49.43.98 0 1.75-.45 2.29-1.34.54-.89.8-2.14.76-3.74h-.06a3.3 3.3 0 0 1-1.39 1.68c-.66.42-1.45.63-2.36.63a4.57 4.57 0 0 1-4.68-4.65c0-1.45.51-2.64 1.54-3.57a5.52 5.52 0 0 1 3.89-1.4c1.02 0 1.94.22 2.75.66a5.04 5.04 0 0 1 1.95 1.91 8.43 8.43 0 0 1 1.18 4.67c0 2.34-.52 4.17-1.57 5.5a5.23 5.23 0 0 1-4.35 1.98Zm-1.77-8.03c.48.47 1.1.71 1.83.71.74 0 1.35-.24 1.84-.71.49-.49.74-1.08.74-1.79 0-.72-.25-1.32-.74-1.81a2.5 2.5 0 0 0-1.82-.74c-.72 0-1.33.24-1.84.73-.5.49-.75 1.09-.75 1.8 0 .72.25 1.32.74 1.81Z" class="А-5"/>
      </g>
      <g class="Ladder">
        <rect width="128" height="51" x="1574" y="1409" fill="#fff" rx="12"/>
        <g class="stairsup">
          <path fill="#000" d="M1660.45 1417.5h-7.49v7.5c0 .13-.01.22-.04.28-.07.35-.23.63-.5.87a1.4 1.4 0 0 1-.96.35h-7.49v7.5c0 .13-.01.22-.05.28a1.45 1.45 0 0 1-1.45 1.22h-7.49v7.5c0 .13-.02.22-.05.28a1.45 1.45 0 0 1-1.45 1.22h-7.49v7.5c0 .13-.02.22-.05.28a1.45 1.45 0 0 1-1.45 1.22h-8.99c-.41 0-.76-.15-1.06-.45a1.44 1.44 0 0 1-.44-1.05c0-.41.15-.76.44-1.05.3-.3.65-.45 1.06-.45h7.49v-7.5c0-.12.02-.22.05-.28.06-.34.23-.63.51-.87.28-.23.6-.35.94-.35h7.49v-7.5c0-.12.02-.22.05-.28.06-.34.23-.63.51-.87.29-.23.6-.35.94-.35h7.49v-7.5c0-.09.02-.19.05-.28.06-.34.23-.63.52-.87.28-.23.59-.35.93-.35h7.49v-7.5c0-.13.02-.22.05-.28.06-.35.23-.63.49-.87.27-.23.59-.35.96-.35h8.99c.41 0 .76.15 1.06.45.29.29.44.64.44 1.05 0 .41-.15.76-.44 1.05-.3.3-.65.45-1.06.45Z" class="Vector"/>
        </g>
      </g>
      <g class="Ladder">
        <rect width="51" height="113" x="1520" y="1453" fill="#fff" rx="12"/>
        <g class="stairsup" clip-path="url(#a)">
          <path fill="#000" d="M1567.95 1492.5h-7.49v7.5c0 .13-.01.22-.04.28-.07.35-.23.63-.5.87a1.4 1.4 0 0 1-.96.35h-7.49v7.5c0 .13-.01.22-.05.28a1.45 1.45 0 0 1-1.45 1.22h-7.49v7.5c0 .13-.02.22-.05.28a1.45 1.45 0 0 1-1.45 1.22h-7.49v7.5c0 .13-.02.22-.05.28a1.45 1.45 0 0 1-1.45 1.22H1523c-.41 0-.76-.15-1.06-.45a1.44 1.44 0 0 1-.44-1.05c0-.41.15-.76.44-1.05.3-.3.65-.45 1.06-.45h7.49v-7.5c0-.12.02-.22.05-.28.06-.34.23-.63.51-.87.28-.23.6-.35.94-.35h7.49v-7.5c0-.12.02-.22.05-.28.06-.34.23-.63.51-.87.29-.23.6-.35.94-.35h7.49v-7.5c0-.09.02-.19.05-.28.06-.34.23-.63.52-.87.28-.23.59-.35.93-.35h7.49v-7.5c0-.12.02-.22.05-.28.06-.34.23-.63.49-.87.27-.23.59-.35.96-.35h8.99c.41 0 .76.15 1.06.45.29.29.44.64.44 1.05 0 .41-.15.76-.44 1.05-.3.3-.65.45-1.06.45Z" class="Vector"/>
        </g>
      </g>
      <g class="BigAreaPath">
        <rect width="413" height="95" x="1020" y="1271" fill="#262A34" class="BigAreaPath" rx="12"/>
      </g>
      <g class="BigAreaPath">
        <rect width="435" height="82" x="1411" y="1284" fill="#262A34" class="BigAreaPath" rx="12"/>
      </g>
      <g class="BigAreaPath">
        <rect width="69" height="516" x="1777" y="1289" fill="#262A34" class="BigAreaPath" rx="12"/>
      </g>
      <g class="BigAreaPath">
        <rect width="88" height="384" x="3708" y="1170" fill="#262A34" class="BigAreaPath" rx="12"/>
      </g>
      <g class="Ladder">
        <rect width="51" height="113" x="4019" y="1453" fill="#fff" rx="12"/>
        <g class="stairsup" clip-path="url(#b)">
          <path fill="#000" d="M4066.95 1492.5h-7.49v7.5c0 .13-.01.22-.04.28-.07.35-.23.63-.5.87a1.4 1.4 0 0 1-.96.35h-7.49v7.5c0 .13-.01.22-.05.28a1.45 1.45 0 0 1-1.45 1.22h-7.49v7.5c0 .13-.02.22-.05.28a1.45 1.45 0 0 1-1.45 1.22h-7.49v7.5c0 .13-.02.22-.05.28a1.45 1.45 0 0 1-1.45 1.22H4022c-.41 0-.76-.15-1.06-.45a1.44 1.44 0 0 1-.44-1.05c0-.41.15-.76.44-1.05.3-.3.65-.45 1.06-.45h7.49v-7.5c0-.12.02-.22.05-.28.06-.34.23-.63.51-.87.28-.23.6-.35.94-.35h7.49v-7.5c0-.12.02-.22.05-.28.06-.34.23-.63.51-.87.29-.23.6-.35.94-.35h7.49v-7.5c0-.09.02-.19.05-.28.06-.34.23-.63.52-.87.28-.23.59-.35.93-.35h7.49v-7.5c0-.12.02-.22.05-.28.06-.34.23-.63.49-.87.27-.23.59-.35.96-.35h8.99c.41 0 .76.15 1.06.45.29.29.44.64.44 1.05 0 .41-.15.76-.44 1.05-.3.3-.65.45-1.06.45Z" class="Vector"/>
        </g>
      </g>
      <g class="Ladder">
        <rect width="128" height="51" x="3889" y="1408" fill="#fff" rx="12"/>
        <g class="stairsup">
          <path fill="#000" d="M3975.45 1416.5h-7.49v7.5c0 .13-.01.22-.04.28-.07.35-.23.63-.5.87a1.4 1.4 0 0 1-.96.35h-7.49v7.5c0 .13-.01.22-.05.28a1.45 1.45 0 0 1-1.45 1.22h-7.49v7.5c0 .13-.02.22-.05.28a1.45 1.45 0 0 1-1.45 1.22h-7.49v7.5c0 .13-.02.22-.05.28a1.45 1.45 0 0 1-1.45 1.22h-8.99c-.41 0-.76-.15-1.06-.45a1.44 1.44 0 0 1-.44-1.05c0-.41.15-.76.44-1.05.3-.3.65-.45 1.06-.45h7.49v-7.5c0-.12.02-.22.05-.28.06-.34.23-.63.51-.87.28-.23.6-.35.94-.35h7.49v-7.5c0-.12.02-.22.05-.28.06-.34.23-.63.51-.87.29-.23.6-.35.94-.35h7.49v-7.5c0-.09.02-.19.05-.28.06-.34.23-.63.52-.87.28-.23.59-.35.93-.35h7.49v-7.5c0-.13.02-.22.05-.28.06-.35.23-.63.49-.87.27-.23.59-.35.96-.35h8.99c.41 0 .76.15 1.06.45.29.29.44.64.44 1.05 0 .41-.15.76-.44 1.05-.3.3-.65.45-1.06.45Z" class="Vector"/>
        </g>
      </g>
    </g>
    <g class="B">
      <path fill="#262A34" d="M1708.91 3835.01v24.31h-12.77v-24.31z" class="Rectangle 194"/>
      <path fill="#262A34" d="M1708.91 3687.66v24.31h-12.77v-24.31z" class="Rectangle 195"/>
      <path fill="#262A34" d="M1708.91 3484.1v24.31h-12.77v-24.31z" class="Rectangle 196"/>
      <path fill="#262A34" d="M1708.91 3335.23v24.31h-12.77v-24.31z" class="Rectangle 197"/>
      <path fill="#262A34" d="M1708.91 3146.87v24.31h-12.77v-24.31z" class="Rectangle 198"/>
      <path fill="#262A34" d="M1708.91 2902.3v24.31h-12.77v-24.31z" class="Rectangle 199"/>
      <path fill="#262A34" d="M1823.85 3087.62v24.31h-12.77v-24.31z" class="Rectangle 200"/>
      <path fill="#262A34" d="M1825.45 3382.32v24.31h-12.77v-24.31z" class="Rectangle 201"/>
      <path fill="#262A34" d="M1814.27 3904.89h-25.54v-12.15h25.54z" class="Rectangle 202"/>
      <path fill="#262A34" d="M1946.78 3146.87h-25.54v-12.15h25.54z" class="Rectangle 203"/>
      <path fill="#262A34" d="M1761.59 2814.19h-25.54v-12.15h25.54z" class="Rectangle 204"/>
      <path fill="#262A34" d="M1858.97 2814.19h-25.54v-12.15h25.54z" class="Rectangle 205"/>
      <g class="Room">
        <rect width="577" height="209" x="1490" y="3905" fill="#8E96FF" rx="12"/>
        <path fill="#fff" d="M1749.5 4013.39c0 2.13-.72 3.84-2.17 5.16-1.44 1.3-3.32 1.95-5.64 1.95h-9.25v-22.55h14.98v3.89h-10.26v4.58h4.37c2.37 0 4.28.64 5.75 1.92a6.36 6.36 0 0 1 2.22 5.05Zm-12.34 3.34h3.36c1.32 0 2.34-.28 3.06-.85a3 3 0 0 0 1.09-2.49c0-1.08-.36-1.92-1.09-2.5a4.8 4.8 0 0 0-3.08-.87h-3.34v6.71Zm25.89-3.4h-10.27v-3.99h10.27v3.99Zm12.22 7.67a9.18 9.18 0 0 1-6-1.94 6.5 6.5 0 0 1-2.47-5.01h4.36c.13.96.58 1.73 1.34 2.33.77.59 1.7.89 2.8.89 1.23 0 2.23-.39 3-1.16a4.1 4.1 0 0 0 1.17-3.02 4.2 4.2 0 0 0-1.16-3.06 3.98 3.98 0 0 0-2.98-1.19c-.86 0-1.63.19-2.33.57-.69.36-1.23.87-1.62 1.51h-4.22l1.11-12.97h14.34v3.75h-10.64l-.52 6.18h.1a4.78 4.78 0 0 1 2-1.82 6.6 6.6 0 0 1 3.01-.65c2.16 0 3.93.71 5.32 2.14a7.4 7.4 0 0 1 2.09 5.42c0 2.38-.81 4.32-2.42 5.81-1.61 1.48-3.7 2.22-6.28 2.22Zm26.82-3.17a7.92 7.92 0 0 1-6.67 3.17 7.99 7.99 0 0 1-6.69-3.16c-1.62-2.11-2.43-5-2.43-8.65 0-3.64.81-6.5 2.43-8.6a8.03 8.03 0 0 1 6.69-3.15 7.96 7.96 0 0 1 6.67 3.14c1.63 2.09 2.44 4.96 2.44 8.59 0 3.65-.81 6.53-2.44 8.66Zm-9.86-2.72c.78 1.41 1.84 2.11 3.19 2.11 1.36 0 2.41-.7 3.17-2.1.76-1.4 1.14-3.38 1.14-5.93 0-2.53-.38-4.49-1.15-5.88-.76-1.39-1.81-2.09-3.16-2.09-1.34 0-2.4.7-3.17 2.09-.77 1.4-1.16 3.36-1.16 5.88 0 2.54.38 4.51 1.14 5.92Zm25.96 5.39v-4.02h-11.22v-4.01c1.83-3.5 4.85-8.34 9.05-14.52h6.65v14.75h2.94v3.78h-2.94v4.02h-4.48Zm-7.08-7.78v.12h7.17v-11.54h-.09a167.6 167.6 0 0 0-4.19 6.36 70.21 70.21 0 0 0-2.89 5.06Z" class="А-5"/>
      </g>
      <g class="Room">
        <rect width="310" height="207" x="1490" y="2600" fill="#8E96FF" rx="12"/>
        <path fill="#fff" d="M1618.69 2707.39c0 2.13-.73 3.84-2.17 5.16-1.44 1.3-3.32 1.95-5.64 1.95h-9.26v-22.55h14.99v3.89h-10.27v4.58h4.38c2.36 0 4.28.64 5.75 1.92a6.36 6.36 0 0 1 2.22 5.05Zm-12.35 3.34h3.36c1.33 0 2.35-.28 3.07-.85a3.02 3.02 0 0 0 1.09-2.49c0-1.08-.37-1.92-1.09-2.5a4.8 4.8 0 0 0-3.08-.87h-3.35v6.71Zm25.89-3.4h-10.26v-3.99h10.26v3.99Zm12.22 7.67a9.22 9.22 0 0 1-6-1.94 6.56 6.56 0 0 1-2.47-5.01h4.36a3.5 3.5 0 0 0 1.35 2.33c.77.59 1.7.89 2.79.89 1.23 0 2.23-.39 3-1.16a4.06 4.06 0 0 0 1.18-3.02 4.2 4.2 0 0 0-1.16-3.06 4 4 0 0 0-2.98-1.19c-.86 0-1.63.19-2.33.57-.69.36-1.23.87-1.63 1.51h-4.22l1.11-12.97h14.35v3.75h-10.64l-.52 6.18h.09a4.84 4.84 0 0 1 2-1.82 6.64 6.64 0 0 1 3.02-.65c2.16 0 3.93.71 5.31 2.14a7.37 7.37 0 0 1 2.1 5.42c0 2.38-.81 4.32-2.43 5.81-1.6 1.48-3.69 2.22-6.28 2.22Zm16.97-.5v-18.22h-.09l-5.75 3.97V2696l5.83-4.05h4.68v22.55h-4.67Zm25.24-2.67a7.95 7.95 0 0 1-6.68 3.17 7.96 7.96 0 0 1-6.68-3.16c-1.63-2.11-2.44-5-2.44-8.65 0-3.64.81-6.5 2.44-8.6a8 8 0 0 1 6.68-3.15 7.98 7.98 0 0 1 6.68 3.14c1.62 2.09 2.43 4.96 2.43 8.59 0 3.65-.81 6.53-2.43 8.66Zm-9.86-2.72c.77 1.41 1.83 2.11 3.18 2.11 1.36 0 2.42-.7 3.18-2.1.76-1.4 1.14-3.38 1.14-5.93 0-2.53-.39-4.49-1.16-5.88-.76-1.39-1.81-2.09-3.16-2.09-1.34 0-2.4.7-3.17 2.09-.77 1.4-1.15 3.36-1.15 5.88 0 2.54.38 4.51 1.14 5.92Z" class="А-5"/>
      </g>
      <g class="Room">
        <rect width="260" height="207" x="1808" y="2600" fill="#8E96FF" rx="12"/>
        <path fill="#fff" d="M1914.42 2707.39c0 2.13-.72 3.84-2.17 5.16-1.44 1.3-3.32 1.95-5.64 1.95h-9.25v-22.55h14.98v3.89h-10.26v4.58h4.37c2.37 0 4.28.64 5.75 1.92a6.36 6.36 0 0 1 2.22 5.05Zm-12.34 3.34h3.36c1.32 0 2.34-.28 3.06-.85a3 3 0 0 0 1.09-2.49c0-1.08-.36-1.92-1.09-2.5a4.79 4.79 0 0 0-3.08-.87h-3.34v6.71Zm25.89-3.4h-10.27v-3.99h10.27v3.99Zm12.22 7.67a9.18 9.18 0 0 1-6-1.94 6.5 6.5 0 0 1-2.47-5.01h4.36c.13.96.58 1.73 1.34 2.33.77.59 1.7.89 2.8.89 1.23 0 2.23-.39 3-1.16a4.1 4.1 0 0 0 1.17-3.02c0-1.25-.38-2.27-1.16-3.06a3.98 3.98 0 0 0-2.98-1.19c-.85 0-1.63.19-2.33.57-.69.36-1.23.87-1.62 1.51h-4.22l1.11-12.97h14.34v3.75h-10.64l-.51 6.18h.09a4.78 4.78 0 0 1 2-1.82 6.6 6.6 0 0 1 3.01-.65c2.16 0 3.93.71 5.32 2.14a7.4 7.4 0 0 1 2.09 5.42c0 2.38-.81 4.32-2.42 5.81-1.61 1.48-3.7 2.22-6.28 2.22Zm16.97-.5v-18.22h-.1l-5.75 3.97V2696l5.83-4.05h4.69v22.55h-4.67Zm15.37 0v-18.22h-.09l-5.75 3.97V2696l5.83-4.05h4.68v22.55h-4.67Z" class="А-5"/>
      </g>
      <g class="Room">
        <rect width="226" height="584" x="1821" y="3147" fill="#8E96FF" rx="12"/>
        <path fill="#fff" d="M1905.8 3442.89c0 2.13-.73 3.84-2.18 5.16-1.43 1.3-3.31 1.95-5.64 1.95h-9.25v-22.55h14.99v3.89h-10.27v4.58h4.38c2.36 0 4.28.64 5.75 1.92a6.36 6.36 0 0 1 2.22 5.05Zm-12.35 3.34h3.36c1.33 0 2.35-.28 3.07-.85a3.02 3.02 0 0 0 1.09-2.49c0-1.08-.37-1.92-1.09-2.5a4.8 4.8 0 0 0-3.08-.87h-3.35v6.71Zm25.89-3.4h-10.26v-3.99h10.26v3.99Zm12.22 7.67a9.22 9.22 0 0 1-6-1.94 6.56 6.56 0 0 1-2.47-5.01h4.36a3.5 3.5 0 0 0 1.35 2.33c.77.59 1.7.89 2.79.89 1.23 0 2.23-.39 3-1.16a4.06 4.06 0 0 0 1.18-3.02 4 4 0 0 0-4.15-4.25c-.85 0-1.63.19-2.32.57-.69.36-1.23.87-1.63 1.51h-4.22l1.11-12.97h14.35v3.75h-10.64l-.52 6.18h.09a4.84 4.84 0 0 1 2-1.82 6.64 6.64 0 0 1 3.02-.65c2.16 0 3.93.71 5.31 2.14a7.37 7.37 0 0 1 2.1 5.42c0 2.38-.81 4.32-2.43 5.81-1.6 1.48-3.69 2.22-6.28 2.22Zm26.83-3.17a7.94 7.94 0 0 1-6.67 3.17 7.99 7.99 0 0 1-6.69-3.16c-1.62-2.11-2.44-5-2.44-8.65 0-3.64.82-6.5 2.44-8.6a8.03 8.03 0 0 1 6.69-3.15 7.96 7.96 0 0 1 6.67 3.14c1.63 2.09 2.44 4.96 2.44 8.59 0 3.65-.81 6.53-2.44 8.66Zm-9.86-2.72c.77 1.41 1.83 2.11 3.19 2.11 1.35 0 2.41-.7 3.17-2.1.76-1.4 1.14-3.38 1.14-5.93 0-2.53-.38-4.49-1.15-5.88-.77-1.39-1.82-2.09-3.16-2.09s-2.4.7-3.17 2.09c-.77 1.4-1.16 3.36-1.16 5.88 0 2.54.38 4.51 1.14 5.92Zm14.78-10.38c0-2.13.77-3.88 2.31-5.23a8.82 8.82 0 0 1 6.02-2.05c2.37 0 4.29.62 5.78 1.85a5.77 5.77 0 0 1 2.24 4.67c0 .68-.11 1.33-.32 1.97a7.03 7.03 0 0 1-.96 1.89 22.9 22.9 0 0 1-3.08 3.53l-5.5 5.3v.09h10.17v3.75h-16.39v-3.17l8.5-8.19a16.4 16.4 0 0 0 2.34-2.76c.43-.7.64-1.44.64-2.22 0-.86-.34-1.58-1.01-2.16a3.82 3.82 0 0 0-2.57-.88c-1.09 0-2 .35-2.71 1.04a3.36 3.36 0 0 0-1.08 2.57v.08h-4.38v-.08Z" class="А-5"/>
      </g>
      <g class="Ladder">
        <rect width="77.47" height="180.4" x="1887.71" y="2925.08" fill="#fff" rx="12" transform="rotate(-90 1887.71 2925.08)"/>
        <g class="stairsup" clip-path="url(#c)">
          <path fill="#000" d="M1960.91 2863.89v7.49h7.5c.12 0 .22.02.28.05.34.06.63.23.87.49.23.27.35.59.35.96v7.49h7.5c.12 0 .22.02.28.05.34.06.63.23.87.49.23.27.35.59.35.96v7.5h7.5a.7.7 0 0 1 .28.04c.34.07.63.23.87.49.23.27.35.59.35.96v7.5h7.5a.7.7 0 0 1 .28.04c.34.07.63.23.87.5.23.26.35.58.35.96v8.99c0 .4-.15.75-.45 1.05-.29.3-.65.45-1.05.45-.41 0-.76-.15-1.06-.45-.29-.3-.44-.65-.44-1.05v-7.5h-7.5a.66.66 0 0 1-.28-.04 1.41 1.41 0 0 1-.87-.52 1.38 1.38 0 0 1-.35-.93v-7.5h-7.5a.66.66 0 0 1-.28-.04 1.46 1.46 0 0 1-.87-.52 1.4 1.4 0 0 1-.35-.94v-7.49h-7.5a.86.86 0 0 1-.28-.04 1.46 1.46 0 0 1-.87-.52 1.4 1.4 0 0 1-.35-.94v-7.49h-7.5c-.13 0-.22-.01-.28-.05a1.42 1.42 0 0 1-.87-.49 1.35 1.35 0 0 1-.35-.96v-8.99c0-.4.15-.76.44-1.05.3-.3.65-.45 1.06-.45.4 0 .76.15 1.05.45.3.29.45.65.45 1.05Z" class="Vector"/>
        </g>
      </g>
      <g class="Ladder">
        <rect width="77.47" height="180.4" x="1886.11" y="3862.35" fill="#fff" rx="12" transform="rotate(-90 1886.11 3862.35)"/>
        <g class="stairsup" clip-path="url(#d)">
          <path fill="#000" d="M1959.31 3801.16v7.49h7.5c.13 0 .22.02.28.05a1.47 1.47 0 0 1 1.22 1.45v7.49h7.5c.13 0 .22.02.28.05a1.47 1.47 0 0 1 1.22 1.45v7.5h7.5c.13 0 .22.01.28.04a1.47 1.47 0 0 1 1.22 1.45v7.5h7.5c.13 0 .22.01.28.04a1.48 1.48 0 0 1 1.22 1.46v8.99c0 .4-.15.75-.44 1.05-.3.3-.65.45-1.06.45a1.4 1.4 0 0 1-1.05-.45c-.3-.3-.45-.65-.45-1.05v-7.5h-7.5a.7.7 0 0 1-.28-.04 1.52 1.52 0 0 1-1.22-1.45v-7.5h-7.5a.7.7 0 0 1-.28-.04 1.52 1.52 0 0 1-1.22-1.46v-7.49h-7.5a.7.7 0 0 1-.28-.05 1.45 1.45 0 0 1-.87-.51 1.44 1.44 0 0 1-.35-.94v-7.49h-7.5a.67.67 0 0 1-.28-.05 1.48 1.48 0 0 1-.87-.49 1.4 1.4 0 0 1-.35-.96v-8.99c0-.41.15-.76.45-1.05.29-.3.64-.45 1.05-.45.41 0 .76.15 1.06.45.29.29.44.64.44 1.05Z" class="Vector"/>
        </g>
      </g>
      <g class="Room">
        <rect width="82.03" height="213.92" x="1700.92" y="3806.15" fill="#8E96FF" rx="12" transform="rotate(90 1700.92 3806.15)"/>
        <path fill="#fff" d="M1556.06 3851.05c0 2.13-.73 3.85-2.18 5.16-1.43 1.3-3.31 1.95-5.64 1.95h-9.25v-22.54h14.99v3.89h-10.27v4.57h4.38c2.36 0 4.28.64 5.75 1.93a6.34 6.34 0 0 1 2.22 5.04Zm-12.35 3.35h3.36a4.8 4.8 0 0 0 3.06-.86c.73-.58 1.1-1.4 1.1-2.49 0-1.08-.37-1.91-1.1-2.5a4.76 4.76 0 0 0-3.07-.87h-3.35v6.72Zm25.89-3.41h-10.26v-3.98h10.26v3.98Zm12.22 7.67a9.13 9.13 0 0 1-6-1.94 6.56 6.56 0 0 1-2.47-5.01h4.36a3.5 3.5 0 0 0 1.35 2.33c.77.59 1.7.89 2.79.89 1.23 0 2.23-.39 3-1.16a4.07 4.07 0 0 0 1.17-3.01c0-1.25-.38-2.27-1.15-3.07a4 4 0 0 0-2.99-1.18c-.85 0-1.63.18-2.32.56-.69.36-1.23.87-1.63 1.51h-4.22l1.11-12.96h14.35v3.75h-10.65l-.51 6.17h.09a4.9 4.9 0 0 1 2-1.82 6.77 6.77 0 0 1 3.02-.65c2.15 0 3.93.71 5.31 2.14a7.38 7.38 0 0 1 2.09 5.42c0 2.39-.8 4.32-2.42 5.81-1.6 1.48-3.7 2.22-6.28 2.22Zm26.83-3.17a7.95 7.95 0 0 1-6.67 3.17 8 8 0 0 1-6.69-3.15c-1.62-2.12-2.44-5-2.44-8.66 0-3.64.82-6.5 2.44-8.59a8 8 0 0 1 6.69-3.16 8 8 0 0 1 6.67 3.14c1.62 2.09 2.44 4.96 2.44 8.59 0 3.65-.82 6.54-2.44 8.66Zm-9.86-2.72c.77 1.41 1.83 2.11 3.19 2.11 1.35 0 2.41-.7 3.17-2.09.76-1.41 1.14-3.39 1.14-5.94 0-2.53-.39-4.49-1.16-5.88-.76-1.39-1.81-2.09-3.15-2.09-1.35 0-2.4.7-3.17 2.09-.78 1.4-1.16 3.36-1.16 5.88 0 2.54.38 4.52 1.14 5.92Zm25.95 5.39v-4.01h-11.22v-4.02c1.84-3.5 4.85-8.34 9.05-14.51h6.66v14.75h2.94v3.78h-2.94v4.01h-4.49Zm-7.07-7.78v.13h7.17v-11.55h-.1a165.63 165.63 0 0 0-4.18 6.36 68.62 68.62 0 0 0-2.89 5.06Zm23.59 4.75c1.01 0 1.86-.29 2.56-.87a2.8 2.8 0 0 0 1.06-2.24v-1.22l-3.53.22c-.85.06-1.51.28-1.98.64-.46.37-.69.85-.69 1.44 0 .62.24 1.12.7 1.48.47.37 1.1.55 1.88.55Zm-1.5 3.3a5.86 5.86 0 0 1-4.02-1.42 4.7 4.7 0 0 1-1.59-3.66c0-1.52.56-2.71 1.69-3.58 1.12-.86 2.73-1.36 4.83-1.48l4.21-.25v-1.11c0-.77-.25-1.38-.76-1.81a2.99 2.99 0 0 0-2.05-.66c-.83 0-1.51.19-2.05.56-.52.38-.83.88-.95 1.52h-4.17a5.08 5.08 0 0 1 2.11-3.97c1.32-1.01 3.08-1.52 5.26-1.52 2.15 0 3.87.51 5.16 1.53a4.94 4.94 0 0 1 1.94 4.07v11.51h-4.41v-2.56h-.09a5.02 5.02 0 0 1-2.1 2.08c-.93.5-1.94.75-3.01.75Z" class="А-5"/>
      </g>
      <g class="Room">
        <rect width="68.36" height="226.69" x="2047.35" y="3066.36" fill="#8E96FF" rx="12" transform="rotate(90 2047.35 3066.36)"/>
        <path fill="#fff" d="M1907.77 3104.43c0 2.12-.72 3.84-2.17 5.15a8.1 8.1 0 0 1-5.64 1.96h-9.25v-22.55h14.98v3.89h-10.26v4.58h4.37c2.37 0 4.28.64 5.75 1.92a6.35 6.35 0 0 1 2.22 5.05Zm-12.34 3.34h3.36c1.32 0 2.34-.29 3.06-.86.73-.57 1.09-1.4 1.09-2.48 0-1.09-.36-1.92-1.09-2.5a4.75 4.75 0 0 0-3.08-.88h-3.34v6.72Zm25.89-3.41h-10.27v-3.98h10.27v3.98Zm12.22 7.68a9.18 9.18 0 0 1-6-1.94 6.52 6.52 0 0 1-2.47-5.02h4.36c.13.96.58 1.74 1.34 2.33.77.59 1.7.89 2.8.89 1.23 0 2.23-.38 3-1.16a4.07 4.07 0 0 0 1.17-3.01 4.2 4.2 0 0 0-1.16-3.06 3.94 3.94 0 0 0-2.98-1.19 4.9 4.9 0 0 0-2.33.56 4.1 4.1 0 0 0-1.62 1.52h-4.22l1.11-12.97h14.34v3.75h-10.64l-.52 6.17h.1a4.82 4.82 0 0 1 2-1.81 6.6 6.6 0 0 1 3.01-.66c2.16 0 3.93.71 5.32 2.14a7.44 7.44 0 0 1 2.09 5.42c0 2.39-.81 4.33-2.42 5.82-1.61 1.48-3.7 2.22-6.28 2.22Zm26.82-3.18a7.9 7.9 0 0 1-6.67 3.18 7.99 7.99 0 0 1-6.68-3.16c-1.63-2.12-2.44-5-2.44-8.66 0-3.63.81-6.5 2.44-8.59a7.98 7.98 0 0 1 6.68-3.16 7.98 7.98 0 0 1 6.67 3.14c1.63 2.1 2.44 4.96 2.44 8.6 0 3.64-.81 6.53-2.44 8.65Zm-9.85-2.72c.77 1.41 1.83 2.11 3.18 2.11 1.36 0 2.41-.69 3.17-2.09.76-1.41 1.15-3.39 1.15-5.94 0-2.53-.39-4.49-1.16-5.87-.76-1.4-1.81-2.1-3.16-2.1-1.34 0-2.4.7-3.17 2.1-.77 1.39-1.16 3.35-1.16 5.87 0 2.54.38 4.52 1.15 5.92Zm20.68 5.4v-18.22h-.09l-5.75 3.97v-4.25l5.83-4.05h4.68v22.55h-4.67Z" class="А-5"/>
      </g>
      <g class="Room">
        <rect width="82.03" height="210.73" x="1700.92" y="3306.37" fill="#8E96FF" rx="12" transform="rotate(90 1700.92 3306.37)"/>
        <path fill="#fff" d="M1568.06 3351.28c0 2.12-.73 3.84-2.17 5.15-1.44 1.31-3.32 1.96-5.64 1.96H1551v-22.55h14.98v3.89h-10.27v4.58h4.38c2.36 0 4.28.64 5.75 1.92a6.35 6.35 0 0 1 2.22 5.05Zm-12.35 3.34h3.36c1.33 0 2.35-.29 3.07-.86.73-.57 1.09-1.4 1.09-2.48 0-1.09-.36-1.92-1.09-2.5a4.75 4.75 0 0 0-3.08-.88h-3.35v6.72Zm25.9-3.41h-10.27v-3.98h10.27v3.98Zm12.21 7.68a9.22 9.22 0 0 1-6-1.94 6.53 6.53 0 0 1-2.46-5.02h4.35c.14.96.59 1.74 1.35 2.33.77.6 1.7.89 2.8.89 1.22 0 2.22-.38 3-1.15a4.1 4.1 0 0 0 1.17-3.02 4.2 4.2 0 0 0-1.16-3.06 3.98 3.98 0 0 0-2.98-1.19 4.9 4.9 0 0 0-2.33.56c-.69.37-1.23.87-1.63 1.52h-4.22l1.11-12.97h14.35v3.75h-10.64l-.52 6.17h.1a4.76 4.76 0 0 1 2-1.81 6.6 6.6 0 0 1 3.01-.66c2.16 0 3.93.72 5.31 2.14a7.41 7.41 0 0 1 2.1 5.43c0 2.38-.81 4.32-2.42 5.81-1.61 1.48-3.7 2.22-6.29 2.22Zm26.83-3.18a7.92 7.92 0 0 1-6.67 3.18 8.02 8.02 0 0 1-6.69-3.16c-1.62-2.11-2.43-5-2.43-8.66 0-3.63.81-6.5 2.43-8.59a8.04 8.04 0 0 1 6.69-3.16 7.99 7.99 0 0 1 6.67 3.14c1.63 2.1 2.44 4.96 2.44 8.6 0 3.64-.81 6.53-2.44 8.65Zm-9.86-2.71c.77 1.4 1.84 2.11 3.19 2.11 1.35 0 2.41-.7 3.17-2.1.76-1.4 1.14-3.38 1.14-5.94 0-2.53-.38-4.49-1.15-5.87-.76-1.4-1.82-2.09-3.16-2.09s-2.4.69-3.17 2.09-1.16 3.35-1.16 5.87c0 2.55.38 4.52 1.14 5.93Zm15.82 5.39 9.7-18.71v-.09h-11.47v-3.75h16.12v3.8l-9.4 18.75h-4.95Z" class="А-5"/>
      </g>
      <g class="Room">
        <rect width="206" height="201" x="1490" y="3597" fill="#8E96FF" rx="12"/>
        <path fill="#fff" d="M1564.45 3701.39c0 2.13-.72 3.84-2.17 5.16-1.44 1.3-3.32 1.95-5.64 1.95h-9.25v-22.55h14.99v3.89h-10.27v4.58h4.37c2.37 0 4.29.64 5.75 1.92a6.36 6.36 0 0 1 2.22 5.05Zm-12.34 3.34h3.36c1.32 0 2.34-.28 3.06-.85a3 3 0 0 0 1.09-2.49c0-1.08-.36-1.92-1.09-2.5a4.79 4.79 0 0 0-3.08-.87h-3.34v6.71Zm25.89-3.4h-10.27v-3.99H1578v3.99Zm12.22 7.67a9.18 9.18 0 0 1-6-1.94 6.53 6.53 0 0 1-2.47-5.01h4.36c.13.96.58 1.73 1.34 2.33.77.59 1.71.89 2.8.89 1.23 0 2.23-.39 3-1.16a4.1 4.1 0 0 0 1.17-3.02 4.2 4.2 0 0 0-1.15-3.06 4.02 4.02 0 0 0-2.99-1.19c-.85 0-1.63.19-2.33.57-.68.36-1.23.87-1.62 1.51h-4.22l1.11-12.97h14.34v3.75h-10.64l-.51 6.18h.09a4.84 4.84 0 0 1 2-1.82 6.64 6.64 0 0 1 3.02-.65c2.15 0 3.92.71 5.31 2.14a7.4 7.4 0 0 1 2.09 5.42c0 2.38-.81 4.32-2.42 5.81-1.6 1.48-3.7 2.22-6.28 2.22Zm26.83-3.17a7.95 7.95 0 0 1-6.67 3.17 7.97 7.97 0 0 1-6.69-3.16c-1.63-2.11-2.44-5-2.44-8.65 0-3.64.81-6.5 2.44-8.6a8 8 0 0 1 6.69-3.15 7.98 7.98 0 0 1 6.67 3.14c1.62 2.09 2.43 4.96 2.43 8.59 0 3.65-.81 6.53-2.43 8.66Zm-9.86-2.72c.77 1.41 1.83 2.11 3.19 2.11 1.35 0 2.41-.7 3.17-2.1.76-1.4 1.14-3.38 1.14-5.93 0-2.53-.39-4.49-1.16-5.88-.76-1.39-1.81-2.09-3.15-2.09-1.35 0-2.41.7-3.18 2.09-.77 1.4-1.15 3.36-1.15 5.88 0 2.54.38 4.51 1.14 5.92Zm23.72 5.89a9.18 9.18 0 0 1-6-1.94 6.5 6.5 0 0 1-2.47-5.01h4.36c.13.96.58 1.73 1.34 2.33.77.59 1.7.89 2.8.89 1.23 0 2.23-.39 3-1.16a4.1 4.1 0 0 0 1.17-3.02 4.2 4.2 0 0 0-1.16-3.06 3.98 3.98 0 0 0-2.98-1.19c-.86 0-1.63.19-2.33.57-.69.36-1.23.87-1.62 1.51h-4.22l1.11-12.97h14.34v3.75h-10.64l-.52 6.18h.1a4.78 4.78 0 0 1 2-1.82 6.6 6.6 0 0 1 3.01-.65c2.16 0 3.93.71 5.32 2.14a7.4 7.4 0 0 1 2.09 5.42c0 2.38-.81 4.32-2.42 5.81-1.61 1.48-3.7 2.22-6.28 2.22Z" class="А-5"/>
      </g>
      <g class="Room">
        <rect width="211" height="193" x="1490" y="3396" fill="#8E96FF" rx="12"/>
        <path fill="#fff" d="M1566.58 3496.39c0 2.13-.73 3.84-2.17 5.16-1.44 1.3-3.32 1.95-5.64 1.95h-9.25v-22.55h14.98v3.89h-10.27v4.58h4.38c2.36 0 4.28.64 5.75 1.92a6.36 6.36 0 0 1 2.22 5.05Zm-12.35 3.34h3.36c1.33 0 2.35-.28 3.07-.85a3 3 0 0 0 1.09-2.49c0-1.08-.36-1.92-1.09-2.5a4.8 4.8 0 0 0-3.08-.87h-3.35v6.71Zm25.89-3.4h-10.26v-3.99h10.26v3.99Zm12.22 7.67a9.22 9.22 0 0 1-6-1.94 6.52 6.52 0 0 1-2.46-5.01h4.35a3.5 3.5 0 0 0 1.35 2.33c.77.59 1.7.89 2.8.89a4.1 4.1 0 0 0 3-1.16 4.1 4.1 0 0 0 1.17-3.02 4.2 4.2 0 0 0-1.16-3.06 4 4 0 0 0-2.98-1.19c-.86 0-1.63.19-2.33.57-.69.36-1.23.87-1.63 1.51h-4.22l1.11-12.97h14.35v3.75h-10.64l-.52 6.18h.09a4.84 4.84 0 0 1 2-1.82 6.67 6.67 0 0 1 3.02-.65c2.16 0 3.93.71 5.31 2.14a7.37 7.37 0 0 1 2.1 5.42c0 2.38-.81 4.32-2.43 5.81-1.6 1.48-3.69 2.22-6.28 2.22Zm26.83-3.17a7.94 7.94 0 0 1-6.67 3.17 7.99 7.99 0 0 1-6.69-3.16c-1.62-2.11-2.43-5-2.43-8.65 0-3.64.81-6.5 2.43-8.6a8.03 8.03 0 0 1 6.69-3.15 7.96 7.96 0 0 1 6.67 3.14c1.63 2.09 2.44 4.96 2.44 8.59 0 3.65-.81 6.53-2.44 8.66Zm-9.86-2.72c.77 1.41 1.84 2.11 3.19 2.11 1.35 0 2.41-.7 3.17-2.1.76-1.4 1.14-3.38 1.14-5.93 0-2.53-.38-4.49-1.15-5.88-.76-1.39-1.82-2.09-3.16-2.09s-2.4.7-3.17 2.09c-.77 1.4-1.16 3.36-1.16 5.88 0 2.54.38 4.51 1.14 5.92Zm24.3 5.91a8.96 8.96 0 0 1-4.38-1.07 8.38 8.38 0 0 1-3.11-3.09c-1.26-1.93-1.89-4.41-1.89-7.45 0-3.72.85-6.64 2.54-8.77a8.34 8.34 0 0 1 6.92-3.2c2.14 0 3.98.58 5.51 1.73a6.93 6.93 0 0 1 2.77 4.5h-4.64a3.33 3.33 0 0 0-1.35-1.81 3.97 3.97 0 0 0-2.32-.69c-1.59 0-2.82.72-3.71 2.16-.87 1.44-1.28 3.42-1.23 5.95h.09c.46-1.11 1.22-2 2.28-2.67 1.07-.67 2.31-1 3.72-1 2.15 0 3.92.71 5.33 2.12a7.18 7.18 0 0 1 2.13 5.32c0 2.32-.82 4.23-2.44 5.73a8.86 8.86 0 0 1-6.22 2.24Zm-.05-3.77c1.15 0 2.12-.39 2.91-1.17.8-.79 1.2-1.76 1.2-2.89a3.98 3.98 0 0 0-4.09-4.03c-1.18 0-2.16.38-2.96 1.14a3.8 3.8 0 0 0-1.17 2.84 4 4 0 0 0 1.19 2.92 3.98 3.98 0 0 0 2.92 1.19Z" class="А-5"/>
      </g>
      <g class="Room">
        <rect width="211" height="278" x="1490" y="3020" fill="#8E96FF" rx="12"/>
        <path fill="#fff" d="M1566.44 3162.89c0 2.13-.73 3.84-2.17 5.16-1.44 1.3-3.32 1.95-5.65 1.95h-9.24v-22.55h14.98v3.89h-10.27v4.58h4.38c2.36 0 4.28.64 5.75 1.92a6.36 6.36 0 0 1 2.22 5.05Zm-12.35 3.34h3.36c1.33 0 2.35-.28 3.07-.85a3.02 3.02 0 0 0 1.09-2.49c0-1.08-.37-1.92-1.09-2.5a4.8 4.8 0 0 0-3.08-.87h-3.35v6.71Zm25.89-3.4h-10.26v-3.99h10.26v3.99Zm12.22 7.67a9.22 9.22 0 0 1-6-1.94 6.56 6.56 0 0 1-2.47-5.01h4.36a3.5 3.5 0 0 0 1.35 2.33c.77.59 1.7.89 2.79.89 1.23 0 2.23-.39 3-1.16a4.06 4.06 0 0 0 1.18-3.02 4.2 4.2 0 0 0-1.16-3.06 4 4 0 0 0-2.98-1.19c-.86 0-1.63.19-2.33.57-.69.36-1.23.87-1.63 1.51h-4.22l1.11-12.97h14.35v3.75h-10.64l-.52 6.18h.09a4.84 4.84 0 0 1 2-1.82 6.64 6.64 0 0 1 3.02-.65c2.16 0 3.93.71 5.31 2.14a7.37 7.37 0 0 1 2.1 5.42c0 2.38-.81 4.32-2.43 5.81-1.6 1.48-3.69 2.22-6.28 2.22Zm26.83-3.17a7.94 7.94 0 0 1-6.67 3.17 7.99 7.99 0 0 1-6.69-3.16c-1.62-2.11-2.44-5-2.44-8.65 0-3.64.82-6.5 2.44-8.6a8.03 8.03 0 0 1 6.69-3.15 7.96 7.96 0 0 1 6.67 3.14c1.63 2.09 2.44 4.96 2.44 8.59 0 3.65-.81 6.53-2.44 8.66Zm-9.86-2.72c.77 1.41 1.84 2.11 3.19 2.11 1.35 0 2.41-.7 3.17-2.1.76-1.4 1.14-3.38 1.14-5.93 0-2.53-.38-4.49-1.15-5.88-.76-1.39-1.82-2.09-3.16-2.09s-2.4.7-3.17 2.09c-.77 1.4-1.16 3.36-1.16 5.88 0 2.54.38 4.51 1.14 5.92Zm24.05 5.89c-2.73 0-4.94-.61-6.63-1.83a5.68 5.68 0 0 1-2.51-4.78 5.4 5.4 0 0 1 1.47-3.8 6.46 6.46 0 0 1 3.83-1.98v-.09a5.87 5.87 0 0 1-3.19-1.85 5.1 5.1 0 0 1 1.11-7.53c1.54-1.12 3.51-1.69 5.92-1.69 2.42 0 4.39.57 5.92 1.69a5.1 5.1 0 0 1 2.3 4.28c0 1.22-.4 2.3-1.21 3.24a5.91 5.91 0 0 1-3.17 1.86v.09c1.59.27 2.86.94 3.83 2a5.38 5.38 0 0 1 1.47 3.8c0 1.95-.85 3.54-2.55 4.76-1.69 1.22-3.88 1.83-6.59 1.83Zm-3.05-4.42c.79.65 1.81.98 3.05.98 1.24 0 2.25-.33 3.03-.98a3.19 3.19 0 0 0 1.17-2.53c0-1.02-.39-1.86-1.17-2.52-.78-.67-1.79-1-3.03-1-1.24 0-2.26.33-3.05 1a3.16 3.16 0 0 0-1.17 2.52c0 1.02.39 1.86 1.17 2.53Zm.49-10.36c.66.58 1.52.87 2.56.87s1.89-.29 2.56-.87c.67-.6 1-1.34 1-2.24 0-.9-.33-1.65-1-2.23a3.73 3.73 0 0 0-2.56-.89c-1.04 0-1.9.3-2.56.89-.67.58-1 1.33-1 2.23 0 .91.33 1.66 1 2.24Z" class="А-5"/>
      </g>
      <g class="Room">
        <rect width="211" height="197" x="1490" y="2815" fill="#8E96FF" rx="12"/>
        <path fill="#fff" d="M1566.55 2917.39c0 2.13-.73 3.84-2.17 5.16-1.44 1.3-3.32 1.95-5.65 1.95h-9.25v-22.55h14.99v3.89h-10.27v4.58h4.38c2.36 0 4.28.64 5.75 1.92a6.36 6.36 0 0 1 2.22 5.05Zm-12.35 3.34h3.36c1.33 0 2.35-.28 3.06-.85a3 3 0 0 0 1.1-2.49c0-1.08-.37-1.92-1.1-2.5a4.76 4.76 0 0 0-3.07-.87h-3.35v6.71Zm25.89-3.4h-10.26v-3.99h10.26v3.99Zm12.22 7.67a9.22 9.22 0 0 1-6-1.94 6.56 6.56 0 0 1-2.47-5.01h4.36a3.5 3.5 0 0 0 1.35 2.33c.77.59 1.7.89 2.79.89 1.23 0 2.23-.39 3-1.16a4.1 4.1 0 0 0 1.18-3.02 4.2 4.2 0 0 0-1.16-3.06 4 4 0 0 0-2.98-1.19c-.86 0-1.64.19-2.33.57-.69.36-1.23.87-1.63 1.51h-4.22l1.11-12.97h14.35v3.75h-10.64l-.52 6.18h.09a4.84 4.84 0 0 1 2-1.82 6.64 6.64 0 0 1 3.02-.65c2.16 0 3.93.71 5.31 2.14a7.37 7.37 0 0 1 2.1 5.42c0 2.38-.81 4.32-2.43 5.81-1.6 1.48-3.69 2.22-6.28 2.22Zm26.83-3.17a7.94 7.94 0 0 1-6.67 3.17 7.99 7.99 0 0 1-6.69-3.16c-1.62-2.11-2.44-5-2.44-8.65 0-3.64.82-6.5 2.44-8.6a8.03 8.03 0 0 1 6.69-3.15 7.96 7.96 0 0 1 6.67 3.14c1.63 2.09 2.44 4.96 2.44 8.59 0 3.65-.81 6.53-2.44 8.66Zm-9.86-2.72c.77 1.41 1.83 2.11 3.19 2.11 1.35 0 2.41-.7 3.17-2.1.76-1.4 1.14-3.38 1.14-5.93 0-2.53-.38-4.49-1.16-5.88-.76-1.39-1.81-2.09-3.15-2.09-1.35 0-2.4.7-3.17 2.09-.77 1.4-1.16 3.36-1.16 5.88 0 2.54.38 4.51 1.14 5.92Zm23.47 5.89a9.02 9.02 0 0 1-5.55-1.73 6.97 6.97 0 0 1-2.78-4.52h4.66a3.3 3.3 0 0 0 1.36 1.83c.68.46 1.48.69 2.39.69 1.57 0 2.79-.72 3.65-2.15.88-1.42 1.29-3.42 1.22-5.98h-.09a5.3 5.3 0 0 1-2.22 2.69c-1.06.66-2.32 1-3.78 1a7.3 7.3 0 0 1-7.49-7.44c0-2.31.82-4.21 2.46-5.7a8.85 8.85 0 0 1 6.23-2.25c1.64 0 3.1.35 4.39 1.06a8 8 0 0 1 3.13 3.06c1.26 1.94 1.89 4.43 1.89 7.47 0 3.74-.84 6.67-2.52 8.8-1.66 2.11-3.98 3.17-6.95 3.17Zm-2.84-12.86a4.04 4.04 0 0 0 2.93 1.14c1.18 0 2.16-.38 2.94-1.14a3.83 3.83 0 0 0 1.19-2.86c0-1.14-.4-2.11-1.19-2.89a3.95 3.95 0 0 0-2.9-1.19c-1.16 0-2.14.39-2.94 1.18a3.85 3.85 0 0 0-1.21 2.87c0 1.16.39 2.12 1.18 2.89Z" class="А-5"/>
      </g>
      <rect width="1078.54" height="103.77" x="1708.91" y="3892.73" fill="#262A34" class="BigAreaPath" rx="12" transform="rotate(-90 1708.91 3892.73)"/>
      <rect width="139.75" height="111.75" x="1766.38" y="3892.73" fill="#262A34" class="BigAreaPath" rx="12" transform="rotate(-90 1766.38 3892.73)"/>
      <rect width="142.79" height="111.75" x="1767.97" y="2956.98" fill="#262A34" class="BigAreaPath" rx="12" transform="rotate(-90 1767.97 2956.98)"/>
    </g>
  </g>
  <defs>
    <clipPath id="a" class="a">
      <path fill="#fff" d="M1521.5 1485.5h48v48h-48z"/>
    </clipPath>
    <clipPath id="b" class="b">
      <path fill="#fff" d="M4020.5 1485.5h48v48h-48z"/>
    </clipPath>
    <clipPath id="c" class="c">
      <path fill="#fff" d="M1953.91 2910.35v-48h48v48z"/>
    </clipPath>
    <clipPath id="d" class="d">
      <path fill="#fff" d="M1952.32 3847.62v-48h48v48z"/>
    </clipPath>
  </defs>
</svg>
