<svg width="24" height="24" viewBox="0 0 24 24" fill="none" xmlns="http://www.w3.org/2000/svg">
<path d="M11.05 22C7.01949 22 5.00424 22 3.75212 20.6464C2.5 19.2927 2.5 17.1141 2.5 12.7568V12.2432C2.5 7.88594 2.5 5.70728 3.75212 4.35364C5.00424 3 7.01949 3 11.05 3H12.95C16.9805 3 18.9958 3 20.2479 4.35364C21.4267 5.62803 21.4957 7.63364 21.4997 11.5V13" stroke="#141B34" stroke-width="1.5" stroke-linecap="round" stroke-linejoin="round"/>
<path opacity="0.4" d="M21 18.5L13 18.5M21 18.5C21 19.2002 19.0057 20.5085 18.5 21M21 18.5C21 17.7998 19.0057 16.4915 18.5 16" stroke="#141B34" stroke-width="1.5" stroke-linecap="round" stroke-linejoin="round"/>
<path d="M18 2V4M6 2V4" stroke="#141B34" stroke-width="1.5" stroke-linecap="round" stroke-linejoin="round"/>
<path d="M3 8H21" stroke="#141B34" stroke-width="1.5" stroke-linecap="round" stroke-linejoin="round"/>
</svg>
