<svg width="24" height="24" viewBox="0 0 24 24" fill="none" xmlns="http://www.w3.org/2000/svg">
<path d="M19.5 5.5L19.0982 12.0062M4.5 5.5L5.10461 15.5248C5.25945 18.0922 5.33688 19.3759 5.97868 20.299C6.296 20.7554 6.7048 21.1407 7.17905 21.4302C7.85035 21.84 8.68108 21.9631 10 22" stroke="#141B34" stroke-width="1.5" stroke-linecap="round"/>
<path opacity="0.4" d="M20 15L13 21.9995M20 22L13 15.0005" stroke="#141B34" stroke-width="1.5" stroke-linecap="round" stroke-linejoin="round"/>
<path d="M21 5.5H3" stroke="#141B34" stroke-width="1.5" stroke-linecap="round"/>
<path d="M16.0575 5.5L15.3748 4.09173C14.9213 3.15626 14.6946 2.68852 14.3035 2.39681C14.2167 2.3321 14.1249 2.27454 14.0288 2.2247C13.5957 2 13.0759 2 12.0363 2C10.9706 2 10.4377 2 9.99745 2.23412C9.89986 2.28601 9.80675 2.3459 9.71906 2.41317C9.3234 2.7167 9.10239 3.20155 8.66037 4.17126L8.05469 5.5" stroke="#141B34" stroke-width="1.5" stroke-linecap="round"/>
</svg>
