<svg width="24" height="24" viewBox="0 0 24 24" fill="none" xmlns="http://www.w3.org/2000/svg">
<path d="M2.5 12C2.5 7.52166 2.5 5.28249 3.89124 3.89124C5.28249 2.5 7.52166 2.5 12 2.5C16.4783 2.5 18.7175 2.5 20.1088 3.89124C21.5 5.28249 21.5 7.52166 21.5 12C21.5 16.4783 21.5 18.7175 20.1088 20.1088C18.7175 21.5 16.4783 21.5 12 21.5C7.52166 21.5 5.28249 21.5 3.89124 20.1088C2.5 18.7175 2.5 16.4783 2.5 12Z" stroke="#141B34" stroke-width="1.5"/>
<path opacity="0.4" d="M16.4697 17.5303C16.7626 17.8232 17.2374 17.8232 17.5303 17.5303C17.8232 17.2374 17.8232 16.7626 17.5303 16.4697L16.4697 17.5303ZM14.4697 15.5303L16.4697 17.5303L17.5303 16.4697L15.5303 14.4697L14.4697 15.5303ZM16.75 11.5C16.75 8.6005 14.3995 6.25 11.5 6.25V7.75C13.5711 7.75 15.25 9.42893 15.25 11.5H16.75ZM11.5 6.25C8.6005 6.25 6.25 8.6005 6.25 11.5H7.75C7.75 9.42893 9.42893 7.75 11.5 7.75V6.25ZM6.25 11.5C6.25 14.3995 8.6005 16.75 11.5 16.75V15.25C9.42893 15.25 7.75 13.5711 7.75 11.5H6.25ZM11.5 16.75C14.3995 16.75 16.75 14.3995 16.75 11.5H15.25C15.25 13.5711 13.5711 15.25 11.5 15.25V16.75Z" fill="#141B34"/>
</svg>
