<svg width="24" height="24" viewBox="0 0 24 24" fill="none" xmlns="http://www.w3.org/2000/svg">
<path opacity="0.4" d="M14 14L16.4333 16.4333M16.4333 16.4333C17.0109 15.8556 17.9475 15.8556 18.5252 16.4333L21.5667 19.4748C22.1444 20.0525 22.1444 20.9891 21.5667 21.5667C20.9891 22.1444 20.0525 22.1444 19.4748 21.5667L16.4333 18.5252C15.8556 17.9475 15.8556 17.0109 16.4333 16.4333Z" stroke="#141B34" stroke-width="1.5" stroke-linecap="round"/>
<path d="M16 9C16 5.13401 12.866 2 9 2C5.13401 2 2 5.13401 2 9C2 12.866 5.13401 16 9 16C12.866 16 16 12.866 16 9Z" stroke="#141B34" stroke-width="1.5" stroke-linejoin="round"/>
</svg>
