<svg width="24" height="24" viewBox="0 0 24 24" fill="none" xmlns="http://www.w3.org/2000/svg">
<path opacity="0.4" d="M11.9854 15.4083L15.2268 19.0936C16.4277 20.4589 17.0282 21.1416 17.6567 20.9754C18.2852 20.8092 18.5008 19.9108 18.9318 18.1138L21.3229 8.1459C21.9868 5.37832 22.3187 3.99454 21.5808 3.312C20.843 2.62947 19.564 3.13725 17.0061 4.15282L5.13876 8.86449C3.09293 9.67674 2.07001 10.0829 2.00507 10.7808C1.99842 10.8522 1.99831 10.9241 2.00474 10.9955C2.06754 11.6937 3.08921 12.1033 5.13255 12.9223C6.05838 13.2934 6.5213 13.479 6.8532 13.8344C6.89052 13.8743 6.9264 13.9157 6.96078 13.9584C7.26658 14.3384 7.39709 14.8371 7.65808 15.8344L8.14653 17.701C8.4005 18.6715 8.52749 19.1568 8.86008 19.223C9.19267 19.2891 9.48225 18.8867 10.0614 18.0819L11.9854 15.4083ZM11.9854 15.4083L11.6676 15.0771C11.3059 14.7001 11.1251 14.5117 11.1251 14.2775C11.1251 14.0433 11.3059 13.8548 11.6676 13.4778L15.2406 9.75409" stroke="#141B34" stroke-width="1.5" stroke-linecap="round" stroke-linejoin="round"/>
<path d="M15.2389 9.75409L11.665 13.4778C11.3032 13.8548 11.1223 14.0433 11.1223 14.2775C11.1223 14.5117 11.3032 14.7001 11.665 15.0771L11.9829 15.4083L15.2251 19.0936C16.4263 20.4589 17.0269 21.1416 17.6556 20.9754C18.2843 20.8092 18.4999 19.9108 18.931 18.1138L21.3227 8.1459C21.9868 5.37832 22.3188 3.99454 21.5807 3.312C20.8427 2.62947 19.5634 3.13725 17.0048 4.15282L5.13449 8.86449C3.08814 9.67674 2.06496 10.0829 2 10.7808" stroke="#141B34" stroke-width="1.5" stroke-linecap="round" stroke-linejoin="round"/>
</svg>
