<svg width="48" height="48" viewBox="0 0 48 48" fill="none" xmlns="http://www.w3.org/2000/svg">
<circle cx="24" cy="24" r="24" fill="#246BFD"/>
<mask id="mask0" mask-type="alpha" maskUnits="userSpaceOnUse" x="0" y="0" width="48" height="48">
<circle cx="24" cy="24" r="24" fill="white"/>
</mask>
<g mask="url(#mask0)">
<path fill-rule="evenodd" clip-rule="evenodd" d="M28.4186 14.603C28.3728 14.2625 28.0831 14 27.7326 14C27.3503 14 27.0403 14.3124 27.0403 14.6977V15.469H20.9681V14.6977L20.9618 14.603C20.916 14.2625 20.6263 14 20.2758 14C19.8935 14 19.5835 14.3124 19.5835 14.6977V15.4863C16.7465 15.6817 15 17.5199 15 20.4858V28.9041C15 32.0872 16.9583 34 20.0963 34H27.9036C31.0453 34 32.9999 32.1193 32.9999 28.9744V20.4858C33.009 17.5189 31.268 15.6812 28.4249 15.4863V14.6977L28.4186 14.603ZM27.0403 16.8644V17.7589L27.0466 17.8535C27.0925 18.1941 27.3821 18.4565 27.7326 18.4565C28.115 18.4565 28.4249 18.1442 28.4249 17.7589V16.885C30.4935 17.0571 31.622 18.3027 31.6153 20.4836V20.8877H16.3846V20.4858C16.3846 18.3063 17.5193 17.058 19.5835 16.8851V17.7589L19.5898 17.8535C19.6357 18.1941 19.9253 18.4565 20.2758 18.4565C20.6582 18.4565 20.9681 18.1442 20.9681 17.7589V16.8644H27.0403ZM16.3846 22.283V28.9041C16.3846 31.3067 17.7135 32.6047 20.0963 32.6047H27.9036C30.2946 32.6047 31.6153 31.3338 31.6153 28.9744L31.6153 22.283H16.3846ZM28.8012 25.2183C28.8012 24.833 28.4912 24.5206 28.1089 24.5206L28.0064 24.527C27.6685 24.5732 27.408 24.8651 27.408 25.2183C27.408 25.6036 27.718 25.916 28.1089 25.916L28.2028 25.9096C28.5407 25.8634 28.8012 25.5715 28.8012 25.2183ZM24.0128 24.5206C24.3951 24.5206 24.7051 24.833 24.7051 25.2183C24.7051 25.5715 24.4446 25.8634 24.1067 25.9096L24.0128 25.916C23.6219 25.916 23.3119 25.6036 23.3119 25.2183C23.3119 24.8651 23.5724 24.5732 23.9103 24.527L24.0128 24.5206ZM20.6004 25.2183C20.6004 24.833 20.2905 24.5206 19.9081 24.5206L19.8056 24.527C19.4677 24.5732 19.2073 24.8651 19.2073 25.2183C19.2073 25.6036 19.5172 25.916 19.8996 25.916L20.0021 25.9096C20.34 25.8634 20.6004 25.5715 20.6004 25.2183ZM28.1089 28.136C28.4912 28.136 28.8012 28.4484 28.8012 28.8337C28.8012 29.1869 28.5407 29.4788 28.2028 29.525L28.1089 29.5314C27.718 29.5314 27.408 29.219 27.408 28.8337C27.408 28.4805 27.6685 28.1886 28.0064 28.1424L28.1089 28.136ZM24.7051 28.8337C24.7051 28.4484 24.3951 28.136 24.0128 28.136L23.9103 28.1424C23.5724 28.1886 23.3119 28.4805 23.3119 28.8337C23.3119 29.219 23.6219 29.5314 24.0128 29.5314L24.1067 29.525C24.4446 29.4788 24.7051 29.1869 24.7051 28.8337ZM19.9081 28.136C20.2905 28.136 20.6004 28.4484 20.6004 28.8337C20.6004 29.1869 20.34 29.4788 20.0021 29.525L19.8996 29.5314C19.5172 29.5314 19.2073 29.219 19.2073 28.8337C19.2073 28.4805 19.4677 28.1886 19.8056 28.1424L19.9081 28.136Z" fill="white"/>
</g>
</svg>
