<svg width="24" height="24" viewBox="0 0 24 24" fill="none" xmlns="http://www.w3.org/2000/svg">
<path d="M5.32171 9.68293C7.73539 5.41199 8.94222 3.27651 10.5983 2.72681C11.5093 2.4244 12.4907 2.4244 13.4017 2.72681C15.0578 3.27651 16.2646 5.41199 18.6783 9.68293C21.092 13.9539 22.2988 16.0893 21.9368 17.8293C21.7376 18.7866 21.2469 19.6549 20.535 20.3097C19.241 21.5 16.8274 21.5 12 21.5C7.17265 21.5 4.75897 21.5 3.46496 20.3097C2.75308 19.6549 2.26239 18.7866 2.06322 17.8293C1.70119 16.0893 2.90803 13.9539 5.32171 9.68293Z" stroke="#141B34" stroke-width="1.5"/>
<path opacity="0.4" d="M11.992 16H12.001" stroke="#141B34" stroke-width="2" stroke-linecap="round" stroke-linejoin="round"/>
<path opacity="0.4" d="M12 13L12 9" stroke="#141B34" stroke-width="1.5" stroke-linecap="round" stroke-linejoin="round"/>
</svg>
