<svg width="24" height="24" viewBox="0 0 24 24" fill="none" xmlns="http://www.w3.org/2000/svg">
<path d="M19.5 5.5L18.8803 15.5251C18.7219 18.0864 18.6428 19.3671 18.0008 20.2879C17.6833 20.7431 17.2747 21.1273 16.8007 21.416C15.8421 22 14.559 22 11.9927 22C9.42312 22 8.1383 22 7.17905 21.4149C6.7048 21.1257 6.296 20.7408 5.97868 20.2848C5.33688 19.3626 5.25945 18.0801 5.10461 15.5152L4.5 5.5" stroke="#141B34" stroke-width="1.5" stroke-linecap="round"/>
<path d="M21 5.5H3" stroke="#141B34" stroke-width="1.5" stroke-linecap="round"/>
<path d="M16.0575 5.5L15.3748 4.09173C14.9213 3.15626 14.6946 2.68852 14.3035 2.39681C14.2167 2.3321 14.1249 2.27454 14.0288 2.2247C13.5957 2 13.0759 2 12.0363 2C10.9706 2 10.4377 2 9.99745 2.23412C9.89986 2.28601 9.80675 2.3459 9.71906 2.41317C9.3234 2.7167 9.10239 3.20155 8.66037 4.17126L8.05469 5.5" stroke="#141B34" stroke-width="1.5" stroke-linecap="round"/>
<path opacity="0.4" d="M9.5 16.5L9.5 10.5" stroke="#141B34" stroke-width="1.5" stroke-linecap="round"/>
<path opacity="0.4" d="M14.5 16.5L14.5 10.5" stroke="#141B34" stroke-width="1.5" stroke-linecap="round"/>
</svg>
