<svg width="24" height="24" viewBox="0 0 24 24" fill="none" xmlns="http://www.w3.org/2000/svg">
<path d="M16 2V4M11 2V4M6 2V4" stroke="#141B34" stroke-width="1.5" stroke-linecap="round" stroke-linejoin="round"/>
<path d="M19.5 10C19.5 6.70017 19.5 5.05025 18.4749 4.02513C17.4497 3 15.7998 3 12.5 3H9.5C6.20017 3 4.55025 3 3.52513 4.02513C2.5 5.05025 2.5 6.70017 2.5 10V15C2.5 18.2998 2.5 19.9497 3.52513 20.9749C4.55025 22 6.20017 22 9.5 22H12.5" stroke="#141B34" stroke-width="1.5" stroke-linecap="round" stroke-linejoin="round"/>
<path opacity="0.4" d="M17.5 14L17.5 22M21.5 18L13.5 18" stroke="#141B34" stroke-width="1.5" stroke-linecap="round"/>
<path opacity="0.4" d="M7 15H11" stroke="#141B34" stroke-width="1.5" stroke-linecap="round"/>
<path d="M7 10H15" stroke="#141B34" stroke-width="1.5" stroke-linecap="round"/>
</svg>
