<svg width="24" height="24" viewBox="0 0 24 24" fill="none" xmlns="http://www.w3.org/2000/svg">
<path d="M8.99396 2C6.19709 2.06395 4.56347 2.33111 3.44729 3.44729C2.33111 4.56347 2.06395 6.19709 2 8.99396M15.006 2C17.8029 2.06395 19.4365 2.33111 20.5527 3.44729C21.6689 4.56347 21.9361 6.19709 22 8.99396M15.006 22C17.8029 21.9361 19.4365 21.6689 20.5527 20.5527C21.6689 19.4365 21.9361 17.8029 22 15.006M8.99396 22C6.19709 21.9361 4.56347 21.6689 3.44729 20.5527C2.33111 19.4365 2.06395 17.8029 2 15.006" stroke="#141B34" stroke-width="1.5" stroke-linecap="round" stroke-linejoin="round"/>
<path opacity="0.4" d="M16.9998 7H17.0088" stroke="#141B34" stroke-width="2" stroke-linecap="round" stroke-linejoin="round"/>
<path d="M13 6V9C13 10.8856 13 11.8284 12.4142 12.4142C11.8284 13 10.8856 13 9 13H6" stroke="#141B34" stroke-width="1.5" stroke-linecap="round"/>
<rect opacity="0.4" x="10" y="6" width="4" height="4" rx="1" transform="rotate(90 10 6)" stroke="#141B34" stroke-width="1.5"/>
<path opacity="0.4" d="M17 15C17.4714 15 17.7071 15 17.8536 15.1464C18 15.2929 18 15.5286 18 16V17C18 17.4714 18 17.7071 17.8536 17.8536C17.7071 18 17.4714 18 17 18H15C14.5286 18 14.2929 18 14.1464 17.8536C14 17.7071 14 17.4714 14 17L14 16C14 15.5286 14 15.2929 14.1464 15.1464C14.2929 15 14.5286 15 15 15L17 15Z" stroke="#141B34" stroke-width="1.5"/>
<path opacity="0.4" d="M6 18H11" stroke="#141B34" stroke-width="1.5" stroke-linecap="round"/>
<path opacity="0.4" d="M17 10L17 12" stroke="#141B34" stroke-width="1.5" stroke-linecap="round"/>
</svg>
