<svg width="27" height="27" viewBox="0 0 27 27" fill="none" xmlns="http://www.w3.org/2000/svg">
<path fill-rule="evenodd" clip-rule="evenodd" d="M18.917 14.3241C19.4051 14.2579 19.7813 13.8395 19.7813 13.3333C19.7813 12.781 19.3336 12.3333 18.7813 12.3333L10.3059 12.3333L13.6092 9.04455L13.7062 8.9326C13.9975 8.54174 13.9665 7.98612 13.6122 7.63034C13.2225 7.23898 12.5893 7.23763 12.198 7.62733L7.17931 12.6247L7.17671 12.6277C7.14398 12.6605 7.11352 12.6957 7.08559 12.7328L7.08199 12.737C6.79002 13.129 6.82246 13.6865 7.17931 14.0419L12.198 19.0392L12.3103 19.1358C12.7024 19.4254 13.2579 19.392 13.6122 19.0362L13.7088 18.9238C13.9984 18.5317 13.965 17.9763 13.6092 17.622L10.3077 14.3333L18.7813 14.3333L18.917 14.3241Z" fill="white"/>
<path opacity="0.1" fill-rule="evenodd" clip-rule="evenodd" d="M26.6667 7.55467L26.6667 19.1133C26.6667 23.6515 23.4276 26.6667 18.7787 26.6667L7.88799 26.6667C3.24394 26.6667 -9.53674e-06 23.6425 -9.53674e-06 19.1133L-9.53674e-06 7.55467C-9.53674e-06 3.01629 3.23933 0 7.88799 0L18.7787 0C23.4273 0 26.6667 3.01629 26.6667 7.55467ZM24.6667 19.1133L24.6667 7.55467C24.6667 4.154 22.3534 2 18.7787 2L7.88799 2C4.31327 2 1.99999 4.154 1.99999 7.55467L1.99999 19.1133C1.99999 22.5054 4.31837 24.6667 7.88799 24.6667L18.7787 24.6667C22.3538 24.6667 24.6667 22.5137 24.6667 19.1133Z" fill="white"/>
</svg>
