<svg width="25" height="25" viewBox="0 0 25 25" fill="none" xmlns="http://www.w3.org/2000/svg">
<path opacity="0.4" d="M10.5387 18.4964H3.00317" stroke="white" stroke-width="1.5" stroke-linecap="round" stroke-linejoin="round"/>
<path fill-rule="evenodd" clip-rule="evenodd" d="M21.9978 18.4967C21.9978 20.0873 20.6546 21.3767 18.9978 21.3767C17.3409 21.3767 15.9978 20.0873 15.9978 18.4967C15.9978 16.9049 17.3409 15.6167 18.9978 15.6167C20.6546 15.6167 21.9978 16.9049 21.9978 18.4967Z" stroke="white" stroke-width="1.5" stroke-linecap="round" stroke-linejoin="round"/>
<path opacity="0.4" d="M14.4612 6.77232H21.9979" stroke="white" stroke-width="1.5" stroke-linecap="round" stroke-linejoin="round"/>
<path fill-rule="evenodd" clip-rule="evenodd" d="M3.00269 6.77209C3.00269 8.36385 4.34582 9.65209 6.00269 9.65209C7.65955 9.65209 9.00269 8.36385 9.00269 6.77209C9.00269 5.1815 7.65955 3.89209 6.00269 3.89209C4.34582 3.89209 3.00269 5.1815 3.00269 6.77209Z" stroke="white" stroke-width="1.5" stroke-linecap="round" stroke-linejoin="round"/>
</svg>
