<svg width="16" height="16" viewBox="0 0 16 16" fill="none" xmlns="http://www.w3.org/2000/svg">
<path fill-rule="evenodd" clip-rule="evenodd" d="M2.42388 1.25C1.77581 1.25 1.25 1.78465 1.25 2.4428V3.14483C1.25 3.63235 1.43539 4.10119 1.76702 4.45383L5.40133 8.31824L5.40292 8.31581C6.10453 9.03409 6.49929 10.0051 6.49929 11.0175V14.4464C6.49929 14.6755 6.73902 14.8218 6.938 14.7137L9.00767 13.5859C9.32011 13.4153 9.51509 13.0838 9.51509 12.7238V11.0085C9.51509 10.0018 9.90426 9.0349 10.5995 8.31824L14.2338 4.45383C14.5646 4.10119 14.75 3.63235 14.75 3.14483V2.4428C14.75 1.78465 14.225 1.25 13.5769 1.25H2.42388Z" stroke="#0F172A" stroke-width="1.5" stroke-linecap="round" stroke-linejoin="round"/>
</svg>
