<svg width="48" height="48" viewBox="0 0 48 48" fill="none" xmlns="http://www.w3.org/2000/svg">
<rect width="48" height="48" rx="12" fill="#A06AF9"/>
<g clip-path="url(#clip0)">
<path d="M35.781 26.375L31.781 21.375C31.6873 21.2579 31.5684 21.1634 31.4332 21.0985C31.298 21.0336 31.15 20.9999 31 21V26C31 26.7956 30.6839 27.5587 30.1213 28.1213C29.5587 28.6839 28.7956 29 28 29H19V32C19 32.2652 19.1054 32.5196 19.2929 32.7071C19.4804 32.8946 19.7348 33 20 33H31C31.15 33.0001 31.298 32.9664 31.4332 32.9015C31.5684 32.8366 31.6873 32.7421 31.781 32.625L35.781 27.625C35.923 27.4476 36.0004 27.2272 36.0004 27C36.0004 26.7728 35.923 26.5524 35.781 26.375Z" fill="white"/>
<path d="M28 27H17C16.85 27.0001 16.702 26.9664 16.5668 26.9015C16.4316 26.8366 16.3127 26.7421 16.219 26.625L12.219 21.625C12.077 21.4476 11.9996 21.2272 11.9996 21C11.9996 20.7728 12.077 20.5524 12.219 20.375L16.219 15.375C16.3127 15.2579 16.4316 15.1634 16.5668 15.0985C16.702 15.0336 16.85 14.9999 17 15H28C28.2652 15 28.5196 15.1054 28.7071 15.2929C28.8947 15.4804 29 15.7348 29 16V26C29 26.2652 28.8947 26.5196 28.7071 26.7071C28.5196 26.8946 28.2652 27 28 27Z" fill="white"/>
</g>
<defs>
<clipPath id="clip0">
<rect width="24" height="24" fill="white" transform="translate(12 12)"/>
</clipPath>
</defs>
</svg>
