<?xml version="1.0" encoding="us-ascii" standalone="no"?><svg xmlns="http://www.w3.org/2000/svg" xmlns:xlink="http://www.w3.org/1999/xlink" contentStyleType="text/css" height="424px" preserveAspectRatio="none" style="width:972px;height:424px;background:#FFFFFF;" version="1.1" viewBox="0 0 972 424" width="972px" zoomAndPan="magnify"><defs/><g><!--cluster Neon framework--><g id="cluster_Neon framework"><path d="M234.5,205.13 L353.5,205.13 A3.75,3.75 0 0 1 356,207.63 L363,230.1979 L635.5,230.1979 A2.5,2.5 0 0 1 638,232.6979 L638,414.77 A2.5,2.5 0 0 1 635.5,417.27 L234.5,417.27 A2.5,2.5 0 0 1 232,414.77 L232,207.63 A2.5,2.5 0 0 1 234.5,205.13 " fill="none" style="stroke:#000000;stroke-width:1.5;"/><line style="stroke:#000000;stroke-width:1.5;" x1="232" x2="363" y1="230.1979" y2="230.1979"/><text fill="#000000" font-family="sans-serif" font-size="14" font-weight="bold" lengthAdjust="spacing" textLength="118" x="236" y="222.0959">Neon framework</text></g><!--cluster Clients--><g id="cluster_Clients"><path d="M8.5,78.07 L56.5,78.07 A3.75,3.75 0 0 1 59,80.57 L66,103.1379 L832.5,103.1379 A2.5,2.5 0 0 1 835,105.6379 L835,178.63 A2.5,2.5 0 0 1 832.5,181.13 L8.5,181.13 A2.5,2.5 0 0 1 6,178.63 L6,80.57 A2.5,2.5 0 0 1 8.5,78.07 " fill="none" style="stroke:#000000;stroke-width:1.5;"/><line style="stroke:#000000;stroke-width:1.5;" x1="6" x2="66" y1="103.1379" y2="103.1379"/><text fill="#000000" font-family="sans-serif" font-size="14" font-weight="bold" lengthAdjust="spacing" textLength="47" x="10" y="95.0359">Clients</text></g><!--cluster OpenAPI--><g id="cluster_OpenAPI"><path d="M664.5,205.13 L726.5,205.13 A3.75,3.75 0 0 1 729,207.63 L736,230.1979 L962.5,230.1979 A2.5,2.5 0 0 1 965,232.6979 L965,305.7 A2.5,2.5 0 0 1 962.5,308.2 L664.5,308.2 A2.5,2.5 0 0 1 662,305.7 L662,207.63 A2.5,2.5 0 0 1 664.5,205.13 " fill="none" style="stroke:#000000;stroke-width:1.5;"/><line style="stroke:#000000;stroke-width:1.5;" x1="662" x2="736" y1="230.1979" y2="230.1979"/><text fill="#000000" font-family="sans-serif" font-size="14" font-weight="bold" lengthAdjust="spacing" textLength="61" x="666" y="222.0959">OpenAPI</text></g><!--entity neon_framework--><g id="elem_neon_framework"><rect fill="#F1F1F1" height="49.0679" rx="2.5" ry="2.5" style="stroke:#181818;stroke-width:0.5;" width="152" x="354" y="243.13"/><rect fill="#F1F1F1" height="10" style="stroke:#181818;stroke-width:0.5;" width="15" x="486" y="248.13"/><rect fill="#F1F1F1" height="2" style="stroke:#181818;stroke-width:0.5;" width="4" x="484" y="250.13"/><rect fill="#F1F1F1" height="2" style="stroke:#181818;stroke-width:0.5;" width="4" x="484" y="254.13"/><text fill="#000000" font-family="sans-serif" font-size="14" lengthAdjust="spacing" textLength="112" x="369" y="278.0959">neon_framework</text></g><!--entity nextcloud--><g id="elem_nextcloud"><rect fill="#F1F1F1" height="49.0679" rx="2.5" ry="2.5" style="stroke:#181818;stroke-width:0.5;" width="106" x="516" y="352.2"/><rect fill="#F1F1F1" height="10" style="stroke:#181818;stroke-width:0.5;" width="15" x="602" y="357.2"/><rect fill="#F1F1F1" height="2" style="stroke:#181818;stroke-width:0.5;" width="4" x="600" y="359.2"/><rect fill="#F1F1F1" height="2" style="stroke:#181818;stroke-width:0.5;" width="4" x="600" y="363.2"/><text fill="#000000" font-family="sans-serif" font-size="14" lengthAdjust="spacing" textLength="66" x="531" y="387.1659">nextcloud</text></g><!--entity sort_box--><g id="elem_sort_box"><rect fill="#F1F1F1" height="49.0679" rx="2.5" ry="2.5" style="stroke:#181818;stroke-width:0.5;" width="96" x="248" y="352.2"/><rect fill="#F1F1F1" height="10" style="stroke:#181818;stroke-width:0.5;" width="15" x="324" y="357.2"/><rect fill="#F1F1F1" height="2" style="stroke:#181818;stroke-width:0.5;" width="4" x="322" y="359.2"/><rect fill="#F1F1F1" height="2" style="stroke:#181818;stroke-width:0.5;" width="4" x="322" y="363.2"/><text fill="#000000" font-family="sans-serif" font-size="14" lengthAdjust="spacing" textLength="56" x="263" y="387.1659">sort_box</text></g><!--entity file_icons--><g id="elem_file_icons"><rect fill="#F1F1F1" height="49.0679" rx="2.5" ry="2.5" style="stroke:#181818;stroke-width:0.5;" width="102" x="379" y="352.2"/><rect fill="#F1F1F1" height="10" style="stroke:#181818;stroke-width:0.5;" width="15" x="461" y="357.2"/><rect fill="#F1F1F1" height="2" style="stroke:#181818;stroke-width:0.5;" width="4" x="459" y="359.2"/><rect fill="#F1F1F1" height="2" style="stroke:#181818;stroke-width:0.5;" width="4" x="459" y="363.2"/><text fill="#000000" font-family="sans-serif" font-size="14" lengthAdjust="spacing" textLength="62" x="394" y="387.1659">file_icons</text></g><!--entity neon_dashboard--><g id="elem_neon_dashboard"><rect fill="#F1F1F1" height="49.0679" rx="2.5" ry="2.5" style="stroke:#181818;stroke-width:0.5;" width="153" x="665.5" y="116.07"/><rect fill="#F1F1F1" height="10" style="stroke:#181818;stroke-width:0.5;" width="15" x="798.5" y="121.07"/><rect fill="#F1F1F1" height="2" style="stroke:#181818;stroke-width:0.5;" width="4" x="796.5" y="123.07"/><rect fill="#F1F1F1" height="2" style="stroke:#181818;stroke-width:0.5;" width="4" x="796.5" y="127.07"/><text fill="#000000" font-family="sans-serif" font-size="14" lengthAdjust="spacing" textLength="113" x="680.5" y="151.0359">neon_dashboard</text></g><!--entity neon_files--><g id="elem_neon_files"><rect fill="#F1F1F1" height="49.0679" rx="2.5" ry="2.5" style="stroke:#181818;stroke-width:0.5;" width="108" x="522" y="116.07"/><rect fill="#F1F1F1" height="10" style="stroke:#181818;stroke-width:0.5;" width="15" x="610" y="121.07"/><rect fill="#F1F1F1" height="2" style="stroke:#181818;stroke-width:0.5;" width="4" x="608" y="123.07"/><rect fill="#F1F1F1" height="2" style="stroke:#181818;stroke-width:0.5;" width="4" x="608" y="127.07"/><text fill="#000000" font-family="sans-serif" font-size="14" lengthAdjust="spacing" textLength="68" x="537" y="151.0359">neon_files</text></g><!--entity neon_news--><g id="elem_neon_news"><rect fill="#F1F1F1" height="49.0679" rx="2.5" ry="2.5" style="stroke:#181818;stroke-width:0.5;" width="115" x="372.5" y="116.07"/><rect fill="#F1F1F1" height="10" style="stroke:#181818;stroke-width:0.5;" width="15" x="467.5" y="121.07"/><rect fill="#F1F1F1" height="2" style="stroke:#181818;stroke-width:0.5;" width="4" x="465.5" y="123.07"/><rect fill="#F1F1F1" height="2" style="stroke:#181818;stroke-width:0.5;" width="4" x="465.5" y="127.07"/><text fill="#000000" font-family="sans-serif" font-size="14" lengthAdjust="spacing" textLength="75" x="387.5" y="151.0359">neon_news</text></g><!--entity neon_notes--><g id="elem_neon_notes"><rect fill="#F1F1F1" height="49.0679" rx="2.5" ry="2.5" style="stroke:#181818;stroke-width:0.5;" width="117" x="220.5" y="116.07"/><rect fill="#F1F1F1" height="10" style="stroke:#181818;stroke-width:0.5;" width="15" x="317.5" y="121.07"/><rect fill="#F1F1F1" height="2" style="stroke:#181818;stroke-width:0.5;" width="4" x="315.5" y="123.07"/><rect fill="#F1F1F1" height="2" style="stroke:#181818;stroke-width:0.5;" width="4" x="315.5" y="127.07"/><text fill="#000000" font-family="sans-serif" font-size="14" lengthAdjust="spacing" textLength="77" x="235.5" y="151.0359">neon_notes</text></g><!--entity neon_notifications--><g id="elem_neon_notifications"><rect fill="#F1F1F1" height="49.0679" rx="2.5" ry="2.5" style="stroke:#181818;stroke-width:0.5;" width="163" x="22.5" y="116.07"/><rect fill="#F1F1F1" height="10" style="stroke:#181818;stroke-width:0.5;" width="15" x="165.5" y="121.07"/><rect fill="#F1F1F1" height="2" style="stroke:#181818;stroke-width:0.5;" width="4" x="163.5" y="123.07"/><rect fill="#F1F1F1" height="2" style="stroke:#181818;stroke-width:0.5;" width="4" x="163.5" y="127.07"/><text fill="#000000" font-family="sans-serif" font-size="14" lengthAdjust="spacing" textLength="123" x="37.5" y="151.0359">neon_notifications</text></g><!--entity dynamite--><g id="elem_dynamite"><rect fill="#F1F1F1" height="49.0679" rx="2.5" ry="2.5" style="stroke:#181818;stroke-width:0.5;" width="103" x="845.5" y="243.13"/><rect fill="#F1F1F1" height="10" style="stroke:#181818;stroke-width:0.5;" width="15" x="928.5" y="248.13"/><rect fill="#F1F1F1" height="2" style="stroke:#181818;stroke-width:0.5;" width="4" x="926.5" y="250.13"/><rect fill="#F1F1F1" height="2" style="stroke:#181818;stroke-width:0.5;" width="4" x="926.5" y="254.13"/><text fill="#000000" font-family="sans-serif" font-size="14" lengthAdjust="spacing" textLength="63" x="860.5" y="278.0959">dynamite</text></g><!--entity specifications--><g id="elem_specifications"><rect fill="#F1F1F1" height="49.0679" rx="2.5" ry="2.5" style="stroke:#181818;stroke-width:0.5;" width="132" x="678" y="243.13"/><rect fill="#F1F1F1" height="10" style="stroke:#181818;stroke-width:0.5;" width="15" x="790" y="248.13"/><rect fill="#F1F1F1" height="2" style="stroke:#181818;stroke-width:0.5;" width="4" x="788" y="250.13"/><rect fill="#F1F1F1" height="2" style="stroke:#181818;stroke-width:0.5;" width="4" x="788" y="254.13"/><text fill="#000000" font-family="sans-serif" font-size="14" lengthAdjust="spacing" textLength="92" x="693" y="278.0959">specifications</text></g><!--entity app--><g id="elem_app"><rect fill="#F1F1F1" height="49.0679" rx="2.5" ry="2.5" style="stroke:#181818;stroke-width:0.5;" width="66" x="397" y="7"/><rect fill="#F1F1F1" height="10" style="stroke:#181818;stroke-width:0.5;" width="15" x="443" y="12"/><rect fill="#F1F1F1" height="2" style="stroke:#181818;stroke-width:0.5;" width="4" x="441" y="14"/><rect fill="#F1F1F1" height="2" style="stroke:#181818;stroke-width:0.5;" width="4" x="441" y="18"/><text fill="#000000" font-family="sans-serif" font-size="14" lengthAdjust="spacing" textLength="26" x="412" y="41.9659">app</text></g><!--link app to neon_dashboard--><g id="link_app_neon_dashboard"><path d="M463.48,33.52 C507.47,35.87 586.37,43.74 648,70.07 C673.57,80.99 694.1643,96.2123 711.9943,111.6523 " fill="none" id="app-to-neon_dashboard" style="stroke:#181818;stroke-width:1.0;stroke-dasharray:7.0,7.0;"/><polygon fill="#181818" points="716.53,115.58,712.3449,106.6646,712.7502,112.3069,707.1079,112.7122,716.53,115.58" style="stroke:#181818;stroke-width:1.0;"/></g><!--link app to neon_files--><g id="link_app_neon_files"><path d="M463.38,46.51 C476.85,52.83 492.2,60.94 505,70.07 C523.54,83.29 537.759,96.9616 551.129,111.3716 " fill="none" id="app-to-neon_files" style="stroke:#181818;stroke-width:1.0;stroke-dasharray:7.0,7.0;"/><polygon fill="#181818" points="555.21,115.77,552.0208,106.4518,551.8092,112.1047,546.1563,111.893,555.21,115.77" style="stroke:#181818;stroke-width:1.0;"/></g><!--link app to neon_news--><g id="link_app_neon_news"><path d="M430,56.56 C430,74.19 430,92.04 430,109.65 " fill="none" id="app-to-neon_news" style="stroke:#181818;stroke-width:1.0;stroke-dasharray:7.0,7.0;"/><polygon fill="#181818" points="430,115.65,434,106.65,430,110.65,426,106.65,430,115.65" style="stroke:#181818;stroke-width:1.0;"/></g><!--link app to neon_notes--><g id="link_app_neon_notes"><path d="M396.77,46.73 C383.33,53.08 367.96,61.15 355,70.07 C335.55,83.44 320.2,97.2747 305.78,111.6447 " fill="none" id="app-to-neon_notes" style="stroke:#181818;stroke-width:1.0;stroke-dasharray:7.0,7.0;"/><polygon fill="#181818" points="301.53,115.88,310.7285,112.3604,305.0717,112.3506,305.0815,106.6938,301.53,115.88" style="stroke:#181818;stroke-width:1.0;"/></g><!--link app to neon_notifications--><g id="link_app_neon_notifications"><path d="M396.8,33.42 C351.44,35.65 268.26,43.39 203,70.07 C176.17,81.03 154.1372,96.5726 135.2472,112.0826 " fill="none" id="app-to-neon_notifications" style="stroke:#181818;stroke-width:1.0;stroke-dasharray:7.0,7.0;"/><polygon fill="#181818" points="130.61,115.89,140.1041,113.2703,134.4743,112.7171,135.0275,107.0874,130.61,115.89" style="stroke:#181818;stroke-width:1.0;"/></g><!--link neon_dashboard to neon_framework--><g id="link_neon_dashboard_neon_framework"><path d="M697.6,165.5 C682.11,173.45 664.47,182.07 648,189.13 C601.2,209.19 552.9878,226.4898 510.4978,240.7598 " fill="none" id="neon_dashboard-to-neon_framework" style="stroke:#181818;stroke-width:1.0;"/><polygon fill="#181818" points="504.81,242.67,514.6152,243.5965,509.5498,241.0782,512.0682,236.0128,504.81,242.67" style="stroke:#181818;stroke-width:1.0;"/></g><!--link neon_files to neon_framework--><g id="link_neon_files_neon_framework"><path d="M548.19,165.42 C522.22,187.67 488.2067,216.8066 462.2567,239.0366 " fill="none" id="neon_files-to-neon_framework" style="stroke:#181818;stroke-width:1.0;"/><polygon fill="#181818" points="457.7,242.94,467.1373,240.1226,461.4972,239.6871,461.9327,234.0471,457.7,242.94" style="stroke:#181818;stroke-width:1.0;"/></g><!--link neon_news to neon_framework--><g id="link_neon_news_neon_framework"><path d="M430,165.42 C430,187.67 430,214.71 430,236.94 " fill="none" id="neon_news-to-neon_framework" style="stroke:#181818;stroke-width:1.0;"/><polygon fill="#181818" points="430,242.94,434,233.94,430,237.94,426,233.94,430,242.94" style="stroke:#181818;stroke-width:1.0;"/></g><!--link neon_notes to neon_framework--><g id="link_neon_notes_neon_framework"><path d="M307.76,165.42 C334.54,187.6 369.6398,216.672 396.4698,238.902 " fill="none" id="neon_notes-to-neon_framework" style="stroke:#181818;stroke-width:1.0;"/><polygon fill="#181818" points="401.09,242.73,396.7118,233.9078,397.2399,239.54,391.6077,240.068,401.09,242.73" style="stroke:#181818;stroke-width:1.0;"/></g><!--link neon_notifications to neon_framework--><g id="link_neon_notifications_neon_framework"><path d="M151.07,165.61 C167.34,173.52 185.8,182.09 203,189.13 C252.34,209.32 303.3803,226.8563 347.7903,241.1963 " fill="none" id="neon_notifications-to-neon_framework" style="stroke:#181818;stroke-width:1.0;"/><polygon fill="#181818" points="353.5,243.04,346.1645,236.468,348.7419,241.5036,343.7063,244.081,353.5,243.04" style="stroke:#181818;stroke-width:1.0;"/></g><!--link neon_framework to nextcloud--><g id="link_neon_framework_nextcloud"><path d="M461.19,292.7 C484.09,310.33 510.287,330.5081 533.157,348.1281 " fill="none" id="neon_framework-to-nextcloud" style="stroke:#181818;stroke-width:1.0;"/><polygon fill="#181818" points="537.91,351.79,533.2218,343.1285,533.9492,348.7384,528.3393,349.4658,537.91,351.79" style="stroke:#181818;stroke-width:1.0;"/></g><!--link neon_framework to sort_box--><g id="link_neon_framework_sort_box"><path d="M399.93,292.7 C377.86,310.33 352.7073,330.4244 330.6573,348.0444 " fill="none" id="neon_framework-to-sort_box" style="stroke:#181818;stroke-width:1.0;"/><polygon fill="#181818" points="325.97,351.79,335.498,349.2965,329.8761,348.6687,330.5039,343.0468,325.97,351.79" style="stroke:#181818;stroke-width:1.0;"/></g><!--link neon_framework to file_icons--><g id="link_neon_framework_file_icons"><path d="M430,292.7 C430,310.33 430,328.17 430,345.79 " fill="none" id="neon_framework-to-file_icons" style="stroke:#181818;stroke-width:1.0;"/><polygon fill="#181818" points="430,351.79,434,342.79,430,346.79,426,342.79,430,351.79" style="stroke:#181818;stroke-width:1.0;"/></g><!--link dynamite to nextcloud--><g id="link_dynamite_nextcloud"><path d="M867.08,292.58 C855.18,301.1 841,310.09 827,316.2 C759.7,345.59 681.8672,360.6141 628.3872,368.4141 " fill="none" id="dynamite-to-nextcloud" style="stroke:#181818;stroke-width:1.0;"/><polygon fill="#181818" points="622.45,369.28,631.9331,371.9392,627.3977,368.5584,630.7785,364.023,622.45,369.28" style="stroke:#181818;stroke-width:1.0;"/></g><!--link specifications to nextcloud--><g id="link_specifications_nextcloud"><path d="M704.73,292.7 C675.91,310.33 642.0476,331.0379 613.2576,348.6579 " fill="none" id="specifications-to-nextcloud" style="stroke:#181818;stroke-width:1.0;"/><polygon fill="#181818" points="608.14,351.79,617.9045,350.5036,612.4047,349.1799,613.7284,343.6801,608.14,351.79" style="stroke:#181818;stroke-width:1.0;"/></g><!--SRC=[VP9D3i8W48Ntd8AuroCqCQxSg3TeA4oLs3AaO5fZlBluqrP6i8iktaVclPSPA-HP784lTe26rvreeSVklE0tniCdiRLem7Xk0Yyd_WC7BnkyAA8xx7nPuK3aMZTGQed6iJjZTeomQNIWBkEjX3jLA3gL31OckXGmqATrz903kjPIU4tZxIsOzM7x6qzTZMYr1rhUWen7pKnOorZuyTMgeFKY-LqiabwLOkLLXafVtYosuCjbGHSwksNfqpWFdnd-qJbEwjKduYHytendbO3JRINOru6nSJjaOhmT0Xy0]--></g></svg>